<svg width="2255" height="827" viewBox="0 0 2255 827" fill="none" xmlns="http://www.w3.org/2000/svg">
<path fill-rule="evenodd" clip-rule="evenodd" d="M2095.73 132.085C2358.07 185.563 2246.49 315.052 2108.42 304.352C1813.51 281.497 1376.8 318.455 1188.8 312.934C1060.83 309.167 1081.46 201.013 1214.45 167.416C1235.19 162.194 1363.52 165.618 1504.56 70.1759C1699.4 -61.7102 1962.92 105.014 2095.73 132.085Z" fill="#F1F0EA"/>
<path fill-rule="evenodd" clip-rule="evenodd" d="M2127.49 251.445V253.161C2127.49 253.632 2127.07 254.017 2126.57 254.017H1291.32C1290.82 254.017 1290.41 253.632 1290.41 253.161V251.445C1290.41 250.974 1290.82 250.589 1291.32 250.589H2126.57C2127.07 250.589 2127.49 250.974 2127.49 251.445Z" fill="#687274"/>
<path fill-rule="evenodd" clip-rule="evenodd" d="M158.713 645.085C-103.626 698.563 7.95032 828.052 146.021 817.352C440.928 794.497 877.646 831.455 1065.65 825.934C1193.61 822.167 1172.98 714.013 1039.99 680.416C1019.25 675.194 890.927 678.618 749.887 583.176C555.042 451.29 291.525 618.014 158.713 645.085Z" fill="#F1F0EA"/>
<path fill-rule="evenodd" clip-rule="evenodd" d="M126.956 764.445V766.161C126.956 766.632 127.37 767.017 127.877 767.017H963.123C963.625 767.017 964.032 766.632 964.032 766.161V764.445C964.032 763.974 963.625 763.589 963.123 763.589H127.877C127.37 763.589 126.956 763.974 126.956 764.445Z" fill="#687274"/>
<path d="M580.508 28.3984C583.242 28.3984 585.703 28.8672 587.891 29.8047C590.156 30.6641 592.227 31.6406 594.102 32.7344C596.055 33.8281 597.891 34.8438 599.609 35.7812C601.328 36.6406 603.086 37.0703 604.883 37.0703C606.289 36.9922 607.891 36.7969 609.688 36.4844C611.25 36.1719 613.047 35.7031 615.078 35.0781C617.188 34.375 619.531 33.3594 622.109 32.0312C619.531 34.5313 617.422 36.6406 615.781 38.3594C614.219 40 613.008 41.3672 612.148 42.4609C611.133 43.7109 610.391 44.6875 609.922 45.3906C609.453 46.25 608.75 47.5391 607.812 49.2578C606.953 50.8203 605.781 52.9297 604.297 55.5859C602.812 58.1641 600.938 61.5625 598.672 65.7812C598.672 60.3906 598.125 56.2109 597.031 53.2422C596.016 50.2734 594.883 48.0078 593.633 46.4453C592.148 44.6484 590.469 43.5156 588.594 43.0469C586.875 42.8125 585.156 43.125 583.438 43.9844C581.719 44.7656 580 45.9375 578.281 47.5C576.641 49.0625 575.039 50.9375 573.477 53.125C571.992 55.2344 570.625 57.4609 569.375 59.8047C568.203 62.1484 567.227 64.5312 566.445 66.9531C565.664 69.2969 565.156 71.4844 564.922 73.5156C564.688 75.3125 564.648 77.4219 564.805 79.8438C564.961 82.1875 565.312 84.6094 565.859 87.1094C566.406 89.5312 567.109 91.9141 567.969 94.2578C568.828 96.6016 569.883 98.7109 571.133 100.586C572.461 102.383 573.945 103.867 575.586 105.039C577.227 106.133 579.102 106.641 581.211 106.562C583.555 106.406 585.859 105.703 588.125 104.453C590.078 103.438 592.07 101.875 594.102 99.7656C596.133 97.5781 597.891 94.4922 599.375 90.5078L616.719 93.6719C611.719 99.7656 606.836 104.336 602.07 107.383C597.383 110.43 593.164 112.578 589.414 113.828C585.039 115.234 580.898 115.898 576.992 115.82C572.07 115.273 567.461 113.789 563.164 111.367C558.867 108.945 555.156 106.016 552.031 102.578C548.984 99.0625 546.602 95.2344 544.883 91.0938C543.164 86.9531 542.422 82.8906 542.656 78.9062C542.812 76.25 543.359 73.1641 544.297 69.6484C545.234 66.0547 546.484 62.3828 548.047 58.6328C549.688 54.8828 551.641 51.2109 553.906 47.6172C556.172 44.0234 558.672 40.8203 561.406 38.0078C564.141 35.1172 567.109 32.8125 570.312 31.0938C573.594 29.2969 576.992 28.3984 580.508 28.3984ZM617.305 26.1719C619.102 26.4844 620.742 26.7187 622.227 26.875C623.711 26.9531 624.961 27.0313 625.977 27.1094C627.148 27.1875 628.164 27.2266 629.023 27.2266C630.195 27.1484 631.562 27.0313 633.125 26.875C634.453 26.7187 636.055 26.5234 637.93 26.2891C639.883 26.0547 642.109 25.7422 644.609 25.3516C643.438 25.9766 642.461 26.6016 641.68 27.2266C640.898 27.7734 640.273 28.3594 639.805 28.9844C639.258 29.6875 638.828 30.3516 638.516 30.9766C638.125 31.9922 637.695 34.1016 637.227 37.3047C636.758 40.0391 636.172 44.1016 635.469 49.4922C634.844 54.8828 634.023 62.1875 633.008 71.4062C635.82 68.5938 638.477 66.4844 640.977 65.0781C643.555 63.5938 645.82 62.5391 647.773 61.9141C650.039 61.2109 652.148 60.8594 654.102 60.8594C656.523 61.0938 658.984 61.875 661.484 63.2031C664.062 64.4531 666.445 65.9375 668.633 67.6562C670.898 69.375 672.852 71.2109 674.492 73.1641C676.211 75.1172 677.422 76.8359 678.125 78.3203C678.594 79.3359 678.828 80.6641 678.828 82.3047C678.828 83.8672 678.672 85.5859 678.359 87.4609C678.047 89.3359 677.617 91.25 677.07 93.2031C676.523 95.1562 675.977 96.9922 675.43 98.7109C674.961 100.43 674.531 101.953 674.141 103.281C673.75 104.531 673.516 105.43 673.438 105.977C673.281 107.148 673.359 108.281 673.672 109.375C673.906 110.312 674.375 111.328 675.078 112.422C675.781 113.438 676.836 114.297 678.242 115C677.148 114.844 675.977 114.727 674.727 114.648C673.555 114.492 672.422 114.375 671.328 114.297C670.078 114.219 668.828 114.18 667.578 114.18H663.359C662.031 114.18 660.508 114.219 658.789 114.297C657.07 114.297 655.195 114.336 653.164 114.414C654.258 114.023 655.195 113.516 655.977 112.891C656.758 112.188 657.422 111.523 657.969 110.898C658.594 110.195 659.141 109.453 659.609 108.672C659.922 108.047 660.312 106.875 660.781 105.156C661.25 103.359 661.68 101.328 662.07 99.0625C662.461 96.7188 662.734 94.2578 662.891 91.6797C663.125 89.1016 663.164 86.6406 663.008 84.2969C662.93 81.875 662.578 79.7266 661.953 77.8516C661.406 75.9766 660.547 74.6094 659.375 73.75C655.859 71.0938 652.656 69.8047 649.766 69.8828C646.953 69.8828 644.258 71.0156 641.68 73.2812C640.742 74.1406 639.844 75 638.984 75.8594C638.203 76.6406 637.344 77.5781 636.406 78.6719C635.469 79.6875 634.609 80.7422 633.828 81.8359C633.828 83.0078 633.867 84.2969 633.945 85.7031C634.023 87.1094 634.102 88.4766 634.18 89.8047C634.258 91.2891 634.375 92.7734 634.531 94.2578C634.688 96.5234 634.922 98.75 635.234 100.938C635.469 102.812 635.781 104.883 636.172 107.148C636.562 109.336 637.07 111.328 637.695 113.125C636.68 112.969 635.625 112.93 634.531 113.008C633.438 113.008 632.383 113.008 631.367 113.008C630.195 113.086 629.062 113.125 627.969 113.125C626.953 113.203 625.898 113.32 624.805 113.477C623.867 113.633 622.852 113.789 621.758 113.945C620.664 114.023 619.609 114.18 618.594 114.414C619.531 112.617 620.312 110.859 620.938 109.141C621.562 107.344 622.07 105.781 622.461 104.453C622.93 102.891 623.32 101.367 623.633 99.8828C623.867 98.7109 624.023 96.4844 624.102 93.2031C624.258 89.8438 624.375 86.0156 624.453 81.7188C624.531 77.3438 624.57 72.7344 624.57 67.8906C624.57 63.0469 624.531 58.4375 624.453 54.0625C624.375 49.6875 624.219 45.8594 623.984 42.5781C623.828 39.2969 623.633 37.0312 623.398 35.7812C623.086 34.5313 622.656 33.2812 622.109 32.0312C621.641 30.9375 621.016 29.8828 620.234 28.8672C619.453 27.7734 618.477 26.875 617.305 26.1719ZM692.305 67.5391C692.695 67.0703 692.93 66.2109 693.008 64.9609C693.164 63.6328 693.477 62.1484 693.945 60.5078C694.492 58.8672 695.391 57.1484 696.641 55.3516C697.891 53.5547 699.922 51.875 702.734 50.3125C705.469 48.75 708.125 47.8125 710.703 47.5C713.281 47.1875 715.742 47.3047 718.086 47.8516C720.43 48.3984 722.617 49.2578 724.648 50.4297C726.758 51.6016 728.672 52.8906 730.391 54.2969C731.562 55.2344 732.5 56.6016 733.203 58.3984C733.906 60.1172 734.453 62.0703 734.844 64.2578C735.234 66.4453 735.508 68.75 735.664 71.1719C735.898 73.5156 736.055 75.8203 736.133 78.0859C736.211 80.2734 736.25 82.3047 736.25 84.1797C736.328 85.9766 736.484 87.4609 736.719 88.6328C737.031 90.3516 737.578 91.8359 738.359 93.0859C739.141 94.2578 740 95.2734 740.938 96.1328C741.875 96.9141 742.812 97.5391 743.75 98.0078C744.688 98.4766 745.508 98.8281 746.211 99.0625C746.68 99.2969 747.109 99.4531 747.5 99.5312C748.281 99.8438 748.828 99.8438 749.141 99.5312C748.672 100.625 748.242 101.562 747.852 102.344C747.461 103.125 747.148 103.789 746.914 104.336C746.602 104.961 746.328 105.469 746.094 105.859C745.859 106.328 745.586 106.758 745.273 107.148C745.039 107.539 744.727 107.969 744.336 108.438C743.945 108.906 743.555 109.414 743.164 109.961C742.148 109.57 741.172 109.102 740.234 108.555C739.375 108.008 738.594 107.5 737.891 107.031C737.031 106.484 736.25 105.938 735.547 105.391C734.844 104.844 734.18 104.219 733.555 103.516C733.008 102.891 732.422 102.227 731.797 101.523C731.25 100.82 730.781 100.039 730.391 99.1797C729.922 100.195 728.789 101.641 726.992 103.516C725.273 105.391 723.008 107.109 720.195 108.672C717.383 110.156 714.102 111.211 710.352 111.836C706.68 112.461 702.617 112.031 698.164 110.547C696.211 109.922 694.375 109.023 692.656 107.852C690.938 106.602 689.453 105.117 688.203 103.398C687.031 101.68 686.172 99.7266 685.625 97.5391C685.156 95.2734 685.195 92.7734 685.742 90.0391C686.289 87.3047 687.266 85 688.672 83.125C690.078 81.25 691.758 79.7266 693.711 78.5547C695.664 77.3828 697.852 76.4844 700.273 75.8594C702.695 75.2344 705.195 74.8047 707.773 74.5703C709.805 74.4922 711.836 74.6094 713.867 74.9219C715.586 75.2344 717.383 75.8203 719.258 76.6797C721.133 77.4609 722.734 78.6719 724.062 80.3125C723.984 76.1719 723.828 72.8906 723.594 70.4688C723.438 67.9688 723.281 66.0547 723.125 64.7266C722.812 63.1641 722.539 62.0703 722.305 61.4453C721.914 60.8984 721.484 60.2734 721.016 59.5703C720.625 58.8672 720.117 58.2422 719.492 57.6953C718.867 57.0703 718.086 56.5625 717.148 56.1719C716.211 55.7812 715.117 55.625 713.867 55.7031C712.539 55.7812 711.484 56.1328 710.703 56.7578C709.922 57.3828 709.297 58.125 708.828 58.9844C708.438 59.7656 708.203 60.625 708.125 61.5625C708.047 62.5 708.086 63.3203 708.242 64.0234C708.398 64.4922 708.633 65 708.945 65.5469C709.258 66.0156 709.688 66.5234 710.234 67.0703C710.781 67.6172 711.523 68.0859 712.461 68.4766C710.664 68.7109 709.062 68.9062 707.656 69.0625C706.25 69.1406 705.039 69.2578 704.023 69.4141C702.852 69.5703 701.836 69.6875 700.977 69.7656C700.117 69.8438 699.102 70 697.93 70.2344C696.914 70.3906 695.664 70.5859 694.18 70.8203C692.695 71.0547 690.977 71.3672 689.023 71.7578C689.492 71.2109 689.922 70.7031 690.312 70.2344C690.703 69.6875 691.055 69.2188 691.367 68.8281C691.68 68.3594 691.992 67.9297 692.305 67.5391ZM709.883 81.4844C708.477 81.5625 707.07 81.9141 705.664 82.5391C704.258 83.0859 703.008 83.9062 701.914 85C700.82 86.0156 699.883 87.2266 699.102 88.6328C698.398 89.9609 698.047 91.4453 698.047 93.0859C698.047 94.7266 698.438 96.1719 699.219 97.4219C700.078 98.5938 701.172 99.5703 702.5 100.352C703.906 101.133 705.391 101.602 706.953 101.758C708.594 101.914 710.195 101.758 711.758 101.289C713.242 100.742 714.648 99.8828 715.977 98.7109C717.305 97.4609 718.438 96.1328 719.375 94.7266C720.312 93.2422 720.977 91.7969 721.367 90.3906C721.758 88.9062 721.797 87.6953 721.484 86.7578C720.859 84.7266 719.453 83.3203 717.266 82.5391C715.078 81.6797 712.617 81.3281 709.883 81.4844ZM751.602 102.109C752.148 99.5312 752.539 97.2656 752.773 95.3125C753.086 93.2812 753.32 91.6016 753.477 90.2734C753.633 88.7109 753.711 87.3828 753.711 86.2891C753.633 84.9609 753.555 83.3984 753.477 81.6016C753.477 79.7266 753.398 77.8906 753.242 76.0938C753.164 74.2188 753.047 72.5781 752.891 71.1719C752.734 69.6875 752.539 68.6328 752.305 68.0078C751.992 67.3828 751.562 66.7188 751.016 66.0156C749.922 64.6875 748.32 63.3984 746.211 62.1484C748.008 61.7578 749.531 61.4453 750.781 61.2109C752.109 60.8984 753.203 60.625 754.062 60.3906C755 60.0781 755.82 59.8047 756.523 59.5703C757.148 59.3359 757.891 59.1016 758.75 58.8672C759.453 58.7109 760.312 58.5156 761.328 58.2812C762.344 58.0469 763.516 57.7734 764.844 57.4609L764.492 68.125C766.992 65.1562 769.531 62.9297 772.109 61.4453C774.688 59.9609 777.109 58.9062 779.375 58.2812C781.953 57.5 784.492 57.1094 786.992 57.1094C790.117 57.2656 793.008 57.7734 795.664 58.6328C798.398 59.4922 800.742 60.5078 802.695 61.6797C804.727 62.7734 806.367 63.9453 807.617 65.1953C808.867 66.4453 809.609 67.5391 809.844 68.4766C810.781 71.5234 811.016 74.3359 810.547 76.9141C810.078 79.4141 809.453 81.875 808.672 84.2969C807.969 86.6406 807.344 88.9844 806.797 91.3281C806.328 93.6719 806.523 96.2109 807.383 98.9453C807.695 99.6484 808.008 100.352 808.32 101.055C808.633 101.68 809.023 102.305 809.492 102.93C809.961 103.555 810.508 104.062 811.133 104.453C810.273 104.375 809.414 104.336 808.555 104.336C807.695 104.258 806.914 104.18 806.211 104.102C805.352 104.023 804.57 103.945 803.867 103.867C803.086 103.789 802.031 103.75 800.703 103.75C798.438 103.75 794.922 103.867 790.156 104.102C790.859 102.461 791.406 101.094 791.797 100C792.266 98.8281 792.656 97.8906 792.969 97.1875C793.281 96.3281 793.516 95.6641 793.672 95.1953C794.609 92.9297 795.156 90.3516 795.312 87.4609C795.547 84.5703 795.352 81.6406 794.727 78.6719C794.492 77.6562 794.102 76.4453 793.555 75.0391C793.008 73.6328 792.266 72.2656 791.328 70.9375C790.469 69.6094 789.414 68.4766 788.164 67.5391C786.992 66.6016 785.625 66.0547 784.062 65.8984C782.5 65.7422 780.742 66.1328 778.789 67.0703C776.914 68.0078 774.883 69.7266 772.695 72.2266C771.055 74.3359 769.766 76.9141 768.828 79.9609C767.969 82.5391 767.383 85.7812 767.07 89.6875C766.758 93.5156 767.227 98.0078 768.477 103.164C767.383 103.008 766.367 102.93 765.43 102.93C764.492 102.852 763.711 102.773 763.086 102.695C762.305 102.617 761.602 102.539 760.977 102.461C760.273 102.461 759.492 102.422 758.633 102.344C757.852 102.344 756.875 102.344 755.703 102.344C754.531 102.266 753.164 102.188 751.602 102.109ZM873.594 65.3125C873.359 63.75 873.164 62.4609 873.008 61.4453C872.852 60.3516 872.695 59.4922 872.539 58.8672C872.383 58.0859 872.266 57.5 872.188 57.1094C872.031 56.7188 871.836 56.2891 871.602 55.8203C871.445 55.4297 871.172 54.9609 870.781 54.4141C870.469 53.8672 870.078 53.2422 869.609 52.5391C870.625 52.8516 871.641 53.0469 872.656 53.125C873.75 53.2031 874.766 53.2813 875.703 53.3594C876.719 53.4375 877.773 53.4375 878.867 53.3594C879.961 53.3594 881.211 53.3203 882.617 53.2422C883.867 53.1641 885.352 53.125 887.07 53.125C888.867 53.0469 890.898 52.9297 893.164 52.7734C891.836 53.0859 890.703 53.6328 889.766 54.4141C888.906 55.1172 888.164 55.8984 887.539 56.7578C886.836 57.6953 886.25 58.7109 885.781 59.8047C885.391 60.8203 885.156 62.7734 885.078 65.6641C885 68.4766 885 71.8359 885.078 75.7422C885.156 79.5703 885.234 83.7109 885.312 88.1641C885.469 92.6172 885.547 96.875 885.547 100.938C885.625 105 885.625 108.711 885.547 112.07C885.469 115.352 885.273 117.773 884.961 119.336C883.867 124.258 881.836 128.242 878.867 131.289C875.898 134.414 871.992 136.094 867.148 136.328C861.289 136.562 856.641 136.016 853.203 134.688C849.844 133.359 847.227 131.719 845.352 129.766C843.477 127.891 842.07 125.977 841.133 124.023C840.195 122.07 839.219 120.586 838.203 119.57C837.266 118.711 836.328 117.891 835.391 117.109C834.531 116.484 833.633 115.859 832.695 115.234C831.836 114.609 830.977 114.219 830.117 114.062C832.383 114.141 834.414 114.18 836.211 114.18C838.008 114.18 839.531 114.18 840.781 114.18C842.188 114.18 843.438 114.141 844.531 114.062H848.281H858.945C857.383 114.531 856.211 115.039 855.43 115.586C854.648 116.211 854.102 116.836 853.789 117.461C853.477 118.164 853.32 118.867 853.32 119.57C853.633 121.445 854.648 122.812 856.367 123.672C858.086 124.531 860.43 125.039 863.398 125.195C866.289 125.352 868.281 125.273 869.375 124.961C870.469 124.727 871.328 124.258 871.953 123.555C873.203 121.68 874.258 119.258 875.117 116.289C875.742 113.789 876.172 110.547 876.406 106.562C876.719 102.5 876.367 97.5391 875.352 91.6797C872.852 95.1172 869.961 97.6953 866.68 99.4141C863.398 101.133 860.273 102.383 857.305 103.164C853.789 104.023 850.234 104.453 846.641 104.453C837.188 104.062 830.117 101.875 825.43 97.8906C820.742 93.9062 818.594 88.5547 818.984 81.8359C819.219 78.4766 820.234 75.1172 822.031 71.7578C823.906 68.3984 826.328 65.3906 829.297 62.7344C832.344 60.0781 835.82 57.9688 839.727 56.4062C843.633 54.8437 847.695 54.1797 851.914 54.4141C855.117 54.7266 858.125 55.3125 860.938 56.1719C863.359 56.9531 865.742 58.0469 868.086 59.4531C870.508 60.8594 872.344 62.8125 873.594 65.3125ZM836.328 77.0312C835.859 80.0781 836.055 82.9297 836.914 85.5859C837.852 88.2422 839.141 90.5469 840.781 92.5C842.422 94.375 844.258 95.8594 846.289 96.9531C848.32 97.9688 850.234 98.4375 852.031 98.3594C855.781 98.2812 859.023 96.6016 861.758 93.3203C864.492 89.9609 866.133 84.9609 866.68 78.3203C866.914 75.0391 866.484 72.2266 865.391 69.8828C864.375 67.4609 863.086 65.5078 861.523 64.0234C859.961 62.5391 858.32 61.4844 856.602 60.8594C854.883 60.2344 853.516 59.9609 852.5 60.0391C851.094 60.1953 849.531 60.625 847.812 61.3281C846.172 61.9531 844.57 62.9297 843.008 64.2578C841.445 65.5078 840.039 67.1875 838.789 69.2969C837.617 71.4062 836.797 73.9844 836.328 77.0312ZM924.688 96.1328C926.875 96.1328 928.906 95.8984 930.781 95.4297C932.344 95.0391 933.828 94.4141 935.234 93.5547C936.719 92.6172 937.695 91.25 938.164 89.4531C939.727 89.7656 941.055 90.0391 942.148 90.2734C943.242 90.4297 944.18 90.5859 944.961 90.7422C945.82 90.9766 946.562 91.1328 947.188 91.2109C947.812 91.3672 948.555 91.5234 949.414 91.6797C950.195 91.8359 951.133 92.0312 952.227 92.2656C953.398 92.4219 954.766 92.6562 956.328 92.9688C955.156 92.8125 953.945 92.9297 952.695 93.3203C951.523 93.7109 950.391 94.1406 949.297 94.6094C948.047 95.1562 946.875 95.8203 945.781 96.6016C945.078 97.0703 944.258 97.7734 943.32 98.7109C942.461 99.6484 941.211 100.547 939.57 101.406C937.93 102.266 935.742 103.008 933.008 103.633C930.352 104.18 926.914 104.375 922.695 104.219C917.617 104.062 913.359 103.164 909.922 101.523C906.484 99.8047 903.711 97.7344 901.602 95.3125C899.492 92.8125 897.969 90.1172 897.031 87.2266C896.094 84.3359 895.586 81.6406 895.508 79.1406C895.43 76.6406 896.172 74.0234 897.734 71.2891C899.297 68.5547 901.484 66.0547 904.297 63.7891C907.188 61.5234 910.664 59.6875 914.727 58.2812C918.789 56.7969 923.242 56.0547 928.086 56.0547C930.898 56.0547 933.477 56.4062 935.82 57.1094C938.242 57.7344 940.43 58.5938 942.383 59.6875C944.414 60.7812 946.172 62.0312 947.656 63.4375C949.141 64.7656 950.391 66.1328 951.406 67.5391C952.422 69.0234 953.281 70.5859 953.984 72.2266C954.609 73.6328 955.117 75.2344 955.508 77.0312C955.898 78.8281 956.016 80.6641 955.859 82.5391C949.922 82.6953 945.117 82.8125 941.445 82.8906C937.852 82.9688 935.039 83.0078 933.008 83.0078H927.734H923.75C922.344 83.0078 920.508 83.0469 918.242 83.125C915.977 83.2031 913.203 83.3203 909.922 83.4766C910.312 86.6016 911.289 89.0234 912.852 90.7422C914.492 92.3828 916.211 93.6328 918.008 94.4922C920.039 95.4297 922.266 95.9766 924.688 96.1328ZM914.141 75.0391C916.641 75.1953 918.711 75.3125 920.352 75.3906C922.07 75.4688 923.477 75.5469 924.57 75.625C925.742 75.7031 926.68 75.7422 927.383 75.7422H930.312C932.266 75.7422 935.898 75.625 941.211 75.3906C940.977 71.9531 940.234 69.3359 938.984 67.5391C937.812 65.7422 936.562 64.4141 935.234 63.5547C933.672 62.6172 931.953 62.0703 930.078 61.9141C925 61.9922 921.211 63.0469 918.711 65.0781C916.289 67.1094 914.766 70.4297 914.141 75.0391ZM550.391 247.109C550.938 244.531 551.328 242.266 551.562 240.312C551.875 238.281 552.109 236.602 552.266 235.273C552.422 233.711 552.5 232.383 552.5 231.289C552.422 229.961 552.344 228.398 552.266 226.602C552.266 224.727 552.188 222.891 552.031 221.094C551.953 219.219 551.836 217.578 551.68 216.172C551.523 214.688 551.328 213.633 551.094 213.008C550.781 212.383 550.352 211.719 549.805 211.016C548.711 209.688 547.109 208.398 545 207.148C546.797 206.758 548.32 206.445 549.57 206.211C550.898 205.898 551.992 205.625 552.852 205.391C553.789 205.078 554.609 204.805 555.312 204.57C555.938 204.336 556.68 204.102 557.539 203.867C558.242 203.711 559.102 203.516 560.117 203.281C561.133 203.047 562.305 202.773 563.633 202.461L563.281 213.125C565.781 210.156 568.32 207.93 570.898 206.445C573.477 204.961 575.898 203.906 578.164 203.281C580.742 202.5 583.281 202.109 585.781 202.109C588.906 202.266 591.797 202.773 594.453 203.633C597.188 204.492 599.531 205.508 601.484 206.68C603.516 207.773 605.156 208.945 606.406 210.195C607.656 211.445 608.398 212.539 608.633 213.477C609.57 216.523 609.805 219.336 609.336 221.914C608.867 224.414 608.242 226.875 607.461 229.297C606.758 231.641 606.133 233.984 605.586 236.328C605.117 238.672 605.312 241.211 606.172 243.945C606.484 244.648 606.797 245.352 607.109 246.055C607.422 246.68 607.812 247.305 608.281 247.93C608.75 248.555 609.297 249.062 609.922 249.453C609.062 249.375 608.203 249.336 607.344 249.336C606.484 249.258 605.703 249.18 605 249.102C604.141 249.023 603.359 248.945 602.656 248.867C601.875 248.789 600.82 248.75 599.492 248.75C597.227 248.75 593.711 248.867 588.945 249.102C589.648 247.461 590.195 246.094 590.586 245C591.055 243.828 591.445 242.891 591.758 242.188C592.07 241.328 592.305 240.664 592.461 240.195C593.398 237.93 593.945 235.352 594.102 232.461C594.336 229.57 594.141 226.641 593.516 223.672C593.281 222.656 592.891 221.445 592.344 220.039C591.797 218.633 591.055 217.266 590.117 215.938C589.258 214.609 588.203 213.477 586.953 212.539C585.781 211.602 584.414 211.055 582.852 210.898C581.289 210.742 579.531 211.133 577.578 212.07C575.703 213.008 573.672 214.727 571.484 217.227C569.844 219.336 568.555 221.914 567.617 224.961C566.758 227.539 566.172 230.781 565.859 234.688C565.547 238.516 566.016 243.008 567.266 248.164C566.172 248.008 565.156 247.93 564.219 247.93C563.281 247.852 562.5 247.773 561.875 247.695C561.094 247.617 560.391 247.539 559.766 247.461C559.062 247.461 558.281 247.422 557.422 247.344C556.641 247.344 555.664 247.344 554.492 247.344C553.32 247.266 551.953 247.188 550.391 247.109ZM625.859 212.539C626.25 212.07 626.484 211.211 626.562 209.961C626.719 208.633 627.031 207.148 627.5 205.508C628.047 203.867 628.945 202.148 630.195 200.352C631.445 198.555 633.477 196.875 636.289 195.312C639.023 193.75 641.68 192.812 644.258 192.5C646.836 192.188 649.297 192.305 651.641 192.852C653.984 193.398 656.172 194.258 658.203 195.43C660.312 196.602 662.227 197.891 663.945 199.297C665.117 200.234 666.055 201.602 666.758 203.398C667.461 205.117 668.008 207.07 668.398 209.258C668.789 211.445 669.062 213.75 669.219 216.172C669.453 218.516 669.609 220.82 669.688 223.086C669.766 225.273 669.805 227.305 669.805 229.18C669.883 230.977 670.039 232.461 670.273 233.633C670.586 235.352 671.133 236.836 671.914 238.086C672.695 239.258 673.555 240.273 674.492 241.133C675.43 241.914 676.367 242.539 677.305 243.008C678.242 243.477 679.062 243.828 679.766 244.062C680.234 244.297 680.664 244.453 681.055 244.531C681.836 244.844 682.383 244.844 682.695 244.531C682.227 245.625 681.797 246.562 681.406 247.344C681.016 248.125 680.703 248.789 680.469 249.336C680.156 249.961 679.883 250.469 679.648 250.859C679.414 251.328 679.141 251.758 678.828 252.148C678.594 252.539 678.281 252.969 677.891 253.438C677.5 253.906 677.109 254.414 676.719 254.961C675.703 254.57 674.727 254.102 673.789 253.555C672.93 253.008 672.148 252.5 671.445 252.031C670.586 251.484 669.805 250.938 669.102 250.391C668.398 249.844 667.734 249.219 667.109 248.516C666.562 247.891 665.977 247.227 665.352 246.523C664.805 245.82 664.336 245.039 663.945 244.18C663.477 245.195 662.344 246.641 660.547 248.516C658.828 250.391 656.562 252.109 653.75 253.672C650.938 255.156 647.656 256.211 643.906 256.836C640.234 257.461 636.172 257.031 631.719 255.547C629.766 254.922 627.93 254.023 626.211 252.852C624.492 251.602 623.008 250.117 621.758 248.398C620.586 246.68 619.727 244.727 619.18 242.539C618.711 240.273 618.75 237.773 619.297 235.039C619.844 232.305 620.82 230 622.227 228.125C623.633 226.25 625.312 224.727 627.266 223.555C629.219 222.383 631.406 221.484 633.828 220.859C636.25 220.234 638.75 219.805 641.328 219.57C643.359 219.492 645.391 219.609 647.422 219.922C649.141 220.234 650.938 220.82 652.812 221.68C654.688 222.461 656.289 223.672 657.617 225.312C657.539 221.172 657.383 217.891 657.148 215.469C656.992 212.969 656.836 211.055 656.68 209.727C656.367 208.164 656.094 207.07 655.859 206.445C655.469 205.898 655.039 205.273 654.57 204.57C654.18 203.867 653.672 203.242 653.047 202.695C652.422 202.07 651.641 201.562 650.703 201.172C649.766 200.781 648.672 200.625 647.422 200.703C646.094 200.781 645.039 201.133 644.258 201.758C643.477 202.383 642.852 203.125 642.383 203.984C641.992 204.766 641.758 205.625 641.68 206.562C641.602 207.5 641.641 208.32 641.797 209.023C641.953 209.492 642.188 210 642.5 210.547C642.812 211.016 643.242 211.523 643.789 212.07C644.336 212.617 645.078 213.086 646.016 213.477C644.219 213.711 642.617 213.906 641.211 214.062C639.805 214.141 638.594 214.258 637.578 214.414C636.406 214.57 635.391 214.688 634.531 214.766C633.672 214.844 632.656 215 631.484 215.234C630.469 215.391 629.219 215.586 627.734 215.82C626.25 216.055 624.531 216.367 622.578 216.758C623.047 216.211 623.477 215.703 623.867 215.234C624.258 214.688 624.609 214.219 624.922 213.828C625.234 213.359 625.547 212.93 625.859 212.539ZM643.438 226.484C642.031 226.562 640.625 226.914 639.219 227.539C637.812 228.086 636.562 228.906 635.469 230C634.375 231.016 633.438 232.227 632.656 233.633C631.953 234.961 631.602 236.445 631.602 238.086C631.602 239.727 631.992 241.172 632.773 242.422C633.633 243.594 634.727 244.57 636.055 245.352C637.461 246.133 638.945 246.602 640.508 246.758C642.148 246.914 643.75 246.758 645.312 246.289C646.797 245.742 648.203 244.883 649.531 243.711C650.859 242.461 651.992 241.133 652.93 239.727C653.867 238.242 654.531 236.797 654.922 235.391C655.312 233.906 655.352 232.695 655.039 231.758C654.414 229.727 653.008 228.32 650.82 227.539C648.633 226.68 646.172 226.328 643.438 226.484ZM680.938 204.453C682.734 204.297 684.258 204.141 685.508 203.984C686.836 203.828 687.93 203.672 688.789 203.516C689.805 203.359 690.664 203.203 691.367 203.047C692.07 202.969 692.852 202.812 693.711 202.578C694.492 202.422 695.352 202.227 696.289 201.992C697.305 201.68 698.398 201.328 699.57 200.938L698.867 215.82C700.586 213.086 702.578 211.016 704.844 209.609C707.109 208.125 709.258 207.031 711.289 206.328C713.711 205.469 716.133 204.961 718.555 204.805C721.055 204.883 723.359 205.273 725.469 205.977C727.266 206.602 729.062 207.578 730.859 208.906C732.734 210.234 734.18 212.188 735.195 214.766C737.852 212.031 740.469 209.922 743.047 208.438C745.703 206.875 748.047 205.703 750.078 204.922C752.5 204.062 754.766 203.555 756.875 203.398C759.688 203.32 762.266 203.789 764.609 204.805C767.031 205.82 769.141 207.109 770.938 208.672C772.734 210.156 774.18 211.758 775.273 213.477C776.367 215.117 776.992 216.562 777.148 217.812C777.383 219.531 777.266 221.758 776.797 224.492C776.328 227.148 775.781 229.883 775.156 232.695C774.531 235.43 773.945 237.969 773.398 240.312C772.93 242.578 772.734 244.18 772.812 245.117C773.047 245.898 773.594 246.836 774.453 247.93C775.234 248.867 776.367 250.039 777.852 251.445C779.414 252.773 781.641 254.336 784.531 256.133C782.031 256.055 779.805 255.977 777.852 255.898C775.977 255.82 774.375 255.703 773.047 255.547C771.484 255.391 770.117 255.273 768.945 255.195C768.008 255.195 766.875 255.117 765.547 254.961C764.453 254.883 763.008 254.766 761.211 254.609C759.492 254.453 757.5 254.297 755.234 254.141C756.094 253.906 756.797 253.477 757.344 252.852C757.891 252.148 758.359 251.484 758.75 250.859C759.141 250.078 759.453 249.219 759.688 248.281C759.844 247.5 760 246.25 760.156 244.531C760.312 242.812 760.43 240.859 760.508 238.672C760.664 236.484 760.742 234.18 760.742 231.758C760.82 229.336 760.82 227.031 760.742 224.844C760.664 222.656 760.508 220.664 760.273 218.867C760.039 217.07 759.727 215.703 759.336 214.766C759.023 214.062 758.477 213.516 757.695 213.125C756.914 212.656 756.016 212.383 755 212.305C753.984 212.148 752.969 212.188 751.953 212.422C750.938 212.578 750.039 212.891 749.258 213.359C748.555 213.906 747.617 214.648 746.445 215.586C745.43 216.445 744.102 217.617 742.461 219.102C740.82 220.586 738.75 222.461 736.25 224.727C736.016 229.648 735.82 233.633 735.664 236.68C735.586 239.648 735.508 241.914 735.43 243.477C735.352 245.352 735.312 246.641 735.312 247.344C735.234 247.969 735.273 248.555 735.43 249.102C735.586 250.273 736.055 251.367 736.836 252.383C735.898 252.148 734.883 251.992 733.789 251.914C732.773 251.836 731.836 251.758 730.977 251.68C729.961 251.602 728.945 251.562 727.93 251.562C727.07 251.562 726.133 251.602 725.117 251.68C724.258 251.758 723.203 251.875 721.953 252.031C720.703 252.109 719.336 252.227 717.852 252.383C718.477 251.992 718.984 251.523 719.375 250.977C719.766 250.43 720.078 249.922 720.312 249.453C720.625 248.906 720.859 248.398 721.016 247.93C721.094 247.461 721.25 246.328 721.484 244.531C721.719 242.656 721.875 240.469 721.953 237.969C722.031 235.469 722.031 232.852 721.953 230.117C721.875 227.305 721.602 224.766 721.133 222.5C720.664 220.156 719.922 218.242 718.906 216.758C717.969 215.273 716.719 214.609 715.156 214.766C713.281 214.922 711.367 215.391 709.414 216.172C707.773 216.797 706.016 217.734 704.141 218.984C702.266 220.234 700.508 221.914 698.867 224.023C698.555 229.883 698.359 234.531 698.281 237.969C698.281 241.406 698.32 244.023 698.398 245.82C698.477 247.93 698.555 249.375 698.633 250.156C698.711 250.703 698.906 251.25 699.219 251.797C699.453 252.266 699.727 252.812 700.039 253.438C700.43 254.062 700.859 254.648 701.328 255.195L682.695 254.258C683.32 253.945 683.867 253.555 684.336 253.086C684.805 252.539 685.195 251.992 685.508 251.445C685.82 250.82 686.133 250.195 686.445 249.57C686.68 249.023 686.875 247.734 687.031 245.703C687.266 243.672 687.461 241.289 687.617 238.555C687.773 235.742 687.891 232.812 687.969 229.766C688.125 226.641 688.203 223.75 688.203 221.094C688.281 218.359 688.32 216.055 688.32 214.18C688.32 212.227 688.281 211.055 688.203 210.664C687.969 209.883 687.539 209.062 686.914 208.203C686.367 207.578 685.625 206.914 684.688 206.211C683.75 205.43 682.5 204.844 680.938 204.453ZM815.586 241.133C817.773 241.133 819.805 240.898 821.68 240.43C823.242 240.039 824.727 239.414 826.133 238.555C827.617 237.617 828.594 236.25 829.062 234.453C830.625 234.766 831.953 235.039 833.047 235.273C834.141 235.43 835.078 235.586 835.859 235.742C836.719 235.977 837.461 236.133 838.086 236.211C838.711 236.367 839.453 236.523 840.312 236.68C841.094 236.836 842.031 237.031 843.125 237.266C844.297 237.422 845.664 237.656 847.227 237.969C846.055 237.812 844.844 237.93 843.594 238.32C842.422 238.711 841.289 239.141 840.195 239.609C838.945 240.156 837.773 240.82 836.68 241.602C835.977 242.07 835.156 242.773 834.219 243.711C833.359 244.648 832.109 245.547 830.469 246.406C828.828 247.266 826.641 248.008 823.906 248.633C821.25 249.18 817.812 249.375 813.594 249.219C808.516 249.062 804.258 248.164 800.82 246.523C797.383 244.805 794.609 242.734 792.5 240.312C790.391 237.812 788.867 235.117 787.93 232.227C786.992 229.336 786.484 226.641 786.406 224.141C786.328 221.641 787.07 219.023 788.633 216.289C790.195 213.555 792.383 211.055 795.195 208.789C798.086 206.523 801.562 204.688 805.625 203.281C809.688 201.797 814.141 201.055 818.984 201.055C821.797 201.055 824.375 201.406 826.719 202.109C829.141 202.734 831.328 203.594 833.281 204.688C835.312 205.781 837.07 207.031 838.555 208.438C840.039 209.766 841.289 211.133 842.305 212.539C843.32 214.023 844.18 215.586 844.883 217.227C845.508 218.633 846.016 220.234 846.406 222.031C846.797 223.828 846.914 225.664 846.758 227.539C840.82 227.695 836.016 227.812 832.344 227.891C828.75 227.969 825.938 228.008 823.906 228.008H818.633H814.648C813.242 228.008 811.406 228.047 809.141 228.125C806.875 228.203 804.102 228.32 800.82 228.477C801.211 231.602 802.188 234.023 803.75 235.742C805.391 237.383 807.109 238.633 808.906 239.492C810.938 240.43 813.164 240.977 815.586 241.133ZM805.039 220.039C807.539 220.195 809.609 220.312 811.25 220.391C812.969 220.469 814.375 220.547 815.469 220.625C816.641 220.703 817.578 220.742 818.281 220.742H821.211C823.164 220.742 826.797 220.625 832.109 220.391C831.875 216.953 831.133 214.336 829.883 212.539C828.711 210.742 827.461 209.414 826.133 208.555C824.57 207.617 822.852 207.07 820.977 206.914C815.898 206.992 812.109 208.047 809.609 210.078C807.188 212.109 805.664 215.43 805.039 220.039ZM888.477 186.172C890.82 186.406 892.773 186.602 894.336 186.758C895.977 186.914 897.305 187.031 898.32 187.109C899.492 187.188 900.43 187.227 901.133 187.227C901.836 187.305 902.773 187.305 903.945 187.227C904.961 187.148 906.289 187.07 907.93 186.992C909.57 186.836 911.641 186.602 914.141 186.289C913.594 187.07 913.164 187.773 912.852 188.398C912.539 188.945 912.266 189.453 912.031 189.922L911.328 191.328C911.172 191.797 911.016 192.266 910.859 192.734C910.703 193.125 910.547 193.594 910.391 194.141C910.312 194.688 910.234 195.273 910.156 195.898H928.203L926.562 205.391L910.039 204.453C909.648 208.438 909.375 211.523 909.219 213.711C909.062 215.898 908.906 217.5 908.75 218.516L908.516 220.625C908.281 223.594 908.047 226.836 907.812 230.352C907.578 233.789 907.5 236.992 907.578 239.961C907.656 242.93 907.93 245.43 908.398 247.461C908.867 249.414 909.688 250.391 910.859 250.391C912.031 250.391 913.125 250.078 914.141 249.453C915.156 248.828 916.016 248.086 916.719 247.227C917.5 246.367 918.086 245.508 918.477 244.648C918.867 243.711 919.062 243.008 919.062 242.539C919.062 242.07 918.945 241.523 918.711 240.898C918.32 239.727 917.617 238.242 916.602 236.445C918.867 236.992 920.859 237.539 922.578 238.086C923.438 238.398 924.219 238.711 924.922 239.023C925.703 239.336 926.602 239.688 927.617 240.078C928.477 240.469 929.57 240.938 930.898 241.484C932.227 242.031 933.789 242.695 935.586 243.477C933.867 243.789 932.617 244.297 931.836 245C931.367 245.312 931.016 245.664 930.781 246.055C930.234 246.914 929.609 248.086 928.906 249.57C928.203 250.977 927.148 252.383 925.742 253.789C924.336 255.195 922.422 256.445 920 257.539C917.656 258.633 914.492 259.258 910.508 259.414C906.367 259.57 903.203 258.867 901.016 257.305C898.906 255.742 897.344 253.945 896.328 251.914C895.391 249.805 894.844 247.734 894.688 245.703C894.531 243.672 894.414 242.305 894.336 241.602C894.258 240.898 894.258 239.141 894.336 236.328C894.414 233.516 894.531 230.43 894.688 227.07C894.844 223.633 895 220.352 895.156 217.227C895.312 214.023 895.391 211.68 895.391 210.195C895.391 209.414 895.43 208.594 895.508 207.734C895.508 207.031 895.508 206.289 895.508 205.508C895.586 204.648 895.625 203.828 895.625 203.047L878.633 202.93L877.93 196.25L895.039 196.719C894.883 195.859 894.688 195.078 894.453 194.375C894.297 193.594 894.141 192.969 893.984 192.5C893.75 191.953 893.516 191.484 893.281 191.094C892.969 190.703 892.617 190.273 892.227 189.805C891.836 189.414 891.328 188.906 890.703 188.281C890.078 187.656 889.336 186.953 888.477 186.172ZM962.188 207.5C964.219 207.5 966.328 207.891 968.516 208.672C970.703 209.375 972.812 210.312 974.844 211.484C976.875 212.578 978.711 213.789 980.352 215.117C982.07 216.367 983.477 217.578 984.57 218.75C986.523 220.859 987.852 223.711 988.555 227.305C989.336 230.82 989.492 234.453 989.023 238.203C988.555 241.875 987.461 245.352 985.742 248.633C984.023 251.914 981.641 254.336 978.594 255.898C976.406 256.992 974.258 257.852 972.148 258.477C970.039 259.102 968.008 259.57 966.055 259.883C964.102 260.195 962.266 260.352 960.547 260.352C958.828 260.352 957.344 260.312 956.094 260.234C953.75 260.078 951.289 259.258 948.711 257.773C946.211 256.289 943.828 254.453 941.562 252.266C939.375 250.078 937.5 247.695 935.938 245.117C934.375 242.461 933.438 239.961 933.125 237.617C932.656 234.414 932.578 231.055 932.891 227.539C933.203 224.023 934.336 220.781 936.289 217.812C938.32 214.844 941.367 212.383 945.43 210.43C949.57 208.477 955.156 207.5 962.188 207.5ZM958.32 252.969C959.18 253.125 960.352 252.93 961.836 252.383C963.32 251.758 964.766 250.781 966.172 249.453C967.656 248.125 968.945 246.445 970.039 244.414C971.211 242.305 971.914 239.766 972.148 236.797C972.383 233.906 972.383 231.25 972.148 228.828C971.992 226.406 971.641 224.297 971.094 222.5C970.547 220.625 969.922 219.102 969.219 217.93C968.516 216.758 967.773 215.938 966.992 215.469C965.664 214.766 964.062 214.219 962.188 213.828C960.312 213.359 958.711 213.438 957.383 214.062C956.758 214.375 955.977 215.039 955.039 216.055C954.102 217.07 953.164 218.359 952.227 219.922C951.289 221.406 950.43 223.125 949.648 225.078C948.945 227.031 948.438 229.062 948.125 231.172C947.812 233.281 947.734 235.547 947.891 237.969C948.125 240.391 948.633 242.695 949.414 244.883C950.195 246.992 951.289 248.828 952.695 250.391C954.18 251.875 956.055 252.734 958.32 252.969Z" fill="#687274"/>
<path d="M1246.51 454.398C1249.24 454.398 1251.7 454.867 1253.89 455.805C1256.16 456.664 1258.23 457.641 1260.1 458.734C1262.05 459.828 1263.89 460.844 1265.61 461.781C1267.33 462.641 1269.09 463.07 1270.88 463.07C1272.29 462.992 1273.89 462.797 1275.69 462.484C1277.25 462.172 1279.05 461.703 1281.08 461.078C1283.19 460.375 1285.53 459.359 1288.11 458.031C1285.53 460.531 1283.42 462.641 1281.78 464.359C1280.22 466 1279.01 467.367 1278.15 468.461C1277.13 469.711 1276.39 470.688 1275.92 471.391C1275.45 472.25 1274.75 473.539 1273.81 475.258C1272.95 476.82 1271.78 478.93 1270.3 481.586C1268.81 484.164 1266.94 487.562 1264.67 491.781C1264.67 486.391 1264.12 482.211 1263.03 479.242C1262.02 476.273 1260.88 474.008 1259.63 472.445C1258.15 470.648 1256.47 469.516 1254.59 469.047C1252.88 468.812 1251.16 469.125 1249.44 469.984C1247.72 470.766 1246 471.938 1244.28 473.5C1242.64 475.062 1241.04 476.938 1239.48 479.125C1237.99 481.234 1236.62 483.461 1235.38 485.805C1234.2 488.148 1233.23 490.531 1232.45 492.953C1231.66 495.297 1231.16 497.484 1230.92 499.516C1230.69 501.312 1230.65 503.422 1230.8 505.844C1230.96 508.188 1231.31 510.609 1231.86 513.109C1232.41 515.531 1233.11 517.914 1233.97 520.258C1234.83 522.602 1235.88 524.711 1237.13 526.586C1238.46 528.383 1239.95 529.867 1241.59 531.039C1243.23 532.133 1245.1 532.641 1247.21 532.562C1249.55 532.406 1251.86 531.703 1254.12 530.453C1256.08 529.438 1258.07 527.875 1260.1 525.766C1262.13 523.578 1263.89 520.492 1265.38 516.508L1282.72 519.672C1277.72 525.766 1272.84 530.336 1268.07 533.383C1263.38 536.43 1259.16 538.578 1255.41 539.828C1251.04 541.234 1246.9 541.898 1242.99 541.82C1238.07 541.273 1233.46 539.789 1229.16 537.367C1224.87 534.945 1221.16 532.016 1218.03 528.578C1214.98 525.062 1212.6 521.234 1210.88 517.094C1209.16 512.953 1208.42 508.891 1208.66 504.906C1208.81 502.25 1209.36 499.164 1210.3 495.648C1211.23 492.055 1212.48 488.383 1214.05 484.633C1215.69 480.883 1217.64 477.211 1219.91 473.617C1222.17 470.023 1224.67 466.82 1227.41 464.008C1230.14 461.117 1233.11 458.812 1236.31 457.094C1239.59 455.297 1242.99 454.398 1246.51 454.398ZM1283.3 452.172C1285.1 452.484 1286.74 452.719 1288.23 452.875C1289.71 452.953 1290.96 453.031 1291.98 453.109C1293.15 453.188 1294.16 453.227 1295.02 453.227C1296.2 453.148 1297.56 453.031 1299.12 452.875C1300.45 452.719 1302.05 452.523 1303.93 452.289C1305.88 452.055 1308.11 451.742 1310.61 451.352C1309.44 451.977 1308.46 452.602 1307.68 453.227C1306.9 453.773 1306.27 454.359 1305.8 454.984C1305.26 455.688 1304.83 456.352 1304.52 456.977C1304.12 457.992 1303.7 460.102 1303.23 463.305C1302.76 466.039 1302.17 470.102 1301.47 475.492C1300.84 480.883 1300.02 488.188 1299.01 497.406C1301.82 494.594 1304.48 492.484 1306.98 491.078C1309.55 489.594 1311.82 488.539 1313.77 487.914C1316.04 487.211 1318.15 486.859 1320.1 486.859C1322.52 487.094 1324.98 487.875 1327.48 489.203C1330.06 490.453 1332.45 491.938 1334.63 493.656C1336.9 495.375 1338.85 497.211 1340.49 499.164C1342.21 501.117 1343.42 502.836 1344.12 504.32C1344.59 505.336 1344.83 506.664 1344.83 508.305C1344.83 509.867 1344.67 511.586 1344.36 513.461C1344.05 515.336 1343.62 517.25 1343.07 519.203C1342.52 521.156 1341.98 522.992 1341.43 524.711C1340.96 526.43 1340.53 527.953 1340.14 529.281C1339.75 530.531 1339.52 531.43 1339.44 531.977C1339.28 533.148 1339.36 534.281 1339.67 535.375C1339.91 536.312 1340.38 537.328 1341.08 538.422C1341.78 539.438 1342.84 540.297 1344.24 541C1343.15 540.844 1341.98 540.727 1340.73 540.648C1339.55 540.492 1338.42 540.375 1337.33 540.297C1336.08 540.219 1334.83 540.18 1333.58 540.18H1329.36C1328.03 540.18 1326.51 540.219 1324.79 540.297C1323.07 540.297 1321.2 540.336 1319.16 540.414C1320.26 540.023 1321.2 539.516 1321.98 538.891C1322.76 538.188 1323.42 537.523 1323.97 536.898C1324.59 536.195 1325.14 535.453 1325.61 534.672C1325.92 534.047 1326.31 532.875 1326.78 531.156C1327.25 529.359 1327.68 527.328 1328.07 525.062C1328.46 522.719 1328.73 520.258 1328.89 517.68C1329.12 515.102 1329.16 512.641 1329.01 510.297C1328.93 507.875 1328.58 505.727 1327.95 503.852C1327.41 501.977 1326.55 500.609 1325.38 499.75C1321.86 497.094 1318.66 495.805 1315.77 495.883C1312.95 495.883 1310.26 497.016 1307.68 499.281C1306.74 500.141 1305.84 501 1304.98 501.859C1304.2 502.641 1303.34 503.578 1302.41 504.672C1301.47 505.688 1300.61 506.742 1299.83 507.836C1299.83 509.008 1299.87 510.297 1299.95 511.703C1300.02 513.109 1300.1 514.477 1300.18 515.805C1300.26 517.289 1300.38 518.773 1300.53 520.258C1300.69 522.523 1300.92 524.75 1301.23 526.938C1301.47 528.812 1301.78 530.883 1302.17 533.148C1302.56 535.336 1303.07 537.328 1303.7 539.125C1302.68 538.969 1301.62 538.93 1300.53 539.008C1299.44 539.008 1298.38 539.008 1297.37 539.008C1296.2 539.086 1295.06 539.125 1293.97 539.125C1292.95 539.203 1291.9 539.32 1290.8 539.477C1289.87 539.633 1288.85 539.789 1287.76 539.945C1286.66 540.023 1285.61 540.18 1284.59 540.414C1285.53 538.617 1286.31 536.859 1286.94 535.141C1287.56 533.344 1288.07 531.781 1288.46 530.453C1288.93 528.891 1289.32 527.367 1289.63 525.883C1289.87 524.711 1290.02 522.484 1290.1 519.203C1290.26 515.844 1290.38 512.016 1290.45 507.719C1290.53 503.344 1290.57 498.734 1290.57 493.891C1290.57 489.047 1290.53 484.438 1290.45 480.062C1290.38 475.688 1290.22 471.859 1289.98 468.578C1289.83 465.297 1289.63 463.031 1289.4 461.781C1289.09 460.531 1288.66 459.281 1288.11 458.031C1287.64 456.938 1287.02 455.883 1286.23 454.867C1285.45 453.773 1284.48 452.875 1283.3 452.172ZM1358.3 493.539C1358.7 493.07 1358.93 492.211 1359.01 490.961C1359.16 489.633 1359.48 488.148 1359.95 486.508C1360.49 484.867 1361.39 483.148 1362.64 481.352C1363.89 479.555 1365.92 477.875 1368.73 476.312C1371.47 474.75 1374.12 473.812 1376.7 473.5C1379.28 473.188 1381.74 473.305 1384.09 473.852C1386.43 474.398 1388.62 475.258 1390.65 476.43C1392.76 477.602 1394.67 478.891 1396.39 480.297C1397.56 481.234 1398.5 482.602 1399.2 484.398C1399.91 486.117 1400.45 488.07 1400.84 490.258C1401.23 492.445 1401.51 494.75 1401.66 497.172C1401.9 499.516 1402.05 501.82 1402.13 504.086C1402.21 506.273 1402.25 508.305 1402.25 510.18C1402.33 511.977 1402.48 513.461 1402.72 514.633C1403.03 516.352 1403.58 517.836 1404.36 519.086C1405.14 520.258 1406 521.273 1406.94 522.133C1407.88 522.914 1408.81 523.539 1409.75 524.008C1410.69 524.477 1411.51 524.828 1412.21 525.062C1412.68 525.297 1413.11 525.453 1413.5 525.531C1414.28 525.844 1414.83 525.844 1415.14 525.531C1414.67 526.625 1414.24 527.562 1413.85 528.344C1413.46 529.125 1413.15 529.789 1412.91 530.336C1412.6 530.961 1412.33 531.469 1412.09 531.859C1411.86 532.328 1411.59 532.758 1411.27 533.148C1411.04 533.539 1410.73 533.969 1410.34 534.438C1409.95 534.906 1409.55 535.414 1409.16 535.961C1408.15 535.57 1407.17 535.102 1406.23 534.555C1405.38 534.008 1404.59 533.5 1403.89 533.031C1403.03 532.484 1402.25 531.938 1401.55 531.391C1400.84 530.844 1400.18 530.219 1399.55 529.516C1399.01 528.891 1398.42 528.227 1397.8 527.523C1397.25 526.82 1396.78 526.039 1396.39 525.18C1395.92 526.195 1394.79 527.641 1392.99 529.516C1391.27 531.391 1389.01 533.109 1386.2 534.672C1383.38 536.156 1380.1 537.211 1376.35 537.836C1372.68 538.461 1368.62 538.031 1364.16 536.547C1362.21 535.922 1360.38 535.023 1358.66 533.852C1356.94 532.602 1355.45 531.117 1354.2 529.398C1353.03 527.68 1352.17 525.727 1351.62 523.539C1351.16 521.273 1351.2 518.773 1351.74 516.039C1352.29 513.305 1353.27 511 1354.67 509.125C1356.08 507.25 1357.76 505.727 1359.71 504.555C1361.66 503.383 1363.85 502.484 1366.27 501.859C1368.7 501.234 1371.2 500.805 1373.77 500.57C1375.8 500.492 1377.84 500.609 1379.87 500.922C1381.59 501.234 1383.38 501.82 1385.26 502.68C1387.13 503.461 1388.73 504.672 1390.06 506.312C1389.98 502.172 1389.83 498.891 1389.59 496.469C1389.44 493.969 1389.28 492.055 1389.12 490.727C1388.81 489.164 1388.54 488.07 1388.3 487.445C1387.91 486.898 1387.48 486.273 1387.02 485.57C1386.62 484.867 1386.12 484.242 1385.49 483.695C1384.87 483.07 1384.09 482.562 1383.15 482.172C1382.21 481.781 1381.12 481.625 1379.87 481.703C1378.54 481.781 1377.48 482.133 1376.7 482.758C1375.92 483.383 1375.3 484.125 1374.83 484.984C1374.44 485.766 1374.2 486.625 1374.12 487.562C1374.05 488.5 1374.09 489.32 1374.24 490.023C1374.4 490.492 1374.63 491 1374.95 491.547C1375.26 492.016 1375.69 492.523 1376.23 493.07C1376.78 493.617 1377.52 494.086 1378.46 494.477C1376.66 494.711 1375.06 494.906 1373.66 495.062C1372.25 495.141 1371.04 495.258 1370.02 495.414C1368.85 495.57 1367.84 495.688 1366.98 495.766C1366.12 495.844 1365.1 496 1363.93 496.234C1362.91 496.391 1361.66 496.586 1360.18 496.82C1358.7 497.055 1356.98 497.367 1355.02 497.758C1355.49 497.211 1355.92 496.703 1356.31 496.234C1356.7 495.688 1357.05 495.219 1357.37 494.828C1357.68 494.359 1357.99 493.93 1358.3 493.539ZM1375.88 507.484C1374.48 507.562 1373.07 507.914 1371.66 508.539C1370.26 509.086 1369.01 509.906 1367.91 511C1366.82 512.016 1365.88 513.227 1365.1 514.633C1364.4 515.961 1364.05 517.445 1364.05 519.086C1364.05 520.727 1364.44 522.172 1365.22 523.422C1366.08 524.594 1367.17 525.57 1368.5 526.352C1369.91 527.133 1371.39 527.602 1372.95 527.758C1374.59 527.914 1376.2 527.758 1377.76 527.289C1379.24 526.742 1380.65 525.883 1381.98 524.711C1383.3 523.461 1384.44 522.133 1385.38 520.727C1386.31 519.242 1386.98 517.797 1387.37 516.391C1387.76 514.906 1387.8 513.695 1387.48 512.758C1386.86 510.727 1385.45 509.32 1383.27 508.539C1381.08 507.68 1378.62 507.328 1375.88 507.484ZM1417.6 528.109C1418.15 525.531 1418.54 523.266 1418.77 521.312C1419.09 519.281 1419.32 517.602 1419.48 516.273C1419.63 514.711 1419.71 513.383 1419.71 512.289C1419.63 510.961 1419.55 509.398 1419.48 507.602C1419.48 505.727 1419.4 503.891 1419.24 502.094C1419.16 500.219 1419.05 498.578 1418.89 497.172C1418.73 495.688 1418.54 494.633 1418.3 494.008C1417.99 493.383 1417.56 492.719 1417.02 492.016C1415.92 490.688 1414.32 489.398 1412.21 488.148C1414.01 487.758 1415.53 487.445 1416.78 487.211C1418.11 486.898 1419.2 486.625 1420.06 486.391C1421 486.078 1421.82 485.805 1422.52 485.57C1423.15 485.336 1423.89 485.102 1424.75 484.867C1425.45 484.711 1426.31 484.516 1427.33 484.281C1428.34 484.047 1429.52 483.773 1430.84 483.461L1430.49 494.125C1432.99 491.156 1435.53 488.93 1438.11 487.445C1440.69 485.961 1443.11 484.906 1445.38 484.281C1447.95 483.5 1450.49 483.109 1452.99 483.109C1456.12 483.266 1459.01 483.773 1461.66 484.633C1464.4 485.492 1466.74 486.508 1468.7 487.68C1470.73 488.773 1472.37 489.945 1473.62 491.195C1474.87 492.445 1475.61 493.539 1475.84 494.477C1476.78 497.523 1477.02 500.336 1476.55 502.914C1476.08 505.414 1475.45 507.875 1474.67 510.297C1473.97 512.641 1473.34 514.984 1472.8 517.328C1472.33 519.672 1472.52 522.211 1473.38 524.945C1473.7 525.648 1474.01 526.352 1474.32 527.055C1474.63 527.68 1475.02 528.305 1475.49 528.93C1475.96 529.555 1476.51 530.062 1477.13 530.453C1476.27 530.375 1475.41 530.336 1474.55 530.336C1473.7 530.258 1472.91 530.18 1472.21 530.102C1471.35 530.023 1470.57 529.945 1469.87 529.867C1469.09 529.789 1468.03 529.75 1466.7 529.75C1464.44 529.75 1460.92 529.867 1456.16 530.102C1456.86 528.461 1457.41 527.094 1457.8 526C1458.27 524.828 1458.66 523.891 1458.97 523.188C1459.28 522.328 1459.52 521.664 1459.67 521.195C1460.61 518.93 1461.16 516.352 1461.31 513.461C1461.55 510.57 1461.35 507.641 1460.73 504.672C1460.49 503.656 1460.1 502.445 1459.55 501.039C1459.01 499.633 1458.27 498.266 1457.33 496.938C1456.47 495.609 1455.41 494.477 1454.16 493.539C1452.99 492.602 1451.62 492.055 1450.06 491.898C1448.5 491.742 1446.74 492.133 1444.79 493.07C1442.91 494.008 1440.88 495.727 1438.7 498.227C1437.05 500.336 1435.77 502.914 1434.83 505.961C1433.97 508.539 1433.38 511.781 1433.07 515.688C1432.76 519.516 1433.23 524.008 1434.48 529.164C1433.38 529.008 1432.37 528.93 1431.43 528.93C1430.49 528.852 1429.71 528.773 1429.09 528.695C1428.3 528.617 1427.6 528.539 1426.98 528.461C1426.27 528.461 1425.49 528.422 1424.63 528.344C1423.85 528.344 1422.88 528.344 1421.7 528.344C1420.53 528.266 1419.16 528.188 1417.6 528.109ZM1539.59 491.312C1539.36 489.75 1539.16 488.461 1539.01 487.445C1538.85 486.352 1538.7 485.492 1538.54 484.867C1538.38 484.086 1538.27 483.5 1538.19 483.109C1538.03 482.719 1537.84 482.289 1537.6 481.82C1537.45 481.43 1537.17 480.961 1536.78 480.414C1536.47 479.867 1536.08 479.242 1535.61 478.539C1536.62 478.852 1537.64 479.047 1538.66 479.125C1539.75 479.203 1540.77 479.281 1541.7 479.359C1542.72 479.438 1543.77 479.438 1544.87 479.359C1545.96 479.359 1547.21 479.32 1548.62 479.242C1549.87 479.164 1551.35 479.125 1553.07 479.125C1554.87 479.047 1556.9 478.93 1559.16 478.773C1557.84 479.086 1556.7 479.633 1555.77 480.414C1554.91 481.117 1554.16 481.898 1553.54 482.758C1552.84 483.695 1552.25 484.711 1551.78 485.805C1551.39 486.82 1551.16 488.773 1551.08 491.664C1551 494.477 1551 497.836 1551.08 501.742C1551.16 505.57 1551.23 509.711 1551.31 514.164C1551.47 518.617 1551.55 522.875 1551.55 526.938C1551.62 531 1551.62 534.711 1551.55 538.07C1551.47 541.352 1551.27 543.773 1550.96 545.336C1549.87 550.258 1547.84 554.242 1544.87 557.289C1541.9 560.414 1537.99 562.094 1533.15 562.328C1527.29 562.562 1522.64 562.016 1519.2 560.688C1515.84 559.359 1513.23 557.719 1511.35 555.766C1509.48 553.891 1508.07 551.977 1507.13 550.023C1506.2 548.07 1505.22 546.586 1504.2 545.57C1503.27 544.711 1502.33 543.891 1501.39 543.109C1500.53 542.484 1499.63 541.859 1498.7 541.234C1497.84 540.609 1496.98 540.219 1496.12 540.062C1498.38 540.141 1500.41 540.18 1502.21 540.18C1504.01 540.18 1505.53 540.18 1506.78 540.18C1508.19 540.18 1509.44 540.141 1510.53 540.062H1514.28H1524.95C1523.38 540.531 1522.21 541.039 1521.43 541.586C1520.65 542.211 1520.1 542.836 1519.79 543.461C1519.48 544.164 1519.32 544.867 1519.32 545.57C1519.63 547.445 1520.65 548.812 1522.37 549.672C1524.09 550.531 1526.43 551.039 1529.4 551.195C1532.29 551.352 1534.28 551.273 1535.38 550.961C1536.47 550.727 1537.33 550.258 1537.95 549.555C1539.2 547.68 1540.26 545.258 1541.12 542.289C1541.74 539.789 1542.17 536.547 1542.41 532.562C1542.72 528.5 1542.37 523.539 1541.35 517.68C1538.85 521.117 1535.96 523.695 1532.68 525.414C1529.4 527.133 1526.27 528.383 1523.3 529.164C1519.79 530.023 1516.23 530.453 1512.64 530.453C1503.19 530.062 1496.12 527.875 1491.43 523.891C1486.74 519.906 1484.59 514.555 1484.98 507.836C1485.22 504.477 1486.23 501.117 1488.03 497.758C1489.91 494.398 1492.33 491.391 1495.3 488.734C1498.34 486.078 1501.82 483.969 1505.73 482.406C1509.63 480.844 1513.7 480.18 1517.91 480.414C1521.12 480.727 1524.12 481.312 1526.94 482.172C1529.36 482.953 1531.74 484.047 1534.09 485.453C1536.51 486.859 1538.34 488.812 1539.59 491.312ZM1502.33 503.031C1501.86 506.078 1502.05 508.93 1502.91 511.586C1503.85 514.242 1505.14 516.547 1506.78 518.5C1508.42 520.375 1510.26 521.859 1512.29 522.953C1514.32 523.969 1516.23 524.438 1518.03 524.359C1521.78 524.281 1525.02 522.602 1527.76 519.32C1530.49 515.961 1532.13 510.961 1532.68 504.32C1532.91 501.039 1532.48 498.227 1531.39 495.883C1530.38 493.461 1529.09 491.508 1527.52 490.023C1525.96 488.539 1524.32 487.484 1522.6 486.859C1520.88 486.234 1519.52 485.961 1518.5 486.039C1517.09 486.195 1515.53 486.625 1513.81 487.328C1512.17 487.953 1510.57 488.93 1509.01 490.258C1507.45 491.508 1506.04 493.188 1504.79 495.297C1503.62 497.406 1502.8 499.984 1502.33 503.031ZM1590.69 522.133C1592.88 522.133 1594.91 521.898 1596.78 521.43C1598.34 521.039 1599.83 520.414 1601.23 519.555C1602.72 518.617 1603.7 517.25 1604.16 515.453C1605.73 515.766 1607.05 516.039 1608.15 516.273C1609.24 516.43 1610.18 516.586 1610.96 516.742C1611.82 516.977 1612.56 517.133 1613.19 517.211C1613.81 517.367 1614.55 517.523 1615.41 517.68C1616.2 517.836 1617.13 518.031 1618.23 518.266C1619.4 518.422 1620.77 518.656 1622.33 518.969C1621.16 518.812 1619.95 518.93 1618.7 519.32C1617.52 519.711 1616.39 520.141 1615.3 520.609C1614.05 521.156 1612.88 521.82 1611.78 522.602C1611.08 523.07 1610.26 523.773 1609.32 524.711C1608.46 525.648 1607.21 526.547 1605.57 527.406C1603.93 528.266 1601.74 529.008 1599.01 529.633C1596.35 530.18 1592.91 530.375 1588.7 530.219C1583.62 530.062 1579.36 529.164 1575.92 527.523C1572.48 525.805 1569.71 523.734 1567.6 521.312C1565.49 518.812 1563.97 516.117 1563.03 513.227C1562.09 510.336 1561.59 507.641 1561.51 505.141C1561.43 502.641 1562.17 500.023 1563.73 497.289C1565.3 494.555 1567.48 492.055 1570.3 489.789C1573.19 487.523 1576.66 485.688 1580.73 484.281C1584.79 482.797 1589.24 482.055 1594.09 482.055C1596.9 482.055 1599.48 482.406 1601.82 483.109C1604.24 483.734 1606.43 484.594 1608.38 485.688C1610.41 486.781 1612.17 488.031 1613.66 489.438C1615.14 490.766 1616.39 492.133 1617.41 493.539C1618.42 495.023 1619.28 496.586 1619.98 498.227C1620.61 499.633 1621.12 501.234 1621.51 503.031C1621.9 504.828 1622.02 506.664 1621.86 508.539C1615.92 508.695 1611.12 508.812 1607.45 508.891C1603.85 508.969 1601.04 509.008 1599.01 509.008H1593.73H1589.75C1588.34 509.008 1586.51 509.047 1584.24 509.125C1581.98 509.203 1579.2 509.32 1575.92 509.477C1576.31 512.602 1577.29 515.023 1578.85 516.742C1580.49 518.383 1582.21 519.633 1584.01 520.492C1586.04 521.43 1588.27 521.977 1590.69 522.133ZM1580.14 501.039C1582.64 501.195 1584.71 501.312 1586.35 501.391C1588.07 501.469 1589.48 501.547 1590.57 501.625C1591.74 501.703 1592.68 501.742 1593.38 501.742H1596.31C1598.27 501.742 1601.9 501.625 1607.21 501.391C1606.98 497.953 1606.23 495.336 1604.98 493.539C1603.81 491.742 1602.56 490.414 1601.23 489.555C1599.67 488.617 1597.95 488.07 1596.08 487.914C1591 487.992 1587.21 489.047 1584.71 491.078C1582.29 493.109 1580.77 496.43 1580.14 501.039ZM1243.23 667.133C1245.41 667.133 1247.45 666.898 1249.32 666.43C1250.88 666.039 1252.37 665.414 1253.77 664.555C1255.26 663.617 1256.23 662.25 1256.7 660.453C1258.27 660.766 1259.59 661.039 1260.69 661.273C1261.78 661.43 1262.72 661.586 1263.5 661.742C1264.36 661.977 1265.1 662.133 1265.73 662.211C1266.35 662.367 1267.09 662.523 1267.95 662.68C1268.73 662.836 1269.67 663.031 1270.77 663.266C1271.94 663.422 1273.3 663.656 1274.87 663.969C1273.7 663.812 1272.48 663.93 1271.23 664.32C1270.06 664.711 1268.93 665.141 1267.84 665.609C1266.59 666.156 1265.41 666.82 1264.32 667.602C1263.62 668.07 1262.8 668.773 1261.86 669.711C1261 670.648 1259.75 671.547 1258.11 672.406C1256.47 673.266 1254.28 674.008 1251.55 674.633C1248.89 675.18 1245.45 675.375 1241.23 675.219C1236.16 675.062 1231.9 674.164 1228.46 672.523C1225.02 670.805 1222.25 668.734 1220.14 666.312C1218.03 663.812 1216.51 661.117 1215.57 658.227C1214.63 655.336 1214.12 652.641 1214.05 650.141C1213.97 647.641 1214.71 645.023 1216.27 642.289C1217.84 639.555 1220.02 637.055 1222.84 634.789C1225.73 632.523 1229.2 630.688 1233.27 629.281C1237.33 627.797 1241.78 627.055 1246.62 627.055C1249.44 627.055 1252.02 627.406 1254.36 628.109C1256.78 628.734 1258.97 629.594 1260.92 630.688C1262.95 631.781 1264.71 633.031 1266.2 634.438C1267.68 635.766 1268.93 637.133 1269.95 638.539C1270.96 640.023 1271.82 641.586 1272.52 643.227C1273.15 644.633 1273.66 646.234 1274.05 648.031C1274.44 649.828 1274.55 651.664 1274.4 653.539C1268.46 653.695 1263.66 653.812 1259.98 653.891C1256.39 653.969 1253.58 654.008 1251.55 654.008H1246.27H1242.29C1240.88 654.008 1239.05 654.047 1236.78 654.125C1234.52 654.203 1231.74 654.32 1228.46 654.477C1228.85 657.602 1229.83 660.023 1231.39 661.742C1233.03 663.383 1234.75 664.633 1236.55 665.492C1238.58 666.43 1240.8 666.977 1243.23 667.133ZM1232.68 646.039C1235.18 646.195 1237.25 646.312 1238.89 646.391C1240.61 646.469 1242.02 646.547 1243.11 646.625C1244.28 646.703 1245.22 646.742 1245.92 646.742H1248.85C1250.8 646.742 1254.44 646.625 1259.75 646.391C1259.52 642.953 1258.77 640.336 1257.52 638.539C1256.35 636.742 1255.1 635.414 1253.77 634.555C1252.21 633.617 1250.49 633.07 1248.62 632.914C1243.54 632.992 1239.75 634.047 1237.25 636.078C1234.83 638.109 1233.3 641.43 1232.68 646.039ZM1278.5 630.453C1280.3 630.297 1281.82 630.141 1283.07 629.984C1284.4 629.828 1285.49 629.672 1286.35 629.516C1287.37 629.359 1288.23 629.203 1288.93 629.047C1289.63 628.969 1290.41 628.812 1291.27 628.578C1292.05 628.422 1292.91 628.227 1293.85 627.992C1294.87 627.68 1295.96 627.328 1297.13 626.938L1296.43 641.82C1298.15 639.086 1300.14 637.016 1302.41 635.609C1304.67 634.125 1306.82 633.031 1308.85 632.328C1311.27 631.469 1313.7 630.961 1316.12 630.805C1318.62 630.883 1320.92 631.273 1323.03 631.977C1324.83 632.602 1326.62 633.578 1328.42 634.906C1330.3 636.234 1331.74 638.188 1332.76 640.766C1335.41 638.031 1338.03 635.922 1340.61 634.438C1343.27 632.875 1345.61 631.703 1347.64 630.922C1350.06 630.062 1352.33 629.555 1354.44 629.398C1357.25 629.32 1359.83 629.789 1362.17 630.805C1364.59 631.82 1366.7 633.109 1368.5 634.672C1370.3 636.156 1371.74 637.758 1372.84 639.477C1373.93 641.117 1374.55 642.562 1374.71 643.812C1374.95 645.531 1374.83 647.758 1374.36 650.492C1373.89 653.148 1373.34 655.883 1372.72 658.695C1372.09 661.43 1371.51 663.969 1370.96 666.312C1370.49 668.578 1370.3 670.18 1370.38 671.117C1370.61 671.898 1371.16 672.836 1372.02 673.93C1372.8 674.867 1373.93 676.039 1375.41 677.445C1376.98 678.773 1379.2 680.336 1382.09 682.133C1379.59 682.055 1377.37 681.977 1375.41 681.898C1373.54 681.82 1371.94 681.703 1370.61 681.547C1369.05 681.391 1367.68 681.273 1366.51 681.195C1365.57 681.195 1364.44 681.117 1363.11 680.961C1362.02 680.883 1360.57 680.766 1358.77 680.609C1357.05 680.453 1355.06 680.297 1352.8 680.141C1353.66 679.906 1354.36 679.477 1354.91 678.852C1355.45 678.148 1355.92 677.484 1356.31 676.859C1356.7 676.078 1357.02 675.219 1357.25 674.281C1357.41 673.5 1357.56 672.25 1357.72 670.531C1357.88 668.812 1357.99 666.859 1358.07 664.672C1358.23 662.484 1358.3 660.18 1358.3 657.758C1358.38 655.336 1358.38 653.031 1358.3 650.844C1358.23 648.656 1358.07 646.664 1357.84 644.867C1357.6 643.07 1357.29 641.703 1356.9 640.766C1356.59 640.062 1356.04 639.516 1355.26 639.125C1354.48 638.656 1353.58 638.383 1352.56 638.305C1351.55 638.148 1350.53 638.188 1349.52 638.422C1348.5 638.578 1347.6 638.891 1346.82 639.359C1346.12 639.906 1345.18 640.648 1344.01 641.586C1342.99 642.445 1341.66 643.617 1340.02 645.102C1338.38 646.586 1336.31 648.461 1333.81 650.727C1333.58 655.648 1333.38 659.633 1333.23 662.68C1333.15 665.648 1333.07 667.914 1332.99 669.477C1332.91 671.352 1332.88 672.641 1332.88 673.344C1332.8 673.969 1332.84 674.555 1332.99 675.102C1333.15 676.273 1333.62 677.367 1334.4 678.383C1333.46 678.148 1332.45 677.992 1331.35 677.914C1330.34 677.836 1329.4 677.758 1328.54 677.68C1327.52 677.602 1326.51 677.562 1325.49 677.562C1324.63 677.562 1323.7 677.602 1322.68 677.68C1321.82 677.758 1320.77 677.875 1319.52 678.031C1318.27 678.109 1316.9 678.227 1315.41 678.383C1316.04 677.992 1316.55 677.523 1316.94 676.977C1317.33 676.43 1317.64 675.922 1317.88 675.453C1318.19 674.906 1318.42 674.398 1318.58 673.93C1318.66 673.461 1318.81 672.328 1319.05 670.531C1319.28 668.656 1319.44 666.469 1319.52 663.969C1319.59 661.469 1319.59 658.852 1319.52 656.117C1319.44 653.305 1319.16 650.766 1318.7 648.5C1318.23 646.156 1317.48 644.242 1316.47 642.758C1315.53 641.273 1314.28 640.609 1312.72 640.766C1310.84 640.922 1308.93 641.391 1306.98 642.172C1305.34 642.797 1303.58 643.734 1301.7 644.984C1299.83 646.234 1298.07 647.914 1296.43 650.023C1296.12 655.883 1295.92 660.531 1295.84 663.969C1295.84 667.406 1295.88 670.023 1295.96 671.82C1296.04 673.93 1296.12 675.375 1296.2 676.156C1296.27 676.703 1296.47 677.25 1296.78 677.797C1297.02 678.266 1297.29 678.812 1297.6 679.438C1297.99 680.062 1298.42 680.648 1298.89 681.195L1280.26 680.258C1280.88 679.945 1281.43 679.555 1281.9 679.086C1282.37 678.539 1282.76 677.992 1283.07 677.445C1283.38 676.82 1283.7 676.195 1284.01 675.57C1284.24 675.023 1284.44 673.734 1284.59 671.703C1284.83 669.672 1285.02 667.289 1285.18 664.555C1285.34 661.742 1285.45 658.812 1285.53 655.766C1285.69 652.641 1285.77 649.75 1285.77 647.094C1285.84 644.359 1285.88 642.055 1285.88 640.18C1285.88 638.227 1285.84 637.055 1285.77 636.664C1285.53 635.883 1285.1 635.062 1284.48 634.203C1283.93 633.578 1283.19 632.914 1282.25 632.211C1281.31 631.43 1280.06 630.844 1278.5 630.453ZM1391.47 638.539C1391.86 638.07 1392.09 637.211 1392.17 635.961C1392.33 634.633 1392.64 633.148 1393.11 631.508C1393.66 629.867 1394.55 628.148 1395.8 626.352C1397.05 624.555 1399.09 622.875 1401.9 621.312C1404.63 619.75 1407.29 618.812 1409.87 618.5C1412.45 618.188 1414.91 618.305 1417.25 618.852C1419.59 619.398 1421.78 620.258 1423.81 621.43C1425.92 622.602 1427.84 623.891 1429.55 625.297C1430.73 626.234 1431.66 627.602 1432.37 629.398C1433.07 631.117 1433.62 633.07 1434.01 635.258C1434.4 637.445 1434.67 639.75 1434.83 642.172C1435.06 644.516 1435.22 646.82 1435.3 649.086C1435.38 651.273 1435.41 653.305 1435.41 655.18C1435.49 656.977 1435.65 658.461 1435.88 659.633C1436.2 661.352 1436.74 662.836 1437.52 664.086C1438.3 665.258 1439.16 666.273 1440.1 667.133C1441.04 667.914 1441.98 668.539 1442.91 669.008C1443.85 669.477 1444.67 669.828 1445.38 670.062C1445.84 670.297 1446.27 670.453 1446.66 670.531C1447.45 670.844 1447.99 670.844 1448.3 670.531C1447.84 671.625 1447.41 672.562 1447.02 673.344C1446.62 674.125 1446.31 674.789 1446.08 675.336C1445.77 675.961 1445.49 676.469 1445.26 676.859C1445.02 677.328 1444.75 677.758 1444.44 678.148C1444.2 678.539 1443.89 678.969 1443.5 679.438C1443.11 679.906 1442.72 680.414 1442.33 680.961C1441.31 680.57 1440.34 680.102 1439.4 679.555C1438.54 679.008 1437.76 678.5 1437.05 678.031C1436.2 677.484 1435.41 676.938 1434.71 676.391C1434.01 675.844 1433.34 675.219 1432.72 674.516C1432.17 673.891 1431.59 673.227 1430.96 672.523C1430.41 671.82 1429.95 671.039 1429.55 670.18C1429.09 671.195 1427.95 672.641 1426.16 674.516C1424.44 676.391 1422.17 678.109 1419.36 679.672C1416.55 681.156 1413.27 682.211 1409.52 682.836C1405.84 683.461 1401.78 683.031 1397.33 681.547C1395.38 680.922 1393.54 680.023 1391.82 678.852C1390.1 677.602 1388.62 676.117 1387.37 674.398C1386.2 672.68 1385.34 670.727 1384.79 668.539C1384.32 666.273 1384.36 663.773 1384.91 661.039C1385.45 658.305 1386.43 656 1387.84 654.125C1389.24 652.25 1390.92 650.727 1392.88 649.555C1394.83 648.383 1397.02 647.484 1399.44 646.859C1401.86 646.234 1404.36 645.805 1406.94 645.57C1408.97 645.492 1411 645.609 1413.03 645.922C1414.75 646.234 1416.55 646.82 1418.42 647.68C1420.3 648.461 1421.9 649.672 1423.23 651.312C1423.15 647.172 1422.99 643.891 1422.76 641.469C1422.6 638.969 1422.45 637.055 1422.29 635.727C1421.98 634.164 1421.7 633.07 1421.47 632.445C1421.08 631.898 1420.65 631.273 1420.18 630.57C1419.79 629.867 1419.28 629.242 1418.66 628.695C1418.03 628.07 1417.25 627.562 1416.31 627.172C1415.38 626.781 1414.28 626.625 1413.03 626.703C1411.7 626.781 1410.65 627.133 1409.87 627.758C1409.09 628.383 1408.46 629.125 1407.99 629.984C1407.6 630.766 1407.37 631.625 1407.29 632.562C1407.21 633.5 1407.25 634.32 1407.41 635.023C1407.56 635.492 1407.8 636 1408.11 636.547C1408.42 637.016 1408.85 637.523 1409.4 638.07C1409.95 638.617 1410.69 639.086 1411.62 639.477C1409.83 639.711 1408.23 639.906 1406.82 640.062C1405.41 640.141 1404.2 640.258 1403.19 640.414C1402.02 640.57 1401 640.688 1400.14 640.766C1399.28 640.844 1398.27 641 1397.09 641.234C1396.08 641.391 1394.83 641.586 1393.34 641.82C1391.86 642.055 1390.14 642.367 1388.19 642.758C1388.66 642.211 1389.09 641.703 1389.48 641.234C1389.87 640.688 1390.22 640.219 1390.53 639.828C1390.84 639.359 1391.16 638.93 1391.47 638.539ZM1409.05 652.484C1407.64 652.562 1406.23 652.914 1404.83 653.539C1403.42 654.086 1402.17 654.906 1401.08 656C1399.98 657.016 1399.05 658.227 1398.27 659.633C1397.56 660.961 1397.21 662.445 1397.21 664.086C1397.21 665.727 1397.6 667.172 1398.38 668.422C1399.24 669.594 1400.34 670.57 1401.66 671.352C1403.07 672.133 1404.55 672.602 1406.12 672.758C1407.76 672.914 1409.36 672.758 1410.92 672.289C1412.41 671.742 1413.81 670.883 1415.14 669.711C1416.47 668.461 1417.6 667.133 1418.54 665.727C1419.48 664.242 1420.14 662.797 1420.53 661.391C1420.92 659.906 1420.96 658.695 1420.65 657.758C1420.02 655.727 1418.62 654.32 1416.43 653.539C1414.24 652.68 1411.78 652.328 1409.05 652.484ZM1447.13 633.617L1468.7 633.852C1467.45 638.617 1466.51 642.68 1465.88 646.039C1465.34 649.398 1464.98 652.211 1464.83 654.477C1464.52 657.055 1464.44 659.242 1464.59 661.039C1464.83 662.68 1465.22 664.438 1465.77 666.312C1466.23 667.875 1466.94 669.672 1467.88 671.703C1468.81 673.734 1470.06 675.766 1471.62 677.797C1470.69 677.484 1469.67 677.25 1468.58 677.094C1467.48 676.938 1466.47 676.82 1465.53 676.742C1464.44 676.664 1463.34 676.664 1462.25 676.742C1461.16 676.82 1459.95 676.938 1458.62 677.094C1457.52 677.25 1456.2 677.445 1454.63 677.68C1453.07 677.914 1451.43 678.227 1449.71 678.617C1450.88 675.102 1451.78 672.055 1452.41 669.477C1453.11 666.898 1453.62 664.75 1453.93 663.031C1454.24 661 1454.44 659.359 1454.52 658.109C1454.52 656.547 1454.52 654.789 1454.52 652.836C1454.52 650.805 1454.52 648.852 1454.52 646.977C1454.52 645.102 1454.48 643.461 1454.4 642.055C1454.32 640.57 1454.16 639.633 1453.93 639.242L1452.76 638.07C1452.29 637.68 1451.59 637.133 1450.65 636.43C1449.79 635.648 1448.62 634.711 1447.13 633.617ZM1455.45 615.57C1457.09 614.711 1458.73 614.477 1460.38 614.867C1462.09 615.258 1463.42 616 1464.36 617.094C1465.3 618.188 1465.61 619.477 1465.3 620.961C1465.06 622.445 1463.81 623.891 1461.55 625.297C1459.28 626.625 1457.29 627.094 1455.57 626.703C1453.85 626.312 1452.64 625.492 1451.94 624.242C1451.23 622.992 1451.12 621.547 1451.59 619.906C1452.05 618.188 1453.34 616.742 1455.45 615.57ZM1478.54 689.281C1479.32 688.109 1479.95 687.016 1480.41 686C1480.88 684.984 1481.27 684.125 1481.59 683.422C1481.9 682.562 1482.13 681.781 1482.29 681.078C1482.37 680.609 1482.41 679.242 1482.41 676.977C1482.41 674.711 1482.33 671.859 1482.17 668.422C1482.09 664.984 1481.98 661.117 1481.82 656.82C1481.74 652.523 1481.59 648.148 1481.35 643.695C1481.2 639.242 1481 634.906 1480.77 630.688C1480.61 626.469 1480.45 622.68 1480.3 619.32C1480.14 615.883 1479.98 613.07 1479.83 610.883C1479.67 608.695 1479.55 607.445 1479.48 607.133C1479.32 606.664 1479.05 606.195 1478.66 605.727C1477.88 604.789 1476.55 603.891 1474.67 603.031C1478.66 602.016 1481.7 601.195 1483.81 600.57C1485.06 600.258 1486.16 599.945 1487.09 599.633C1487.95 599.32 1488.81 599.008 1489.67 598.695C1490.38 598.383 1491.16 598.031 1492.02 597.641C1492.88 597.172 1493.66 596.664 1494.36 596.117C1493.97 598.383 1493.66 600.57 1493.42 602.68C1493.19 604.789 1492.99 606.742 1492.84 608.539C1492.68 610.57 1492.6 612.523 1492.6 614.398C1492.21 618.227 1491.98 622.406 1491.9 626.938C1491.9 631.391 1491.94 635.922 1492.02 640.531C1492.09 645.141 1492.25 649.633 1492.48 654.008C1492.72 658.383 1492.95 662.367 1493.19 665.961C1493.5 669.477 1493.77 672.484 1494.01 674.984C1494.32 677.406 1494.55 678.969 1494.71 679.672C1495.02 680.844 1495.34 681.977 1495.65 683.07C1495.96 684.008 1496.31 684.984 1496.7 686C1497.09 687.094 1497.56 687.953 1498.11 688.578H1486.74C1485.73 688.578 1484.75 688.617 1483.81 688.695C1482.95 688.773 1482.05 688.852 1481.12 688.93C1480.18 689.008 1479.32 689.125 1478.54 689.281ZM1539.36 612.172C1541.7 612.406 1543.66 612.602 1545.22 612.758C1546.86 612.914 1548.19 613.031 1549.2 613.109C1550.38 613.188 1551.31 613.227 1552.02 613.227C1552.72 613.305 1553.66 613.305 1554.83 613.227C1555.84 613.148 1557.17 613.07 1558.81 612.992C1560.45 612.836 1562.52 612.602 1565.02 612.289C1564.48 613.07 1564.05 613.773 1563.73 614.398C1563.42 614.945 1563.15 615.453 1562.91 615.922L1562.21 617.328C1562.05 617.797 1561.9 618.266 1561.74 618.734C1561.59 619.125 1561.43 619.594 1561.27 620.141C1561.2 620.688 1561.12 621.273 1561.04 621.898H1579.09L1577.45 631.391L1560.92 630.453C1560.53 634.438 1560.26 637.523 1560.1 639.711C1559.95 641.898 1559.79 643.5 1559.63 644.516L1559.4 646.625C1559.16 649.594 1558.93 652.836 1558.7 656.352C1558.46 659.789 1558.38 662.992 1558.46 665.961C1558.54 668.93 1558.81 671.43 1559.28 673.461C1559.75 675.414 1560.57 676.391 1561.74 676.391C1562.91 676.391 1564.01 676.078 1565.02 675.453C1566.04 674.828 1566.9 674.086 1567.6 673.227C1568.38 672.367 1568.97 671.508 1569.36 670.648C1569.75 669.711 1569.95 669.008 1569.95 668.539C1569.95 668.07 1569.83 667.523 1569.59 666.898C1569.2 665.727 1568.5 664.242 1567.48 662.445C1569.75 662.992 1571.74 663.539 1573.46 664.086C1574.32 664.398 1575.1 664.711 1575.8 665.023C1576.59 665.336 1577.48 665.688 1578.5 666.078C1579.36 666.469 1580.45 666.938 1581.78 667.484C1583.11 668.031 1584.67 668.695 1586.47 669.477C1584.75 669.789 1583.5 670.297 1582.72 671C1582.25 671.312 1581.9 671.664 1581.66 672.055C1581.12 672.914 1580.49 674.086 1579.79 675.57C1579.09 676.977 1578.03 678.383 1576.62 679.789C1575.22 681.195 1573.3 682.445 1570.88 683.539C1568.54 684.633 1565.38 685.258 1561.39 685.414C1557.25 685.57 1554.09 684.867 1551.9 683.305C1549.79 681.742 1548.23 679.945 1547.21 677.914C1546.27 675.805 1545.73 673.734 1545.57 671.703C1545.41 669.672 1545.3 668.305 1545.22 667.602C1545.14 666.898 1545.14 665.141 1545.22 662.328C1545.3 659.516 1545.41 656.43 1545.57 653.07C1545.73 649.633 1545.88 646.352 1546.04 643.227C1546.2 640.023 1546.27 637.68 1546.27 636.195C1546.27 635.414 1546.31 634.594 1546.39 633.734C1546.39 633.031 1546.39 632.289 1546.39 631.508C1546.47 630.648 1546.51 629.828 1546.51 629.047L1529.52 628.93L1528.81 622.25L1545.92 622.719C1545.77 621.859 1545.57 621.078 1545.34 620.375C1545.18 619.594 1545.02 618.969 1544.87 618.5C1544.63 617.953 1544.4 617.484 1544.16 617.094C1543.85 616.703 1543.5 616.273 1543.11 615.805C1542.72 615.414 1542.21 614.906 1541.59 614.281C1540.96 613.656 1540.22 612.953 1539.36 612.172ZM1613.07 633.5C1615.1 633.5 1617.21 633.891 1619.4 634.672C1621.59 635.375 1623.7 636.312 1625.73 637.484C1627.76 638.578 1629.59 639.789 1631.23 641.117C1632.95 642.367 1634.36 643.578 1635.45 644.75C1637.41 646.859 1638.73 649.711 1639.44 653.305C1640.22 656.82 1640.38 660.453 1639.91 664.203C1639.44 667.875 1638.34 671.352 1636.62 674.633C1634.91 677.914 1632.52 680.336 1629.48 681.898C1627.29 682.992 1625.14 683.852 1623.03 684.477C1620.92 685.102 1618.89 685.57 1616.94 685.883C1614.98 686.195 1613.15 686.352 1611.43 686.352C1609.71 686.352 1608.23 686.312 1606.98 686.234C1604.63 686.078 1602.17 685.258 1599.59 683.773C1597.09 682.289 1594.71 680.453 1592.45 678.266C1590.26 676.078 1588.38 673.695 1586.82 671.117C1585.26 668.461 1584.32 665.961 1584.01 663.617C1583.54 660.414 1583.46 657.055 1583.77 653.539C1584.09 650.023 1585.22 646.781 1587.17 643.812C1589.2 640.844 1592.25 638.383 1596.31 636.43C1600.45 634.477 1606.04 633.5 1613.07 633.5ZM1609.2 678.969C1610.06 679.125 1611.23 678.93 1612.72 678.383C1614.2 677.758 1615.65 676.781 1617.05 675.453C1618.54 674.125 1619.83 672.445 1620.92 670.414C1622.09 668.305 1622.8 665.766 1623.03 662.797C1623.27 659.906 1623.27 657.25 1623.03 654.828C1622.88 652.406 1622.52 650.297 1621.98 648.5C1621.43 646.625 1620.8 645.102 1620.1 643.93C1619.4 642.758 1618.66 641.938 1617.88 641.469C1616.55 640.766 1614.95 640.219 1613.07 639.828C1611.2 639.359 1609.59 639.438 1608.27 640.062C1607.64 640.375 1606.86 641.039 1605.92 642.055C1604.98 643.07 1604.05 644.359 1603.11 645.922C1602.17 647.406 1601.31 649.125 1600.53 651.078C1599.83 653.031 1599.32 655.062 1599.01 657.172C1598.7 659.281 1598.62 661.547 1598.77 663.969C1599.01 666.391 1599.52 668.695 1600.3 670.883C1601.08 672.992 1602.17 674.828 1603.58 676.391C1605.06 677.875 1606.94 678.734 1609.2 678.969Z" fill="#687274"/>
<path d="M1014.6 640.887C1013.44 642.763 1014.01 645.23 1015.89 646.397L1046.46 665.41C1048.33 666.576 1050.8 666.001 1051.97 664.125C1053.13 662.25 1052.56 659.783 1050.68 658.616L1023.51 641.716L1040.41 614.543C1041.58 612.667 1041 610.2 1039.13 609.034C1037.25 607.867 1034.78 608.442 1033.62 610.318L1014.6 640.887ZM1151 612L1150.09 608.104L1017.09 639.104L1018 643L1018.91 646.896L1151.91 615.896L1151 612Z" fill="#687274"/>
<path d="M1131.42 169.784C1132.96 168.198 1132.92 165.666 1131.33 164.128L1105.49 139.07C1103.9 137.532 1101.37 137.571 1099.83 139.157C1098.29 140.743 1098.33 143.276 1099.92 144.813L1122.89 167.088L1100.62 190.063C1099.08 191.649 1099.12 194.181 1100.71 195.719C1102.29 197.257 1104.82 197.218 1106.36 195.631L1131.42 169.784ZM992 169.115L992.062 173.115L1128.61 171L1128.55 167L1128.49 163.001L991.938 165.116L992 169.115Z" fill="#687274"/>
</svg>
