<svg width="2363" height="1424" viewBox="0 0 2363 1424" fill="none" xmlns="http://www.w3.org/2000/svg">
<path fill-rule="evenodd" clip-rule="evenodd" d="M2160.79 337.587C2495.02 498.656 2352.87 888.663 2176.96 856.437C1801.23 787.601 1244.83 898.912 1005.31 882.283C842.279 870.939 868.556 545.192 1038 444C1064.42 428.273 1227.91 438.586 1407.6 151.124C1655.85 -246.102 1991.58 256.054 2160.79 337.587Z" fill="#F1F0EA"/>
<path fill-rule="evenodd" clip-rule="evenodd" d="M183.876 1176.14C-120.055 1249.2 9.21093 1426.12 169.172 1411.5C510.836 1380.27 1016.79 1430.76 1234.6 1423.22C1382.85 1418.08 1358.96 1270.31 1204.88 1224.41C1180.85 1217.27 1032.18 1221.95 868.779 1091.55C643.043 911.363 337.746 1139.15 183.876 1176.14Z" fill="#F1F0EA"/>
<path d="M506.562 214.617C509.14 214.93 511.483 215.164 513.593 215.32C515.624 215.477 517.382 215.633 518.866 215.789C520.585 215.945 522.108 216.062 523.437 216.141C524.843 216.141 526.64 216.102 528.827 216.023C530.702 215.945 533.085 215.828 535.976 215.672C538.866 215.516 542.421 215.242 546.64 214.852C544.608 216.023 542.929 217.195 541.601 218.367C540.351 219.539 539.374 220.594 538.671 221.531C537.812 222.625 537.187 223.719 536.796 224.812C536.562 226.297 536.64 229.188 537.03 233.484C537.187 235.281 537.421 237.508 537.733 240.164C538.124 242.742 538.593 245.828 539.14 249.422C539.765 252.938 540.507 257 541.366 261.609C542.304 266.219 543.358 271.453 544.53 277.312C546.093 272.859 547.382 268.914 548.397 265.477C549.413 261.961 550.272 258.953 550.976 256.453C551.757 253.641 552.421 251.141 552.968 248.953C553.515 246.688 554.179 243.758 554.96 240.164C555.585 237.117 556.405 233.172 557.421 228.328C558.437 223.484 559.687 217.508 561.171 210.398L565.39 210.984C565.78 216.531 566.171 221.414 566.562 225.633C567.03 229.852 567.421 233.445 567.733 236.414C568.046 239.852 568.358 242.82 568.671 245.32C568.983 247.586 569.452 250.203 570.077 253.172C570.624 255.672 571.327 258.758 572.187 262.43C573.046 266.023 574.179 270.086 575.585 274.617C576.991 269.07 578.241 264.109 579.335 259.734C580.507 255.359 581.483 251.492 582.265 248.133C583.124 244.773 583.827 241.883 584.374 239.461C584.999 237.039 585.507 235.008 585.897 233.367C586.757 229.461 587.265 226.844 587.421 225.516C587.343 224.031 586.991 222.586 586.366 221.18C585.819 219.93 584.96 218.562 583.788 217.078C582.616 215.594 580.897 214.148 578.632 212.742C583.397 212.898 587.265 213.016 590.233 213.094C593.28 213.094 595.702 213.094 597.499 213.094H602.187H606.405C607.968 213.094 609.999 213.094 612.499 213.094C615.077 213.016 618.358 212.898 622.343 212.742C618.905 214.539 616.132 216.18 614.022 217.664C611.913 219.148 610.272 220.398 609.101 221.414C607.694 222.664 606.679 223.719 606.054 224.578C605.429 226.141 604.413 229.656 603.007 235.125C602.382 237.469 601.679 240.398 600.897 243.914C600.116 247.352 599.179 251.492 598.085 256.336C597.069 261.18 595.897 266.844 594.569 273.328C593.241 279.734 591.757 287.078 590.116 295.359L569.843 293.25L561.171 256.805C559.843 263.445 558.788 268.836 558.007 272.977C557.226 277.039 556.64 280.203 556.249 282.469C555.78 285.203 555.507 287.195 555.429 288.445C555.351 289.539 555.272 290.594 555.194 291.609C555.116 292.469 554.999 293.406 554.843 294.422C554.765 295.438 554.647 296.375 554.491 297.234H533.749C531.718 288.328 529.882 280.477 528.241 273.68C526.679 266.805 525.272 260.789 524.022 255.633C522.772 250.477 521.679 246.102 520.741 242.508C519.882 238.914 519.101 235.906 518.397 233.484C516.835 227.859 515.702 224.383 514.999 223.055C514.452 222.43 513.749 221.688 512.89 220.828C512.187 220.125 511.327 219.266 510.312 218.25C509.218 217.156 507.968 215.945 506.562 214.617ZM608.515 240.867C609.999 240.945 611.327 240.984 612.499 240.984C613.749 240.906 614.804 240.828 615.663 240.75C616.679 240.672 617.577 240.594 618.358 240.516C619.53 240.359 620.741 240.164 621.991 239.93C623.085 239.773 624.218 239.578 625.39 239.344C626.64 239.031 627.851 238.68 629.022 238.289C628.554 239.461 628.163 240.477 627.851 241.336C627.538 242.195 627.304 242.938 627.147 243.562C626.913 244.266 626.796 244.852 626.796 245.32C626.718 245.867 626.679 246.531 626.679 247.312C626.601 248.641 626.601 250.789 626.679 253.758C630.741 250.242 634.14 247.508 636.874 245.555C639.687 243.602 641.913 242.078 643.554 240.984C645.507 239.734 647.03 238.914 648.124 238.523C651.015 238.055 653.554 238.719 655.741 240.516C656.679 241.297 657.577 242.352 658.437 243.68C659.296 244.93 660.038 246.609 660.663 248.719C661.288 250.828 661.757 253.367 662.069 256.336C662.382 259.227 662.421 262.703 662.187 266.766C660.546 266.922 659.062 267.078 657.733 267.234C656.483 267.391 655.429 267.508 654.569 267.586C653.554 267.742 652.616 267.82 651.757 267.82L648.593 268.172C647.499 268.328 646.132 268.484 644.491 268.641C642.929 268.719 641.015 268.875 638.749 269.109C642.03 266.453 644.14 264.148 645.077 262.195C646.093 260.164 646.522 258.484 646.366 257.156C646.21 255.672 645.507 254.383 644.257 253.289C642.772 252.43 641.171 252.117 639.452 252.352C637.968 252.508 636.249 253.172 634.296 254.344C632.343 255.516 630.272 257.703 628.085 260.906C628.241 265.906 628.397 270.047 628.554 273.328C628.788 276.609 628.983 279.266 629.14 281.297C629.374 283.641 629.569 285.477 629.726 286.805C629.96 287.977 630.429 289.227 631.132 290.555C631.679 291.648 632.46 292.859 633.476 294.188C634.491 295.516 635.819 296.844 637.46 298.172C634.022 298.016 631.21 298.016 629.022 298.172C627.694 298.25 626.522 298.328 625.507 298.406C624.413 298.562 623.241 298.719 621.991 298.875C620.897 299.031 619.608 299.188 618.124 299.344C616.718 299.578 615.155 299.812 613.437 300.047C614.062 299.188 614.569 298.172 614.96 297C615.351 295.906 615.663 294.852 615.897 293.836C616.21 292.664 616.444 291.453 616.601 290.203C616.679 289.109 616.718 287.469 616.718 285.281C616.796 283.094 616.757 280.633 616.601 277.898C616.522 275.086 616.405 272.195 616.249 269.227C616.093 266.18 615.897 263.328 615.663 260.672C615.429 258.016 615.155 255.711 614.843 253.758C614.608 251.727 614.335 250.32 614.022 249.539C613.632 248.602 613.163 247.664 612.616 246.727C612.147 245.867 611.562 244.969 610.858 244.031C610.155 243.016 609.374 241.961 608.515 240.867ZM667.108 244.617L688.671 244.852C687.421 249.617 686.483 253.68 685.858 257.039C685.312 260.398 684.96 263.211 684.804 265.477C684.491 268.055 684.413 270.242 684.569 272.039C684.804 273.68 685.194 275.438 685.741 277.312C686.21 278.875 686.913 280.672 687.851 282.703C688.788 284.734 690.038 286.766 691.601 288.797C690.663 288.484 689.647 288.25 688.554 288.094C687.46 287.938 686.444 287.82 685.507 287.742C684.413 287.664 683.319 287.664 682.226 287.742C681.132 287.82 679.921 287.938 678.593 288.094C677.499 288.25 676.171 288.445 674.608 288.68C673.046 288.914 671.405 289.227 669.687 289.617C670.858 286.102 671.757 283.055 672.382 280.477C673.085 277.898 673.593 275.75 673.905 274.031C674.218 272 674.413 270.359 674.491 269.109C674.491 267.547 674.491 265.789 674.491 263.836C674.491 261.805 674.491 259.852 674.491 257.977C674.491 256.102 674.452 254.461 674.374 253.055C674.296 251.57 674.14 250.633 673.905 250.242L672.733 249.07C672.265 248.68 671.562 248.133 670.624 247.43C669.765 246.648 668.593 245.711 667.108 244.617ZM675.429 226.57C677.069 225.711 678.71 225.477 680.351 225.867C682.069 226.258 683.397 227 684.335 228.094C685.272 229.188 685.585 230.477 685.272 231.961C685.038 233.445 683.788 234.891 681.522 236.297C679.257 237.625 677.265 238.094 675.546 237.703C673.827 237.312 672.616 236.492 671.913 235.242C671.21 233.992 671.093 232.547 671.562 230.906C672.03 229.188 673.319 227.742 675.429 226.57ZM694.413 223.172C696.757 223.406 698.71 223.602 700.272 223.758C701.913 223.914 703.241 224.031 704.257 224.109C705.429 224.188 706.366 224.227 707.069 224.227C707.772 224.305 708.71 224.305 709.882 224.227C710.897 224.148 712.226 224.07 713.866 223.992C715.507 223.836 717.577 223.602 720.077 223.289C719.53 224.07 719.101 224.773 718.788 225.398C718.476 225.945 718.202 226.453 717.968 226.922L717.265 228.328C717.108 228.797 716.952 229.266 716.796 229.734C716.64 230.125 716.483 230.594 716.327 231.141C716.249 231.688 716.171 232.273 716.093 232.898H734.14L732.499 242.391L715.976 241.453C715.585 245.438 715.312 248.523 715.155 250.711C714.999 252.898 714.843 254.5 714.687 255.516L714.452 257.625C714.218 260.594 713.983 263.836 713.749 267.352C713.515 270.789 713.437 273.992 713.515 276.961C713.593 279.93 713.866 282.43 714.335 284.461C714.804 286.414 715.624 287.391 716.796 287.391C717.968 287.391 719.062 287.078 720.077 286.453C721.093 285.828 721.952 285.086 722.655 284.227C723.437 283.367 724.022 282.508 724.413 281.648C724.804 280.711 724.999 280.008 724.999 279.539C724.999 279.07 724.882 278.523 724.647 277.898C724.257 276.727 723.554 275.242 722.538 273.445C724.804 273.992 726.796 274.539 728.515 275.086C729.374 275.398 730.155 275.711 730.858 276.023C731.64 276.336 732.538 276.688 733.554 277.078C734.413 277.469 735.507 277.938 736.835 278.484C738.163 279.031 739.726 279.695 741.522 280.477C739.804 280.789 738.554 281.297 737.772 282C737.304 282.312 736.952 282.664 736.718 283.055C736.171 283.914 735.546 285.086 734.843 286.57C734.14 287.977 733.085 289.383 731.679 290.789C730.272 292.195 728.358 293.445 725.937 294.539C723.593 295.633 720.429 296.258 716.444 296.414C712.304 296.57 709.14 295.867 706.952 294.305C704.843 292.742 703.28 290.945 702.265 288.914C701.327 286.805 700.78 284.734 700.624 282.703C700.468 280.672 700.351 279.305 700.272 278.602C700.194 277.898 700.194 276.141 700.272 273.328C700.351 270.516 700.468 267.43 700.624 264.07C700.78 260.633 700.937 257.352 701.093 254.227C701.249 251.023 701.327 248.68 701.327 247.195C701.327 246.414 701.366 245.594 701.444 244.734C701.444 244.031 701.444 243.289 701.444 242.508C701.522 241.648 701.562 240.828 701.562 240.047L684.569 239.93L683.866 233.25L700.976 233.719C700.819 232.859 700.624 232.078 700.39 231.375C700.233 230.594 700.077 229.969 699.921 229.5C699.687 228.953 699.452 228.484 699.218 228.094C698.905 227.703 698.554 227.273 698.163 226.805C697.772 226.414 697.265 225.906 696.64 225.281C696.015 224.656 695.272 223.953 694.413 223.172ZM767.187 278.133C769.374 278.133 771.405 277.898 773.28 277.43C774.843 277.039 776.327 276.414 777.733 275.555C779.218 274.617 780.194 273.25 780.663 271.453C782.226 271.766 783.554 272.039 784.647 272.273C785.741 272.43 786.679 272.586 787.46 272.742C788.319 272.977 789.062 273.133 789.687 273.211C790.312 273.367 791.054 273.523 791.913 273.68C792.694 273.836 793.632 274.031 794.726 274.266C795.897 274.422 797.265 274.656 798.827 274.969C797.655 274.812 796.444 274.93 795.194 275.32C794.022 275.711 792.89 276.141 791.796 276.609C790.546 277.156 789.374 277.82 788.28 278.602C787.577 279.07 786.757 279.773 785.819 280.711C784.96 281.648 783.71 282.547 782.069 283.406C780.429 284.266 778.241 285.008 775.507 285.633C772.851 286.18 769.413 286.375 765.194 286.219C760.116 286.062 755.858 285.164 752.421 283.523C748.983 281.805 746.21 279.734 744.101 277.312C741.991 274.812 740.468 272.117 739.53 269.227C738.593 266.336 738.085 263.641 738.007 261.141C737.929 258.641 738.671 256.023 740.233 253.289C741.796 250.555 743.983 248.055 746.796 245.789C749.687 243.523 753.163 241.688 757.226 240.281C761.288 238.797 765.741 238.055 770.585 238.055C773.397 238.055 775.976 238.406 778.319 239.109C780.741 239.734 782.929 240.594 784.882 241.688C786.913 242.781 788.671 244.031 790.155 245.438C791.64 246.766 792.89 248.133 793.905 249.539C794.921 251.023 795.78 252.586 796.483 254.227C797.108 255.633 797.616 257.234 798.007 259.031C798.397 260.828 798.515 262.664 798.358 264.539C792.421 264.695 787.616 264.812 783.944 264.891C780.351 264.969 777.538 265.008 775.507 265.008H770.233H766.249C764.843 265.008 763.007 265.047 760.741 265.125C758.476 265.203 755.702 265.32 752.421 265.477C752.812 268.602 753.788 271.023 755.351 272.742C756.991 274.383 758.71 275.633 760.507 276.492C762.538 277.43 764.765 277.977 767.187 278.133ZM756.64 257.039C759.14 257.195 761.21 257.312 762.851 257.391C764.569 257.469 765.976 257.547 767.069 257.625C768.241 257.703 769.179 257.742 769.882 257.742H772.812C774.765 257.742 778.397 257.625 783.71 257.391C783.476 253.953 782.733 251.336 781.483 249.539C780.312 247.742 779.062 246.414 777.733 245.555C776.171 244.617 774.452 244.07 772.577 243.914C767.499 243.992 763.71 245.047 761.21 247.078C758.788 249.109 757.265 252.43 756.64 257.039ZM850.272 249.539C850.663 249.07 850.897 248.211 850.976 246.961C851.132 245.633 851.444 244.148 851.913 242.508C852.46 240.867 853.358 239.148 854.608 237.352C855.858 235.555 857.89 233.875 860.702 232.312C863.437 230.75 866.093 229.812 868.671 229.5C871.249 229.188 873.71 229.305 876.054 229.852C878.397 230.398 880.585 231.258 882.616 232.43C884.726 233.602 886.64 234.891 888.358 236.297C889.53 237.234 890.468 238.602 891.171 240.398C891.874 242.117 892.421 244.07 892.812 246.258C893.202 248.445 893.476 250.75 893.632 253.172C893.866 255.516 894.022 257.82 894.101 260.086C894.179 262.273 894.218 264.305 894.218 266.18C894.296 267.977 894.452 269.461 894.687 270.633C894.999 272.352 895.546 273.836 896.327 275.086C897.108 276.258 897.968 277.273 898.905 278.133C899.843 278.914 900.78 279.539 901.718 280.008C902.655 280.477 903.476 280.828 904.179 281.062C904.647 281.297 905.077 281.453 905.468 281.531C906.249 281.844 906.796 281.844 907.108 281.531C906.64 282.625 906.21 283.562 905.819 284.344C905.429 285.125 905.116 285.789 904.882 286.336C904.569 286.961 904.296 287.469 904.062 287.859C903.827 288.328 903.554 288.758 903.241 289.148C903.007 289.539 902.694 289.969 902.304 290.438C901.913 290.906 901.522 291.414 901.132 291.961C900.116 291.57 899.14 291.102 898.202 290.555C897.343 290.008 896.562 289.5 895.858 289.031C894.999 288.484 894.218 287.938 893.515 287.391C892.812 286.844 892.147 286.219 891.522 285.516C890.976 284.891 890.39 284.227 889.765 283.523C889.218 282.82 888.749 282.039 888.358 281.18C887.89 282.195 886.757 283.641 884.96 285.516C883.241 287.391 880.976 289.109 878.163 290.672C875.351 292.156 872.069 293.211 868.319 293.836C864.647 294.461 860.585 294.031 856.132 292.547C854.179 291.922 852.343 291.023 850.624 289.852C848.905 288.602 847.421 287.117 846.171 285.398C844.999 283.68 844.14 281.727 843.593 279.539C843.124 277.273 843.163 274.773 843.71 272.039C844.257 269.305 845.233 267 846.64 265.125C848.046 263.25 849.726 261.727 851.679 260.555C853.632 259.383 855.819 258.484 858.241 257.859C860.663 257.234 863.163 256.805 865.741 256.57C867.772 256.492 869.804 256.609 871.835 256.922C873.554 257.234 875.351 257.82 877.226 258.68C879.101 259.461 880.702 260.672 882.03 262.312C881.952 258.172 881.796 254.891 881.562 252.469C881.405 249.969 881.249 248.055 881.093 246.727C880.78 245.164 880.507 244.07 880.272 243.445C879.882 242.898 879.452 242.273 878.983 241.57C878.593 240.867 878.085 240.242 877.46 239.695C876.835 239.07 876.054 238.562 875.116 238.172C874.179 237.781 873.085 237.625 871.835 237.703C870.507 237.781 869.452 238.133 868.671 238.758C867.89 239.383 867.265 240.125 866.796 240.984C866.405 241.766 866.171 242.625 866.093 243.562C866.015 244.5 866.054 245.32 866.21 246.023C866.366 246.492 866.601 247 866.913 247.547C867.226 248.016 867.655 248.523 868.202 249.07C868.749 249.617 869.491 250.086 870.429 250.477C868.632 250.711 867.03 250.906 865.624 251.062C864.218 251.141 863.007 251.258 861.991 251.414C860.819 251.57 859.804 251.688 858.944 251.766C858.085 251.844 857.069 252 855.897 252.234C854.882 252.391 853.632 252.586 852.147 252.82C850.663 253.055 848.944 253.367 846.991 253.758C847.46 253.211 847.89 252.703 848.28 252.234C848.671 251.688 849.022 251.219 849.335 250.828C849.647 250.359 849.96 249.93 850.272 249.539ZM867.851 263.484C866.444 263.562 865.038 263.914 863.632 264.539C862.226 265.086 860.976 265.906 859.882 267C858.788 268.016 857.851 269.227 857.069 270.633C856.366 271.961 856.015 273.445 856.015 275.086C856.015 276.727 856.405 278.172 857.187 279.422C858.046 280.594 859.14 281.57 860.468 282.352C861.874 283.133 863.358 283.602 864.921 283.758C866.562 283.914 868.163 283.758 869.726 283.289C871.21 282.742 872.616 281.883 873.944 280.711C875.272 279.461 876.405 278.133 877.343 276.727C878.28 275.242 878.944 273.797 879.335 272.391C879.726 270.906 879.765 269.695 879.452 268.758C878.827 266.727 877.421 265.32 875.233 264.539C873.046 263.68 870.585 263.328 867.851 263.484ZM520.39 429.109C520.937 426.531 521.327 424.266 521.562 422.312C521.874 420.281 522.108 418.602 522.265 417.273C522.421 415.711 522.499 414.383 522.499 413.289C522.421 411.961 522.343 410.398 522.265 408.602C522.265 406.727 522.187 404.891 522.03 403.094C521.952 401.219 521.835 399.578 521.679 398.172C521.522 396.688 521.327 395.633 521.093 395.008C520.78 394.383 520.351 393.719 519.804 393.016C518.71 391.688 517.108 390.398 514.999 389.148C516.796 388.758 518.319 388.445 519.569 388.211C520.897 387.898 521.991 387.625 522.851 387.391C523.788 387.078 524.608 386.805 525.312 386.57C525.937 386.336 526.679 386.102 527.538 385.867C528.241 385.711 529.101 385.516 530.116 385.281C531.132 385.047 532.304 384.773 533.632 384.461L533.28 395.125C535.78 392.156 538.319 389.93 540.897 388.445C543.476 386.961 545.897 385.906 548.163 385.281C550.741 384.5 553.28 384.109 555.78 384.109C558.905 384.266 561.796 384.773 564.452 385.633C567.187 386.492 569.53 387.508 571.483 388.68C573.515 389.773 575.155 390.945 576.405 392.195C577.655 393.445 578.397 394.539 578.632 395.477C579.569 398.523 579.804 401.336 579.335 403.914C578.866 406.414 578.241 408.875 577.46 411.297C576.757 413.641 576.132 415.984 575.585 418.328C575.116 420.672 575.312 423.211 576.171 425.945C576.483 426.648 576.796 427.352 577.108 428.055C577.421 428.68 577.812 429.305 578.28 429.93C578.749 430.555 579.296 431.062 579.921 431.453C579.062 431.375 578.202 431.336 577.343 431.336C576.483 431.258 575.702 431.18 574.999 431.102C574.14 431.023 573.358 430.945 572.655 430.867C571.874 430.789 570.819 430.75 569.491 430.75C567.226 430.75 563.71 430.867 558.944 431.102C559.647 429.461 560.194 428.094 560.585 427C561.054 425.828 561.444 424.891 561.757 424.188C562.069 423.328 562.304 422.664 562.46 422.195C563.397 419.93 563.944 417.352 564.101 414.461C564.335 411.57 564.14 408.641 563.515 405.672C563.28 404.656 562.89 403.445 562.343 402.039C561.796 400.633 561.054 399.266 560.116 397.938C559.257 396.609 558.202 395.477 556.952 394.539C555.78 393.602 554.413 393.055 552.851 392.898C551.288 392.742 549.53 393.133 547.577 394.07C545.702 395.008 543.671 396.727 541.483 399.227C539.843 401.336 538.554 403.914 537.616 406.961C536.757 409.539 536.171 412.781 535.858 416.688C535.546 420.516 536.015 425.008 537.265 430.164C536.171 430.008 535.155 429.93 534.218 429.93C533.28 429.852 532.499 429.773 531.874 429.695C531.093 429.617 530.39 429.539 529.765 429.461C529.062 429.461 528.28 429.422 527.421 429.344C526.64 429.344 525.663 429.344 524.491 429.344C523.319 429.266 521.952 429.188 520.39 429.109ZM617.538 423.133C619.726 423.133 621.757 422.898 623.632 422.43C625.194 422.039 626.679 421.414 628.085 420.555C629.569 419.617 630.546 418.25 631.015 416.453C632.577 416.766 633.905 417.039 634.999 417.273C636.093 417.43 637.03 417.586 637.812 417.742C638.671 417.977 639.413 418.133 640.038 418.211C640.663 418.367 641.405 418.523 642.265 418.68C643.046 418.836 643.983 419.031 645.077 419.266C646.249 419.422 647.616 419.656 649.179 419.969C648.007 419.812 646.796 419.93 645.546 420.32C644.374 420.711 643.241 421.141 642.147 421.609C640.897 422.156 639.726 422.82 638.632 423.602C637.929 424.07 637.108 424.773 636.171 425.711C635.312 426.648 634.062 427.547 632.421 428.406C630.78 429.266 628.593 430.008 625.858 430.633C623.202 431.18 619.765 431.375 615.546 431.219C610.468 431.062 606.21 430.164 602.772 428.523C599.335 426.805 596.562 424.734 594.452 422.312C592.343 419.812 590.819 417.117 589.882 414.227C588.944 411.336 588.437 408.641 588.358 406.141C588.28 403.641 589.022 401.023 590.585 398.289C592.147 395.555 594.335 393.055 597.147 390.789C600.038 388.523 603.515 386.688 607.577 385.281C611.64 383.797 616.093 383.055 620.937 383.055C623.749 383.055 626.327 383.406 628.671 384.109C631.093 384.734 633.28 385.594 635.233 386.688C637.265 387.781 639.022 389.031 640.507 390.438C641.991 391.766 643.241 393.133 644.257 394.539C645.272 396.023 646.132 397.586 646.835 399.227C647.46 400.633 647.968 402.234 648.358 404.031C648.749 405.828 648.866 407.664 648.71 409.539C642.772 409.695 637.968 409.812 634.296 409.891C630.702 409.969 627.89 410.008 625.858 410.008H620.585H616.601C615.194 410.008 613.358 410.047 611.093 410.125C608.827 410.203 606.054 410.32 602.772 410.477C603.163 413.602 604.14 416.023 605.702 417.742C607.343 419.383 609.062 420.633 610.858 421.492C612.89 422.43 615.116 422.977 617.538 423.133ZM606.991 402.039C609.491 402.195 611.562 402.312 613.202 402.391C614.921 402.469 616.327 402.547 617.421 402.625C618.593 402.703 619.53 402.742 620.233 402.742H623.163C625.116 402.742 628.749 402.625 634.062 402.391C633.827 398.953 633.085 396.336 631.835 394.539C630.663 392.742 629.413 391.414 628.085 390.555C626.522 389.617 624.804 389.07 622.929 388.914C617.851 388.992 614.062 390.047 611.562 392.078C609.14 394.109 607.616 397.43 606.991 402.039ZM646.249 387.977C648.593 388.133 650.663 388.25 652.46 388.328C654.335 388.406 655.897 388.484 657.147 388.562C658.554 388.641 659.804 388.68 660.897 388.68C661.991 388.68 663.241 388.641 664.647 388.562C665.897 388.484 667.421 388.367 669.218 388.211C671.093 387.977 673.241 387.664 675.663 387.273C673.788 388.445 672.265 389.539 671.093 390.555C669.999 391.492 669.14 392.352 668.515 393.133C667.812 393.992 667.343 394.773 667.108 395.477C666.952 396.102 666.796 397.352 666.64 399.227C666.562 401.023 666.483 403.133 666.405 405.555C666.405 407.898 666.444 410.398 666.522 413.055C666.601 415.711 666.718 418.133 666.874 420.32C667.03 422.43 667.265 424.227 667.577 425.711C667.89 427.117 668.28 427.781 668.749 427.703C669.374 427.156 670.39 425.32 671.796 422.195C672.343 420.867 673.007 419.188 673.788 417.156C674.569 415.047 675.468 412.508 676.483 409.539C677.499 406.492 678.632 402.938 679.882 398.875C681.21 394.812 682.694 390.086 684.335 384.695H694.53C694.843 390.008 695.194 394.656 695.585 398.641C695.976 402.625 696.366 406.102 696.757 409.07C697.147 411.961 697.499 414.422 697.812 416.453C698.202 418.406 698.593 420.008 698.983 421.258C699.843 424.227 700.702 425.828 701.562 426.062C702.265 425.906 703.007 425.008 703.788 423.367C704.647 421.727 705.429 419.695 706.132 417.273C706.913 414.852 707.616 412.234 708.241 409.422C708.866 406.531 709.413 403.836 709.882 401.336C710.351 398.836 710.663 396.648 710.819 394.773C710.976 392.898 710.976 391.727 710.819 391.258C710.585 390.789 710.116 390.125 709.413 389.266C708.788 388.562 707.929 387.703 706.835 386.688C705.819 385.672 704.413 384.461 702.616 383.055C704.804 383.445 706.874 383.719 708.827 383.875C710.858 383.953 712.655 384.031 714.218 384.109C716.015 384.188 717.655 384.188 719.14 384.109C720.702 384.109 722.616 384.07 724.882 383.992C726.835 383.914 729.257 383.875 732.147 383.875C735.116 383.875 738.593 383.797 742.577 383.641C739.062 384.734 736.249 385.789 734.14 386.805C732.108 387.742 730.546 388.641 729.452 389.5C728.124 390.438 727.187 391.336 726.64 392.195C726.093 393.367 725.233 395.828 724.062 399.578C723.593 401.141 723.007 403.094 722.304 405.438C721.601 407.703 720.78 410.398 719.843 413.523C718.905 416.648 717.851 420.281 716.679 424.422C715.507 428.484 714.179 433.133 712.694 438.367C711.835 438.211 710.937 438.133 709.999 438.133C709.14 438.055 708.319 438.016 707.538 438.016H704.843C703.905 438.094 702.89 438.172 701.796 438.25C700.858 438.328 699.765 438.445 698.515 438.602C697.265 438.758 695.897 438.953 694.413 439.188L687.382 410.711L675.897 439.188L662.772 438.836C661.132 430.008 659.804 422.977 658.788 417.742C657.851 412.43 657.069 408.367 656.444 405.555C655.741 402.273 655.272 399.969 655.038 398.641C654.647 397.234 654.062 395.867 653.28 394.539C652.655 393.445 651.757 392.312 650.585 391.141C649.413 389.891 647.968 388.836 646.249 387.977ZM768.944 359.734C770.741 360.203 772.382 360.555 773.866 360.789C775.429 360.945 776.757 361.062 777.851 361.141C779.179 361.219 780.39 361.258 781.483 361.258C782.577 361.258 783.944 361.18 785.585 361.023C788.476 360.789 792.577 360.203 797.89 359.266C797.03 359.891 796.21 360.516 795.429 361.141C794.726 361.688 794.101 362.234 793.554 362.781L791.796 364.539C790.78 365.945 789.765 368.328 788.749 371.688C787.89 374.578 786.952 378.641 785.937 383.875C784.999 389.109 784.14 396.062 783.358 404.734C787.187 400.984 790.78 398.172 794.14 396.297C797.577 394.344 800.585 392.938 803.163 392.078C806.21 391.141 808.983 390.633 811.483 390.555C814.687 390.789 817.46 391.453 819.804 392.547C822.226 393.562 824.257 394.812 825.897 396.297C827.616 397.703 828.983 399.188 829.999 400.75C831.093 402.234 831.913 403.562 832.46 404.734C832.772 405.516 833.007 406.961 833.163 409.07C833.397 411.102 833.437 413.445 833.28 416.102C833.124 418.758 832.694 421.57 831.991 424.539C831.366 427.43 830.312 430.125 828.827 432.625C827.421 435.047 825.546 437.078 823.202 438.719C820.937 440.359 818.085 441.258 814.647 441.414C810.663 441.414 806.796 440.945 803.046 440.008C799.843 439.227 796.444 437.859 792.851 435.906C789.335 433.875 786.327 430.984 783.827 427.234C783.827 428.172 783.827 429.109 783.827 430.047C783.827 430.906 783.866 431.648 783.944 432.273C784.022 433.133 784.101 433.875 784.179 434.5C784.257 435.203 784.452 435.945 784.765 436.727C784.999 437.352 785.351 438.133 785.819 439.07C786.366 439.93 787.069 440.789 787.929 441.648C787.069 441.57 786.21 441.531 785.351 441.531C784.491 441.453 783.632 441.453 782.772 441.531C781.835 441.609 780.897 441.688 779.96 441.766C779.022 441.844 778.046 441.961 777.03 442.117C776.171 442.273 775.155 442.469 773.983 442.703C772.812 442.938 771.601 443.211 770.351 443.523C770.585 442.82 770.78 441.805 770.937 440.477C771.093 439.07 771.249 437.547 771.405 435.906C771.64 434.188 771.796 432.391 771.874 430.516C772.03 428.641 772.187 426.766 772.343 424.891C772.655 420.594 772.929 415.906 773.163 410.828C773.397 402.938 773.437 395.594 773.28 388.797C773.202 385.906 773.046 382.977 772.812 380.008C772.655 377.039 772.421 374.266 772.108 371.688C771.796 369.031 771.366 366.688 770.819 364.656C770.351 362.547 769.726 360.906 768.944 359.734ZM784.179 416.805C785.429 419.07 786.757 421.023 788.163 422.664C789.569 424.227 790.976 425.555 792.382 426.648C793.788 427.742 795.155 428.602 796.483 429.227C797.89 429.852 799.218 430.32 800.468 430.633C803.358 431.414 806.21 431.492 809.022 430.867C811.835 430.086 814.022 428.523 815.585 426.18C817.147 423.836 818.358 421.18 819.218 418.211C819.608 416.805 819.843 415.008 819.921 412.82C820.077 410.633 819.843 408.523 819.218 406.492C818.671 404.383 817.655 402.547 816.171 400.984C814.687 399.344 812.538 398.367 809.726 398.055C807.772 398.055 805.507 398.602 802.929 399.695C800.663 400.633 797.968 402.195 794.843 404.383C791.718 406.492 788.163 409.656 784.179 413.875V416.805ZM838.788 389.617L860.351 389.852C859.101 394.617 858.163 398.68 857.538 402.039C856.991 405.398 856.64 408.211 856.483 410.477C856.171 413.055 856.093 415.242 856.249 417.039C856.483 418.68 856.874 420.438 857.421 422.312C857.89 423.875 858.593 425.672 859.53 427.703C860.468 429.734 861.718 431.766 863.28 433.797C862.343 433.484 861.327 433.25 860.233 433.094C859.14 432.938 858.124 432.82 857.187 432.742C856.093 432.664 854.999 432.664 853.905 432.742C852.812 432.82 851.601 432.938 850.272 433.094C849.179 433.25 847.851 433.445 846.288 433.68C844.726 433.914 843.085 434.227 841.366 434.617C842.538 431.102 843.437 428.055 844.062 425.477C844.765 422.898 845.272 420.75 845.585 419.031C845.897 417 846.093 415.359 846.171 414.109C846.171 412.547 846.171 410.789 846.171 408.836C846.171 406.805 846.171 404.852 846.171 402.977C846.171 401.102 846.132 399.461 846.054 398.055C845.976 396.57 845.819 395.633 845.585 395.242L844.413 394.07C843.944 393.68 843.241 393.133 842.304 392.43C841.444 391.648 840.272 390.711 838.788 389.617ZM847.108 371.57C848.749 370.711 850.39 370.477 852.03 370.867C853.749 371.258 855.077 372 856.015 373.094C856.952 374.188 857.265 375.477 856.952 376.961C856.718 378.445 855.468 379.891 853.202 381.297C850.937 382.625 848.944 383.094 847.226 382.703C845.507 382.312 844.296 381.492 843.593 380.242C842.89 378.992 842.772 377.547 843.241 375.906C843.71 374.188 844.999 372.742 847.108 371.57ZM898.905 389.5C900.937 389.5 903.046 389.891 905.233 390.672C907.421 391.375 909.53 392.312 911.562 393.484C913.593 394.578 915.429 395.789 917.069 397.117C918.788 398.367 920.194 399.578 921.288 400.75C923.241 402.859 924.569 405.711 925.272 409.305C926.054 412.82 926.21 416.453 925.741 420.203C925.272 423.875 924.179 427.352 922.46 430.633C920.741 433.914 918.358 436.336 915.312 437.898C913.124 438.992 910.976 439.852 908.866 440.477C906.757 441.102 904.726 441.57 902.772 441.883C900.819 442.195 898.983 442.352 897.265 442.352C895.546 442.352 894.062 442.312 892.812 442.234C890.468 442.078 888.007 441.258 885.429 439.773C882.929 438.289 880.546 436.453 878.28 434.266C876.093 432.078 874.218 429.695 872.655 427.117C871.093 424.461 870.155 421.961 869.843 419.617C869.374 416.414 869.296 413.055 869.608 409.539C869.921 406.023 871.054 402.781 873.007 399.812C875.038 396.844 878.085 394.383 882.147 392.43C886.288 390.477 891.874 389.5 898.905 389.5ZM895.038 434.969C895.897 435.125 897.069 434.93 898.554 434.383C900.038 433.758 901.483 432.781 902.89 431.453C904.374 430.125 905.663 428.445 906.757 426.414C907.929 424.305 908.632 421.766 908.866 418.797C909.101 415.906 909.101 413.25 908.866 410.828C908.71 408.406 908.358 406.297 907.812 404.5C907.265 402.625 906.64 401.102 905.937 399.93C905.233 398.758 904.491 397.938 903.71 397.469C902.382 396.766 900.78 396.219 898.905 395.828C897.03 395.359 895.429 395.438 894.101 396.062C893.476 396.375 892.694 397.039 891.757 398.055C890.819 399.07 889.882 400.359 888.944 401.922C888.007 403.406 887.147 405.125 886.366 407.078C885.663 409.031 885.155 411.062 884.843 413.172C884.53 415.281 884.452 417.547 884.608 419.969C884.843 422.391 885.351 424.695 886.132 426.883C886.913 428.992 888.007 430.828 889.413 432.391C890.897 433.875 892.772 434.734 895.038 434.969Z" fill="#687274"/>
<path d="M1096.02 443.309C1098.02 442.383 1098.9 440.007 1097.98 438.001L1082.9 405.311C1081.97 403.305 1079.59 402.429 1077.59 403.355C1075.58 404.28 1074.71 406.656 1075.63 408.662L1089.04 437.72L1059.98 451.124C1057.97 452.049 1057.1 454.425 1058.02 456.431C1058.95 458.437 1061.32 459.313 1063.33 458.388L1096.02 443.309ZM966.208 392.439L964.824 396.192L1092.96 443.43L1094.34 439.677L1095.73 435.923L967.592 388.686L966.208 392.439Z" fill="#687274"/>
<path d="M1160 449.5H2173C2184.32 449.5 2193.5 458.678 2193.5 470V769C2193.5 780.322 2184.32 789.5 2173 789.5H1160C1148.68 789.5 1139.5 780.322 1139.5 769V470C1139.5 458.678 1148.68 449.5 1160 449.5Z" fill="#687274" fill-opacity="0.1" stroke="#687274" stroke-width="7"/>
</svg>
