<svg width="706" height="644" viewBox="0 0 706 644" fill="none" xmlns="http://www.w3.org/2000/svg">
<ellipse cx="353" cy="322" rx="353" ry="322" fill="#F7E778"/>
<path d="M164.508 175.398C167.242 175.398 169.703 175.867 171.891 176.805C174.156 177.664 176.227 178.641 178.102 179.734C180.055 180.828 181.891 181.844 183.609 182.781C185.328 183.641 187.086 184.07 188.883 184.07C190.289 183.992 191.891 183.797 193.688 183.484C195.25 183.172 197.047 182.703 199.078 182.078C201.188 181.375 203.531 180.359 206.109 179.031C203.531 181.531 201.422 183.641 199.781 185.359C198.219 187 197.008 188.367 196.148 189.461C195.133 190.711 194.391 191.688 193.922 192.391C193.453 193.25 192.75 194.539 191.812 196.258C190.953 197.82 189.781 199.93 188.297 202.586C186.812 205.164 184.938 208.562 182.672 212.781C182.672 207.391 182.125 203.211 181.031 200.242C180.016 197.273 178.883 195.008 177.633 193.445C176.148 191.648 174.469 190.516 172.594 190.047C170.875 189.812 169.156 190.125 167.438 190.984C165.719 191.766 164 192.938 162.281 194.5C160.641 196.062 159.039 197.938 157.477 200.125C155.992 202.234 154.625 204.461 153.375 206.805C152.203 209.148 151.227 211.531 150.445 213.953C149.664 216.297 149.156 218.484 148.922 220.516C148.688 222.312 148.648 224.422 148.805 226.844C148.961 229.188 149.312 231.609 149.859 234.109C150.406 236.531 151.109 238.914 151.969 241.258C152.828 243.602 153.883 245.711 155.133 247.586C156.461 249.383 157.945 250.867 159.586 252.039C161.227 253.133 163.102 253.641 165.211 253.562C167.555 253.406 169.859 252.703 172.125 251.453C174.078 250.438 176.07 248.875 178.102 246.766C180.133 244.578 181.891 241.492 183.375 237.508L200.719 240.672C195.719 246.766 190.836 251.336 186.07 254.383C181.383 257.43 177.164 259.578 173.414 260.828C169.039 262.234 164.898 262.898 160.992 262.82C156.07 262.273 151.461 260.789 147.164 258.367C142.867 255.945 139.156 253.016 136.031 249.578C132.984 246.062 130.602 242.234 128.883 238.094C127.164 233.953 126.422 229.891 126.656 225.906C126.812 223.25 127.359 220.164 128.297 216.648C129.234 213.055 130.484 209.383 132.047 205.633C133.688 201.883 135.641 198.211 137.906 194.617C140.172 191.023 142.672 187.82 145.406 185.008C148.141 182.117 151.109 179.812 154.312 178.094C157.594 176.297 160.992 175.398 164.508 175.398ZM230.953 209.5C232.984 209.5 235.094 209.891 237.281 210.672C239.469 211.375 241.578 212.312 243.609 213.484C245.641 214.578 247.477 215.789 249.117 217.117C250.836 218.367 252.242 219.578 253.336 220.75C255.289 222.859 256.617 225.711 257.32 229.305C258.102 232.82 258.258 236.453 257.789 240.203C257.32 243.875 256.227 247.352 254.508 250.633C252.789 253.914 250.406 256.336 247.359 257.898C245.172 258.992 243.023 259.852 240.914 260.477C238.805 261.102 236.773 261.57 234.82 261.883C232.867 262.195 231.031 262.352 229.312 262.352C227.594 262.352 226.109 262.312 224.859 262.234C222.516 262.078 220.055 261.258 217.477 259.773C214.977 258.289 212.594 256.453 210.328 254.266C208.141 252.078 206.266 249.695 204.703 247.117C203.141 244.461 202.203 241.961 201.891 239.617C201.422 236.414 201.344 233.055 201.656 229.539C201.969 226.023 203.102 222.781 205.055 219.812C207.086 216.844 210.133 214.383 214.195 212.43C218.336 210.477 223.922 209.5 230.953 209.5ZM227.086 254.969C227.945 255.125 229.117 254.93 230.602 254.383C232.086 253.758 233.531 252.781 234.938 251.453C236.422 250.125 237.711 248.445 238.805 246.414C239.977 244.305 240.68 241.766 240.914 238.797C241.148 235.906 241.148 233.25 240.914 230.828C240.758 228.406 240.406 226.297 239.859 224.5C239.312 222.625 238.688 221.102 237.984 219.93C237.281 218.758 236.539 217.938 235.758 217.469C234.43 216.766 232.828 216.219 230.953 215.828C229.078 215.359 227.477 215.438 226.148 216.062C225.523 216.375 224.742 217.039 223.805 218.055C222.867 219.07 221.93 220.359 220.992 221.922C220.055 223.406 219.195 225.125 218.414 227.078C217.711 229.031 217.203 231.062 216.891 233.172C216.578 235.281 216.5 237.547 216.656 239.969C216.891 242.391 217.398 244.695 218.18 246.883C218.961 248.992 220.055 250.828 221.461 252.391C222.945 253.875 224.82 254.734 227.086 254.969ZM267.047 249.109C267.594 246.531 267.984 244.266 268.219 242.312C268.531 240.281 268.766 238.602 268.922 237.273C269.078 235.711 269.156 234.383 269.156 233.289C269.078 231.961 269 230.398 268.922 228.602C268.922 226.727 268.844 224.891 268.688 223.094C268.609 221.219 268.492 219.578 268.336 218.172C268.18 216.688 267.984 215.633 267.75 215.008C267.438 214.383 267.008 213.719 266.461 213.016C265.367 211.688 263.766 210.398 261.656 209.148C263.453 208.758 264.977 208.445 266.227 208.211C267.555 207.898 268.648 207.625 269.508 207.391C270.445 207.078 271.266 206.805 271.969 206.57C272.594 206.336 273.336 206.102 274.195 205.867C274.898 205.711 275.758 205.516 276.773 205.281C277.789 205.047 278.961 204.773 280.289 204.461L279.938 215.125C282.438 212.156 284.977 209.93 287.555 208.445C290.133 206.961 292.555 205.906 294.82 205.281C297.398 204.5 299.938 204.109 302.438 204.109C305.562 204.266 308.453 204.773 311.109 205.633C313.844 206.492 316.188 207.508 318.141 208.68C320.172 209.773 321.812 210.945 323.062 212.195C324.312 213.445 325.055 214.539 325.289 215.477C326.227 218.523 326.461 221.336 325.992 223.914C325.523 226.414 324.898 228.875 324.117 231.297C323.414 233.641 322.789 235.984 322.242 238.328C321.773 240.672 321.969 243.211 322.828 245.945C323.141 246.648 323.453 247.352 323.766 248.055C324.078 248.68 324.469 249.305 324.938 249.93C325.406 250.555 325.953 251.062 326.578 251.453C325.719 251.375 324.859 251.336 324 251.336C323.141 251.258 322.359 251.18 321.656 251.102C320.797 251.023 320.016 250.945 319.312 250.867C318.531 250.789 317.477 250.75 316.148 250.75C313.883 250.75 310.367 250.867 305.602 251.102C306.305 249.461 306.852 248.094 307.242 247C307.711 245.828 308.102 244.891 308.414 244.188C308.727 243.328 308.961 242.664 309.117 242.195C310.055 239.93 310.602 237.352 310.758 234.461C310.992 231.57 310.797 228.641 310.172 225.672C309.938 224.656 309.547 223.445 309 222.039C308.453 220.633 307.711 219.266 306.773 217.938C305.914 216.609 304.859 215.477 303.609 214.539C302.438 213.602 301.07 213.055 299.508 212.898C297.945 212.742 296.188 213.133 294.234 214.07C292.359 215.008 290.328 216.727 288.141 219.227C286.5 221.336 285.211 223.914 284.273 226.961C283.414 229.539 282.828 232.781 282.516 236.688C282.203 240.516 282.672 245.008 283.922 250.164C282.828 250.008 281.812 249.93 280.875 249.93C279.938 249.852 279.156 249.773 278.531 249.695C277.75 249.617 277.047 249.539 276.422 249.461C275.719 249.461 274.938 249.422 274.078 249.344C273.297 249.344 272.32 249.344 271.148 249.344C269.977 249.266 268.609 249.188 267.047 249.109ZM338.883 266.219C340.445 265.125 341.695 263.68 342.633 261.883C343.57 260.086 344.273 258.328 344.742 256.609C345.289 254.578 345.641 252.469 345.797 250.281C345.797 248.953 345.719 246.844 345.562 243.953C345.406 241.531 345.172 238.211 344.859 233.992C344.547 229.695 344.078 224.148 343.453 217.352C342.594 217.43 341.852 217.508 341.227 217.586C340.602 217.586 340.094 217.586 339.703 217.586H338.414C338.023 217.586 337.555 217.625 337.008 217.703C336.539 217.781 335.914 217.898 335.133 218.055C334.43 218.211 333.57 218.406 332.555 218.641C332.711 218.016 332.789 217.391 332.789 216.766C332.867 216.062 332.945 215.438 333.023 214.891C333.102 214.266 333.141 213.68 333.141 213.133V211.375C333.141 210.828 333.141 210.242 333.141 209.617C333.219 208.992 333.297 208.367 333.375 207.742L342.633 207.977C342.242 204.617 342.086 201.609 342.164 198.953C342.242 196.219 342.359 193.875 342.516 191.922C342.75 189.656 343.062 187.664 343.453 185.945C344 183.836 344.742 181.883 345.68 180.086C346.617 178.289 347.906 176.766 349.547 175.516C351.188 174.266 353.219 173.328 355.641 172.703C358.062 172 360.992 171.648 364.43 171.648C368.336 171.727 371.422 172.234 373.688 173.172C375.953 174.031 377.633 175.164 378.727 176.57C379.82 177.898 380.445 179.422 380.602 181.141C380.758 182.859 380.719 184.539 380.484 186.18C380.328 187.742 380.055 189.188 379.664 190.516C379.352 191.844 379.234 192.82 379.312 193.445C379.391 193.914 379.586 194.539 379.898 195.32C380.133 195.945 380.484 196.727 380.953 197.664C381.5 198.602 382.281 199.656 383.297 200.828C382.047 200.672 380.797 200.555 379.547 200.477C378.297 200.32 377.125 200.203 376.031 200.125C374.781 200.047 373.57 200.008 372.398 200.008C371.227 200.086 370.016 200.164 368.766 200.242C367.672 200.398 366.5 200.555 365.25 200.711C364 200.789 362.828 201.023 361.734 201.414C363.297 200.32 364.508 199.188 365.367 198.016C366.227 196.844 366.891 195.789 367.359 194.852C367.906 193.758 368.258 192.664 368.414 191.57C368.492 190.242 368.414 188.758 368.18 187.117C368.023 185.398 367.672 183.836 367.125 182.43C366.578 181.023 365.914 179.891 365.133 179.031C364.352 178.094 363.414 177.742 362.32 177.977C360.68 178.602 359.156 180.125 357.75 182.547C356.578 184.578 355.445 187.664 354.352 191.805C353.258 195.867 352.555 201.531 352.242 208.797C353.727 208.953 355.094 209.07 356.344 209.148C357.672 209.148 358.844 209.188 359.859 209.266C361.031 209.344 362.125 209.383 363.141 209.383C364.156 209.383 365.289 209.344 366.539 209.266C367.633 209.188 368.922 209.148 370.406 209.148C371.891 209.07 373.531 208.953 375.328 208.797L375.094 214.891C373.688 215.047 372.32 215.164 370.992 215.242C369.664 215.32 368.492 215.398 367.477 215.477C366.305 215.555 365.211 215.633 364.195 215.711C363.102 215.789 361.969 215.867 360.797 215.945C359.781 216.023 358.609 216.141 357.281 216.297C356.031 216.453 354.703 216.609 353.297 216.766C354.391 225.594 355.328 232.742 356.109 238.211C356.969 243.602 357.711 247.781 358.336 250.75C358.961 254.266 359.508 256.766 359.977 258.25C360.445 259.5 360.992 260.594 361.617 261.531C362.164 262.391 362.828 263.211 363.609 263.992C364.391 264.773 365.289 265.281 366.305 265.516C363.805 265.125 361.656 264.812 359.859 264.578C358.062 264.422 356.539 264.305 355.289 264.227C353.883 264.148 352.672 264.109 351.656 264.109C350.719 264.188 349.586 264.305 348.258 264.461C345.992 264.695 342.867 265.281 338.883 266.219ZM374.859 209.617L396.422 209.852C395.172 214.617 394.234 218.68 393.609 222.039C393.062 225.398 392.711 228.211 392.555 230.477C392.242 233.055 392.164 235.242 392.32 237.039C392.555 238.68 392.945 240.438 393.492 242.312C393.961 243.875 394.664 245.672 395.602 247.703C396.539 249.734 397.789 251.766 399.352 253.797C398.414 253.484 397.398 253.25 396.305 253.094C395.211 252.938 394.195 252.82 393.258 252.742C392.164 252.664 391.07 252.664 389.977 252.742C388.883 252.82 387.672 252.938 386.344 253.094C385.25 253.25 383.922 253.445 382.359 253.68C380.797 253.914 379.156 254.227 377.438 254.617C378.609 251.102 379.508 248.055 380.133 245.477C380.836 242.898 381.344 240.75 381.656 239.031C381.969 237 382.164 235.359 382.242 234.109C382.242 232.547 382.242 230.789 382.242 228.836C382.242 226.805 382.242 224.852 382.242 222.977C382.242 221.102 382.203 219.461 382.125 218.055C382.047 216.57 381.891 215.633 381.656 215.242L380.484 214.07C380.016 213.68 379.312 213.133 378.375 212.43C377.516 211.648 376.344 210.711 374.859 209.617ZM383.18 191.57C384.82 190.711 386.461 190.477 388.102 190.867C389.82 191.258 391.148 192 392.086 193.094C393.023 194.188 393.336 195.477 393.023 196.961C392.789 198.445 391.539 199.891 389.273 201.297C387.008 202.625 385.016 203.094 383.297 202.703C381.578 202.312 380.367 201.492 379.664 200.242C378.961 198.992 378.844 197.547 379.312 195.906C379.781 194.188 381.07 192.742 383.18 191.57ZM402.398 205.867C403.883 205.945 405.211 205.984 406.383 205.984C407.633 205.906 408.688 205.828 409.547 205.75C410.562 205.672 411.461 205.594 412.242 205.516C413.414 205.359 414.625 205.164 415.875 204.93C416.969 204.773 418.102 204.578 419.273 204.344C420.523 204.031 421.734 203.68 422.906 203.289C422.438 204.461 422.047 205.477 421.734 206.336C421.422 207.195 421.188 207.938 421.031 208.562C420.797 209.266 420.68 209.852 420.68 210.32C420.602 210.867 420.562 211.531 420.562 212.312C420.484 213.641 420.484 215.789 420.562 218.758C424.625 215.242 428.023 212.508 430.758 210.555C433.57 208.602 435.797 207.078 437.438 205.984C439.391 204.734 440.914 203.914 442.008 203.523C444.898 203.055 447.438 203.719 449.625 205.516C450.562 206.297 451.461 207.352 452.32 208.68C453.18 209.93 453.922 211.609 454.547 213.719C455.172 215.828 455.641 218.367 455.953 221.336C456.266 224.227 456.305 227.703 456.07 231.766C454.43 231.922 452.945 232.078 451.617 232.234C450.367 232.391 449.312 232.508 448.453 232.586C447.438 232.742 446.5 232.82 445.641 232.82L442.477 233.172C441.383 233.328 440.016 233.484 438.375 233.641C436.812 233.719 434.898 233.875 432.633 234.109C435.914 231.453 438.023 229.148 438.961 227.195C439.977 225.164 440.406 223.484 440.25 222.156C440.094 220.672 439.391 219.383 438.141 218.289C436.656 217.43 435.055 217.117 433.336 217.352C431.852 217.508 430.133 218.172 428.18 219.344C426.227 220.516 424.156 222.703 421.969 225.906C422.125 230.906 422.281 235.047 422.438 238.328C422.672 241.609 422.867 244.266 423.023 246.297C423.258 248.641 423.453 250.477 423.609 251.805C423.844 252.977 424.312 254.227 425.016 255.555C425.562 256.648 426.344 257.859 427.359 259.188C428.375 260.516 429.703 261.844 431.344 263.172C427.906 263.016 425.094 263.016 422.906 263.172C421.578 263.25 420.406 263.328 419.391 263.406C418.297 263.562 417.125 263.719 415.875 263.875C414.781 264.031 413.492 264.188 412.008 264.344C410.602 264.578 409.039 264.812 407.32 265.047C407.945 264.188 408.453 263.172 408.844 262C409.234 260.906 409.547 259.852 409.781 258.836C410.094 257.664 410.328 256.453 410.484 255.203C410.562 254.109 410.602 252.469 410.602 250.281C410.68 248.094 410.641 245.633 410.484 242.898C410.406 240.086 410.289 237.195 410.133 234.227C409.977 231.18 409.781 228.328 409.547 225.672C409.312 223.016 409.039 220.711 408.727 218.758C408.492 216.727 408.219 215.32 407.906 214.539C407.516 213.602 407.047 212.664 406.5 211.727C406.031 210.867 405.445 209.969 404.742 209.031C404.039 208.016 403.258 206.961 402.398 205.867ZM460.406 206.453C462.203 206.297 463.727 206.141 464.977 205.984C466.305 205.828 467.398 205.672 468.258 205.516C469.273 205.359 470.133 205.203 470.836 205.047C471.539 204.969 472.32 204.812 473.18 204.578C473.961 204.422 474.82 204.227 475.758 203.992C476.773 203.68 477.867 203.328 479.039 202.938L478.336 217.82C480.055 215.086 482.047 213.016 484.312 211.609C486.578 210.125 488.727 209.031 490.758 208.328C493.18 207.469 495.602 206.961 498.023 206.805C500.523 206.883 502.828 207.273 504.938 207.977C506.734 208.602 508.531 209.578 510.328 210.906C512.203 212.234 513.648 214.188 514.664 216.766C517.32 214.031 519.938 211.922 522.516 210.438C525.172 208.875 527.516 207.703 529.547 206.922C531.969 206.062 534.234 205.555 536.344 205.398C539.156 205.32 541.734 205.789 544.078 206.805C546.5 207.82 548.609 209.109 550.406 210.672C552.203 212.156 553.648 213.758 554.742 215.477C555.836 217.117 556.461 218.562 556.617 219.812C556.852 221.531 556.734 223.758 556.266 226.492C555.797 229.148 555.25 231.883 554.625 234.695C554 237.43 553.414 239.969 552.867 242.312C552.398 244.578 552.203 246.18 552.281 247.117C552.516 247.898 553.062 248.836 553.922 249.93C554.703 250.867 555.836 252.039 557.32 253.445C558.883 254.773 561.109 256.336 564 258.133C561.5 258.055 559.273 257.977 557.32 257.898C555.445 257.82 553.844 257.703 552.516 257.547C550.953 257.391 549.586 257.273 548.414 257.195C547.477 257.195 546.344 257.117 545.016 256.961C543.922 256.883 542.477 256.766 540.68 256.609C538.961 256.453 536.969 256.297 534.703 256.141C535.562 255.906 536.266 255.477 536.812 254.852C537.359 254.148 537.828 253.484 538.219 252.859C538.609 252.078 538.922 251.219 539.156 250.281C539.312 249.5 539.469 248.25 539.625 246.531C539.781 244.812 539.898 242.859 539.977 240.672C540.133 238.484 540.211 236.18 540.211 233.758C540.289 231.336 540.289 229.031 540.211 226.844C540.133 224.656 539.977 222.664 539.742 220.867C539.508 219.07 539.195 217.703 538.805 216.766C538.492 216.062 537.945 215.516 537.164 215.125C536.383 214.656 535.484 214.383 534.469 214.305C533.453 214.148 532.438 214.188 531.422 214.422C530.406 214.578 529.508 214.891 528.727 215.359C528.023 215.906 527.086 216.648 525.914 217.586C524.898 218.445 523.57 219.617 521.93 221.102C520.289 222.586 518.219 224.461 515.719 226.727C515.484 231.648 515.289 235.633 515.133 238.68C515.055 241.648 514.977 243.914 514.898 245.477C514.82 247.352 514.781 248.641 514.781 249.344C514.703 249.969 514.742 250.555 514.898 251.102C515.055 252.273 515.523 253.367 516.305 254.383C515.367 254.148 514.352 253.992 513.258 253.914C512.242 253.836 511.305 253.758 510.445 253.68C509.43 253.602 508.414 253.562 507.398 253.562C506.539 253.562 505.602 253.602 504.586 253.68C503.727 253.758 502.672 253.875 501.422 254.031C500.172 254.109 498.805 254.227 497.32 254.383C497.945 253.992 498.453 253.523 498.844 252.977C499.234 252.43 499.547 251.922 499.781 251.453C500.094 250.906 500.328 250.398 500.484 249.93C500.562 249.461 500.719 248.328 500.953 246.531C501.188 244.656 501.344 242.469 501.422 239.969C501.5 237.469 501.5 234.852 501.422 232.117C501.344 229.305 501.07 226.766 500.602 224.5C500.133 222.156 499.391 220.242 498.375 218.758C497.438 217.273 496.188 216.609 494.625 216.766C492.75 216.922 490.836 217.391 488.883 218.172C487.242 218.797 485.484 219.734 483.609 220.984C481.734 222.234 479.977 223.914 478.336 226.023C478.023 231.883 477.828 236.531 477.75 239.969C477.75 243.406 477.789 246.023 477.867 247.82C477.945 249.93 478.023 251.375 478.102 252.156C478.18 252.703 478.375 253.25 478.688 253.797C478.922 254.266 479.195 254.812 479.508 255.438C479.898 256.062 480.328 256.648 480.797 257.195L462.164 256.258C462.789 255.945 463.336 255.555 463.805 255.086C464.273 254.539 464.664 253.992 464.977 253.445C465.289 252.82 465.602 252.195 465.914 251.57C466.148 251.023 466.344 249.734 466.5 247.703C466.734 245.672 466.93 243.289 467.086 240.555C467.242 237.742 467.359 234.812 467.438 231.766C467.594 228.641 467.672 225.75 467.672 223.094C467.75 220.359 467.789 218.055 467.789 216.18C467.789 214.227 467.75 213.055 467.672 212.664C467.438 211.883 467.008 211.062 466.383 210.203C465.836 209.578 465.094 208.914 464.156 208.211C463.219 207.43 461.969 206.844 460.406 206.453ZM196.266 365.398C195.328 365.242 194.156 365.125 192.75 365.047C191.422 364.969 190.133 364.93 188.883 364.93C187.477 364.93 185.992 364.969 184.43 365.047C182.789 365.125 181.148 365.203 179.508 365.281C178.102 365.359 176.5 365.477 174.703 365.633C172.984 365.711 171.305 365.828 169.664 365.984C170.289 365.672 170.836 365.242 171.305 364.695C171.852 364.148 172.32 363.602 172.711 363.055C173.102 362.43 173.453 361.766 173.766 361.062C174.156 359.891 174.117 358.484 173.648 356.844C173.18 355.125 172.32 353.562 171.07 352.156C169.898 350.75 168.375 349.656 166.5 348.875C164.703 348.016 162.711 347.82 160.523 348.289C158.18 348.836 156.07 349.656 154.195 350.75C152.398 351.844 150.875 353.367 149.625 355.32C148.453 357.195 147.594 359.539 147.047 362.352C146.578 365.086 146.461 368.367 146.695 372.195C147.008 376.961 147.789 380.75 149.039 383.562C150.289 386.375 151.812 388.484 153.609 389.891C155.406 391.297 157.359 392.156 159.469 392.469C161.656 392.703 163.805 392.703 165.914 392.469C167.398 392.156 168.766 391.492 170.016 390.477C171.031 389.617 171.969 388.367 172.828 386.727C173.688 385.086 174.078 382.82 174 379.93L188.297 379.344C186.656 383.953 184.664 387.625 182.32 390.359C179.977 393.016 177.711 395.086 175.523 396.57C172.945 398.289 170.367 399.461 167.789 400.086C164.586 400.633 161.734 400.867 159.234 400.789C156.734 400.633 154.469 400.242 152.438 399.617C150.406 398.992 148.531 398.211 146.812 397.273C145.094 396.336 143.453 395.32 141.891 394.227C140.875 393.523 139.742 392.352 138.492 390.711C137.242 389.07 136.07 387.117 134.977 384.852C133.883 382.508 132.984 379.93 132.281 377.117C131.578 374.305 131.305 371.414 131.461 368.445C131.617 365.398 132.32 362.352 133.57 359.305C134.82 356.258 136.812 353.328 139.547 350.516C143.688 346.297 148.102 343.562 152.789 342.312C157.555 340.984 162.047 340.633 166.266 341.258C170.484 341.805 174.234 343.016 177.516 344.891C180.797 346.766 183.102 348.797 184.43 350.984C185.758 353.172 186.734 354.852 187.359 356.023C188.062 357.117 188.57 357.977 188.883 358.602C189.273 359.148 189.586 359.578 189.82 359.891C190.133 360.125 190.562 360.477 191.109 360.945C191.5 361.336 191.969 361.766 192.516 362.234C192.984 362.625 193.531 363.094 194.156 363.641C194.781 364.188 195.484 364.773 196.266 365.398ZM193.922 318.172C195.719 318.484 197.359 318.719 198.844 318.875C200.328 318.953 201.578 319.031 202.594 319.109C203.766 319.188 204.781 319.227 205.641 319.227C206.812 319.148 208.18 319.031 209.742 318.875C211.07 318.719 212.672 318.523 214.547 318.289C216.5 318.055 218.727 317.742 221.227 317.352C220.055 317.977 219.078 318.602 218.297 319.227C217.516 319.773 216.891 320.359 216.422 320.984C215.875 321.688 215.445 322.352 215.133 322.977C214.742 323.992 214.312 326.102 213.844 329.305C213.375 332.039 212.789 336.102 212.086 341.492C211.461 346.883 210.641 354.188 209.625 363.406C212.438 360.594 215.094 358.484 217.594 357.078C220.172 355.594 222.438 354.539 224.391 353.914C226.656 353.211 228.766 352.859 230.719 352.859C233.141 353.094 235.602 353.875 238.102 355.203C240.68 356.453 243.062 357.938 245.25 359.656C247.516 361.375 249.469 363.211 251.109 365.164C252.828 367.117 254.039 368.836 254.742 370.32C255.211 371.336 255.445 372.664 255.445 374.305C255.445 375.867 255.289 377.586 254.977 379.461C254.664 381.336 254.234 383.25 253.688 385.203C253.141 387.156 252.594 388.992 252.047 390.711C251.578 392.43 251.148 393.953 250.758 395.281C250.367 396.531 250.133 397.43 250.055 397.977C249.898 399.148 249.977 400.281 250.289 401.375C250.523 402.312 250.992 403.328 251.695 404.422C252.398 405.438 253.453 406.297 254.859 407C253.766 406.844 252.594 406.727 251.344 406.648C250.172 406.492 249.039 406.375 247.945 406.297C246.695 406.219 245.445 406.18 244.195 406.18H239.977C238.648 406.18 237.125 406.219 235.406 406.297C233.688 406.297 231.812 406.336 229.781 406.414C230.875 406.023 231.812 405.516 232.594 404.891C233.375 404.188 234.039 403.523 234.586 402.898C235.211 402.195 235.758 401.453 236.227 400.672C236.539 400.047 236.93 398.875 237.398 397.156C237.867 395.359 238.297 393.328 238.688 391.062C239.078 388.719 239.352 386.258 239.508 383.68C239.742 381.102 239.781 378.641 239.625 376.297C239.547 373.875 239.195 371.727 238.57 369.852C238.023 367.977 237.164 366.609 235.992 365.75C232.477 363.094 229.273 361.805 226.383 361.883C223.57 361.883 220.875 363.016 218.297 365.281C217.359 366.141 216.461 367 215.602 367.859C214.82 368.641 213.961 369.578 213.023 370.672C212.086 371.688 211.227 372.742 210.445 373.836C210.445 375.008 210.484 376.297 210.562 377.703C210.641 379.109 210.719 380.477 210.797 381.805C210.875 383.289 210.992 384.773 211.148 386.258C211.305 388.523 211.539 390.75 211.852 392.938C212.086 394.812 212.398 396.883 212.789 399.148C213.18 401.336 213.688 403.328 214.312 405.125C213.297 404.969 212.242 404.93 211.148 405.008C210.055 405.008 209 405.008 207.984 405.008C206.812 405.086 205.68 405.125 204.586 405.125C203.57 405.203 202.516 405.32 201.422 405.477C200.484 405.633 199.469 405.789 198.375 405.945C197.281 406.023 196.227 406.18 195.211 406.414C196.148 404.617 196.93 402.859 197.555 401.141C198.18 399.344 198.688 397.781 199.078 396.453C199.547 394.891 199.938 393.367 200.25 391.883C200.484 390.711 200.641 388.484 200.719 385.203C200.875 381.844 200.992 378.016 201.07 373.719C201.148 369.344 201.188 364.734 201.188 359.891C201.188 355.047 201.148 350.438 201.07 346.062C200.992 341.688 200.836 337.859 200.602 334.578C200.445 331.297 200.25 329.031 200.016 327.781C199.703 326.531 199.273 325.281 198.727 324.031C198.258 322.938 197.633 321.883 196.852 320.867C196.07 319.773 195.094 318.875 193.922 318.172ZM268.922 359.539C269.312 359.07 269.547 358.211 269.625 356.961C269.781 355.633 270.094 354.148 270.562 352.508C271.109 350.867 272.008 349.148 273.258 347.352C274.508 345.555 276.539 343.875 279.352 342.312C282.086 340.75 284.742 339.812 287.32 339.5C289.898 339.188 292.359 339.305 294.703 339.852C297.047 340.398 299.234 341.258 301.266 342.43C303.375 343.602 305.289 344.891 307.008 346.297C308.18 347.234 309.117 348.602 309.82 350.398C310.523 352.117 311.07 354.07 311.461 356.258C311.852 358.445 312.125 360.75 312.281 363.172C312.516 365.516 312.672 367.82 312.75 370.086C312.828 372.273 312.867 374.305 312.867 376.18C312.945 377.977 313.102 379.461 313.336 380.633C313.648 382.352 314.195 383.836 314.977 385.086C315.758 386.258 316.617 387.273 317.555 388.133C318.492 388.914 319.43 389.539 320.367 390.008C321.305 390.477 322.125 390.828 322.828 391.062C323.297 391.297 323.727 391.453 324.117 391.531C324.898 391.844 325.445 391.844 325.758 391.531C325.289 392.625 324.859 393.562 324.469 394.344C324.078 395.125 323.766 395.789 323.531 396.336C323.219 396.961 322.945 397.469 322.711 397.859C322.477 398.328 322.203 398.758 321.891 399.148C321.656 399.539 321.344 399.969 320.953 400.438C320.562 400.906 320.172 401.414 319.781 401.961C318.766 401.57 317.789 401.102 316.852 400.555C315.992 400.008 315.211 399.5 314.508 399.031C313.648 398.484 312.867 397.938 312.164 397.391C311.461 396.844 310.797 396.219 310.172 395.516C309.625 394.891 309.039 394.227 308.414 393.523C307.867 392.82 307.398 392.039 307.008 391.18C306.539 392.195 305.406 393.641 303.609 395.516C301.891 397.391 299.625 399.109 296.812 400.672C294 402.156 290.719 403.211 286.969 403.836C283.297 404.461 279.234 404.031 274.781 402.547C272.828 401.922 270.992 401.023 269.273 399.852C267.555 398.602 266.07 397.117 264.82 395.398C263.648 393.68 262.789 391.727 262.242 389.539C261.773 387.273 261.812 384.773 262.359 382.039C262.906 379.305 263.883 377 265.289 375.125C266.695 373.25 268.375 371.727 270.328 370.555C272.281 369.383 274.469 368.484 276.891 367.859C279.312 367.234 281.812 366.805 284.391 366.57C286.422 366.492 288.453 366.609 290.484 366.922C292.203 367.234 294 367.82 295.875 368.68C297.75 369.461 299.352 370.672 300.68 372.312C300.602 368.172 300.445 364.891 300.211 362.469C300.055 359.969 299.898 358.055 299.742 356.727C299.43 355.164 299.156 354.07 298.922 353.445C298.531 352.898 298.102 352.273 297.633 351.57C297.242 350.867 296.734 350.242 296.109 349.695C295.484 349.07 294.703 348.562 293.766 348.172C292.828 347.781 291.734 347.625 290.484 347.703C289.156 347.781 288.102 348.133 287.32 348.758C286.539 349.383 285.914 350.125 285.445 350.984C285.055 351.766 284.82 352.625 284.742 353.562C284.664 354.5 284.703 355.32 284.859 356.023C285.016 356.492 285.25 357 285.562 357.547C285.875 358.016 286.305 358.523 286.852 359.07C287.398 359.617 288.141 360.086 289.078 360.477C287.281 360.711 285.68 360.906 284.273 361.062C282.867 361.141 281.656 361.258 280.641 361.414C279.469 361.57 278.453 361.688 277.594 361.766C276.734 361.844 275.719 362 274.547 362.234C273.531 362.391 272.281 362.586 270.797 362.82C269.312 363.055 267.594 363.367 265.641 363.758C266.109 363.211 266.539 362.703 266.93 362.234C267.32 361.688 267.672 361.219 267.984 360.828C268.297 360.359 268.609 359.93 268.922 359.539ZM286.5 373.484C285.094 373.562 283.688 373.914 282.281 374.539C280.875 375.086 279.625 375.906 278.531 377C277.438 378.016 276.5 379.227 275.719 380.633C275.016 381.961 274.664 383.445 274.664 385.086C274.664 386.727 275.055 388.172 275.836 389.422C276.695 390.594 277.789 391.57 279.117 392.352C280.523 393.133 282.008 393.602 283.57 393.758C285.211 393.914 286.812 393.758 288.375 393.289C289.859 392.742 291.266 391.883 292.594 390.711C293.922 389.461 295.055 388.133 295.992 386.727C296.93 385.242 297.594 383.797 297.984 382.391C298.375 380.906 298.414 379.695 298.102 378.758C297.477 376.727 296.07 375.32 293.883 374.539C291.695 373.68 289.234 373.328 286.5 373.484ZM328.219 394.109C328.766 391.531 329.156 389.266 329.391 387.312C329.703 385.281 329.938 383.602 330.094 382.273C330.25 380.711 330.328 379.383 330.328 378.289C330.25 376.961 330.172 375.398 330.094 373.602C330.094 371.727 330.016 369.891 329.859 368.094C329.781 366.219 329.664 364.578 329.508 363.172C329.352 361.688 329.156 360.633 328.922 360.008C328.609 359.383 328.18 358.719 327.633 358.016C326.539 356.688 324.938 355.398 322.828 354.148C324.625 353.758 326.148 353.445 327.398 353.211C328.727 352.898 329.82 352.625 330.68 352.391C331.617 352.078 332.438 351.805 333.141 351.57C333.766 351.336 334.508 351.102 335.367 350.867C336.07 350.711 336.93 350.516 337.945 350.281C338.961 350.047 340.133 349.773 341.461 349.461L341.109 360.125C343.609 357.156 346.148 354.93 348.727 353.445C351.305 351.961 353.727 350.906 355.992 350.281C358.57 349.5 361.109 349.109 363.609 349.109C366.734 349.266 369.625 349.773 372.281 350.633C375.016 351.492 377.359 352.508 379.312 353.68C381.344 354.773 382.984 355.945 384.234 357.195C385.484 358.445 386.227 359.539 386.461 360.477C387.398 363.523 387.633 366.336 387.164 368.914C386.695 371.414 386.07 373.875 385.289 376.297C384.586 378.641 383.961 380.984 383.414 383.328C382.945 385.672 383.141 388.211 384 390.945C384.312 391.648 384.625 392.352 384.938 393.055C385.25 393.68 385.641 394.305 386.109 394.93C386.578 395.555 387.125 396.062 387.75 396.453C386.891 396.375 386.031 396.336 385.172 396.336C384.312 396.258 383.531 396.18 382.828 396.102C381.969 396.023 381.188 395.945 380.484 395.867C379.703 395.789 378.648 395.75 377.32 395.75C375.055 395.75 371.539 395.867 366.773 396.102C367.477 394.461 368.023 393.094 368.414 392C368.883 390.828 369.273 389.891 369.586 389.188C369.898 388.328 370.133 387.664 370.289 387.195C371.227 384.93 371.773 382.352 371.93 379.461C372.164 376.57 371.969 373.641 371.344 370.672C371.109 369.656 370.719 368.445 370.172 367.039C369.625 365.633 368.883 364.266 367.945 362.938C367.086 361.609 366.031 360.477 364.781 359.539C363.609 358.602 362.242 358.055 360.68 357.898C359.117 357.742 357.359 358.133 355.406 359.07C353.531 360.008 351.5 361.727 349.312 364.227C347.672 366.336 346.383 368.914 345.445 371.961C344.586 374.539 344 377.781 343.688 381.688C343.375 385.516 343.844 390.008 345.094 395.164C344 395.008 342.984 394.93 342.047 394.93C341.109 394.852 340.328 394.773 339.703 394.695C338.922 394.617 338.219 394.539 337.594 394.461C336.891 394.461 336.109 394.422 335.25 394.344C334.469 394.344 333.492 394.344 332.32 394.344C331.148 394.266 329.781 394.188 328.219 394.109ZM450.211 357.312C449.977 355.75 449.781 354.461 449.625 353.445C449.469 352.352 449.312 351.492 449.156 350.867C449 350.086 448.883 349.5 448.805 349.109C448.648 348.719 448.453 348.289 448.219 347.82C448.062 347.43 447.789 346.961 447.398 346.414C447.086 345.867 446.695 345.242 446.227 344.539C447.242 344.852 448.258 345.047 449.273 345.125C450.367 345.203 451.383 345.281 452.32 345.359C453.336 345.438 454.391 345.438 455.484 345.359C456.578 345.359 457.828 345.32 459.234 345.242C460.484 345.164 461.969 345.125 463.688 345.125C465.484 345.047 467.516 344.93 469.781 344.773C468.453 345.086 467.32 345.633 466.383 346.414C465.523 347.117 464.781 347.898 464.156 348.758C463.453 349.695 462.867 350.711 462.398 351.805C462.008 352.82 461.773 354.773 461.695 357.664C461.617 360.477 461.617 363.836 461.695 367.742C461.773 371.57 461.852 375.711 461.93 380.164C462.086 384.617 462.164 388.875 462.164 392.938C462.242 397 462.242 400.711 462.164 404.07C462.086 407.352 461.891 409.773 461.578 411.336C460.484 416.258 458.453 420.242 455.484 423.289C452.516 426.414 448.609 428.094 443.766 428.328C437.906 428.562 433.258 428.016 429.82 426.688C426.461 425.359 423.844 423.719 421.969 421.766C420.094 419.891 418.688 417.977 417.75 416.023C416.812 414.07 415.836 412.586 414.82 411.57C413.883 410.711 412.945 409.891 412.008 409.109C411.148 408.484 410.25 407.859 409.312 407.234C408.453 406.609 407.594 406.219 406.734 406.062C409 406.141 411.031 406.18 412.828 406.18C414.625 406.18 416.148 406.18 417.398 406.18C418.805 406.18 420.055 406.141 421.148 406.062H424.898H435.562C434 406.531 432.828 407.039 432.047 407.586C431.266 408.211 430.719 408.836 430.406 409.461C430.094 410.164 429.938 410.867 429.938 411.57C430.25 413.445 431.266 414.812 432.984 415.672C434.703 416.531 437.047 417.039 440.016 417.195C442.906 417.352 444.898 417.273 445.992 416.961C447.086 416.727 447.945 416.258 448.57 415.555C449.82 413.68 450.875 411.258 451.734 408.289C452.359 405.789 452.789 402.547 453.023 398.562C453.336 394.5 452.984 389.539 451.969 383.68C449.469 387.117 446.578 389.695 443.297 391.414C440.016 393.133 436.891 394.383 433.922 395.164C430.406 396.023 426.852 396.453 423.258 396.453C413.805 396.062 406.734 393.875 402.047 389.891C397.359 385.906 395.211 380.555 395.602 373.836C395.836 370.477 396.852 367.117 398.648 363.758C400.523 360.398 402.945 357.391 405.914 354.734C408.961 352.078 412.438 349.969 416.344 348.406C420.25 346.844 424.312 346.18 428.531 346.414C431.734 346.727 434.742 347.312 437.555 348.172C439.977 348.953 442.359 350.047 444.703 351.453C447.125 352.859 448.961 354.812 450.211 357.312ZM412.945 369.031C412.477 372.078 412.672 374.93 413.531 377.586C414.469 380.242 415.758 382.547 417.398 384.5C419.039 386.375 420.875 387.859 422.906 388.953C424.938 389.969 426.852 390.438 428.648 390.359C432.398 390.281 435.641 388.602 438.375 385.32C441.109 381.961 442.75 376.961 443.297 370.32C443.531 367.039 443.102 364.227 442.008 361.883C440.992 359.461 439.703 357.508 438.141 356.023C436.578 354.539 434.938 353.484 433.219 352.859C431.5 352.234 430.133 351.961 429.117 352.039C427.711 352.195 426.148 352.625 424.43 353.328C422.789 353.953 421.188 354.93 419.625 356.258C418.062 357.508 416.656 359.188 415.406 361.297C414.234 363.406 413.414 365.984 412.945 369.031ZM501.305 388.133C503.492 388.133 505.523 387.898 507.398 387.43C508.961 387.039 510.445 386.414 511.852 385.555C513.336 384.617 514.312 383.25 514.781 381.453C516.344 381.766 517.672 382.039 518.766 382.273C519.859 382.43 520.797 382.586 521.578 382.742C522.438 382.977 523.18 383.133 523.805 383.211C524.43 383.367 525.172 383.523 526.031 383.68C526.812 383.836 527.75 384.031 528.844 384.266C530.016 384.422 531.383 384.656 532.945 384.969C531.773 384.812 530.562 384.93 529.312 385.32C528.141 385.711 527.008 386.141 525.914 386.609C524.664 387.156 523.492 387.82 522.398 388.602C521.695 389.07 520.875 389.773 519.938 390.711C519.078 391.648 517.828 392.547 516.188 393.406C514.547 394.266 512.359 395.008 509.625 395.633C506.969 396.18 503.531 396.375 499.312 396.219C494.234 396.062 489.977 395.164 486.539 393.523C483.102 391.805 480.328 389.734 478.219 387.312C476.109 384.812 474.586 382.117 473.648 379.227C472.711 376.336 472.203 373.641 472.125 371.141C472.047 368.641 472.789 366.023 474.352 363.289C475.914 360.555 478.102 358.055 480.914 355.789C483.805 353.523 487.281 351.688 491.344 350.281C495.406 348.797 499.859 348.055 504.703 348.055C507.516 348.055 510.094 348.406 512.438 349.109C514.859 349.734 517.047 350.594 519 351.688C521.031 352.781 522.789 354.031 524.273 355.438C525.758 356.766 527.008 358.133 528.023 359.539C529.039 361.023 529.898 362.586 530.602 364.227C531.227 365.633 531.734 367.234 532.125 369.031C532.516 370.828 532.633 372.664 532.477 374.539C526.539 374.695 521.734 374.812 518.062 374.891C514.469 374.969 511.656 375.008 509.625 375.008H504.352H500.367C498.961 375.008 497.125 375.047 494.859 375.125C492.594 375.203 489.82 375.32 486.539 375.477C486.93 378.602 487.906 381.023 489.469 382.742C491.109 384.383 492.828 385.633 494.625 386.492C496.656 387.43 498.883 387.977 501.305 388.133ZM490.758 367.039C493.258 367.195 495.328 367.312 496.969 367.391C498.688 367.469 500.094 367.547 501.188 367.625C502.359 367.703 503.297 367.742 504 367.742H506.93C508.883 367.742 512.516 367.625 517.828 367.391C517.594 363.953 516.852 361.336 515.602 359.539C514.43 357.742 513.18 356.414 511.852 355.555C510.289 354.617 508.57 354.07 506.695 353.914C501.617 353.992 497.828 355.047 495.328 357.078C492.906 359.109 491.383 362.43 490.758 367.039ZM588.844 340.086C588.141 341.805 587.516 343.367 586.969 344.773C586.5 346.18 586.07 347.43 585.68 348.523C585.289 349.773 584.938 350.867 584.625 351.805C584.312 352.898 583.961 354.148 583.57 355.555C583.18 356.805 582.672 358.367 582.047 360.242C581.5 362.039 580.836 364.188 580.055 366.688C579.43 362.938 578.297 359.969 576.656 357.781C575.016 355.516 573.336 353.758 571.617 352.508C569.586 351.102 567.398 350.086 565.055 349.461C560.836 348.758 557.789 348.836 555.914 349.695C554.039 350.555 552.789 351.648 552.164 352.977C551.852 353.523 551.5 354.227 551.109 355.086C550.797 355.867 550.523 356.688 550.289 357.547C550.133 358.406 550.094 359.266 550.172 360.125C550.25 360.984 550.602 361.688 551.227 362.234C551.617 362.625 552.633 363.172 554.273 363.875C555.914 364.5 557.867 365.242 560.133 366.102C562.477 366.883 564.938 367.742 567.516 368.68C570.172 369.617 572.672 370.555 575.016 371.492C577.359 372.43 579.391 373.367 581.109 374.305C582.828 375.242 583.961 376.102 584.508 376.883C584.977 377.664 585.484 378.719 586.031 380.047C586.656 381.297 587.086 382.703 587.32 384.266C587.633 385.75 587.711 387.312 587.555 388.953C587.477 390.516 587.047 392.078 586.266 393.641C585.484 395.203 584.234 396.648 582.516 397.977C580.875 399.305 578.648 400.398 575.836 401.258C572.555 402.273 569.391 402.547 566.344 402.078C563.297 401.609 560.484 400.906 557.906 399.969C555.406 399.031 553.219 398.133 551.344 397.273C549.469 396.336 548.141 395.945 547.359 396.102C546.5 396.258 545.523 396.688 544.43 397.391C543.336 398.094 542.281 398.836 541.266 399.617C540.328 400.32 539.508 400.984 538.805 401.609C538.102 402.156 537.75 402.352 537.75 402.195C537.75 402.039 537.867 401.57 538.102 400.789C538.414 400.008 538.727 399.07 539.039 397.977C539.43 396.805 539.781 395.555 540.094 394.227C540.484 392.82 540.758 391.492 540.914 390.242C541.07 389.227 541.266 387.977 541.5 386.492C541.656 385.164 541.852 383.562 542.086 381.688C542.398 379.734 542.75 377.391 543.141 374.656C543.531 376.688 544.078 378.445 544.781 379.93C545.562 381.414 546.305 382.703 547.008 383.797C547.867 385.047 548.688 386.102 549.469 386.961C550.641 388.055 552.008 389.07 553.57 390.008C555.211 390.945 556.852 391.766 558.492 392.469C560.133 393.094 561.695 393.484 563.18 393.641C564.664 393.797 565.914 393.641 566.93 393.172C567.945 392.703 568.805 391.844 569.508 390.594C570.289 389.344 570.836 387.977 571.148 386.492C571.461 385.008 571.578 383.602 571.5 382.273C571.422 380.867 571.07 379.734 570.445 378.875C569.977 378.328 568.883 377.625 567.164 376.766C565.523 375.906 563.531 374.969 561.188 373.953C558.922 372.938 556.5 371.883 553.922 370.789C551.422 369.695 549.039 368.602 546.773 367.508C544.586 366.336 542.75 365.242 541.266 364.227C539.859 363.133 539.078 362.156 538.922 361.297C538.766 360.047 538.648 358.68 538.57 357.195C538.492 355.633 538.57 354.109 538.805 352.625C539.117 351.062 539.664 349.578 540.445 348.172C541.305 346.766 542.555 345.594 544.195 344.656C545.289 344.031 546.734 343.562 548.531 343.25C550.328 342.938 552.32 342.781 554.508 342.781C556.695 342.703 558.961 342.781 561.305 343.016C563.648 343.172 565.875 343.406 567.984 343.719C570.172 343.953 572.125 344.266 573.844 344.656C575.641 345.047 577.008 345.398 577.945 345.711C579.039 346.102 580.211 346.141 581.461 345.828C582.555 345.594 583.727 345.086 584.977 344.305C586.227 343.523 587.516 342.117 588.844 340.086Z" fill="#687274"/>
</svg>
