<?xml version="1.0" encoding="UTF-8" standalone="no"?><!DOCTYPE svg PUBLIC "-//W3C//DTD SVG 1.1//EN" "http://www.w3.org/Graphics/SVG/1.1/DTD/svg11.dtd"><svg width="100%" height="100%" viewBox="0 0 136 279" version="1.1" xmlns="http://www.w3.org/2000/svg" xmlns:xlink="http://www.w3.org/1999/xlink" xml:space="preserve" xmlns:serif="http://www.serif.com/" style="fill-rule:evenodd;clip-rule:evenodd;stroke-linejoin:round;stroke-miterlimit:2;"><g id="Layer1"><path d="M71.578,73.889l0,203.134c0,0.969 -0.787,1.756 -1.756,1.756l-3.512,-0c-0.969,-0 -1.756,-0.787 -1.756,-1.756l0,-203.134c0,-0.969 0.787,-1.756 1.756,-1.756l3.512,-0c0.969,-0 1.756,0.787 1.756,1.756Z" style="fill:#a5d874;"/><g><path d="M96.459,1.612c8.745,3.912 11.479,16.754 6.1,28.66c-4.391,9.721 -19.824,20.269 -25.035,24.949c-14.514,13.035 -9.854,10.867 -9.975,-3.342c-0.061,-7.188 -2.059,-23.875 3.319,-35.781c5.379,-11.907 16.846,-18.398 25.591,-14.486Z" style="fill:#fff;"/></g><g><path d="M135.637,58.21c1.186,9.507 -8.382,18.498 -21.352,20.067c-10.59,1.281 -27.607,-6.454 -34.31,-8.486c-18.669,-5.66 -14.4,-2.798 -2.311,-10.263c6.117,-3.777 19.354,-14.132 32.324,-15.7c12.971,-1.569 24.464,4.875 25.649,14.382Z" style="fill:#fff;"/></g><g><path d="M104.278,120.932c-8.117,5.09 -20.308,0.214 -27.208,-10.88c-5.633,-9.058 -5.808,-27.75 -6.796,-34.685c-2.754,-19.312 -3.545,-14.234 8.327,-6.428c6.006,3.949 20.983,11.576 27.882,22.67c6.9,11.095 5.912,24.234 -2.205,29.323Z" style="fill:#fff;"/></g><g><path d="M38.489,119.12c-8.682,-4.051 -11.211,-16.935 -5.644,-28.754c4.546,-9.65 20.145,-19.95 25.43,-24.547c14.72,-12.802 10.026,-10.708 9.921,3.5c-0.054,7.188 1.678,23.905 -3.889,35.725c-5.568,11.819 -17.136,18.126 -25.818,14.076Z" style="fill:#fff;"/></g><g><path d="M0.348,67.354c-1.654,-9.437 7.457,-18.891 20.334,-21.099c10.513,-1.803 27.892,5.081 34.688,6.779c18.925,4.73 14.521,2.082 2.815,10.136c-5.922,4.075 -18.631,15.072 -31.508,17.28c-12.877,2.208 -24.675,-3.66 -26.329,-13.096Z" style="fill:#fff;"/></g><g><path d="M27.879,2.666c7.685,-5.721 20.226,-1.835 27.99,8.673c6.338,8.58 8.005,27.198 9.544,34.031c4.287,19.031 4.67,13.907 -7.787,7.073c-6.303,-3.457 -21.84,-9.863 -29.604,-20.371c-7.763,-10.509 -7.827,-23.685 -0.143,-29.406Z" style="fill:#fff;"/></g><ellipse cx="67.852" cy="61.782" rx="24.385" ry="22.113" style="fill:#ffe100;"/></g></svg>