<svg width="3644" height="3264" viewBox="0 0 3644 3264" fill="none" xmlns="http://www.w3.org/2000/svg">
<path fill-rule="evenodd" clip-rule="evenodd" d="M337.929 1806.65L112.339 1782.26C42.6029 1774.72 -7.32864 1716.75 0.884004 1652.87L60.993 1186.4C69.2252 1122.52 132.515 1076.8 202.224 1084.34L454.91 1111.64C460.463 1112.22 465.877 1113.17 471.151 1114.37C508.712 1044.23 553.166 977.388 603.731 914.559L461.551 721.393C422.316 668.072 437.72 595.58 495.931 559.641L921.13 297.076C979.342 261.112 1058.48 275.221 1097.72 328.542L1204.62 473.781C1281.11 442.443 1361.06 416.473 1443.86 396.407L1453.43 189.284C1456.39 125.024 1515.77 75.0769 1585.9 77.7864L2098.28 97.6731C2168.4 100.408 2222.93 154.777 2219.97 219.038L2212.3 384.751C2304.86 404.152 2394.13 430.915 2479.25 464.247C2483.32 457.984 2488.06 451.977 2493.56 446.328L2662.45 272.052C2709.08 223.945 2789.53 219.549 2842.05 262.262L3225.55 574.083C3278.05 616.796 3282.85 690.489 3236.22 738.595L3086.42 893.19C3145.49 963.585 3196.76 1039.27 3239.09 1119.2L3438.36 1099.75C3508.18 1092.95 3570.89 1139.32 3578.34 1203.27L3632.67 1670.35C3640.12 1734.31 3589.47 1791.74 3519.68 1798.57L3368.96 1813.29C3355.51 1922.08 3326.88 2026.93 3284.91 2126.21L3378.76 2185.8C3436.47 2222.45 3450.87 2295.1 3410.88 2347.96L3118.76 2734.03C3078.77 2786.89 2999.46 2800.06 2941.75 2763.43L2825.61 2689.71C2769.41 2730.15 2709.83 2767.16 2647.29 2800.39L2693.62 3011.63C2707.43 3074.69 2662.78 3136.16 2593.94 3148.81L2091.16 3241.32C2022.32 3253.97 1955.23 3213.05 1941.39 3150.02L1906.98 2993.1C1889.35 2993.63 1871.63 2993.89 1853.85 2993.89C1772 2993.89 1691.63 2988.26 1613.25 2977.48L1520.07 3190.76C1493.98 3250.47 1419.86 3279.53 1354.7 3255.64L878.602 3081.1C813.414 3057.2 781.658 2989.34 807.749 2929.63L902.294 2713.28C903.326 2710.9 904.443 2708.57 905.615 2706.3C858.147 2673.48 812.968 2638.23 770.328 2600.81L582.913 2723.17C525.734 2760.51 446.231 2748.3 405.489 2695.92L107.819 2313.45C67.0762 2261.07 80.3873 2188.25 137.566 2150.93L344.738 2015.63C355.091 2008.89 366.198 2003.75 377.639 2000.17C359.082 1937.34 345.687 1872.7 337.929 1806.65Z" fill="#687274"/>
<path fill-rule="evenodd" clip-rule="evenodd" d="M348.53 1728.96L122.94 1704.58C53.2035 1697.04 3.27194 1639.07 11.4846 1575.19L71.5936 1108.72C79.8258 1044.84 143.116 999.115 212.824 1006.66L465.51 1033.95C471.063 1034.54 476.477 1035.49 481.752 1036.69C519.313 966.55 563.766 899.707 614.332 836.878L472.152 643.712C432.916 590.391 448.32 517.899 506.532 481.96L931.731 219.395C989.942 183.43 1069.08 197.54 1108.32 250.861L1215.22 396.1C1291.71 364.762 1371.66 338.792 1454.46 318.726L1464.03 111.603C1466.99 47.3424 1526.37 -2.60426 1596.5 0.105228L2108.88 19.9919C2179 22.727 2233.53 77.0957 2230.57 141.357L2222.9 307.07C2315.46 326.471 2404.73 353.234 2489.85 386.566C2493.92 380.303 2498.66 374.296 2504.16 368.647L2673.05 194.371C2719.68 146.264 2800.13 141.868 2852.65 184.581L3236.16 496.402C3288.65 539.115 3293.45 612.808 3246.82 660.914L3097.02 815.508C3156.09 885.904 3207.36 961.591 3249.69 1041.52L3448.96 1022.07C3518.78 1015.27 3581.49 1061.64 3588.94 1125.59L3643.27 1592.67C3650.72 1656.63 3600.07 1714.06 3530.28 1720.89L3379.56 1735.61C3366.11 1844.4 3337.48 1949.25 3295.51 2048.53L3389.36 2108.11C3447.07 2144.77 3461.47 2217.41 3421.48 2270.27L3129.36 2656.35C3089.37 2709.21 3010.06 2722.38 2952.35 2685.75L2836.21 2612.03C2780.01 2652.47 2720.43 2689.48 2657.89 2722.71L2704.22 2933.95C2718.03 2997.01 2673.38 3058.48 2604.54 3071.13L2101.76 3163.64C2032.92 3176.29 1965.83 3135.37 1951.99 3072.33L1917.58 2915.41C1899.95 2915.95 1882.23 2916.21 1864.45 2916.21C1782.6 2916.21 1702.24 2910.58 1623.85 2899.8L1530.67 3113.08C1504.58 3172.79 1430.46 3201.85 1365.3 3177.95L889.203 3003.42C824.015 2979.52 792.258 2911.66 818.35 2851.95L912.895 2635.6C913.927 2633.22 915.043 2630.89 916.215 2628.62C868.748 2595.8 823.568 2560.55 780.928 2523.13L593.514 2645.49C536.335 2682.83 456.832 2670.61 416.089 2618.24L118.419 2235.77C77.6768 2183.39 90.9879 2110.57 148.167 2073.25L355.339 1937.95C365.692 1931.2 376.798 1926.07 388.24 1922.49C369.682 1859.66 356.288 1795.01 348.53 1728.96Z" fill="#8A9EA2"/>
<path d="M1833.88 2829.77C2585.27 2829.77 3194.39 2273.57 3194.39 1587.45C3194.39 901.337 2585.27 345.131 1833.88 345.131C1082.49 345.131 473.363 901.337 473.363 1587.45C473.363 2273.57 1082.49 2829.77 1833.88 2829.77Z" fill="#687274"/>
<path d="M1838.23 2848.33C2570.44 2848.33 3164.01 2302.81 3164.01 1629.87C3164.01 956.939 2570.44 411.417 1838.23 411.417C1106.02 411.417 512.454 956.939 512.454 1629.87C512.454 2302.81 1106.02 2848.33 1838.23 2848.33Z" fill="#A5E9F7"/>
<path fill-rule="evenodd" clip-rule="evenodd" d="M2328.68 2353.91C2328.32 2388.18 2233.74 2572.48 2112.13 2414.08C2109.17 2414.08 2105.07 2404.13 2105.07 2401.42V2391.63C2105.07 2388.92 2094.58 2376.17 2097.54 2376.17C2237.62 2533.45 2278.14 2405.82 2306.02 2357.1C2306.33 2356.59 2299.29 2351.63 2297.59 2343.96C2296.98 2341.23 2276.22 2328.5 2278.89 2323.28C2281.6 2317.99 2299.01 2332.2 2300.3 2330.44C2302.25 2327.73 2304.99 2325.56 2308.14 2323.97C2309.95 2323.08 2303.81 2307.03 2309.37 2305.72C2315.73 2304.21 2318.83 2321.08 2321.31 2321.21C2323.1 2321.29 2324.88 2321.54 2326.59 2322C2327.84 2322.34 2331.25 2303.78 2338.89 2305.88C2343.13 2307.03 2332.98 2324.77 2334.2 2325.74C2334.76 2326.17 2335.29 2326.63 2335.82 2327.14C2336.35 2327.68 2350.81 2317.58 2355.5 2321.6C2360.07 2325.53 2338.03 2330.16 2338.05 2331.05C2338.17 2337.44 2328.71 2351.04 2328.68 2353.91Z" fill="#F1F0EA"/>
<path d="M1968.18 2668.26C2059.73 2668.26 2133.95 2587.53 2133.95 2487.94C2133.95 2388.36 2059.73 2307.63 1968.18 2307.63C1876.63 2307.63 1802.41 2388.36 1802.41 2487.94C1802.41 2587.53 1876.63 2668.26 1968.18 2668.26Z" fill="#B1A982"/>
<path d="M1978.37 2366.8C2076.12 2366.8 2155.36 2297.17 2155.36 2211.27C2155.36 2125.37 2076.12 2055.74 1978.37 2055.74C1880.62 2055.74 1801.37 2125.37 1801.37 2211.27C1801.37 2297.17 1880.62 2366.8 1978.37 2366.8Z" fill="#F1F0EA"/>
<path fill-rule="evenodd" clip-rule="evenodd" d="M1979.84 2055.73C2043.85 2055.73 2099.97 2085.64 2131.05 2130.42C2147.41 2153.99 2070.16 2141.39 1972.48 2141.39C1874.79 2141.39 1810.56 2159.3 1824.13 2137.3C1854.09 2088.73 1912.61 2055.73 1979.84 2055.73Z" fill="#ECDA85"/>
<path fill-rule="evenodd" clip-rule="evenodd" d="M1975.36 2154.46L1987.65 2234.03C1987.79 2234.97 1987.11 2235.8 1986.12 2235.93L1982.62 2236.36C1981.64 2236.48 1980.72 2235.85 1980.58 2234.91L1968.29 2155.34C1968.14 2154.4 1968.83 2153.54 1969.81 2153.42L1973.31 2152.98C1974.3 2152.86 1975.21 2153.52 1975.36 2154.46Z" fill="#B1A982"/>
<path fill-rule="evenodd" clip-rule="evenodd" d="M2046.84 2269.43L1959.19 2269.8C1958.16 2269.81 1957.35 2269.04 1957.34 2268.09L1957.32 2264.73C1957.32 2263.78 1958.12 2263.01 1959.15 2263.01L2046.8 2262.63C2047.83 2262.63 2048.68 2263.39 2048.68 2264.34L2048.7 2267.7C2048.71 2268.65 2047.87 2269.42 2046.84 2269.43Z" fill="#B1A982"/>
<path d="M1879.97 2225.73C1883.22 2225.73 1885.86 2218.48 1885.86 2209.54C1885.86 2200.59 1883.22 2193.34 1879.97 2193.34C1876.71 2193.34 1874.08 2200.59 1874.08 2209.54C1874.08 2218.48 1876.71 2225.73 1879.97 2225.73Z" fill="#B1A982"/>
<path d="M2074.47 2225.73C2077.73 2225.73 2080.37 2218.48 2080.37 2209.54C2080.37 2200.59 2077.73 2193.34 2074.47 2193.34C2071.22 2193.34 2068.58 2200.59 2068.58 2209.54C2068.58 2218.48 2071.22 2225.73 2074.47 2225.73Z" fill="#B1A982"/>
<path fill-rule="evenodd" clip-rule="evenodd" d="M1463.62 2620.49C1527.19 2496.03 1743.79 2354.35 1845.21 2573.37C1879.31 2647.04 1971.84 2682.72 2047.09 2641.61C2200.38 2557.88 2255.18 2795.87 2204.78 2808.99C2091.43 2838.47 1971.73 2853.65 1848.22 2853.65C1710.43 2853.65 1598.05 2846.52 1452.54 2798.36C1438.61 2793.74 1414.3 2717.08 1463.62 2620.49Z" fill="#687274"/>
<path fill-rule="evenodd" clip-rule="evenodd" d="M1859.52 2352.12L1850.53 2364.39C1848.51 2367.53 1845.79 2368.48 1841.02 2367C1722.63 2352.09 1674.01 2351.3 1683.64 2458.02C1684.58 2468.17 1685.41 2470.75 1687.47 2478.44C1688.78 2483.38 1692.93 2485.09 1694.74 2487.41C1695.46 2488.36 1696.15 2489.82 1696.59 2491.2C1696.84 2492.04 1704.29 2498.38 1702.28 2500.6C1700.99 2502.04 1693.19 2494.72 1692.83 2495.16C1691.72 2496.51 1690.53 2497.66 1689.28 2498.64C1688.8 2498.99 1695.08 2506.05 1692.97 2507.66C1690.89 2509.24 1686.72 2500.3 1686.14 2500.58C1684.73 2501.29 1684.71 2501.37 1683.3 2501.63C1682.67 2501.75 1684.3 2510.04 1680.6 2509.68C1678.22 2509.47 1678.78 2502.34 1678.2 2502.29C1675.9 2502.16 1673.78 2501.42 1672.07 2500.14C1671.41 2499.66 1666.73 2507.81 1664.7 2506.97C1661.33 2505.56 1669.37 2497.18 1669.03 2496.41C1667.94 2494.11 1667.62 2491.17 1668.41 2487.7C1669.41 2483.3 1671.59 2477.96 1670.96 2473.51C1652.75 2348.16 1714.32 2331.85 1841.84 2346.24C1844.79 2346.24 1859.52 2349.43 1859.52 2352.12Z" fill="#F1F0EA"/>
</svg>
