<svg width="2844" height="2121" viewBox="0 0 2844 2121" fill="none" xmlns="http://www.w3.org/2000/svg">
<path fill-rule="evenodd" clip-rule="evenodd" d="M2682.21 4.9895C2768.86 4.9895 2839.1 72.777 2839.1 156.375C2839.1 545.303 2839.1 1575.99 2839.1 1964.86C2839.1 2048.46 2768.86 2116.23 2682.21 2116.23C2186.58 2116.23 658.209 2116.23 162.644 2116.23C75.9961 2116.23 5.75293 2048.46 5.75293 1964.86C5.75293 1575.99 5.75293 545.303 5.75293 156.375C5.75293 72.777 75.9961 4.9895 162.644 4.9895C658.209 4.9895 2186.58 4.9895 2682.21 4.9895Z" fill="#B784F2" stroke="#273838" stroke-width="9.22" stroke-miterlimit="1.5" stroke-linecap="round" stroke-linejoin="round"/>
<path fill-rule="evenodd" clip-rule="evenodd" d="M2681.46 5C2768.1 5 2838.35 72.7874 2838.35 156.385C2838.35 545.314 2838.35 1576 2838.35 1964.87C2838.35 2048.47 2768.1 2116.24 2681.46 2116.24C2185.83 2116.24 657.456 2116.24 161.891 2116.24C75.2432 2116.24 5 2048.47 5 1964.87C5 1576 5 545.314 5 156.385C5 72.7874 75.2432 5 161.891 5C657.456 5 2185.83 5 2681.46 5Z" stroke="#273838" stroke-width="9.22" stroke-miterlimit="1.5" stroke-linecap="round" stroke-linejoin="round"/>
<path d="M884.574 417.953C909.574 417.562 930.082 422.055 946.098 431.43C962.504 440.805 975.785 451.938 985.941 464.828C996.098 477.719 1003.91 490.805 1009.38 504.086C1014.85 516.977 1019.14 527.133 1022.27 534.555C1023.05 536.508 1024.61 539.047 1026.96 542.172C1028.91 544.906 1031.64 548.227 1035.16 552.133C1039.07 555.648 1043.95 559.75 1049.81 564.438C1037.7 564.828 1026.96 565.219 1017.58 565.609C1008.21 565.609 1000.2 565.805 993.559 566.195C986.137 566.586 979.496 566.977 973.637 567.367C967.777 567.758 960.551 568.344 951.957 569.125C944.145 569.906 934.574 570.688 923.246 571.469C911.918 572.25 898.051 573.422 881.645 574.984C891.41 563.266 899.027 552.914 904.496 543.93C910.355 534.555 914.652 526.352 917.387 519.32C920.512 511.898 922.27 505.453 922.66 499.984C923.441 494.516 923.246 489.828 922.074 485.922C919.73 476.938 913.676 470.492 903.91 466.586C875.785 458.773 851.176 465.023 830.082 485.336C809.379 505.258 794.535 538.07 785.551 583.773C781.254 606.43 777.152 630.062 773.246 654.672C769.73 678.891 768.363 701.156 769.145 721.469C769.926 741.391 773.832 757.602 780.863 770.102C787.895 782.602 800.004 788.461 817.191 787.68C833.988 786.898 848.246 784.164 859.965 779.477C871.684 774.398 881.059 768.539 888.09 761.898C895.121 754.867 900.004 747.445 902.738 739.633C905.863 731.43 907.035 723.812 906.254 716.781C904.691 711.312 900.59 705.453 893.949 699.203C888.09 693.734 879.301 687.68 867.582 681.039C855.863 674.008 839.066 666.781 817.191 659.359C837.895 658.188 854.887 657.406 868.168 657.016C881.84 656.234 892.582 655.453 900.395 654.672C909.77 653.891 916.996 653.305 922.074 652.914C926.762 652.523 933.598 652.133 942.582 651.742C950.395 651.352 960.355 651.156 972.465 651.156C984.965 651.156 1000.59 650.961 1019.34 650.57C1012.31 657.602 1006.84 664.047 1002.93 669.906C1000.98 673.031 999.223 675.766 997.66 678.109C996.098 682.016 995.512 690.023 995.902 702.133C995.902 712.289 996.684 727.328 998.246 747.25C999.809 766.781 1002.74 793.539 1007.04 827.523L929.105 838.07L932.621 758.969C923.637 780.453 912.309 796.469 898.637 807.016C885.355 817.562 872.66 824.984 860.551 829.281C846.098 834.359 831.059 836.703 815.434 836.312C795.121 834.359 774.809 829.672 754.496 822.25C734.184 814.828 716.215 803.5 700.59 788.266C684.965 772.641 672.855 752.523 664.262 727.914C656.059 703.305 653.52 672.836 656.645 636.508C660.16 600.18 668.754 568.539 682.426 541.586C696.488 514.242 713.871 491.586 734.574 473.617C755.277 455.648 778.52 442.172 804.301 433.188C830.473 423.812 857.23 418.734 884.574 417.953ZM1043.95 560.336C1051.37 560.727 1058.01 560.922 1063.87 560.922C1070.12 560.531 1075.39 560.141 1079.69 559.75C1084.77 559.359 1089.26 558.969 1093.17 558.578C1099.03 557.797 1105.08 556.82 1111.33 555.648C1116.8 554.867 1122.46 553.891 1128.32 552.719C1134.57 551.156 1140.63 549.398 1146.49 547.445C1144.14 553.305 1142.19 558.383 1140.63 562.68C1139.07 566.977 1137.89 570.688 1137.11 573.812C1135.94 577.328 1135.36 580.258 1135.36 582.602C1134.96 585.336 1134.77 588.656 1134.77 592.562C1134.38 599.203 1134.38 609.945 1134.77 624.789C1155.08 607.211 1172.07 593.539 1185.75 583.773C1199.81 574.008 1210.94 566.391 1219.14 560.922C1228.91 554.672 1236.53 550.57 1242 548.617C1256.45 546.273 1269.14 549.594 1280.08 558.578C1284.77 562.484 1289.26 567.758 1293.56 574.398C1297.86 580.648 1301.57 589.047 1304.69 599.594C1307.82 610.141 1310.16 622.836 1311.72 637.68C1313.29 652.133 1313.48 669.516 1312.31 689.828C1304.11 690.609 1296.68 691.391 1290.04 692.172C1283.79 692.953 1278.52 693.539 1274.22 693.93C1269.14 694.711 1264.46 695.102 1260.16 695.102L1244.34 696.859C1238.87 697.641 1232.04 698.422 1223.83 699.203C1216.02 699.594 1206.45 700.375 1195.12 701.547C1211.53 688.266 1222.07 676.742 1226.76 666.977C1231.84 656.82 1233.99 648.422 1233.21 641.781C1232.43 634.359 1228.91 627.914 1222.66 622.445C1215.24 618.148 1207.23 616.586 1198.64 617.758C1191.21 618.539 1182.62 621.859 1172.86 627.719C1163.09 633.578 1152.74 644.516 1141.8 660.531C1142.58 685.531 1143.36 706.234 1144.14 722.641C1145.32 739.047 1146.29 752.328 1147.07 762.484C1148.25 774.203 1149.22 783.383 1150 790.023C1151.18 795.883 1153.52 802.133 1157.04 808.773C1159.77 814.242 1163.68 820.297 1168.75 826.938C1173.83 833.578 1180.47 840.219 1188.68 846.859C1171.49 846.078 1157.43 846.078 1146.49 846.859C1139.85 847.25 1133.99 847.641 1128.91 848.031C1123.44 848.812 1117.58 849.594 1111.33 850.375C1105.86 851.156 1099.42 851.938 1092 852.719C1084.96 853.891 1077.15 855.062 1068.56 856.234C1071.68 851.938 1074.22 846.859 1076.18 841C1078.13 835.531 1079.69 830.258 1080.86 825.18C1082.43 819.32 1083.6 813.266 1084.38 807.016C1084.77 801.547 1084.96 793.344 1084.96 782.406C1085.36 771.469 1085.16 759.164 1084.38 745.492C1083.99 731.43 1083.4 716.977 1082.62 702.133C1081.84 686.898 1080.86 672.641 1079.69 659.359C1078.52 646.078 1077.15 634.555 1075.59 624.789C1074.42 614.633 1073.05 607.602 1071.49 603.695C1069.54 599.008 1067.19 594.32 1064.46 589.633C1062.11 585.336 1059.18 580.844 1055.67 576.156C1052.15 571.078 1048.25 565.805 1043.95 560.336ZM1489.26 746.664C1500.2 746.664 1510.36 745.492 1519.73 743.148C1527.54 741.195 1534.96 738.07 1542 733.773C1549.42 729.086 1554.3 722.25 1556.64 713.266C1564.46 714.828 1571.1 716.195 1576.57 717.367C1582.04 718.148 1586.72 718.93 1590.63 719.711C1594.93 720.883 1598.64 721.664 1601.76 722.055C1604.89 722.836 1608.6 723.617 1612.89 724.398C1616.8 725.18 1621.49 726.156 1626.96 727.328C1632.82 728.109 1639.65 729.281 1647.46 730.844C1641.61 730.062 1635.55 730.648 1629.3 732.602C1623.44 734.555 1617.78 736.703 1612.31 739.047C1606.06 741.781 1600.2 745.102 1594.73 749.008C1591.21 751.352 1587.11 754.867 1582.43 759.555C1578.13 764.242 1571.88 768.734 1563.68 773.031C1555.47 777.328 1544.54 781.039 1530.86 784.164C1517.58 786.898 1500.39 787.875 1479.3 787.094C1453.91 786.312 1432.62 781.82 1415.43 773.617C1398.25 765.023 1384.38 754.672 1373.83 742.562C1363.29 730.062 1355.67 716.586 1350.98 702.133C1346.29 687.68 1343.75 674.203 1343.36 661.703C1342.97 649.203 1346.68 636.117 1354.5 622.445C1362.31 608.773 1373.25 596.273 1387.31 584.945C1401.76 573.617 1419.14 564.438 1439.46 557.406C1459.77 549.984 1482.04 546.273 1506.25 546.273C1520.32 546.273 1533.21 548.031 1544.93 551.547C1557.04 554.672 1567.97 558.969 1577.74 564.438C1587.89 569.906 1596.68 576.156 1604.11 583.188C1611.53 589.828 1617.78 596.664 1622.86 603.695C1627.93 611.117 1632.23 618.93 1635.75 627.133C1638.87 634.164 1641.41 642.172 1643.36 651.156C1645.32 660.141 1645.9 669.32 1645.12 678.695C1615.43 679.477 1591.41 680.062 1573.05 680.453C1555.08 680.844 1541.02 681.039 1530.86 681.039H1504.5H1484.57C1477.54 681.039 1468.36 681.234 1457.04 681.625C1445.71 682.016 1431.84 682.602 1415.43 683.383C1417.39 699.008 1422.27 711.117 1430.08 719.711C1438.29 727.914 1446.88 734.164 1455.86 738.461C1466.02 743.148 1477.15 745.883 1489.26 746.664ZM1436.53 641.195C1449.03 641.977 1459.38 642.562 1467.58 642.953C1476.18 643.344 1483.21 643.734 1488.68 644.125C1494.54 644.516 1499.22 644.711 1502.74 644.711H1517.39C1527.15 644.711 1545.32 644.125 1571.88 642.953C1570.71 625.766 1567 612.68 1560.75 603.695C1554.89 594.711 1548.64 588.07 1542 583.773C1534.18 579.086 1525.59 576.352 1516.21 575.57C1490.82 575.961 1471.88 581.234 1459.38 591.391C1447.27 601.547 1439.65 618.148 1436.53 641.195ZM1712.5 603.695C1714.46 601.352 1715.63 597.055 1716.02 590.805C1716.8 584.164 1718.36 576.742 1720.71 568.539C1723.44 560.336 1727.93 551.742 1734.18 542.758C1740.43 533.773 1750.59 525.375 1764.65 517.562C1778.32 509.75 1791.61 505.062 1804.5 503.5C1817.39 501.938 1829.69 502.523 1841.41 505.258C1853.13 507.992 1864.07 512.289 1874.22 518.148C1884.77 524.008 1894.34 530.453 1902.93 537.484C1908.79 542.172 1913.48 549.008 1917 557.992C1920.51 566.586 1923.25 576.352 1925.2 587.289C1927.15 598.227 1928.52 609.75 1929.3 621.859C1930.47 633.578 1931.25 645.102 1931.64 656.43C1932.04 667.367 1932.23 677.523 1932.23 686.898C1932.62 695.883 1933.4 703.305 1934.57 709.164C1936.14 717.758 1938.87 725.18 1942.78 731.43C1946.68 737.289 1950.98 742.367 1955.67 746.664C1960.36 750.57 1965.04 753.695 1969.73 756.039C1974.42 758.383 1978.52 760.141 1982.04 761.312C1984.38 762.484 1986.53 763.266 1988.48 763.656C1992.39 765.219 1995.12 765.219 1996.68 763.656C1994.34 769.125 1992.19 773.812 1990.24 777.719C1988.29 781.625 1986.72 784.945 1985.55 787.68C1983.99 790.805 1982.62 793.344 1981.45 795.297C1980.28 797.641 1978.91 799.789 1977.35 801.742C1976.18 803.695 1974.61 805.844 1972.66 808.188C1970.71 810.531 1968.75 813.07 1966.8 815.805C1961.72 813.852 1956.84 811.508 1952.15 808.773C1947.86 806.039 1943.95 803.5 1940.43 801.156C1936.14 798.422 1932.23 795.688 1928.71 792.953C1925.2 790.219 1921.88 787.094 1918.75 783.578C1916.02 780.453 1913.09 777.133 1909.96 773.617C1907.23 770.102 1904.89 766.195 1902.93 761.898C1900.59 766.977 1894.93 774.203 1885.94 783.578C1877.35 792.953 1866.02 801.547 1851.96 809.359C1837.89 816.781 1821.49 822.055 1802.74 825.18C1784.38 828.305 1764.07 826.156 1741.8 818.734C1732.04 815.609 1722.86 811.117 1714.26 805.258C1705.67 799.008 1698.25 791.586 1692 782.992C1686.14 774.398 1681.84 764.633 1679.11 753.695C1676.76 742.367 1676.96 729.867 1679.69 716.195C1682.43 702.523 1687.31 691 1694.34 681.625C1701.37 672.25 1709.77 664.633 1719.54 658.773C1729.3 652.914 1740.24 648.422 1752.35 645.297C1764.46 642.172 1776.96 640.023 1789.85 638.852C1800 638.461 1810.16 639.047 1820.32 640.609C1828.91 642.172 1837.89 645.102 1847.27 649.398C1856.64 653.305 1864.65 659.359 1871.29 667.562C1870.9 646.859 1870.12 630.453 1868.95 618.344C1868.17 605.844 1867.39 596.273 1866.61 589.633C1865.04 581.82 1863.68 576.352 1862.5 573.227C1860.55 570.492 1858.4 567.367 1856.06 563.852C1854.11 560.336 1851.57 557.211 1848.44 554.477C1845.32 551.352 1841.41 548.812 1836.72 546.859C1832.04 544.906 1826.57 544.125 1820.32 544.516C1813.68 544.906 1808.4 546.664 1804.5 549.789C1800.59 552.914 1797.46 556.625 1795.12 560.922C1793.17 564.828 1792 569.125 1791.61 573.812C1791.21 578.5 1791.41 582.602 1792.19 586.117C1792.97 588.461 1794.14 591 1795.71 593.734C1797.27 596.078 1799.42 598.617 1802.15 601.352C1804.89 604.086 1808.6 606.43 1813.29 608.383C1804.3 609.555 1796.29 610.531 1789.26 611.312C1782.23 611.703 1776.18 612.289 1771.1 613.07C1765.24 613.852 1760.16 614.438 1755.86 614.828C1751.57 615.219 1746.49 616 1740.63 617.172C1735.55 617.953 1729.3 618.93 1721.88 620.102C1714.46 621.273 1705.86 622.836 1696.1 624.789C1698.44 622.055 1700.59 619.516 1702.54 617.172C1704.5 614.438 1706.25 612.094 1707.82 610.141C1709.38 607.797 1710.94 605.648 1712.5 603.695ZM1800.39 673.422C1793.36 673.812 1786.33 675.57 1779.3 678.695C1772.27 681.43 1766.02 685.531 1760.55 691C1755.08 696.078 1750.39 702.133 1746.49 709.164C1742.97 715.805 1741.21 723.227 1741.21 731.43C1741.21 739.633 1743.17 746.859 1747.07 753.109C1751.37 758.969 1756.84 763.852 1763.48 767.758C1770.51 771.664 1777.93 774.008 1785.75 774.789C1793.95 775.57 1801.96 774.789 1809.77 772.445C1817.19 769.711 1824.22 765.414 1830.86 759.555C1837.5 753.305 1843.17 746.664 1847.86 739.633C1852.54 732.211 1855.86 724.984 1857.82 717.953C1859.77 710.531 1859.96 704.477 1858.4 699.789C1855.28 689.633 1848.25 682.602 1837.31 678.695C1826.37 674.398 1814.07 672.641 1800.39 673.422ZM1983.79 471.859C1995.51 473.031 2005.28 474.008 2013.09 474.789C2021.29 475.57 2027.93 476.156 2033.01 476.547C2038.87 476.938 2043.56 477.133 2047.07 477.133C2050.59 477.523 2055.28 477.523 2061.14 477.133C2066.21 476.742 2072.86 476.352 2081.06 475.961C2089.26 475.18 2099.61 474.008 2112.11 472.445C2109.38 476.352 2107.23 479.867 2105.67 482.992C2104.11 485.727 2102.74 488.266 2101.57 490.609L2098.05 497.641C2097.27 499.984 2096.49 502.328 2095.71 504.672C2094.93 506.625 2094.14 508.969 2093.36 511.703C2092.97 514.438 2092.58 517.367 2092.19 520.492H2182.43L2174.22 567.953L2091.61 563.266C2089.65 583.188 2088.29 598.617 2087.5 609.555C2086.72 620.492 2085.94 628.5 2085.16 633.578L2083.99 644.125C2082.82 658.969 2081.64 675.18 2080.47 692.758C2079.3 709.945 2078.91 725.961 2079.3 740.805C2079.69 755.648 2081.06 768.148 2083.4 778.305C2085.75 788.07 2089.85 792.953 2095.71 792.953C2101.57 792.953 2107.04 791.391 2112.11 788.266C2117.19 785.141 2121.49 781.43 2125 777.133C2128.91 772.836 2131.84 768.539 2133.79 764.242C2135.75 759.555 2136.72 756.039 2136.72 753.695C2136.72 751.352 2136.14 748.617 2134.96 745.492C2133.01 739.633 2129.5 732.211 2124.42 723.227C2135.75 725.961 2145.71 728.695 2154.3 731.43C2158.6 732.992 2162.5 734.555 2166.02 736.117C2169.93 737.68 2174.42 739.438 2179.5 741.391C2183.79 743.344 2189.26 745.688 2195.9 748.422C2202.54 751.156 2210.36 754.477 2219.34 758.383C2210.75 759.945 2204.5 762.484 2200.59 766C2198.25 767.562 2196.49 769.32 2195.32 771.273C2192.58 775.57 2189.46 781.43 2185.94 788.852C2182.43 795.883 2177.15 802.914 2170.12 809.945C2163.09 816.977 2153.52 823.227 2141.41 828.695C2129.69 834.164 2113.87 837.289 2093.95 838.07C2073.25 838.852 2057.43 835.336 2046.49 827.523C2035.94 819.711 2028.13 810.727 2023.05 800.57C2018.36 790.023 2015.63 779.672 2014.85 769.516C2014.07 759.359 2013.48 752.523 2013.09 749.008C2012.7 745.492 2012.7 736.703 2013.09 722.641C2013.48 708.578 2014.07 693.148 2014.85 676.352C2015.63 659.164 2016.41 642.758 2017.19 627.133C2017.97 611.117 2018.36 599.398 2018.36 591.977C2018.36 588.07 2018.56 583.969 2018.95 579.672C2018.95 576.156 2018.95 572.445 2018.95 568.539C2019.34 564.242 2019.54 560.141 2019.54 556.234L1934.57 555.648L1931.06 522.25L2016.61 524.594C2015.82 520.297 2014.85 516.391 2013.68 512.875C2012.89 508.969 2012.11 505.844 2011.33 503.5C2010.16 500.766 2008.99 498.422 2007.82 496.469C2006.25 494.516 2004.5 492.367 2002.54 490.023C2000.59 488.07 1998.05 485.531 1994.93 482.406C1991.8 479.281 1988.09 475.766 1983.79 471.859ZM537.113 1231.43C533.598 1240.02 530.473 1247.84 527.738 1254.87C525.395 1261.9 523.246 1268.15 521.293 1273.62C519.34 1279.87 517.582 1285.34 516.02 1290.02C514.457 1295.49 512.699 1301.74 510.746 1308.77C508.793 1315.02 506.254 1322.84 503.129 1332.21C500.395 1341.2 497.074 1351.94 493.168 1364.44C490.043 1345.69 484.379 1330.84 476.176 1319.91C467.973 1308.58 459.574 1299.79 450.98 1293.54C440.824 1286.51 429.887 1281.43 418.168 1278.3C397.074 1274.79 381.84 1275.18 372.465 1279.48C363.09 1283.77 356.84 1289.24 353.715 1295.88C352.152 1298.62 350.395 1302.13 348.441 1306.43C346.879 1310.34 345.512 1314.44 344.34 1318.73C343.559 1323.03 343.363 1327.33 343.754 1331.62C344.145 1335.92 345.902 1339.44 349.027 1342.17C350.98 1344.12 356.059 1346.86 364.262 1350.38C372.465 1353.5 382.23 1357.21 393.559 1361.51C405.277 1365.41 417.582 1369.71 430.473 1374.4C443.754 1379.09 456.254 1383.77 467.973 1388.46C479.691 1393.15 489.848 1397.84 498.441 1402.52C507.035 1407.21 512.699 1411.51 515.434 1415.41C517.777 1419.32 520.316 1424.59 523.051 1431.23C526.176 1437.48 528.324 1444.52 529.496 1452.33C531.059 1459.75 531.449 1467.56 530.668 1475.77C530.277 1483.58 528.129 1491.39 524.223 1499.2C520.316 1507.02 514.066 1514.24 505.473 1520.88C497.27 1527.52 486.137 1532.99 472.074 1537.29C455.668 1542.37 439.848 1543.73 424.613 1541.39C409.379 1539.05 395.316 1535.53 382.426 1530.84C369.926 1526.16 358.988 1521.66 349.613 1517.37C340.238 1512.68 333.598 1510.73 329.691 1511.51C325.395 1512.29 320.512 1514.44 315.043 1517.95C309.574 1521.47 304.301 1525.18 299.223 1529.09C294.535 1532.6 290.434 1535.92 286.918 1539.05C283.402 1541.78 281.645 1542.76 281.645 1541.98C281.645 1541.2 282.23 1538.85 283.402 1534.95C284.965 1531.04 286.527 1526.35 288.09 1520.88C290.043 1515.02 291.801 1508.77 293.363 1502.13C295.316 1495.1 296.684 1488.46 297.465 1482.21C298.246 1477.13 299.223 1470.88 300.395 1463.46C301.176 1456.82 302.152 1448.81 303.324 1439.44C304.887 1429.67 306.645 1417.95 308.598 1404.28C310.551 1414.44 313.285 1423.23 316.801 1430.65C320.707 1438.07 324.418 1444.52 327.934 1449.98C332.23 1456.23 336.332 1461.51 340.238 1465.8C346.098 1471.27 352.934 1476.35 360.746 1481.04C368.949 1485.73 377.152 1489.83 385.355 1493.34C393.559 1496.47 401.371 1498.42 408.793 1499.2C416.215 1499.98 422.465 1499.2 427.543 1496.86C432.621 1494.52 436.918 1490.22 440.434 1483.97C444.34 1477.72 447.074 1470.88 448.637 1463.46C450.199 1456.04 450.785 1449.01 450.395 1442.37C450.004 1435.34 448.246 1429.67 445.121 1425.38C442.777 1422.64 437.309 1419.12 428.715 1414.83C420.512 1410.53 410.551 1405.84 398.832 1400.77C387.504 1395.69 375.395 1390.41 362.504 1384.95C350.004 1379.48 338.09 1374.01 326.762 1368.54C315.824 1362.68 306.645 1357.21 299.223 1352.13C292.191 1346.66 288.285 1341.78 287.504 1337.48C286.723 1331.23 286.137 1324.4 285.746 1316.98C285.355 1309.16 285.746 1301.55 286.918 1294.12C288.48 1286.31 291.215 1278.89 295.121 1271.86C299.418 1264.83 305.668 1258.97 313.871 1254.28C319.34 1251.16 326.566 1248.81 335.551 1247.25C344.535 1245.69 354.496 1244.91 365.434 1244.91C376.371 1244.52 387.699 1244.91 399.418 1246.08C411.137 1246.86 422.27 1248.03 432.816 1249.59C443.754 1250.77 453.52 1252.33 462.113 1254.28C471.098 1256.23 477.934 1257.99 482.621 1259.55C488.09 1261.51 493.949 1261.7 500.199 1260.14C505.668 1258.97 511.527 1256.43 517.777 1252.52C524.027 1248.62 530.473 1241.59 537.113 1231.43ZM561.137 1296.47C571.293 1298.42 580.082 1299.98 587.504 1301.16C595.316 1301.94 601.957 1302.72 607.426 1303.5C613.676 1304.28 619.145 1304.87 623.832 1305.26C628.52 1305.65 633.988 1306.04 640.238 1306.43C650.785 1306.82 665.629 1306.82 684.77 1306.43C673.441 1305.65 664.457 1308.58 657.816 1315.22C651.566 1321.47 646.879 1328.7 643.754 1336.9C639.848 1346.66 637.699 1357.99 637.309 1370.88C636.527 1388.07 636.918 1403.7 638.48 1417.76C640.434 1431.43 643.754 1443.15 648.441 1452.91C653.52 1462.29 660.16 1469.32 668.363 1474.01C676.566 1478.3 687.113 1479.48 700.004 1477.52C712.895 1475.57 722.66 1471.08 729.301 1464.05C736.332 1456.62 741.41 1447.64 744.535 1437.09C747.66 1426.16 749.418 1413.85 749.809 1400.18C750.59 1386.51 751.176 1372.25 751.566 1357.41C751.566 1342.56 751.371 1332.02 750.98 1325.77C750.98 1319.12 750.785 1314.83 750.395 1312.88C750.004 1310.92 749.418 1310.14 748.637 1310.53C747.855 1310.53 746.879 1309.55 745.707 1307.6C744.926 1306.04 743.754 1304.48 742.191 1302.91C741.02 1301.35 739.457 1299.59 737.504 1297.64C735.551 1295.3 733.402 1292.95 731.059 1290.61C741.215 1291 750.199 1291.39 758.012 1291.78C766.215 1291.78 773.051 1291.98 778.52 1292.37C784.77 1292.76 790.238 1293.15 794.926 1293.54C799.223 1293.93 804.887 1294.52 811.918 1295.3C817.777 1296.08 825.395 1296.86 834.77 1297.64C844.145 1298.42 855.277 1299.59 868.168 1301.16C859.184 1303.11 851.957 1306.04 846.488 1309.95C841.02 1313.85 836.723 1317.76 833.598 1321.66C830.082 1325.96 827.543 1330.65 825.98 1335.73C824.809 1342.37 824.809 1352.52 825.98 1366.2C826.762 1378.3 828.715 1394.91 831.84 1416C834.965 1437.09 839.848 1464.83 846.488 1499.2L800.199 1526.74L790.824 1448.81C779.496 1467.95 767.387 1482.8 754.496 1493.34C741.996 1503.5 730.277 1510.92 719.34 1515.61C706.449 1521.08 693.949 1524.2 681.84 1524.98C665.824 1524.98 651.957 1524.01 640.238 1522.05C628.91 1519.71 619.145 1516.78 610.941 1513.27C602.738 1509.75 596.098 1505.84 591.02 1501.55C586.332 1496.86 582.816 1492.17 580.473 1487.48C575.004 1477.72 572.074 1465.22 571.684 1449.98C571.293 1434.36 571.879 1418.93 573.441 1403.7C575.004 1388.07 576.762 1373.81 578.715 1360.92C580.668 1348.03 581.254 1339.24 580.473 1334.55C579.691 1331.04 578.52 1327.13 576.957 1322.84C575.395 1319.32 573.441 1315.41 571.098 1311.12C568.754 1306.43 565.434 1301.55 561.137 1296.47ZM1204.5 1357.99C1199.81 1357.21 1193.95 1356.62 1186.92 1356.23C1180.28 1355.84 1173.83 1355.65 1167.58 1355.65C1160.55 1355.65 1153.13 1355.84 1145.32 1356.23C1137.11 1356.62 1128.91 1357.02 1120.71 1357.41C1113.68 1357.8 1105.67 1358.38 1096.68 1359.16C1088.09 1359.55 1079.69 1360.14 1071.49 1360.92C1074.61 1359.36 1077.35 1357.21 1079.69 1354.48C1082.43 1351.74 1084.77 1349.01 1086.72 1346.27C1088.68 1343.15 1090.43 1339.83 1092 1336.31C1093.95 1330.45 1093.75 1323.42 1091.41 1315.22C1089.07 1306.62 1084.77 1298.81 1078.52 1291.78C1072.66 1284.75 1065.04 1279.28 1055.67 1275.38C1046.68 1271.08 1036.72 1270.1 1025.79 1272.45C1014.07 1275.18 1003.52 1279.28 994.145 1284.75C985.16 1290.22 977.543 1297.84 971.293 1307.6C965.434 1316.98 961.137 1328.7 958.402 1342.76C956.059 1356.43 955.473 1372.84 956.645 1391.98C958.207 1415.8 962.113 1434.75 968.363 1448.81C974.613 1462.88 982.23 1473.42 991.215 1480.45C1000.2 1487.48 1009.96 1491.78 1020.51 1493.34C1031.45 1494.52 1042.19 1494.52 1052.74 1493.34C1060.16 1491.78 1067 1488.46 1073.25 1483.38C1078.32 1479.09 1083.01 1472.84 1087.31 1464.63C1091.61 1456.43 1093.56 1445.1 1093.17 1430.65L1164.65 1427.72C1156.45 1450.77 1146.49 1469.12 1134.77 1482.8C1123.05 1496.08 1111.72 1506.43 1100.79 1513.85C1087.89 1522.45 1075 1528.3 1062.11 1531.43C1046.1 1534.16 1031.84 1535.34 1019.34 1534.95C1006.84 1534.16 995.512 1532.21 985.355 1529.09C975.199 1525.96 965.824 1522.05 957.23 1517.37C948.637 1512.68 940.434 1507.6 932.621 1502.13C927.543 1498.62 921.879 1492.76 915.629 1484.55C909.379 1476.35 903.52 1466.59 898.051 1455.26C892.582 1443.54 888.09 1430.65 884.574 1416.59C881.059 1402.52 879.691 1388.07 880.473 1373.23C881.254 1357.99 884.77 1342.76 891.02 1327.52C897.27 1312.29 907.23 1297.64 920.902 1283.58C941.605 1262.48 963.676 1248.81 987.113 1242.56C1010.94 1235.92 1033.4 1234.16 1054.5 1237.29C1075.59 1240.02 1094.34 1246.08 1110.75 1255.45C1127.15 1264.83 1138.68 1274.98 1145.32 1285.92C1151.96 1296.86 1156.84 1305.26 1159.96 1311.12C1163.48 1316.59 1166.02 1320.88 1167.58 1324.01C1169.54 1326.74 1171.1 1328.89 1172.27 1330.45C1173.83 1331.62 1175.98 1333.38 1178.71 1335.73C1180.67 1337.68 1183.01 1339.83 1185.75 1342.17C1188.09 1344.12 1190.82 1346.47 1193.95 1349.2C1197.07 1351.94 1200.59 1354.87 1204.5 1357.99ZM1523.25 1357.99C1518.56 1357.21 1512.7 1356.62 1505.67 1356.23C1499.03 1355.84 1492.58 1355.65 1486.33 1355.65C1479.3 1355.65 1471.88 1355.84 1464.07 1356.23C1455.86 1356.62 1447.66 1357.02 1439.46 1357.41C1432.43 1357.8 1424.42 1358.38 1415.43 1359.16C1406.84 1359.55 1398.44 1360.14 1390.24 1360.92C1393.36 1359.36 1396.1 1357.21 1398.44 1354.48C1401.18 1351.74 1403.52 1349.01 1405.47 1346.27C1407.43 1343.15 1409.18 1339.83 1410.75 1336.31C1412.7 1330.45 1412.5 1323.42 1410.16 1315.22C1407.82 1306.62 1403.52 1298.81 1397.27 1291.78C1391.41 1284.75 1383.79 1279.28 1374.42 1275.38C1365.43 1271.08 1355.47 1270.1 1344.54 1272.45C1332.82 1275.18 1322.27 1279.28 1312.89 1284.75C1303.91 1290.22 1296.29 1297.84 1290.04 1307.6C1284.18 1316.98 1279.89 1328.7 1277.15 1342.76C1274.81 1356.43 1274.22 1372.84 1275.39 1391.98C1276.96 1415.8 1280.86 1434.75 1287.11 1448.81C1293.36 1462.88 1300.98 1473.42 1309.96 1480.45C1318.95 1487.48 1328.71 1491.78 1339.26 1493.34C1350.2 1494.52 1360.94 1494.52 1371.49 1493.34C1378.91 1491.78 1385.75 1488.46 1392 1483.38C1397.07 1479.09 1401.76 1472.84 1406.06 1464.63C1410.36 1456.43 1412.31 1445.1 1411.92 1430.65L1483.4 1427.72C1475.2 1450.77 1465.24 1469.12 1453.52 1482.8C1441.8 1496.08 1430.47 1506.43 1419.54 1513.85C1406.64 1522.45 1393.75 1528.3 1380.86 1531.43C1364.85 1534.16 1350.59 1535.34 1338.09 1534.95C1325.59 1534.16 1314.26 1532.21 1304.11 1529.09C1293.95 1525.96 1284.57 1522.05 1275.98 1517.37C1267.39 1512.68 1259.18 1507.6 1251.37 1502.13C1246.29 1498.62 1240.63 1492.76 1234.38 1484.55C1228.13 1476.35 1222.27 1466.59 1216.8 1455.26C1211.33 1443.54 1206.84 1430.65 1203.32 1416.59C1199.81 1402.52 1198.44 1388.07 1199.22 1373.23C1200 1357.99 1203.52 1342.76 1209.77 1327.52C1216.02 1312.29 1225.98 1297.64 1239.65 1283.58C1260.36 1262.48 1282.43 1248.81 1305.86 1242.56C1329.69 1235.92 1352.15 1234.16 1373.25 1237.29C1394.34 1240.02 1413.09 1246.08 1429.5 1255.45C1445.9 1264.83 1457.43 1274.98 1464.07 1285.92C1470.71 1296.86 1475.59 1305.26 1478.71 1311.12C1482.23 1316.59 1484.77 1320.88 1486.33 1324.01C1488.29 1326.74 1489.85 1328.89 1491.02 1330.45C1492.58 1331.62 1494.73 1333.38 1497.46 1335.73C1499.42 1337.68 1501.76 1339.83 1504.5 1342.17C1506.84 1344.12 1509.57 1346.47 1512.7 1349.2C1515.82 1351.94 1519.34 1354.87 1523.25 1357.99ZM1666.8 1471.66C1677.74 1471.66 1687.89 1470.49 1697.27 1468.15C1705.08 1466.2 1712.5 1463.07 1719.54 1458.77C1726.96 1454.09 1731.84 1447.25 1734.18 1438.27C1742 1439.83 1748.64 1441.2 1754.11 1442.37C1759.57 1443.15 1764.26 1443.93 1768.17 1444.71C1772.46 1445.88 1776.18 1446.66 1779.3 1447.05C1782.43 1447.84 1786.14 1448.62 1790.43 1449.4C1794.34 1450.18 1799.03 1451.16 1804.5 1452.33C1810.36 1453.11 1817.19 1454.28 1825 1455.84C1819.14 1455.06 1813.09 1455.65 1806.84 1457.6C1800.98 1459.55 1795.32 1461.7 1789.85 1464.05C1783.6 1466.78 1777.74 1470.1 1772.27 1474.01C1768.75 1476.35 1764.65 1479.87 1759.96 1484.55C1755.67 1489.24 1749.42 1493.73 1741.21 1498.03C1733.01 1502.33 1722.07 1506.04 1708.4 1509.16C1695.12 1511.9 1677.93 1512.88 1656.84 1512.09C1631.45 1511.31 1610.16 1506.82 1592.97 1498.62C1575.79 1490.02 1561.92 1479.67 1551.37 1467.56C1540.82 1455.06 1533.21 1441.59 1528.52 1427.13C1523.83 1412.68 1521.29 1399.2 1520.9 1386.7C1520.51 1374.2 1524.22 1361.12 1532.04 1347.45C1539.85 1333.77 1550.79 1321.27 1564.85 1309.95C1579.3 1298.62 1596.68 1289.44 1617 1282.41C1637.31 1274.98 1659.57 1271.27 1683.79 1271.27C1697.86 1271.27 1710.75 1273.03 1722.46 1276.55C1734.57 1279.67 1745.51 1283.97 1755.28 1289.44C1765.43 1294.91 1774.22 1301.16 1781.64 1308.19C1789.07 1314.83 1795.32 1321.66 1800.39 1328.7C1805.47 1336.12 1809.77 1343.93 1813.29 1352.13C1816.41 1359.16 1818.95 1367.17 1820.9 1376.16C1822.86 1385.14 1823.44 1394.32 1822.66 1403.7C1792.97 1404.48 1768.95 1405.06 1750.59 1405.45C1732.62 1405.84 1718.56 1406.04 1708.4 1406.04H1682.04H1662.11C1655.08 1406.04 1645.9 1406.23 1634.57 1406.62C1623.25 1407.02 1609.38 1407.6 1592.97 1408.38C1594.93 1424.01 1599.81 1436.12 1607.62 1444.71C1615.82 1452.91 1624.42 1459.16 1633.4 1463.46C1643.56 1468.15 1654.69 1470.88 1666.8 1471.66ZM1614.07 1366.2C1626.57 1366.98 1636.92 1367.56 1645.12 1367.95C1653.71 1368.34 1660.75 1368.73 1666.21 1369.12C1672.07 1369.52 1676.76 1369.71 1680.28 1369.71H1694.93C1704.69 1369.71 1722.86 1369.12 1749.42 1367.95C1748.25 1350.77 1744.54 1337.68 1738.29 1328.7C1732.43 1319.71 1726.18 1313.07 1719.54 1308.77C1711.72 1304.09 1703.13 1301.35 1693.75 1300.57C1668.36 1300.96 1649.42 1306.23 1636.92 1316.39C1624.81 1326.55 1617.19 1343.15 1614.07 1366.2ZM2104.5 1231.43C2100.98 1240.02 2097.86 1247.84 2095.12 1254.87C2092.78 1261.9 2090.63 1268.15 2088.68 1273.62C2086.72 1279.87 2084.96 1285.34 2083.4 1290.02C2081.84 1295.49 2080.08 1301.74 2078.13 1308.77C2076.18 1315.02 2073.64 1322.84 2070.51 1332.21C2067.78 1341.2 2064.46 1351.94 2060.55 1364.44C2057.43 1345.69 2051.76 1330.84 2043.56 1319.91C2035.36 1308.58 2026.96 1299.79 2018.36 1293.54C2008.21 1286.51 1997.27 1281.43 1985.55 1278.3C1964.46 1274.79 1949.22 1275.18 1939.85 1279.48C1930.47 1283.77 1924.22 1289.24 1921.1 1295.88C1919.54 1298.62 1917.78 1302.13 1915.82 1306.43C1914.26 1310.34 1912.89 1314.44 1911.72 1318.73C1910.94 1323.03 1910.75 1327.33 1911.14 1331.62C1911.53 1335.92 1913.29 1339.44 1916.41 1342.17C1918.36 1344.12 1923.44 1346.86 1931.64 1350.38C1939.85 1353.5 1949.61 1357.21 1960.94 1361.51C1972.66 1365.41 1984.96 1369.71 1997.86 1374.4C2011.14 1379.09 2023.64 1383.77 2035.36 1388.46C2047.07 1393.15 2057.23 1397.84 2065.82 1402.52C2074.42 1407.21 2080.08 1411.51 2082.82 1415.41C2085.16 1419.32 2087.7 1424.59 2090.43 1431.23C2093.56 1437.48 2095.71 1444.52 2096.88 1452.33C2098.44 1459.75 2098.83 1467.56 2098.05 1475.77C2097.66 1483.58 2095.51 1491.39 2091.61 1499.2C2087.7 1507.02 2081.45 1514.24 2072.86 1520.88C2064.65 1527.52 2053.52 1532.99 2039.46 1537.29C2023.05 1542.37 2007.23 1543.73 1992 1541.39C1976.76 1539.05 1962.7 1535.53 1949.81 1530.84C1937.31 1526.16 1926.37 1521.66 1917 1517.37C1907.62 1512.68 1900.98 1510.73 1897.07 1511.51C1892.78 1512.29 1887.89 1514.44 1882.43 1517.95C1876.96 1521.47 1871.68 1525.18 1866.61 1529.09C1861.92 1532.6 1857.82 1535.92 1854.3 1539.05C1850.79 1541.78 1849.03 1542.76 1849.03 1541.98C1849.03 1541.2 1849.61 1538.85 1850.79 1534.95C1852.35 1531.04 1853.91 1526.35 1855.47 1520.88C1857.43 1515.02 1859.18 1508.77 1860.75 1502.13C1862.7 1495.1 1864.07 1488.46 1864.85 1482.21C1865.63 1477.13 1866.61 1470.88 1867.78 1463.46C1868.56 1456.82 1869.54 1448.81 1870.71 1439.44C1872.27 1429.67 1874.03 1417.95 1875.98 1404.28C1877.93 1414.44 1880.67 1423.23 1884.18 1430.65C1888.09 1438.07 1891.8 1444.52 1895.32 1449.98C1899.61 1456.23 1903.71 1461.51 1907.62 1465.8C1913.48 1471.27 1920.32 1476.35 1928.13 1481.04C1936.33 1485.73 1944.54 1489.83 1952.74 1493.34C1960.94 1496.47 1968.75 1498.42 1976.18 1499.2C1983.6 1499.98 1989.85 1499.2 1994.93 1496.86C2000 1494.52 2004.3 1490.22 2007.82 1483.97C2011.72 1477.72 2014.46 1470.88 2016.02 1463.46C2017.58 1456.04 2018.17 1449.01 2017.78 1442.37C2017.39 1435.34 2015.63 1429.67 2012.5 1425.38C2010.16 1422.64 2004.69 1419.12 1996.1 1414.83C1987.89 1410.53 1977.93 1405.84 1966.21 1400.77C1954.89 1395.69 1942.78 1390.41 1929.89 1384.95C1917.39 1379.48 1905.47 1374.01 1894.14 1368.54C1883.21 1362.68 1874.03 1357.21 1866.61 1352.13C1859.57 1346.66 1855.67 1341.78 1854.89 1337.48C1854.11 1331.23 1853.52 1324.4 1853.13 1316.98C1852.74 1309.16 1853.13 1301.55 1854.3 1294.12C1855.86 1286.31 1858.6 1278.89 1862.5 1271.86C1866.8 1264.83 1873.05 1258.97 1881.25 1254.28C1886.72 1251.16 1893.95 1248.81 1902.93 1247.25C1911.92 1245.69 1921.88 1244.91 1932.82 1244.91C1943.75 1244.52 1955.08 1244.91 1966.8 1246.08C1978.52 1246.86 1989.65 1248.03 2000.2 1249.59C2011.14 1250.77 2020.9 1252.33 2029.5 1254.28C2038.48 1256.23 2045.32 1257.99 2050 1259.55C2055.47 1261.51 2061.33 1261.7 2067.58 1260.14C2073.05 1258.97 2078.91 1256.43 2085.16 1252.52C2091.41 1248.62 2097.86 1241.59 2104.5 1231.43ZM2383.99 1231.43C2380.47 1240.02 2377.35 1247.84 2374.61 1254.87C2372.27 1261.9 2370.12 1268.15 2368.17 1273.62C2366.21 1279.87 2364.46 1285.34 2362.89 1290.02C2361.33 1295.49 2359.57 1301.74 2357.62 1308.77C2355.67 1315.02 2353.13 1322.84 2350 1332.21C2347.27 1341.2 2343.95 1351.94 2340.04 1364.44C2336.92 1345.69 2331.25 1330.84 2323.05 1319.91C2314.85 1308.58 2306.45 1299.79 2297.86 1293.54C2287.7 1286.51 2276.76 1281.43 2265.04 1278.3C2243.95 1274.79 2228.71 1275.18 2219.34 1279.48C2209.96 1283.77 2203.71 1289.24 2200.59 1295.88C2199.03 1298.62 2197.27 1302.13 2195.32 1306.43C2193.75 1310.34 2192.39 1314.44 2191.21 1318.73C2190.43 1323.03 2190.24 1327.33 2190.63 1331.62C2191.02 1335.92 2192.78 1339.44 2195.9 1342.17C2197.86 1344.12 2202.93 1346.86 2211.14 1350.38C2219.34 1353.5 2229.11 1357.21 2240.43 1361.51C2252.15 1365.41 2264.46 1369.71 2277.35 1374.4C2290.63 1379.09 2303.13 1383.77 2314.85 1388.46C2326.57 1393.15 2336.72 1397.84 2345.32 1402.52C2353.91 1407.21 2359.57 1411.51 2362.31 1415.41C2364.65 1419.32 2367.19 1424.59 2369.93 1431.23C2373.05 1437.48 2375.2 1444.52 2376.37 1452.33C2377.93 1459.75 2378.32 1467.56 2377.54 1475.77C2377.15 1483.58 2375 1491.39 2371.1 1499.2C2367.19 1507.02 2360.94 1514.24 2352.35 1520.88C2344.14 1527.52 2333.01 1532.99 2318.95 1537.29C2302.54 1542.37 2286.72 1543.73 2271.49 1541.39C2256.25 1539.05 2242.19 1535.53 2229.3 1530.84C2216.8 1526.16 2205.86 1521.66 2196.49 1517.37C2187.11 1512.68 2180.47 1510.73 2176.57 1511.51C2172.27 1512.29 2167.39 1514.44 2161.92 1517.95C2156.45 1521.47 2151.18 1525.18 2146.1 1529.09C2141.41 1532.6 2137.31 1535.92 2133.79 1539.05C2130.28 1541.78 2128.52 1542.76 2128.52 1541.98C2128.52 1541.2 2129.11 1538.85 2130.28 1534.95C2131.84 1531.04 2133.4 1526.35 2134.96 1520.88C2136.92 1515.02 2138.68 1508.77 2140.24 1502.13C2142.19 1495.1 2143.56 1488.46 2144.34 1482.21C2145.12 1477.13 2146.1 1470.88 2147.27 1463.46C2148.05 1456.82 2149.03 1448.81 2150.2 1439.44C2151.76 1429.67 2153.52 1417.95 2155.47 1404.28C2157.43 1414.44 2160.16 1423.23 2163.68 1430.65C2167.58 1438.07 2171.29 1444.52 2174.81 1449.98C2179.11 1456.23 2183.21 1461.51 2187.11 1465.8C2192.97 1471.27 2199.81 1476.35 2207.62 1481.04C2215.82 1485.73 2224.03 1489.83 2232.23 1493.34C2240.43 1496.47 2248.25 1498.42 2255.67 1499.2C2263.09 1499.98 2269.34 1499.2 2274.42 1496.86C2279.5 1494.52 2283.79 1490.22 2287.31 1483.97C2291.21 1477.72 2293.95 1470.88 2295.51 1463.46C2297.07 1456.04 2297.66 1449.01 2297.27 1442.37C2296.88 1435.34 2295.12 1429.67 2292 1425.38C2289.65 1422.64 2284.18 1419.12 2275.59 1414.83C2267.39 1410.53 2257.43 1405.84 2245.71 1400.77C2234.38 1395.69 2222.27 1390.41 2209.38 1384.95C2196.88 1379.48 2184.96 1374.01 2173.64 1368.54C2162.7 1362.68 2153.52 1357.21 2146.1 1352.13C2139.07 1346.66 2135.16 1341.78 2134.38 1337.48C2133.6 1331.23 2133.01 1324.4 2132.62 1316.98C2132.23 1309.16 2132.62 1301.55 2133.79 1294.12C2135.36 1286.31 2138.09 1278.89 2142 1271.86C2146.29 1264.83 2152.54 1258.97 2160.75 1254.28C2166.21 1251.16 2173.44 1248.81 2182.43 1247.25C2191.41 1245.69 2201.37 1244.91 2212.31 1244.91C2223.25 1244.52 2234.57 1244.91 2246.29 1246.08C2258.01 1246.86 2269.14 1248.03 2279.69 1249.59C2290.63 1250.77 2300.39 1252.33 2308.99 1254.28C2317.97 1256.23 2324.81 1257.99 2329.5 1259.55C2334.96 1261.51 2340.82 1261.7 2347.07 1260.14C2352.54 1258.97 2358.4 1256.43 2364.65 1252.52C2370.9 1248.62 2377.35 1241.59 2383.99 1231.43ZM2440.24 1143.54C2447.66 1145.49 2454.69 1147.05 2461.33 1148.23C2467.97 1149.01 2473.83 1149.79 2478.91 1150.57C2484.77 1151.35 2490.24 1151.94 2495.32 1152.33C2500.79 1152.72 2507.23 1153.11 2514.65 1153.5C2521.29 1153.89 2529.3 1154.09 2538.68 1154.09C2548.05 1154.09 2559.18 1154.09 2572.07 1154.09C2560.75 1181.04 2551.57 1203.89 2544.54 1222.64C2537.5 1241 2532.04 1256.23 2528.13 1268.34C2523.83 1282.41 2520.71 1293.93 2518.75 1302.91C2517.19 1311.9 2515.24 1322.84 2512.89 1335.73C2510.94 1347.05 2508.21 1360.92 2504.69 1377.33C2501.18 1393.73 2497.27 1413.27 2492.97 1435.92L2441.41 1433.58C2444.54 1412.88 2446.68 1395.3 2447.86 1380.84C2449.03 1366 2450 1353.7 2450.79 1343.93C2451.57 1332.6 2451.96 1323.23 2451.96 1315.8C2451.96 1307.99 2451.37 1296.27 2450.2 1280.65C2449.42 1267.76 2448.25 1250.38 2446.68 1228.5C2445.12 1206.23 2442.97 1177.91 2440.24 1143.54ZM2504.69 1480.45C2507.43 1484.75 2508.99 1489.63 2509.38 1495.1C2510.16 1500.18 2509.77 1505.45 2508.21 1510.92C2507.04 1516 2504.5 1520.88 2500.59 1525.57C2497.07 1530.26 2492.19 1533.97 2485.94 1536.7C2473.44 1542.56 2462.31 1544.12 2452.54 1541.39C2442.78 1538.27 2435.55 1533.19 2430.86 1526.16C2428.13 1522.25 2426.57 1517.95 2426.18 1513.27C2426.18 1508.19 2427.15 1503.3 2429.11 1498.62C2431.06 1493.54 2434.18 1488.85 2438.48 1484.55C2442.78 1480.26 2448.25 1476.74 2454.89 1474.01C2467.78 1468.54 2478.32 1466.59 2486.53 1468.15C2495.12 1469.71 2501.18 1473.81 2504.69 1480.45Z" fill="#FFF7AC"/>
</svg>
