<svg width="2843" height="2121" viewBox="0 0 2843 2121" fill="none" xmlns="http://www.w3.org/2000/svg">
<path fill-rule="evenodd" clip-rule="evenodd" d="M2681.21 4.9895C2767.86 4.9895 2838.1 72.777 2838.1 156.375C2838.1 545.303 2838.1 1575.99 2838.1 1964.86C2838.1 2048.46 2767.86 2116.23 2681.21 2116.23C2185.58 2116.23 657.209 2116.23 161.644 2116.23C74.9961 2116.23 4.75293 2048.46 4.75293 1964.86C4.75293 1575.99 4.75293 545.303 4.75293 156.375C4.75293 72.777 74.9961 4.9895 161.644 4.9895C657.209 4.9895 2185.58 4.9895 2681.21 4.9895Z" fill="#FFF7AC" stroke="#273838" stroke-width="9.22" stroke-miterlimit="1.5" stroke-linecap="round" stroke-linejoin="round"/>
<rect x="837.5" y="1623.5" width="1164" height="134" rx="67" fill="#FFF6DD" stroke="#EE9C47" stroke-width="3"/>
<path d="M931.406 169.578C926.849 179.995 922.78 189.109 919.199 196.922C915.618 204.734 912.526 211.408 909.922 216.941C906.992 223.126 904.551 228.66 902.598 233.543C900.97 237.124 898.854 242.007 896.25 248.191C893.646 253.725 890.391 261.049 886.484 270.164C882.904 278.953 878.184 290.346 872.324 304.344C869.395 292.299 865.814 281.72 861.582 272.605C857.35 263.491 852.793 255.516 847.91 248.68C843.027 241.844 837.819 236.31 832.285 232.078C827.077 227.521 821.868 223.777 816.66 220.848C804.616 214.337 791.921 210.757 778.574 210.105C760.996 211.082 747.161 214.012 737.07 218.895C727.305 223.452 720.143 228.823 715.586 235.008C711.029 240.867 708.587 247.052 708.262 253.562C707.936 259.747 708.75 264.956 710.703 269.188C712.331 273.094 718.027 277.651 727.793 282.859C737.884 288.068 749.928 294.09 763.926 300.926C778.249 307.436 793.548 314.923 809.824 323.387C826.1 331.525 841.074 340.639 854.746 350.73C868.743 360.496 880.462 371.238 889.902 382.957C899.668 394.35 905.039 406.557 906.016 419.578C906.992 436.18 906.829 451.154 905.527 464.5C904.225 477.846 899.668 489.24 891.855 498.68C884.043 508.12 871.836 515.607 855.234 521.141C838.958 526.674 816.335 530.092 787.363 531.395C757.415 532.697 732.839 531.069 713.633 526.512C694.427 521.954 678.802 515.77 666.758 507.957C655.039 500.145 646.25 491.518 640.391 482.078C634.857 472.638 630.788 463.686 628.184 455.223C625.579 446.434 623.789 438.947 622.812 432.762C621.836 426.251 620.208 422.345 617.93 421.043C615.326 419.415 612.721 417.951 610.117 416.648C607.839 415.346 605.397 414.207 602.793 413.23C600.189 411.928 597.585 410.789 594.98 409.812L737.07 386.863C728.932 393.374 722.585 399.396 718.027 404.93C713.796 410.464 710.54 415.346 708.262 419.578C705.658 424.461 703.867 429.018 702.891 433.25C702.24 437.807 703.704 443.504 707.285 450.34C710.866 457.176 715.749 463.849 721.934 470.359C728.444 476.544 735.931 481.753 744.395 485.984C752.858 490.216 761.647 492.007 770.762 491.355C782.155 490.379 791.432 487.612 798.594 483.055C805.755 478.172 811.126 472.15 814.707 464.988C818.613 457.827 820.892 450.014 821.543 441.551C822.194 433.087 821.38 424.786 819.102 416.648C817.148 408.185 813.893 400.372 809.336 393.211C804.779 385.724 799.408 379.539 793.223 374.656C787.689 370.75 779.062 367.007 767.344 363.426C755.951 359.845 743.092 355.939 728.77 351.707C714.772 347.475 700.286 342.592 685.312 337.059C670.664 331.525 657.318 324.689 645.273 316.551C633.555 308.413 624.115 298.81 616.953 287.742C610.117 276.674 607.513 263.328 609.141 247.703C610.443 234.357 614.674 223.289 621.836 214.5C629.323 205.385 638.6 198.224 649.668 193.016C661.061 187.482 673.594 183.413 687.266 180.809C701.263 178.204 715.423 176.74 729.746 176.414C744.395 175.763 758.717 175.926 772.715 176.902C787.038 177.879 799.896 179.018 811.289 180.32C822.682 181.622 832.285 182.924 840.098 184.227C848.236 185.203 853.281 185.854 855.234 186.18C863.698 186.831 872.161 186.668 880.625 185.691C888.112 185.04 896.25 183.576 905.039 181.297C914.154 178.693 922.943 174.786 931.406 169.578ZM936.289 308.738L1026.13 309.715C1020.92 329.572 1017.02 346.499 1014.41 360.496C1012.14 374.493 1010.67 386.212 1010.02 395.652C1008.72 406.395 1008.39 415.509 1009.04 422.996C1010.02 429.832 1011.65 437.156 1013.93 444.969C1015.88 451.479 1018.81 458.966 1022.71 467.43C1026.62 475.893 1031.83 484.357 1038.34 492.82C1034.43 491.518 1030.2 490.542 1025.64 489.891C1021.09 489.24 1016.86 488.751 1012.95 488.426C1008.39 488.1 1003.83 488.1 999.277 488.426C994.72 488.751 989.674 489.24 984.141 489.891C979.583 490.542 974.049 491.355 967.539 492.332C961.029 493.309 954.193 494.611 947.031 496.238C951.914 481.59 955.658 468.895 958.262 458.152C961.191 447.41 963.307 438.458 964.609 431.297C965.911 422.833 966.725 415.997 967.051 410.789C967.051 404.279 967.051 396.954 967.051 388.816C967.051 380.353 967.051 372.215 967.051 364.402C967.051 356.59 966.888 349.754 966.562 343.895C966.237 337.71 965.586 333.803 964.609 332.176L959.727 327.293C957.773 325.665 954.844 323.387 950.938 320.457C947.357 317.202 942.474 313.296 936.289 308.738ZM970.957 233.543C977.793 229.962 984.629 228.986 991.465 230.613C998.626 232.241 1004.16 235.333 1008.07 239.891C1011.97 244.448 1013.27 249.819 1011.97 256.004C1011 262.189 1005.79 268.211 996.348 274.07C986.908 279.604 978.607 281.557 971.445 279.93C964.284 278.302 959.238 274.884 956.309 269.676C953.379 264.467 952.891 258.445 954.844 251.609C956.797 244.448 962.168 238.426 970.957 233.543ZM1286.39 319.969C1285.41 313.458 1284.6 308.087 1283.95 303.855C1283.29 299.298 1282.64 295.717 1281.99 293.113C1281.34 289.858 1280.85 287.417 1280.53 285.789C1279.88 284.161 1279.06 282.371 1278.09 280.418C1277.43 278.79 1276.3 276.837 1274.67 274.559C1273.37 272.28 1271.74 269.676 1269.79 266.746C1274.02 268.048 1278.25 268.862 1282.48 269.188C1287.04 269.513 1291.27 269.839 1295.18 270.164C1299.41 270.49 1303.8 270.49 1308.36 270.164C1312.92 270.164 1318.12 270.001 1323.98 269.676C1329.19 269.35 1335.38 269.188 1342.54 269.188C1350.03 268.862 1358.49 268.374 1367.93 267.723C1362.4 269.025 1357.68 271.303 1353.77 274.559C1350.19 277.488 1347.1 280.743 1344.49 284.324C1341.56 288.23 1339.12 292.462 1337.17 297.02C1335.54 301.251 1334.56 309.389 1334.24 321.434C1333.91 333.152 1333.91 347.15 1334.24 363.426C1334.56 379.376 1334.89 396.629 1335.21 415.184C1335.87 433.738 1336.19 451.479 1336.19 468.406C1336.52 485.333 1336.52 500.796 1336.19 514.793C1335.87 528.465 1335.05 538.556 1333.75 545.066C1329.19 565.574 1320.73 582.176 1308.36 594.871C1295.99 607.892 1279.71 614.891 1259.53 615.867C1235.12 616.844 1215.75 614.565 1201.43 609.031C1187.43 603.497 1176.52 596.661 1168.71 588.523C1160.9 580.711 1155.04 572.736 1151.13 564.598C1147.23 556.46 1143.16 550.275 1138.93 546.043C1135.02 542.462 1131.11 539.044 1127.21 535.789C1123.63 533.185 1119.88 530.581 1115.98 527.977C1112.4 525.372 1108.82 523.745 1105.23 523.094C1114.67 523.419 1123.14 523.582 1130.62 523.582C1138.11 523.582 1144.46 523.582 1149.67 523.582C1155.53 523.582 1160.74 523.419 1165.29 523.094H1180.92H1225.35C1218.84 525.047 1213.96 527.163 1210.7 529.441C1207.45 532.046 1205.17 534.65 1203.87 537.254C1202.57 540.184 1201.91 543.113 1201.91 546.043C1203.22 553.855 1207.45 559.552 1214.61 563.133C1221.77 566.714 1231.54 568.829 1243.91 569.48C1255.95 570.132 1264.25 569.806 1268.81 568.504C1273.37 567.527 1276.95 565.574 1279.55 562.645C1284.76 554.832 1289.15 544.741 1292.73 532.371C1295.34 521.954 1297.13 508.445 1298.11 491.844C1299.41 474.917 1297.94 454.246 1293.71 429.832C1283.29 444.155 1271.25 454.897 1257.58 462.059C1243.91 469.22 1230.89 474.428 1218.52 477.684C1203.87 481.264 1189.06 483.055 1174.08 483.055C1134.69 481.427 1105.23 472.312 1085.7 455.711C1066.17 439.109 1057.22 416.811 1058.85 388.816C1059.82 374.819 1064.06 360.822 1071.54 346.824C1079.36 332.827 1089.45 320.294 1101.82 309.227C1114.51 298.159 1129 289.37 1145.27 282.859C1161.55 276.349 1178.48 273.582 1196.05 274.559C1209.4 275.861 1221.93 278.302 1233.65 281.883C1243.74 285.138 1253.67 289.695 1263.44 295.555C1273.53 301.414 1281.18 309.552 1286.39 319.969ZM1131.11 368.797C1129.16 381.492 1129.97 393.374 1133.55 404.441C1137.46 415.509 1142.83 425.112 1149.67 433.25C1156.5 441.062 1164.15 447.247 1172.62 451.805C1181.08 456.036 1189.06 457.99 1196.54 457.664C1212.17 457.339 1225.68 450.34 1237.07 436.668C1248.46 422.671 1255.3 401.837 1257.58 374.168C1258.55 360.496 1256.76 348.777 1252.21 339.012C1247.98 328.921 1242.6 320.783 1236.09 314.598C1229.58 308.413 1222.75 304.018 1215.59 301.414C1208.42 298.81 1202.73 297.671 1198.5 297.996C1192.64 298.647 1186.13 300.438 1178.96 303.367C1172.13 305.971 1165.46 310.04 1158.95 315.574C1152.43 320.783 1146.58 327.781 1141.37 336.57C1136.48 345.359 1133.07 356.102 1131.11 368.797ZM1387.46 473.289C1389.74 462.547 1391.37 453.107 1392.34 444.969C1393.65 436.505 1394.62 429.507 1395.27 423.973C1395.92 417.462 1396.25 411.928 1396.25 407.371C1395.92 401.837 1395.6 395.327 1395.27 387.84C1395.27 380.027 1394.95 372.378 1394.3 364.891C1393.97 357.078 1393.48 350.242 1392.83 344.383C1392.18 338.198 1391.37 333.803 1390.39 331.199C1389.09 328.595 1387.3 325.828 1385.02 322.898C1380.46 317.365 1373.79 311.993 1365 306.785C1372.49 305.158 1378.83 303.855 1384.04 302.879C1389.58 301.577 1394.13 300.438 1397.71 299.461C1401.62 298.159 1405.04 297.02 1407.97 296.043C1410.57 295.066 1413.67 294.09 1417.25 293.113C1420.18 292.462 1423.76 291.648 1427.99 290.672C1432.22 289.695 1437.1 288.556 1442.64 287.254L1441.17 331.688C1451.59 319.318 1462.17 310.04 1472.91 303.855C1483.65 297.671 1493.74 293.276 1503.18 290.672C1513.93 287.417 1524.51 285.789 1534.92 285.789C1547.94 286.44 1559.99 288.556 1571.05 292.137C1582.45 295.717 1592.21 299.949 1600.35 304.832C1608.82 309.389 1615.65 314.272 1620.86 319.48C1626.07 324.689 1629.16 329.246 1630.14 333.152C1634.04 345.848 1635.02 357.566 1633.07 368.309C1631.11 378.725 1628.51 388.979 1625.25 399.07C1622.32 408.836 1619.72 418.602 1617.44 428.367C1615.49 438.133 1616.3 448.712 1619.88 460.105C1621.18 463.035 1622.49 465.965 1623.79 468.895C1625.09 471.499 1626.72 474.103 1628.67 476.707C1630.62 479.311 1632.9 481.427 1635.51 483.055C1631.93 482.729 1628.35 482.566 1624.77 482.566C1621.18 482.241 1617.93 481.915 1615 481.59C1611.42 481.264 1608.16 480.939 1605.23 480.613C1601.98 480.288 1597.58 480.125 1592.05 480.125C1582.61 480.125 1567.96 480.613 1548.11 481.59C1551.04 474.754 1553.31 469.057 1554.94 464.5C1556.89 459.617 1558.52 455.711 1559.82 452.781C1561.13 449.201 1562.1 446.434 1562.75 444.48C1566.66 435.04 1568.94 424.298 1569.59 412.254C1570.57 400.21 1569.75 388.003 1567.15 375.633C1566.17 371.401 1564.54 366.355 1562.27 360.496C1559.99 354.637 1556.89 348.94 1552.99 343.406C1549.41 337.872 1545.01 333.152 1539.8 329.246C1534.92 325.34 1529.23 323.061 1522.71 322.41C1516.2 321.759 1508.88 323.387 1500.74 327.293C1492.93 331.199 1484.47 338.361 1475.35 348.777C1468.52 357.566 1463.14 368.309 1459.24 381.004C1455.66 391.746 1453.22 405.255 1451.91 421.531C1450.61 437.482 1452.57 456.199 1457.77 477.684C1453.22 477.033 1448.98 476.707 1445.08 476.707C1441.17 476.382 1437.92 476.056 1435.31 475.73C1432.06 475.405 1429.13 475.079 1426.52 474.754C1423.59 474.754 1420.34 474.591 1416.76 474.266C1413.5 474.266 1409.43 474.266 1404.55 474.266C1399.67 473.94 1393.97 473.615 1387.46 473.289ZM1825.45 308.738L1915.29 309.715C1910.08 329.572 1906.18 346.499 1903.57 360.496C1901.3 374.493 1899.83 386.212 1899.18 395.652C1897.88 406.395 1897.55 415.509 1898.2 422.996C1899.18 429.832 1900.81 437.156 1903.09 444.969C1905.04 451.479 1907.97 458.966 1911.88 467.43C1915.78 475.893 1920.99 484.357 1927.5 492.82C1923.59 491.518 1919.36 490.542 1914.8 489.891C1910.25 489.24 1906.02 488.751 1902.11 488.426C1897.55 488.1 1892.99 488.1 1888.44 488.426C1883.88 488.751 1878.83 489.24 1873.3 489.891C1868.74 490.542 1863.21 491.355 1856.7 492.332C1850.19 493.309 1843.35 494.611 1836.19 496.238C1841.07 481.59 1844.82 468.895 1847.42 458.152C1850.35 447.41 1852.47 438.458 1853.77 431.297C1855.07 422.833 1855.89 415.997 1856.21 410.789C1856.21 404.279 1856.21 396.954 1856.21 388.816C1856.21 380.353 1856.21 372.215 1856.21 364.402C1856.21 356.59 1856.05 349.754 1855.72 343.895C1855.4 337.71 1854.75 333.803 1853.77 332.176L1848.89 327.293C1846.93 325.665 1844 323.387 1840.1 320.457C1836.52 317.202 1831.63 313.296 1825.45 308.738ZM1860.12 233.543C1866.95 229.962 1873.79 228.986 1880.62 230.613C1887.79 232.241 1893.32 235.333 1897.23 239.891C1901.13 244.448 1902.43 249.819 1901.13 256.004C1900.16 262.189 1894.95 268.211 1885.51 274.07C1876.07 279.604 1867.77 281.557 1860.61 279.93C1853.44 278.302 1848.4 274.884 1845.47 269.676C1842.54 264.467 1842.05 258.445 1844 251.609C1845.96 244.448 1851.33 238.426 1860.12 233.543ZM1960.21 473.289C1962.49 462.547 1964.12 453.107 1965.1 444.969C1966.4 436.505 1967.38 429.507 1968.03 423.973C1968.68 417.462 1969 411.928 1969 407.371C1968.68 401.837 1968.35 395.327 1968.03 387.84C1968.03 380.027 1967.7 372.378 1967.05 364.891C1966.73 357.078 1966.24 350.242 1965.59 344.383C1964.93 338.198 1964.12 333.803 1963.14 331.199C1961.84 328.595 1960.05 325.828 1957.77 322.898C1953.22 317.365 1946.54 311.993 1937.75 306.785C1945.24 305.158 1951.59 303.855 1956.8 302.879C1962.33 301.577 1966.89 300.438 1970.47 299.461C1974.38 298.159 1977.79 297.02 1980.72 296.043C1983.33 295.066 1986.42 294.09 1990 293.113C1992.93 292.462 1996.51 291.648 2000.74 290.672C2004.97 289.695 2009.86 288.556 2015.39 287.254L2013.93 331.688C2024.34 319.318 2034.92 310.04 2045.66 303.855C2056.41 297.671 2066.5 293.276 2075.94 290.672C2086.68 287.417 2097.26 285.789 2107.68 285.789C2120.7 286.44 2132.74 288.556 2143.81 292.137C2155.2 295.717 2164.97 299.949 2173.11 304.832C2181.57 309.389 2188.4 314.272 2193.61 319.48C2198.82 324.689 2201.91 329.246 2202.89 333.152C2206.8 345.848 2207.77 357.566 2205.82 368.309C2203.87 378.725 2201.26 388.979 2198.01 399.07C2195.08 408.836 2192.47 418.602 2190.2 428.367C2188.24 438.133 2189.06 448.712 2192.64 460.105C2193.94 463.035 2195.24 465.965 2196.54 468.895C2197.85 471.499 2199.47 474.103 2201.43 476.707C2203.38 479.311 2205.66 481.427 2208.26 483.055C2204.68 482.729 2201.1 482.566 2197.52 482.566C2193.94 482.241 2190.68 481.915 2187.75 481.59C2184.17 481.264 2180.92 480.939 2177.99 480.613C2174.73 480.288 2170.34 480.125 2164.8 480.125C2155.36 480.125 2140.72 480.613 2120.86 481.59C2123.79 474.754 2126.07 469.057 2127.7 464.5C2129.65 459.617 2131.28 455.711 2132.58 452.781C2133.88 449.201 2134.86 446.434 2135.51 444.48C2139.41 435.04 2141.69 424.298 2142.34 412.254C2143.32 400.21 2142.51 388.003 2139.9 375.633C2138.93 371.401 2137.3 366.355 2135.02 360.496C2132.74 354.637 2129.65 348.94 2125.74 343.406C2122.16 337.872 2117.77 333.152 2112.56 329.246C2107.68 325.34 2101.98 323.061 2095.47 322.41C2088.96 321.759 2081.63 323.387 2073.5 327.293C2065.68 331.199 2057.22 338.361 2048.11 348.777C2041.27 357.566 2035.9 368.309 2031.99 381.004C2028.41 391.746 2025.97 405.255 2024.67 421.531C2023.37 437.482 2025.32 456.199 2030.53 477.684C2025.97 477.033 2021.74 476.707 2017.83 476.707C2013.93 476.382 2010.67 476.056 2008.07 475.73C2004.81 475.405 2001.88 475.079 1999.28 474.754C1996.35 474.754 1993.09 474.591 1989.51 474.266C1986.26 474.266 1982.19 474.266 1977.3 474.266C1972.42 473.94 1966.73 473.615 1960.21 473.289Z" fill="#B784F2"/>
<g filter="url(#filter0_d_61_18)">
<rect x="431" y="868" width="1980" height="186" rx="93" fill="#DFD1EF"/>
<rect x="432.5" y="869.5" width="1977" height="183" rx="91.5" stroke="#B784F2" stroke-width="3"/>
</g>
<g filter="url(#filter1_d_61_18)">
<rect x="431" y="1273" width="1980" height="186" rx="93" fill="#DFD1EF"/>
<rect x="432.5" y="1274.5" width="1977" height="183" rx="91.5" stroke="#B784F2" stroke-width="3"/>
</g>
<path d="M433.93 723.799C436.762 724.287 439.252 724.629 441.4 724.824C443.646 725.02 445.502 725.166 446.967 725.264C448.725 725.361 450.238 725.41 451.508 725.41C452.777 725.41 454.584 725.312 456.928 725.117C458.881 724.922 461.42 724.678 464.545 724.385C467.768 724.092 471.723 723.604 476.41 722.92C475.043 723.311 473.773 724.434 472.602 726.289C471.527 728.047 470.551 729.951 469.672 732.002C468.598 734.443 467.67 737.129 466.889 740.059C466.205 742.695 465.326 746.309 464.252 750.898C463.275 755.488 462.299 760.469 461.322 765.84C460.443 771.211 459.76 776.68 459.271 782.246C458.783 787.715 458.686 792.744 458.979 797.334C459.369 801.924 460.297 805.732 461.762 808.76C463.227 811.689 465.473 813.252 468.5 813.447C473.09 813.838 476.898 813.887 479.926 813.594C483.051 813.203 485.59 812.666 487.543 811.982C489.496 811.299 491.01 810.518 492.084 809.639C493.158 808.662 493.988 807.734 494.574 806.855C496.137 804.609 497.748 801.729 499.408 798.213C501.068 794.697 502.533 791.328 503.803 788.105C505.17 784.883 506.293 782.148 507.172 779.902C508.051 777.656 508.49 776.582 508.49 776.68C508.49 776.875 508.441 777.998 508.344 780.049C508.344 782.002 508.295 784.395 508.197 787.227C508.197 789.961 508.148 792.842 508.051 795.869C508.051 798.896 508.002 801.484 507.904 803.633C507.807 805.391 507.709 807.344 507.611 809.492C507.514 811.348 507.416 813.545 507.318 816.084C507.318 818.623 507.221 821.406 507.025 824.434C502.924 824.141 499.018 823.945 495.307 823.848C491.596 823.75 488.324 823.701 485.492 823.701C482.172 823.701 479.096 823.75 476.264 823.848C473.236 823.945 469.721 824.092 465.717 824.287C462.299 824.482 458.051 824.727 452.973 825.02C447.895 825.215 442.035 825.508 435.395 825.898C436.176 824.531 436.811 823.262 437.299 822.09C437.885 820.918 438.324 819.941 438.617 819.16C439.008 818.184 439.252 817.354 439.35 816.67C439.936 813.545 440.424 809.59 440.814 804.805C441.205 799.922 441.498 794.746 441.693 789.277C441.986 783.809 442.133 778.242 442.133 772.578C442.23 766.816 442.23 761.494 442.133 756.611C442.035 751.729 441.84 747.48 441.547 743.867C441.352 740.254 441.059 737.764 440.668 736.396C440.18 734.834 439.594 733.271 438.91 731.709C438.324 730.342 437.592 728.975 436.713 727.607C435.932 726.143 435.004 724.873 433.93 723.799ZM555.951 764.375C558.49 764.375 561.127 764.863 563.861 765.84C566.596 766.719 569.232 767.891 571.771 769.355C574.311 770.723 576.605 772.236 578.656 773.896C580.805 775.459 582.562 776.973 583.93 778.438C586.371 781.074 588.031 784.639 588.91 789.131C589.887 793.525 590.082 798.066 589.496 802.754C588.91 807.344 587.543 811.689 585.395 815.791C583.246 819.893 580.268 822.92 576.459 824.873C573.725 826.24 571.039 827.314 568.402 828.096C565.766 828.877 563.227 829.463 560.785 829.854C558.344 830.244 556.049 830.439 553.9 830.439C551.752 830.439 549.896 830.391 548.334 830.293C545.404 830.098 542.328 829.072 539.105 827.217C535.98 825.361 533.002 823.066 530.17 820.332C527.436 817.598 525.092 814.619 523.139 811.396C521.186 808.076 520.014 804.951 519.623 802.021C519.037 798.018 518.939 793.818 519.33 789.424C519.721 785.029 521.137 780.977 523.578 777.266C526.117 773.555 529.926 770.479 535.004 768.037C540.18 765.596 547.162 764.375 555.951 764.375ZM551.117 821.211C552.191 821.406 553.656 821.162 555.512 820.479C557.367 819.697 559.174 818.477 560.932 816.816C562.787 815.156 564.398 813.057 565.766 810.518C567.23 807.881 568.109 804.707 568.402 800.996C568.695 797.383 568.695 794.062 568.402 791.035C568.207 788.008 567.768 785.371 567.084 783.125C566.4 780.781 565.619 778.877 564.74 777.412C563.861 775.947 562.934 774.922 561.957 774.336C560.297 773.457 558.295 772.773 555.951 772.285C553.607 771.699 551.605 771.797 549.945 772.578C549.164 772.969 548.188 773.799 547.016 775.068C545.844 776.338 544.672 777.949 543.5 779.902C542.328 781.758 541.254 783.906 540.277 786.348C539.398 788.789 538.764 791.328 538.373 793.965C537.982 796.602 537.885 799.434 538.08 802.461C538.373 805.488 539.008 808.369 539.984 811.104C540.961 813.74 542.328 816.035 544.086 817.988C545.941 819.844 548.285 820.918 551.117 821.211ZM665.668 767.891C665.375 765.938 665.131 764.326 664.936 763.057C664.74 761.689 664.545 760.615 664.35 759.834C664.154 758.857 664.008 758.125 663.91 757.637C663.715 757.148 663.471 756.611 663.178 756.025C662.982 755.537 662.641 754.951 662.152 754.268C661.762 753.584 661.273 752.803 660.688 751.924C661.957 752.314 663.227 752.559 664.496 752.656C665.863 752.754 667.133 752.852 668.305 752.949C669.574 753.047 670.893 753.047 672.26 752.949C673.627 752.949 675.189 752.9 676.947 752.803C678.51 752.705 680.365 752.656 682.514 752.656C684.76 752.559 687.299 752.412 690.131 752.217C688.471 752.607 687.055 753.291 685.883 754.268C684.809 755.146 683.881 756.123 683.1 757.197C682.221 758.369 681.488 759.639 680.902 761.006C680.414 762.275 680.121 764.717 680.023 768.33C679.926 771.846 679.926 776.045 680.023 780.928C680.121 785.713 680.219 790.889 680.316 796.455C680.512 802.021 680.609 807.344 680.609 812.422C680.707 817.5 680.707 822.139 680.609 826.338C680.512 830.439 680.268 833.467 679.877 835.42C678.51 841.572 675.971 846.553 672.26 850.361C668.549 854.268 663.666 856.367 657.611 856.66C650.287 856.953 644.477 856.27 640.18 854.609C635.98 852.949 632.709 850.898 630.365 848.457C628.021 846.113 626.264 843.721 625.092 841.279C623.92 838.838 622.699 836.982 621.43 835.713C620.258 834.639 619.086 833.613 617.914 832.637C616.84 831.855 615.717 831.074 614.545 830.293C613.471 829.512 612.396 829.023 611.322 828.828C614.154 828.926 616.693 828.975 618.939 828.975C621.186 828.975 623.09 828.975 624.652 828.975C626.41 828.975 627.973 828.926 629.34 828.828H634.027H647.357C645.404 829.414 643.939 830.049 642.963 830.732C641.986 831.514 641.303 832.295 640.912 833.076C640.521 833.955 640.326 834.834 640.326 835.713C640.717 838.057 641.986 839.766 644.135 840.84C646.283 841.914 649.213 842.549 652.924 842.744C656.537 842.939 659.027 842.842 660.395 842.451C661.762 842.158 662.836 841.572 663.617 840.693C665.18 838.35 666.498 835.322 667.572 831.611C668.354 828.486 668.891 824.434 669.184 819.453C669.574 814.375 669.135 808.174 667.865 800.85C664.74 805.146 661.127 808.369 657.025 810.518C652.924 812.666 649.018 814.229 645.307 815.205C640.912 816.279 636.469 816.816 631.977 816.816C620.16 816.328 611.322 813.594 605.463 808.613C599.604 803.633 596.918 796.943 597.406 788.545C597.699 784.346 598.969 780.146 601.215 775.947C603.559 771.748 606.586 767.988 610.297 764.668C614.105 761.348 618.451 758.711 623.334 756.758C628.217 754.805 633.295 753.975 638.568 754.268C642.572 754.658 646.332 755.391 649.848 756.465C652.875 757.441 655.854 758.809 658.783 760.566C661.811 762.324 664.105 764.766 665.668 767.891ZM619.086 782.539C618.5 786.348 618.744 789.912 619.818 793.232C620.99 796.553 622.602 799.434 624.652 801.875C626.703 804.219 628.998 806.074 631.537 807.441C634.076 808.711 636.469 809.297 638.715 809.199C643.402 809.102 647.455 807.002 650.873 802.9C654.291 798.701 656.342 792.451 657.025 784.15C657.318 780.049 656.781 776.533 655.414 773.604C654.145 770.576 652.533 768.135 650.58 766.279C648.627 764.424 646.576 763.105 644.428 762.324C642.279 761.543 640.57 761.201 639.301 761.299C637.543 761.494 635.59 762.031 633.441 762.91C631.391 763.691 629.389 764.912 627.436 766.572C625.482 768.135 623.725 770.234 622.162 772.871C620.697 775.508 619.672 778.73 619.086 782.539ZM691.449 764.521L718.402 764.814C716.84 770.771 715.668 775.85 714.887 780.049C714.203 784.248 713.764 787.764 713.568 790.596C713.178 793.818 713.08 796.553 713.275 798.799C713.568 800.85 714.057 803.047 714.74 805.391C715.326 807.344 716.205 809.59 717.377 812.129C718.549 814.668 720.111 817.207 722.064 819.746C720.893 819.355 719.623 819.062 718.256 818.867C716.889 818.672 715.619 818.525 714.447 818.428C713.08 818.33 711.713 818.33 710.346 818.428C708.979 818.525 707.465 818.672 705.805 818.867C704.438 819.062 702.777 819.307 700.824 819.6C698.871 819.893 696.82 820.283 694.672 820.771C696.137 816.377 697.26 812.568 698.041 809.346C698.92 806.123 699.555 803.438 699.945 801.289C700.336 798.75 700.58 796.699 700.678 795.137C700.678 793.184 700.678 790.986 700.678 788.545C700.678 786.006 700.678 783.564 700.678 781.221C700.678 778.877 700.629 776.826 700.531 775.068C700.434 773.213 700.238 772.041 699.945 771.553L698.48 770.088C697.895 769.6 697.016 768.916 695.844 768.037C694.77 767.061 693.305 765.889 691.449 764.521ZM701.85 741.963C703.9 740.889 705.951 740.596 708.002 741.084C710.15 741.572 711.811 742.5 712.982 743.867C714.154 745.234 714.545 746.846 714.154 748.701C713.861 750.557 712.299 752.363 709.467 754.121C706.635 755.781 704.145 756.367 701.996 755.879C699.848 755.391 698.334 754.365 697.455 752.803C696.576 751.24 696.43 749.434 697.016 747.383C697.602 745.234 699.213 743.428 701.85 741.963ZM731.879 813.887C732.562 810.664 733.051 807.832 733.344 805.391C733.734 802.852 734.027 800.752 734.223 799.092C734.418 797.139 734.516 795.479 734.516 794.111C734.418 792.451 734.32 790.498 734.223 788.252C734.223 785.908 734.125 783.613 733.93 781.367C733.832 779.023 733.686 776.973 733.49 775.215C733.295 773.359 733.051 772.041 732.758 771.26C732.367 770.479 731.83 769.648 731.146 768.77C729.779 767.109 727.777 765.498 725.141 763.936C727.387 763.447 729.291 763.057 730.854 762.764C732.514 762.373 733.881 762.031 734.955 761.738C736.127 761.348 737.152 761.006 738.031 760.713C738.812 760.42 739.74 760.127 740.814 759.834C741.693 759.639 742.768 759.395 744.037 759.102C745.307 758.809 746.771 758.467 748.432 758.076L747.992 771.406C751.117 767.695 754.291 764.912 757.514 763.057C760.736 761.201 763.764 759.883 766.596 759.102C769.818 758.125 772.992 757.637 776.117 757.637C780.023 757.832 783.637 758.467 786.957 759.541C790.375 760.615 793.305 761.885 795.746 763.35C798.285 764.717 800.336 766.182 801.898 767.744C803.461 769.307 804.389 770.674 804.682 771.846C805.854 775.654 806.146 779.17 805.561 782.393C804.975 785.518 804.193 788.594 803.217 791.621C802.338 794.551 801.557 797.48 800.873 800.41C800.287 803.34 800.531 806.514 801.605 809.932C801.996 810.811 802.387 811.689 802.777 812.568C803.168 813.35 803.656 814.131 804.242 814.912C804.828 815.693 805.512 816.328 806.293 816.816C805.219 816.719 804.145 816.67 803.07 816.67C801.996 816.572 801.02 816.475 800.141 816.377C799.066 816.279 798.09 816.182 797.211 816.084C796.234 815.986 794.916 815.938 793.256 815.938C790.424 815.938 786.029 816.084 780.072 816.377C780.951 814.326 781.635 812.617 782.123 811.25C782.709 809.785 783.197 808.613 783.588 807.734C783.979 806.66 784.271 805.83 784.467 805.244C785.639 802.412 786.322 799.189 786.518 795.576C786.811 791.963 786.566 788.301 785.785 784.59C785.492 783.32 785.004 781.807 784.32 780.049C783.637 778.291 782.709 776.582 781.537 774.922C780.463 773.262 779.145 771.846 777.582 770.674C776.117 769.502 774.408 768.818 772.455 768.623C770.502 768.428 768.305 768.916 765.863 770.088C763.52 771.26 760.98 773.408 758.246 776.533C756.195 779.17 754.584 782.393 753.412 786.201C752.338 789.424 751.605 793.477 751.215 798.359C750.824 803.145 751.41 808.76 752.973 815.205C751.605 815.01 750.336 814.912 749.164 814.912C747.992 814.814 747.016 814.717 746.234 814.619C745.258 814.521 744.379 814.424 743.598 814.326C742.719 814.326 741.742 814.277 740.668 814.18C739.691 814.18 738.471 814.18 737.006 814.18C735.541 814.082 733.832 813.984 731.879 813.887Z" fill="#B784F2"/>
<path d="M417.727 1130.12C421.438 1131 424.758 1131.68 427.688 1132.17C430.715 1132.56 433.254 1132.85 435.305 1133.05C437.746 1133.34 439.895 1133.44 441.75 1133.34C444.094 1133.24 447.023 1132.9 450.539 1132.31C454.055 1131.73 457.766 1131.14 461.672 1130.56C465.578 1129.97 469.436 1129.48 473.244 1129.09C477.053 1128.7 480.373 1128.65 483.205 1128.95C486.037 1129.24 489.016 1129.92 492.141 1131C495.266 1131.97 498.195 1133.34 500.93 1135.1C503.664 1136.76 506.008 1138.81 507.961 1141.25C510.012 1143.69 511.281 1146.52 511.77 1149.75C512.258 1152.87 511.965 1156.24 510.891 1159.85C509.816 1163.37 508.107 1166.84 505.764 1170.25C503.42 1173.57 500.49 1176.65 496.975 1179.48C493.459 1182.31 489.553 1184.61 485.256 1186.37C481.838 1187.64 478.127 1188.61 474.123 1189.3C470.705 1189.88 466.701 1190.27 462.111 1190.47C457.619 1190.57 452.834 1190.08 447.756 1189C447.072 1191.84 446.682 1194.47 446.584 1196.91C446.584 1199.26 446.682 1201.36 446.877 1203.21C447.17 1205.36 447.561 1207.31 448.049 1209.07C448.635 1210.83 449.367 1212.88 450.246 1215.22C451.027 1217.18 451.906 1219.57 452.883 1222.4C453.957 1225.14 455.227 1228.21 456.691 1231.63C454.934 1231.63 453.225 1231.68 451.564 1231.78C449.904 1231.78 448.391 1231.83 447.023 1231.92C445.461 1232.02 443.996 1232.12 442.629 1232.22C441.066 1232.31 439.309 1232.51 437.355 1232.8C435.695 1233 433.596 1233.29 431.057 1233.68C428.615 1234.07 425.832 1234.56 422.707 1235.15C424.758 1232.22 426.369 1229.53 427.541 1227.09C428.811 1224.55 429.738 1222.35 430.324 1220.5C431.008 1218.35 431.447 1216.4 431.643 1214.64C431.74 1213.17 431.74 1210.59 431.643 1206.88C431.643 1203.16 431.594 1198.87 431.496 1193.98C431.398 1189.1 431.252 1183.97 431.057 1178.6C430.861 1173.23 430.617 1168.2 430.324 1163.52C430.031 1158.73 429.689 1154.63 429.299 1151.21C429.006 1147.79 428.713 1145.55 428.42 1144.47C428.029 1143.2 427.346 1141.84 426.369 1140.37C425.588 1139.1 424.465 1137.64 423 1135.98C421.633 1134.22 419.875 1132.27 417.727 1130.12ZM448.049 1158.97C447.951 1159.95 447.902 1160.98 447.902 1162.05C447.902 1164.1 448.049 1166.74 448.342 1169.96C449.025 1171.62 449.855 1172.99 450.832 1174.06C451.906 1175.14 453.029 1175.97 454.201 1176.55C455.471 1177.14 456.74 1177.53 458.01 1177.72C459.279 1177.92 460.549 1178.02 461.818 1178.02C464.748 1177.92 467.824 1177.24 471.047 1175.97C475.344 1174.11 478.371 1171.47 480.129 1168.06C481.887 1164.64 482.814 1161.12 482.912 1157.51C483.01 1153.9 482.375 1150.58 481.008 1147.55C479.738 1144.52 478.176 1142.47 476.32 1141.4C474.758 1140.71 472.756 1140.42 470.314 1140.52C468.166 1140.62 465.48 1141.15 462.258 1142.13C459.035 1143.11 455.08 1144.86 450.393 1147.4C449.904 1149.16 449.514 1150.72 449.221 1152.09C448.928 1153.46 448.684 1154.68 448.488 1155.75C448.293 1156.92 448.146 1158 448.049 1158.97ZM520.705 1175.67C521.193 1175.09 521.486 1174.01 521.584 1172.45C521.779 1170.79 522.17 1168.94 522.756 1166.88C523.439 1164.83 524.562 1162.69 526.125 1160.44C527.688 1158.19 530.227 1156.09 533.742 1154.14C537.16 1152.19 540.48 1151.02 543.703 1150.62C546.926 1150.23 550.002 1150.38 552.932 1151.06C555.861 1151.75 558.596 1152.82 561.135 1154.29C563.771 1155.75 566.164 1157.36 568.312 1159.12C569.777 1160.29 570.949 1162 571.828 1164.25C572.707 1166.4 573.391 1168.84 573.879 1171.57C574.367 1174.31 574.709 1177.19 574.904 1180.21C575.197 1183.14 575.393 1186.03 575.49 1188.86C575.588 1191.59 575.637 1194.13 575.637 1196.47C575.734 1198.72 575.93 1200.58 576.223 1202.04C576.613 1204.19 577.297 1206.04 578.273 1207.61C579.25 1209.07 580.324 1210.34 581.496 1211.42C582.668 1212.39 583.84 1213.17 585.012 1213.76C586.184 1214.35 587.209 1214.79 588.088 1215.08C588.674 1215.37 589.211 1215.57 589.699 1215.66C590.676 1216.05 591.359 1216.05 591.75 1215.66C591.164 1217.03 590.627 1218.2 590.139 1219.18C589.65 1220.16 589.26 1220.99 588.967 1221.67C588.576 1222.45 588.234 1223.09 587.941 1223.57C587.648 1224.16 587.307 1224.7 586.916 1225.19C586.623 1225.67 586.232 1226.21 585.744 1226.8C585.256 1227.38 584.768 1228.02 584.279 1228.7C583.01 1228.21 581.789 1227.63 580.617 1226.94C579.543 1226.26 578.566 1225.62 577.688 1225.04C576.613 1224.36 575.637 1223.67 574.758 1222.99C573.879 1222.3 573.049 1221.52 572.268 1220.64C571.584 1219.86 570.852 1219.03 570.07 1218.15C569.387 1217.28 568.801 1216.3 568.312 1215.22C567.727 1216.49 566.311 1218.3 564.064 1220.64C561.916 1222.99 559.084 1225.14 555.568 1227.09C552.053 1228.95 547.951 1230.26 543.264 1231.04C538.674 1231.83 533.596 1231.29 528.029 1229.43C525.588 1228.65 523.293 1227.53 521.145 1226.06C518.996 1224.5 517.141 1222.65 515.578 1220.5C514.113 1218.35 513.039 1215.91 512.355 1213.17C511.77 1210.34 511.818 1207.22 512.502 1203.8C513.186 1200.38 514.406 1197.5 516.164 1195.16C517.922 1192.81 520.021 1190.91 522.463 1189.44C524.904 1187.98 527.639 1186.86 530.666 1186.07C533.693 1185.29 536.818 1184.76 540.041 1184.46C542.58 1184.37 545.119 1184.51 547.658 1184.9C549.807 1185.29 552.053 1186.03 554.396 1187.1C556.74 1188.08 558.742 1189.59 560.402 1191.64C560.305 1186.46 560.109 1182.36 559.816 1179.34C559.621 1176.21 559.426 1173.82 559.23 1172.16C558.84 1170.21 558.498 1168.84 558.205 1168.06C557.717 1167.37 557.18 1166.59 556.594 1165.71C556.105 1164.83 555.471 1164.05 554.689 1163.37C553.908 1162.59 552.932 1161.95 551.76 1161.46C550.588 1160.98 549.221 1160.78 547.658 1160.88C545.998 1160.98 544.68 1161.42 543.703 1162.2C542.727 1162.98 541.945 1163.91 541.359 1164.98C540.871 1165.96 540.578 1167.03 540.48 1168.2C540.383 1169.38 540.432 1170.4 540.627 1171.28C540.822 1171.87 541.115 1172.5 541.506 1173.18C541.896 1173.77 542.434 1174.4 543.117 1175.09C543.801 1175.77 544.729 1176.36 545.9 1176.85C543.654 1177.14 541.652 1177.38 539.895 1177.58C538.137 1177.68 536.623 1177.82 535.354 1178.02C533.889 1178.21 532.619 1178.36 531.545 1178.46C530.471 1178.55 529.201 1178.75 527.736 1179.04C526.467 1179.24 524.904 1179.48 523.049 1179.78C521.193 1180.07 519.045 1180.46 516.604 1180.95C517.189 1180.26 517.727 1179.63 518.215 1179.04C518.703 1178.36 519.143 1177.77 519.533 1177.29C519.924 1176.7 520.314 1176.16 520.705 1175.67ZM542.678 1193.11C540.92 1193.2 539.162 1193.64 537.404 1194.42C535.646 1195.11 534.084 1196.13 532.717 1197.5C531.35 1198.77 530.178 1200.28 529.201 1202.04C528.322 1203.7 527.883 1205.56 527.883 1207.61C527.883 1209.66 528.371 1211.46 529.348 1213.03C530.422 1214.49 531.789 1215.71 533.449 1216.69C535.207 1217.67 537.062 1218.25 539.016 1218.45C541.066 1218.64 543.068 1218.45 545.021 1217.86C546.877 1217.18 548.635 1216.1 550.295 1214.64C551.955 1213.08 553.371 1211.42 554.543 1209.66C555.715 1207.8 556.545 1206 557.033 1204.24C557.521 1202.38 557.57 1200.87 557.18 1199.7C556.398 1197.16 554.641 1195.4 551.906 1194.42C549.172 1193.35 546.096 1192.91 542.678 1193.11ZM654.885 1151.36C654.006 1153.51 653.225 1155.46 652.541 1157.22C651.955 1158.97 651.418 1160.54 650.93 1161.9C650.441 1163.47 650.002 1164.83 649.611 1166.01C649.221 1167.37 648.781 1168.94 648.293 1170.69C647.805 1172.26 647.17 1174.21 646.389 1176.55C645.705 1178.8 644.875 1181.48 643.898 1184.61C643.117 1179.92 641.701 1176.21 639.65 1173.48C637.6 1170.64 635.5 1168.45 633.352 1166.88C630.812 1165.13 628.078 1163.86 625.148 1163.08C619.875 1162.2 616.066 1162.29 613.723 1163.37C611.379 1164.44 609.816 1165.81 609.035 1167.47C608.645 1168.15 608.205 1169.03 607.717 1170.11C607.326 1171.08 606.984 1172.11 606.691 1173.18C606.496 1174.26 606.447 1175.33 606.545 1176.41C606.643 1177.48 607.082 1178.36 607.863 1179.04C608.352 1179.53 609.621 1180.21 611.672 1181.09C613.723 1181.88 616.164 1182.8 618.996 1183.88C621.926 1184.85 625.002 1185.93 628.225 1187.1C631.545 1188.27 634.67 1189.44 637.6 1190.62C640.529 1191.79 643.068 1192.96 645.217 1194.13C647.365 1195.3 648.781 1196.38 649.465 1197.35C650.051 1198.33 650.686 1199.65 651.369 1201.31C652.15 1202.87 652.688 1204.63 652.98 1206.58C653.371 1208.44 653.469 1210.39 653.273 1212.44C653.176 1214.39 652.639 1216.35 651.662 1218.3C650.686 1220.25 649.123 1222.06 646.975 1223.72C644.924 1225.38 642.141 1226.75 638.625 1227.82C634.523 1229.09 630.568 1229.43 626.76 1228.85C622.951 1228.26 619.436 1227.38 616.213 1226.21C613.088 1225.04 610.354 1223.92 608.01 1222.84C605.666 1221.67 604.006 1221.18 603.029 1221.38C601.955 1221.57 600.734 1222.11 599.367 1222.99C598 1223.87 596.682 1224.79 595.412 1225.77C594.24 1226.65 593.215 1227.48 592.336 1228.26C591.457 1228.95 591.018 1229.19 591.018 1228.99C591.018 1228.8 591.164 1228.21 591.457 1227.24C591.848 1226.26 592.238 1225.09 592.629 1223.72C593.117 1222.26 593.557 1220.69 593.947 1219.03C594.436 1217.28 594.777 1215.62 594.973 1214.05C595.168 1212.78 595.412 1211.22 595.705 1209.37C595.9 1207.71 596.145 1205.7 596.438 1203.36C596.828 1200.92 597.268 1197.99 597.756 1194.57C598.244 1197.11 598.928 1199.31 599.807 1201.16C600.783 1203.02 601.711 1204.63 602.59 1206C603.664 1207.56 604.689 1208.88 605.666 1209.95C607.131 1211.32 608.84 1212.59 610.793 1213.76C612.844 1214.93 614.895 1215.96 616.945 1216.84C618.996 1217.62 620.949 1218.11 622.805 1218.3C624.66 1218.5 626.223 1218.3 627.492 1217.71C628.762 1217.13 629.836 1216.05 630.715 1214.49C631.691 1212.93 632.375 1211.22 632.766 1209.37C633.156 1207.51 633.303 1205.75 633.205 1204.09C633.107 1202.33 632.668 1200.92 631.887 1199.84C631.301 1199.16 629.934 1198.28 627.785 1197.21C625.734 1196.13 623.244 1194.96 620.314 1193.69C617.482 1192.42 614.455 1191.1 611.232 1189.74C608.107 1188.37 605.129 1187 602.297 1185.63C599.562 1184.17 597.268 1182.8 595.412 1181.53C593.654 1180.17 592.678 1178.95 592.482 1177.87C592.287 1176.31 592.141 1174.6 592.043 1172.74C591.945 1170.79 592.043 1168.89 592.336 1167.03C592.727 1165.08 593.41 1163.22 594.387 1161.46C595.461 1159.71 597.023 1158.24 599.074 1157.07C600.441 1156.29 602.248 1155.7 604.494 1155.31C606.74 1154.92 609.23 1154.73 611.965 1154.73C614.699 1154.63 617.531 1154.73 620.461 1155.02C623.391 1155.21 626.174 1155.51 628.811 1155.9C631.545 1156.19 633.986 1156.58 636.135 1157.07C638.381 1157.56 640.09 1158 641.262 1158.39C642.629 1158.88 644.094 1158.93 645.656 1158.54C647.023 1158.24 648.488 1157.61 650.051 1156.63C651.613 1155.65 653.225 1153.9 654.885 1151.36ZM724.758 1151.36C723.879 1153.51 723.098 1155.46 722.414 1157.22C721.828 1158.97 721.291 1160.54 720.803 1161.9C720.314 1163.47 719.875 1164.83 719.484 1166.01C719.094 1167.37 718.654 1168.94 718.166 1170.69C717.678 1172.26 717.043 1174.21 716.262 1176.55C715.578 1178.8 714.748 1181.48 713.771 1184.61C712.99 1179.92 711.574 1176.21 709.523 1173.48C707.473 1170.64 705.373 1168.45 703.225 1166.88C700.686 1165.13 697.951 1163.86 695.021 1163.08C689.748 1162.2 685.939 1162.29 683.596 1163.37C681.252 1164.44 679.689 1165.81 678.908 1167.47C678.518 1168.15 678.078 1169.03 677.59 1170.11C677.199 1171.08 676.857 1172.11 676.564 1173.18C676.369 1174.26 676.32 1175.33 676.418 1176.41C676.516 1177.48 676.955 1178.36 677.736 1179.04C678.225 1179.53 679.494 1180.21 681.545 1181.09C683.596 1181.88 686.037 1182.8 688.869 1183.88C691.799 1184.85 694.875 1185.93 698.098 1187.1C701.418 1188.27 704.543 1189.44 707.473 1190.62C710.402 1191.79 712.941 1192.96 715.09 1194.13C717.238 1195.3 718.654 1196.38 719.338 1197.35C719.924 1198.33 720.559 1199.65 721.242 1201.31C722.023 1202.87 722.561 1204.63 722.854 1206.58C723.244 1208.44 723.342 1210.39 723.146 1212.44C723.049 1214.39 722.512 1216.35 721.535 1218.3C720.559 1220.25 718.996 1222.06 716.848 1223.72C714.797 1225.38 712.014 1226.75 708.498 1227.82C704.396 1229.09 700.441 1229.43 696.633 1228.85C692.824 1228.26 689.309 1227.38 686.086 1226.21C682.961 1225.04 680.227 1223.92 677.883 1222.84C675.539 1221.67 673.879 1221.18 672.902 1221.38C671.828 1221.57 670.607 1222.11 669.24 1222.99C667.873 1223.87 666.555 1224.79 665.285 1225.77C664.113 1226.65 663.088 1227.48 662.209 1228.26C661.33 1228.95 660.891 1229.19 660.891 1228.99C660.891 1228.8 661.037 1228.21 661.33 1227.24C661.721 1226.26 662.111 1225.09 662.502 1223.72C662.99 1222.26 663.43 1220.69 663.82 1219.03C664.309 1217.28 664.65 1215.62 664.846 1214.05C665.041 1212.78 665.285 1211.22 665.578 1209.37C665.773 1207.71 666.018 1205.7 666.311 1203.36C666.701 1200.92 667.141 1197.99 667.629 1194.57C668.117 1197.11 668.801 1199.31 669.68 1201.16C670.656 1203.02 671.584 1204.63 672.463 1206C673.537 1207.56 674.562 1208.88 675.539 1209.95C677.004 1211.32 678.713 1212.59 680.666 1213.76C682.717 1214.93 684.768 1215.96 686.818 1216.84C688.869 1217.62 690.822 1218.11 692.678 1218.3C694.533 1218.5 696.096 1218.3 697.365 1217.71C698.635 1217.13 699.709 1216.05 700.588 1214.49C701.564 1212.93 702.248 1211.22 702.639 1209.37C703.029 1207.51 703.176 1205.75 703.078 1204.09C702.98 1202.33 702.541 1200.92 701.76 1199.84C701.174 1199.16 699.807 1198.28 697.658 1197.21C695.607 1196.13 693.117 1194.96 690.188 1193.69C687.355 1192.42 684.328 1191.1 681.105 1189.74C677.98 1188.37 675.002 1187 672.17 1185.63C669.436 1184.17 667.141 1182.8 665.285 1181.53C663.527 1180.17 662.551 1178.95 662.355 1177.87C662.16 1176.31 662.014 1174.6 661.916 1172.74C661.818 1170.79 661.916 1168.89 662.209 1167.03C662.6 1165.08 663.283 1163.22 664.26 1161.46C665.334 1159.71 666.896 1158.24 668.947 1157.07C670.314 1156.29 672.121 1155.7 674.367 1155.31C676.613 1154.92 679.104 1154.73 681.838 1154.73C684.572 1154.63 687.404 1154.73 690.334 1155.02C693.264 1155.21 696.047 1155.51 698.684 1155.9C701.418 1156.19 703.859 1156.58 706.008 1157.07C708.254 1157.56 709.963 1158 711.135 1158.39C712.502 1158.88 713.967 1158.93 715.529 1158.54C716.896 1158.24 718.361 1157.61 719.924 1156.63C721.486 1155.65 723.098 1153.9 724.758 1151.36ZM721.096 1167.47C724.025 1167.67 726.613 1167.81 728.859 1167.91C731.203 1168.01 733.156 1168.11 734.719 1168.2C736.477 1168.3 738.039 1168.35 739.406 1168.35C740.773 1168.35 742.336 1168.3 744.094 1168.2C745.656 1168.11 747.561 1167.96 749.807 1167.76C752.15 1167.47 754.836 1167.08 757.863 1166.59C755.52 1168.06 753.615 1169.42 752.15 1170.69C750.783 1171.87 749.709 1172.94 748.928 1173.92C748.049 1174.99 747.463 1175.97 747.17 1176.85C746.975 1177.63 746.779 1179.19 746.584 1181.53C746.486 1183.78 746.389 1186.42 746.291 1189.44C746.291 1192.37 746.34 1195.5 746.438 1198.82C746.535 1202.14 746.682 1205.17 746.877 1207.9C747.072 1210.54 747.365 1212.78 747.756 1214.64C748.146 1216.4 748.635 1217.23 749.221 1217.13C750.002 1216.45 751.271 1214.15 753.029 1210.24C753.713 1208.58 754.543 1206.48 755.52 1203.95C756.496 1201.31 757.619 1198.13 758.889 1194.42C760.158 1190.62 761.574 1186.17 763.137 1181.09C764.797 1176.02 766.652 1170.11 768.703 1163.37H781.447C781.838 1170.01 782.277 1175.82 782.766 1180.8C783.254 1185.78 783.742 1190.13 784.23 1193.84C784.719 1197.45 785.158 1200.53 785.549 1203.07C786.037 1205.51 786.525 1207.51 787.014 1209.07C788.088 1212.78 789.162 1214.79 790.236 1215.08C791.115 1214.88 792.043 1213.76 793.02 1211.71C794.094 1209.66 795.07 1207.12 795.949 1204.09C796.926 1201.06 797.805 1197.79 798.586 1194.28C799.367 1190.66 800.051 1187.29 800.637 1184.17C801.223 1181.04 801.613 1178.31 801.809 1175.97C802.004 1173.62 802.004 1172.16 801.809 1171.57C801.516 1170.99 800.93 1170.16 800.051 1169.08C799.27 1168.2 798.195 1167.13 796.828 1165.86C795.559 1164.59 793.801 1163.08 791.555 1161.32C794.289 1161.81 796.877 1162.15 799.318 1162.34C801.857 1162.44 804.104 1162.54 806.057 1162.64C808.303 1162.73 810.354 1162.73 812.209 1162.64C814.162 1162.64 816.555 1162.59 819.387 1162.49C821.828 1162.39 824.855 1162.34 828.469 1162.34C832.18 1162.34 836.525 1162.25 841.506 1162.05C837.111 1163.42 833.596 1164.74 830.959 1166.01C828.42 1167.18 826.467 1168.3 825.1 1169.38C823.439 1170.55 822.268 1171.67 821.584 1172.74C820.9 1174.21 819.826 1177.29 818.361 1181.97C817.775 1183.93 817.043 1186.37 816.164 1189.3C815.285 1192.13 814.26 1195.5 813.088 1199.4C811.916 1203.31 810.598 1207.85 809.133 1213.03C807.668 1218.11 806.008 1223.92 804.152 1230.46C803.078 1230.26 801.955 1230.17 800.783 1230.17C799.709 1230.07 798.684 1230.02 797.707 1230.02H794.338C793.166 1230.12 791.896 1230.21 790.529 1230.31C789.357 1230.41 787.99 1230.56 786.428 1230.75C784.865 1230.95 783.156 1231.19 781.301 1231.48L772.512 1195.89L758.156 1231.48L741.75 1231.04C739.699 1220.01 738.039 1211.22 736.77 1204.68C735.598 1198.04 734.621 1192.96 733.84 1189.44C732.961 1185.34 732.375 1182.46 732.082 1180.8C731.594 1179.04 730.861 1177.33 729.885 1175.67C729.104 1174.31 727.98 1172.89 726.516 1171.43C725.051 1169.86 723.244 1168.54 721.096 1167.47ZM864.211 1169.38C866.75 1169.38 869.387 1169.86 872.121 1170.84C874.855 1171.72 877.492 1172.89 880.031 1174.36C882.57 1175.72 884.865 1177.24 886.916 1178.9C889.064 1180.46 890.822 1181.97 892.189 1183.44C894.631 1186.07 896.291 1189.64 897.17 1194.13C898.146 1198.53 898.342 1203.07 897.756 1207.75C897.17 1212.34 895.803 1216.69 893.654 1220.79C891.506 1224.89 888.527 1227.92 884.719 1229.87C881.984 1231.24 879.299 1232.31 876.662 1233.1C874.025 1233.88 871.486 1234.46 869.045 1234.85C866.604 1235.24 864.309 1235.44 862.16 1235.44C860.012 1235.44 858.156 1235.39 856.594 1235.29C853.664 1235.1 850.588 1234.07 847.365 1232.22C844.24 1230.36 841.262 1228.07 838.43 1225.33C835.695 1222.6 833.352 1219.62 831.398 1216.4C829.445 1213.08 828.273 1209.95 827.883 1207.02C827.297 1203.02 827.199 1198.82 827.59 1194.42C827.98 1190.03 829.396 1185.98 831.838 1182.27C834.377 1178.55 838.186 1175.48 843.264 1173.04C848.439 1170.6 855.422 1169.38 864.211 1169.38ZM859.377 1226.21C860.451 1226.41 861.916 1226.16 863.771 1225.48C865.627 1224.7 867.434 1223.48 869.191 1221.82C871.047 1220.16 872.658 1218.06 874.025 1215.52C875.49 1212.88 876.369 1209.71 876.662 1206C876.955 1202.38 876.955 1199.06 876.662 1196.04C876.467 1193.01 876.027 1190.37 875.344 1188.12C874.66 1185.78 873.879 1183.88 873 1182.41C872.121 1180.95 871.193 1179.92 870.217 1179.34C868.557 1178.46 866.555 1177.77 864.211 1177.29C861.867 1176.7 859.865 1176.8 858.205 1177.58C857.424 1177.97 856.447 1178.8 855.275 1180.07C854.104 1181.34 852.932 1182.95 851.76 1184.9C850.588 1186.76 849.514 1188.91 848.537 1191.35C847.658 1193.79 847.023 1196.33 846.633 1198.96C846.242 1201.6 846.145 1204.43 846.34 1207.46C846.633 1210.49 847.268 1213.37 848.244 1216.1C849.221 1218.74 850.588 1221.04 852.346 1222.99C854.201 1224.84 856.545 1225.92 859.377 1226.21ZM903.322 1164.83C905.178 1164.93 906.838 1164.98 908.303 1164.98C909.865 1164.88 911.184 1164.79 912.258 1164.69C913.527 1164.59 914.65 1164.49 915.627 1164.39C917.092 1164.2 918.605 1163.96 920.168 1163.66C921.535 1163.47 922.951 1163.22 924.416 1162.93C925.979 1162.54 927.492 1162.1 928.957 1161.61C928.371 1163.08 927.883 1164.35 927.492 1165.42C927.102 1166.49 926.809 1167.42 926.613 1168.2C926.32 1169.08 926.174 1169.81 926.174 1170.4C926.076 1171.08 926.027 1171.91 926.027 1172.89C925.93 1174.55 925.93 1177.24 926.027 1180.95C931.105 1176.55 935.354 1173.13 938.771 1170.69C942.287 1168.25 945.07 1166.35 947.121 1164.98C949.562 1163.42 951.467 1162.39 952.834 1161.9C956.447 1161.32 959.621 1162.15 962.355 1164.39C963.527 1165.37 964.65 1166.69 965.725 1168.35C966.799 1169.91 967.727 1172.01 968.508 1174.65C969.289 1177.29 969.875 1180.46 970.266 1184.17C970.656 1187.78 970.705 1192.13 970.412 1197.21C968.361 1197.4 966.506 1197.6 964.846 1197.79C963.283 1197.99 961.965 1198.13 960.891 1198.23C959.621 1198.43 958.449 1198.53 957.375 1198.53L953.42 1198.96C952.053 1199.16 950.344 1199.36 948.293 1199.55C946.34 1199.65 943.947 1199.84 941.115 1200.14C945.217 1196.82 947.854 1193.94 949.025 1191.49C950.295 1188.96 950.832 1186.86 950.637 1185.2C950.441 1183.34 949.562 1181.73 948 1180.36C946.145 1179.29 944.143 1178.9 941.994 1179.19C940.139 1179.38 937.99 1180.21 935.549 1181.68C933.107 1183.14 930.52 1185.88 927.785 1189.88C927.98 1196.13 928.176 1201.31 928.371 1205.41C928.664 1209.51 928.908 1212.83 929.104 1215.37C929.396 1218.3 929.641 1220.6 929.836 1222.26C930.129 1223.72 930.715 1225.28 931.594 1226.94C932.277 1228.31 933.254 1229.82 934.523 1231.48C935.793 1233.14 937.453 1234.8 939.504 1236.46C935.207 1236.27 931.691 1236.27 928.957 1236.46C927.297 1236.56 925.832 1236.66 924.562 1236.76C923.195 1236.95 921.73 1237.15 920.168 1237.34C918.801 1237.54 917.189 1237.73 915.334 1237.93C913.576 1238.22 911.623 1238.52 909.475 1238.81C910.256 1237.73 910.891 1236.46 911.379 1235C911.867 1233.63 912.258 1232.31 912.551 1231.04C912.941 1229.58 913.234 1228.07 913.43 1226.5C913.527 1225.14 913.576 1223.09 913.576 1220.35C913.674 1217.62 913.625 1214.54 913.43 1211.12C913.332 1207.61 913.186 1203.99 912.99 1200.28C912.795 1196.47 912.551 1192.91 912.258 1189.59C911.965 1186.27 911.623 1183.39 911.232 1180.95C910.939 1178.41 910.598 1176.65 910.207 1175.67C909.719 1174.5 909.133 1173.33 908.449 1172.16C907.863 1171.08 907.131 1169.96 906.252 1168.79C905.373 1167.52 904.396 1166.2 903.322 1164.83ZM1048.49 1122.79C1050.34 1122.89 1052.35 1122.94 1054.49 1122.94C1056.35 1122.94 1058.45 1122.99 1060.79 1123.09C1063.23 1123.09 1065.77 1122.99 1068.41 1122.79C1066.07 1123.87 1064.02 1125.43 1062.26 1127.48C1060.5 1129.53 1059.08 1131.58 1058.01 1133.63C1056.64 1136.07 1055.52 1138.61 1054.64 1141.25C1054.15 1142.81 1053.76 1145.6 1053.47 1149.6C1053.18 1153.51 1052.93 1158.1 1052.74 1163.37C1052.64 1168.64 1052.59 1174.21 1052.59 1180.07C1052.59 1185.93 1052.64 1191.54 1052.74 1196.91C1052.83 1202.19 1052.98 1206.88 1053.18 1210.98C1053.37 1215.08 1053.62 1217.96 1053.91 1219.62C1054.3 1221.57 1054.79 1223.43 1055.37 1225.19C1055.86 1226.75 1056.5 1228.36 1057.28 1230.02C1058.06 1231.58 1059.04 1232.85 1060.21 1233.83L1045.27 1240.57C1044.48 1239.49 1043.85 1238.37 1043.36 1237.2C1042.87 1236.12 1042.48 1235.15 1042.19 1234.27C1041.8 1233.19 1041.55 1232.22 1041.46 1231.34C1041.26 1230.17 1041.07 1228.9 1040.87 1227.53C1040.68 1226.06 1040.43 1224.7 1040.14 1223.43C1039.94 1222.06 1039.8 1220.94 1039.7 1220.06C1039.6 1219.18 1039.6 1218.64 1039.7 1218.45C1039.8 1218.25 1039.21 1219.13 1037.94 1221.08C1036.67 1222.94 1034.77 1225.14 1032.23 1227.68C1029.79 1230.12 1026.76 1232.51 1023.15 1234.85C1019.53 1237.1 1015.48 1238.52 1010.99 1239.1C1006.4 1239.69 1002.15 1238.81 998.244 1236.46C994.436 1234.12 991.164 1230.85 988.43 1226.65C985.695 1222.35 983.596 1217.42 982.131 1211.86C980.764 1206.19 980.227 1200.43 980.52 1194.57C980.715 1190.66 981.594 1187.2 983.156 1184.17C984.719 1181.04 986.672 1178.36 989.016 1176.11C991.457 1173.77 994.094 1171.82 996.926 1170.25C999.855 1168.59 1002.69 1167.23 1005.42 1166.15C1008.25 1165.08 1010.89 1164.3 1013.33 1163.81C1015.77 1163.32 1017.73 1162.98 1019.19 1162.78C1020.95 1162.69 1022.95 1162.98 1025.2 1163.66C1027.15 1164.25 1029.4 1165.22 1031.94 1166.59C1034.57 1167.96 1037.5 1170.01 1040.72 1172.74C1040.14 1162.98 1039.6 1155.17 1039.11 1149.31C1038.62 1143.35 1038.14 1138.81 1037.65 1135.68C1037.16 1131.97 1036.72 1129.43 1036.33 1128.07C1035.84 1127.09 1035.21 1126.11 1034.43 1125.14C1033.74 1124.36 1032.86 1123.57 1031.79 1122.79C1030.81 1121.91 1029.64 1121.23 1028.27 1120.74C1030.81 1121.23 1033.25 1121.57 1035.6 1121.77C1037.94 1121.96 1040.09 1122.16 1042.04 1122.35C1044.29 1122.55 1046.44 1122.7 1048.49 1122.79ZM1011.72 1177.43C1009.87 1178.12 1008.35 1179.29 1007.18 1180.95C1006.11 1182.61 1005.23 1184.61 1004.54 1186.95C1003.86 1189.2 1003.37 1191.64 1003.08 1194.28C1002.88 1196.82 1002.74 1199.31 1002.64 1201.75C1002.64 1204.09 1002.64 1206.24 1002.64 1208.19C1002.64 1210.15 1002.64 1211.61 1002.64 1212.59C1002.64 1213.17 1002.74 1214.25 1002.93 1215.81C1003.22 1217.28 1003.81 1218.84 1004.69 1220.5C1005.57 1222.06 1006.79 1223.48 1008.35 1224.75C1010.01 1226.02 1012.21 1226.65 1014.94 1226.65C1017.19 1226.46 1019.58 1225.67 1022.12 1224.31C1024.37 1223.13 1026.91 1221.28 1029.74 1218.74C1032.67 1216.1 1035.79 1212.34 1039.11 1207.46C1038.92 1204.34 1038.77 1201.75 1038.67 1199.7C1038.67 1197.65 1038.62 1195.99 1038.53 1194.72C1038.43 1193.25 1038.38 1192.08 1038.38 1191.2V1189C1038.38 1188.42 1038.38 1187.78 1038.38 1187.1C1038.38 1186.42 1038.43 1185.78 1038.53 1185.2C1035.79 1183.24 1033.35 1181.58 1031.2 1180.21C1029.15 1178.75 1027.1 1177.68 1025.05 1176.99C1023.1 1176.21 1021.05 1175.87 1018.9 1175.97C1016.85 1175.97 1014.46 1176.46 1011.72 1177.43Z" fill="#B784F2"/>
<path d="M1338.55 1534.31C1340.66 1534.31 1342.86 1534.72 1345.14 1535.53C1347.42 1536.27 1349.61 1537.24 1351.73 1538.46C1353.85 1539.6 1355.76 1540.86 1357.47 1542.25C1359.26 1543.55 1360.72 1544.81 1361.86 1546.03C1363.9 1548.23 1365.28 1551.2 1366.01 1554.94C1366.83 1558.6 1366.99 1562.39 1366.5 1566.29C1366.01 1570.12 1364.87 1573.74 1363.08 1577.16C1361.29 1580.58 1358.81 1583.1 1355.64 1584.73C1353.36 1585.87 1351.12 1586.76 1348.92 1587.41C1346.72 1588.06 1344.61 1588.55 1342.57 1588.88C1340.54 1589.2 1338.63 1589.37 1336.84 1589.37C1335.05 1589.37 1333.5 1589.33 1332.2 1589.24C1329.76 1589.08 1327.19 1588.23 1324.51 1586.68C1321.9 1585.13 1319.42 1583.22 1317.06 1580.94C1314.78 1578.66 1312.83 1576.18 1311.2 1573.5C1309.57 1570.73 1308.6 1568.13 1308.27 1565.68C1307.78 1562.35 1307.7 1558.85 1308.03 1555.19C1308.35 1551.52 1309.53 1548.15 1311.57 1545.05C1313.68 1541.96 1316.86 1539.4 1321.09 1537.36C1325.4 1535.33 1331.22 1534.31 1338.55 1534.31ZM1334.52 1581.68C1335.41 1581.84 1336.63 1581.64 1338.18 1581.07C1339.73 1580.41 1341.23 1579.4 1342.7 1578.01C1344.24 1576.63 1345.59 1574.88 1346.72 1572.76C1347.95 1570.57 1348.68 1567.92 1348.92 1564.83C1349.17 1561.82 1349.17 1559.05 1348.92 1556.53C1348.76 1554.01 1348.39 1551.81 1347.82 1549.94C1347.25 1547.98 1346.6 1546.4 1345.87 1545.18C1345.14 1543.96 1344.36 1543.1 1343.55 1542.61C1342.17 1541.88 1340.5 1541.31 1338.55 1540.9C1336.59 1540.42 1334.92 1540.5 1333.54 1541.15C1332.89 1541.47 1332.08 1542.17 1331.1 1543.22C1330.12 1544.28 1329.15 1545.62 1328.17 1547.25C1327.19 1548.8 1326.3 1550.59 1325.48 1552.62C1324.75 1554.66 1324.22 1556.77 1323.9 1558.97C1323.57 1561.17 1323.49 1563.53 1323.65 1566.05C1323.9 1568.57 1324.43 1570.97 1325.24 1573.25C1326.05 1575.45 1327.19 1577.36 1328.66 1578.99C1330.2 1580.54 1332.16 1581.43 1334.52 1581.68ZM1371.14 1530.53C1372.68 1530.61 1374.07 1530.65 1375.29 1530.65C1376.59 1530.57 1377.69 1530.49 1378.58 1530.41C1379.64 1530.32 1380.58 1530.24 1381.39 1530.16C1382.61 1530 1383.87 1529.8 1385.18 1529.55C1386.32 1529.39 1387.5 1529.19 1388.72 1528.94C1390.02 1528.62 1391.28 1528.25 1392.5 1527.84C1392.01 1529.06 1391.61 1530.12 1391.28 1531.02C1390.95 1531.91 1390.71 1532.68 1390.55 1533.34C1390.3 1534.07 1390.18 1534.68 1390.18 1535.17C1390.1 1535.74 1390.06 1536.43 1390.06 1537.24C1389.98 1538.63 1389.98 1540.86 1390.06 1543.96C1394.29 1540.29 1397.83 1537.45 1400.68 1535.41C1403.61 1533.38 1405.93 1531.79 1407.64 1530.65C1409.67 1529.35 1411.26 1528.49 1412.4 1528.09C1415.41 1527.6 1418.05 1528.29 1420.33 1530.16C1421.31 1530.98 1422.25 1532.07 1423.14 1533.46C1424.04 1534.76 1424.81 1536.51 1425.46 1538.71C1426.11 1540.9 1426.6 1543.55 1426.92 1546.64C1427.25 1549.65 1427.29 1553.27 1427.05 1557.51C1425.34 1557.67 1423.79 1557.83 1422.41 1557.99C1421.11 1558.16 1420.01 1558.28 1419.11 1558.36C1418.05 1558.52 1417.08 1558.6 1416.18 1558.6L1412.89 1558.97C1411.75 1559.13 1410.32 1559.3 1408.61 1559.46C1406.99 1559.54 1404.99 1559.7 1402.63 1559.95C1406.05 1557.18 1408.25 1554.78 1409.22 1552.75C1410.28 1550.63 1410.73 1548.88 1410.57 1547.5C1410.4 1545.95 1409.67 1544.61 1408.37 1543.47C1406.82 1542.57 1405.16 1542.25 1403.37 1542.49C1401.82 1542.65 1400.03 1543.35 1397.99 1544.57C1395.96 1545.79 1393.8 1548.07 1391.52 1551.4C1391.69 1556.61 1391.85 1560.92 1392.01 1564.34C1392.26 1567.76 1392.46 1570.53 1392.62 1572.64C1392.87 1575.08 1393.07 1577 1393.23 1578.38C1393.48 1579.6 1393.97 1580.9 1394.7 1582.29C1395.27 1583.43 1396.08 1584.69 1397.14 1586.07C1398.2 1587.45 1399.58 1588.84 1401.29 1590.22C1397.71 1590.06 1394.78 1590.06 1392.5 1590.22C1391.12 1590.3 1389.9 1590.38 1388.84 1590.46C1387.7 1590.63 1386.48 1590.79 1385.18 1590.95C1384.04 1591.12 1382.69 1591.28 1381.15 1591.44C1379.68 1591.69 1378.06 1591.93 1376.27 1592.17C1376.92 1591.28 1377.45 1590.22 1377.85 1589C1378.26 1587.86 1378.58 1586.76 1378.83 1585.7C1379.15 1584.48 1379.4 1583.22 1379.56 1581.92C1379.64 1580.78 1379.68 1579.07 1379.68 1576.79C1379.76 1574.51 1379.72 1571.95 1379.56 1569.1C1379.48 1566.17 1379.36 1563.16 1379.2 1560.07C1379.03 1556.9 1378.83 1553.93 1378.58 1551.16C1378.34 1548.39 1378.06 1545.99 1377.73 1543.96C1377.49 1541.84 1377.2 1540.38 1376.88 1539.56C1376.47 1538.58 1375.98 1537.61 1375.41 1536.63C1374.92 1535.74 1374.31 1534.8 1373.58 1533.82C1372.85 1532.77 1372.03 1531.67 1371.14 1530.53Z" fill="#EE9C47"/>
<defs>
<filter id="filter0_d_61_18" x="427" y="868" width="1988" height="194" filterUnits="userSpaceOnUse" color-interpolation-filters="sRGB">
<feFlood flood-opacity="0" result="BackgroundImageFix"/>
<feColorMatrix in="SourceAlpha" type="matrix" values="0 0 0 0 0 0 0 0 0 0 0 0 0 0 0 0 0 0 127 0" result="hardAlpha"/>
<feOffset dy="4"/>
<feGaussianBlur stdDeviation="2"/>
<feComposite in2="hardAlpha" operator="out"/>
<feColorMatrix type="matrix" values="0 0 0 0 0 0 0 0 0 0 0 0 0 0 0 0 0 0 0.25 0"/>
<feBlend mode="normal" in2="BackgroundImageFix" result="effect1_dropShadow_61_18"/>
<feBlend mode="normal" in="SourceGraphic" in2="effect1_dropShadow_61_18" result="shape"/>
</filter>
<filter id="filter1_d_61_18" x="427" y="1273" width="1988" height="194" filterUnits="userSpaceOnUse" color-interpolation-filters="sRGB">
<feFlood flood-opacity="0" result="BackgroundImageFix"/>
<feColorMatrix in="SourceAlpha" type="matrix" values="0 0 0 0 0 0 0 0 0 0 0 0 0 0 0 0 0 0 127 0" result="hardAlpha"/>
<feOffset dy="4"/>
<feGaussianBlur stdDeviation="2"/>
<feComposite in2="hardAlpha" operator="out"/>
<feColorMatrix type="matrix" values="0 0 0 0 0 0 0 0 0 0 0 0 0 0 0 0 0 0 0.25 0"/>
<feBlend mode="normal" in2="BackgroundImageFix" result="effect1_dropShadow_61_18"/>
<feBlend mode="normal" in="SourceGraphic" in2="effect1_dropShadow_61_18" result="shape"/>
</filter>
</defs>
</svg>
