<svg width="479" height="688" viewBox="0 0 479 688" fill="none" xmlns="http://www.w3.org/2000/svg">
<path d="M134 5C321.791 5 474 156.789 474 344C474 531.211 321.791 683 134 683C-53.7905 683 -206 531.211 -206 344C-206 156.789 -53.7905 5 134 5Z" fill="#B784F2" stroke="#B784F2" stroke-width="10"/>
<path d="M243.374 166.995C243.211 172.692 243.089 177.412 243.008 181.155C243.008 184.98 243.008 188.073 243.008 190.433V196.902V233.279C241.38 233.442 239.793 233.564 238.247 233.646C236.782 233.808 235.48 233.89 234.341 233.89C232.957 233.89 231.696 233.849 230.557 233.768C229.417 233.686 228.197 233.564 226.895 233.401C225.755 233.239 224.535 233.076 223.232 232.913C221.93 232.75 220.588 232.465 219.204 232.059C223.599 230.919 226.935 229.373 229.214 227.42C231.493 225.548 233.161 223.636 234.219 221.683C235.439 219.404 236.09 217.003 236.172 214.48C236.009 211.144 235.724 208.54 235.317 206.668C234.91 204.796 234.341 203.331 233.608 202.273C232.876 201.215 232.021 200.402 231.045 199.832C230.15 199.344 229.132 198.815 227.993 198.245C227.017 197.757 225.511 197.309 223.477 196.902C221.768 196.495 219.448 196.089 216.519 195.682C213.589 195.356 209.805 194.99 205.166 194.583C205.817 196.78 206.427 198.53 206.997 199.832C207.567 201.215 208.055 202.314 208.462 203.128C208.95 204.023 209.398 204.674 209.805 205.081C210.293 205.407 211.188 205.895 212.49 206.546C213.63 207.034 215.176 207.685 217.129 208.499C219.082 209.394 221.768 210.452 225.186 211.673C221.442 211.836 218.309 211.917 215.786 211.917C213.345 211.917 211.351 211.958 209.805 212.039C208.014 212.039 206.59 212.08 205.532 212.161H200.894C199.185 212.161 196.865 212.161 193.936 212.161C191.087 212.243 187.466 212.365 183.071 212.527C186.082 211.551 188.442 210.656 190.151 209.842C191.942 209.109 193.285 208.458 194.18 207.889C195.238 207.238 195.97 206.668 196.377 206.18C196.54 205.61 196.702 204.837 196.865 203.86C196.947 202.965 196.987 201.826 196.987 200.442C196.987 199.14 196.784 197.472 196.377 195.438C191.901 195.193 188.28 195.153 185.513 195.315C182.827 195.56 180.752 195.885 179.287 196.292C177.578 196.699 176.357 197.187 175.625 197.757C174.893 198.489 174.282 199.954 173.794 202.151C173.387 204.349 173.224 206.831 173.306 209.598C173.468 212.446 173.957 215.335 174.771 218.265C175.584 221.194 176.927 223.799 178.799 226.077C180.345 227.786 182.298 229.617 184.658 231.57C186.693 233.198 189.256 234.988 192.349 236.941C195.441 238.976 199.185 240.97 203.579 242.923C199.917 242.597 196.865 242.353 194.424 242.19C192.064 242.109 190.151 241.987 188.687 241.824C186.978 241.661 185.675 241.539 184.78 241.458C183.804 241.458 182.42 241.336 180.63 241.092C179.084 240.929 176.968 240.644 174.282 240.237C171.678 239.912 168.341 239.464 164.272 238.895C164.191 235.07 164.11 231.448 164.028 228.03C164.028 224.612 163.988 221.601 163.906 218.997C163.825 215.905 163.743 213.056 163.662 210.452C163.662 207.767 163.54 204.796 163.296 201.541C163.133 198.693 162.889 195.315 162.563 191.409C162.238 187.584 161.79 183.353 161.221 178.714C166.755 179.121 171.963 179.406 176.846 179.568C181.81 179.812 186.164 179.975 189.907 180.057C194.302 180.138 198.371 180.138 202.114 180.057C211.473 180.464 219.041 180.301 224.819 179.568C230.597 178.836 234.3 177.981 235.928 177.005C236.497 176.517 237.189 175.825 238.003 174.93C238.654 174.197 239.427 173.18 240.322 171.878C241.217 170.576 242.235 168.948 243.374 166.995ZM246.548 241.092C245.897 244.754 245.449 247.765 245.205 250.125C244.961 252.485 244.757 254.397 244.595 255.862C244.432 257.571 244.391 258.914 244.473 259.891V263.553C244.473 264.855 244.473 266.482 244.473 268.436C244.554 270.47 244.595 272.993 244.595 276.004C240.607 277.713 236.945 279.259 233.608 280.643C230.272 282.107 227.424 283.328 225.063 284.305C222.215 285.444 219.652 286.502 217.373 287.479C214.525 288.618 211.392 289.839 207.974 291.141C204.556 292.443 201.341 293.623 198.33 294.681C195.319 295.82 192.837 296.756 190.884 297.488C188.931 298.221 188.035 298.587 188.198 298.587C188.28 298.587 189.093 298.628 190.64 298.709C192.267 298.79 194.261 298.872 196.621 298.953C199.062 299.035 201.707 299.116 204.556 299.197C207.485 299.36 210.293 299.441 212.979 299.441C215.745 299.523 218.268 299.563 220.547 299.563C222.826 299.563 224.535 299.482 225.674 299.319C227.057 299.075 228.644 298.587 230.435 297.854C231.981 297.203 233.812 296.308 235.928 295.169C238.125 294.03 240.607 292.443 243.374 290.408C243.293 293.745 243.252 296.471 243.252 298.587C243.252 300.703 243.252 302.412 243.252 303.714C243.252 305.179 243.293 306.318 243.374 307.132C243.374 308.19 243.455 309.492 243.618 311.038C243.781 312.422 243.903 314.131 243.984 316.165C244.147 318.281 244.351 320.885 244.595 323.978C242.967 322.187 241.421 320.763 239.956 319.705C238.491 318.647 237.189 317.793 236.05 317.142C234.748 316.409 233.527 315.921 232.388 315.677C230.923 315.351 228.522 315.066 225.186 314.822C221.93 314.66 218.268 314.456 214.199 314.212C210.13 314.049 205.898 313.886 201.504 313.724C197.109 313.561 193.081 313.398 189.419 313.235C186.652 313.235 183.682 313.154 180.508 312.991C177.822 312.828 174.771 312.666 171.353 312.503C168.016 312.34 164.639 312.137 161.221 311.893L160.977 301.028C166.592 297.854 171.393 295.169 175.381 292.972C179.45 290.856 182.786 289.106 185.391 287.723C188.402 286.176 190.924 284.874 192.959 283.816C194.912 282.921 197.15 281.741 199.673 280.276C201.789 279.056 204.393 277.509 207.485 275.638C210.578 273.847 214.118 271.691 218.105 269.168C212.49 268.924 207.689 268.802 203.701 268.802C199.795 268.883 196.54 269.005 193.936 269.168C190.924 269.412 188.402 269.697 186.367 270.022C184.414 270.429 182.217 270.999 179.775 271.731C177.66 272.382 175.177 273.156 172.329 274.051C169.481 275.027 166.266 276.207 162.686 277.591C162.93 272.789 163.052 269.209 163.052 266.849V263.187C163.052 262.047 162.93 260.501 162.686 258.548C162.523 256.92 162.279 254.682 161.953 251.834C161.628 249.067 161.18 245.608 160.61 241.458C162.97 243.411 165.127 244.957 167.08 246.097C169.115 247.317 170.824 248.253 172.207 248.904C173.835 249.718 175.259 250.288 176.479 250.613C177.782 250.857 180.02 251.02 183.193 251.102C186.449 251.183 190.111 251.183 194.18 251.102C198.33 251.102 202.684 251.02 207.241 250.857C211.799 250.776 216.03 250.654 219.937 250.491C223.843 250.328 227.179 250.125 229.946 249.881C232.713 249.718 234.422 249.596 235.073 249.515C236.131 249.271 237.271 248.782 238.491 248.05C239.549 247.399 240.729 246.544 242.031 245.486C243.415 244.428 244.92 242.964 246.548 241.092ZM249.111 319.705C248.46 325.158 247.972 329.878 247.646 333.865C247.402 337.853 247.199 341.149 247.036 343.753C246.873 346.764 246.833 349.287 246.914 351.321C246.995 353.437 247.199 356.326 247.524 359.988C247.769 363.081 248.094 367.15 248.501 372.195C248.989 377.241 249.64 383.548 250.454 391.116C248.582 391.198 246.751 391.238 244.961 391.238C243.252 391.32 241.746 391.401 240.444 391.482C238.898 391.564 237.474 391.604 236.172 391.604C234.788 391.604 233.039 391.523 230.923 391.36C229.132 391.198 226.854 390.913 224.087 390.506C221.401 390.18 218.187 389.651 214.443 388.919C218.838 387.78 222.378 386.681 225.063 385.623C227.83 384.565 230.028 383.589 231.655 382.693C233.527 381.717 234.951 380.74 235.928 379.764C236.66 378.706 237.271 377.444 237.759 375.979C238.166 374.677 238.491 373.009 238.735 370.975C238.979 369.021 238.939 366.702 238.613 364.017C227.871 363.61 219.163 363.325 212.49 363.162C205.817 362.999 200.609 362.877 196.865 362.796C192.389 362.715 189.175 362.674 187.222 362.674C184.455 362.755 181.729 363.203 179.043 364.017C176.764 364.668 174.404 365.726 171.963 367.19C169.521 368.655 167.365 370.771 165.493 373.538V358.646C165.493 357.262 165.412 355.553 165.249 353.519C165.086 351.81 164.924 349.612 164.761 346.927C164.598 344.323 164.313 341.271 163.906 337.771C166.022 338.992 167.935 339.969 169.644 340.701C171.353 341.434 172.817 342.003 174.038 342.41C175.503 342.898 176.805 343.265 177.944 343.509C179.572 343.59 182.868 343.794 187.832 344.119C189.867 344.201 192.389 344.282 195.4 344.363C198.411 344.526 201.992 344.689 206.143 344.852C210.293 345.096 215.054 345.299 220.425 345.462C225.877 345.706 232.021 345.95 238.857 346.194C239.264 344.729 239.224 343.346 238.735 342.044C238.328 340.742 237.799 339.603 237.148 338.626C236.335 337.487 235.358 336.388 234.219 335.33C232.835 334.272 231.045 333.092 228.848 331.79C226.976 330.651 224.494 329.349 221.401 327.884C218.39 326.419 214.647 324.751 210.171 322.879C214.891 322.472 218.757 322.187 221.768 322.024C224.86 321.862 227.261 321.74 228.97 321.658C231.004 321.577 232.51 321.536 233.486 321.536C234.382 321.536 235.562 321.455 237.026 321.292C238.247 321.129 239.834 320.926 241.787 320.682C243.822 320.438 246.263 320.112 249.111 319.705ZM243.374 382.938C243.211 388.634 243.089 393.354 243.008 397.098C243.008 400.923 243.008 404.015 243.008 406.375V412.845V449.222C241.38 449.384 239.793 449.507 238.247 449.588C236.782 449.751 235.48 449.832 234.341 449.832C232.957 449.832 231.696 449.791 230.557 449.71C229.417 449.629 228.197 449.507 226.895 449.344C225.755 449.181 224.535 449.018 223.232 448.855C221.93 448.693 220.588 448.408 219.204 448.001C223.599 446.862 226.935 445.315 229.214 443.362C231.493 441.491 233.161 439.578 234.219 437.625C235.439 435.346 236.09 432.946 236.172 430.423C236.009 427.086 235.724 424.482 235.317 422.61C234.91 420.739 234.341 419.274 233.608 418.216C232.876 417.158 232.021 416.344 231.045 415.774C230.15 415.286 229.132 414.757 227.993 414.188C227.017 413.699 225.511 413.252 223.477 412.845C221.768 412.438 219.448 412.031 216.519 411.624C213.589 411.299 209.805 410.932 205.166 410.525C205.817 412.723 206.427 414.472 206.997 415.774C207.567 417.158 208.055 418.257 208.462 419.07C208.95 419.965 209.398 420.617 209.805 421.023C210.293 421.349 211.188 421.837 212.49 422.488C213.63 422.977 215.176 423.628 217.129 424.441C219.082 425.337 221.768 426.395 225.186 427.615C221.442 427.778 218.309 427.859 215.786 427.859C213.345 427.859 211.351 427.9 209.805 427.981C208.014 427.981 206.59 428.022 205.532 428.104H200.894C199.185 428.104 196.865 428.104 193.936 428.104C191.087 428.185 187.466 428.307 183.071 428.47C186.082 427.493 188.442 426.598 190.151 425.784C191.942 425.052 193.285 424.401 194.18 423.831C195.238 423.18 195.97 422.61 196.377 422.122C196.54 421.552 196.702 420.779 196.865 419.803C196.947 418.908 196.987 417.768 196.987 416.385C196.987 415.083 196.784 413.414 196.377 411.38C191.901 411.136 188.28 411.095 185.513 411.258C182.827 411.502 180.752 411.827 179.287 412.234C177.578 412.641 176.357 413.13 175.625 413.699C174.893 414.432 174.282 415.896 173.794 418.094C173.387 420.291 173.224 422.773 173.306 425.54C173.468 428.388 173.957 431.277 174.771 434.207C175.584 437.137 176.927 439.741 178.799 442.02C180.345 443.729 182.298 445.56 184.658 447.513C186.693 449.14 189.256 450.931 192.349 452.884C195.441 454.918 199.185 456.912 203.579 458.865C199.917 458.54 196.865 458.296 194.424 458.133C192.064 458.051 190.151 457.929 188.687 457.767C186.978 457.604 185.675 457.482 184.78 457.4C183.804 457.4 182.42 457.278 180.63 457.034C179.084 456.871 176.968 456.587 174.282 456.18C171.678 455.854 168.341 455.407 164.272 454.837C164.191 451.012 164.11 447.391 164.028 443.973C164.028 440.555 163.988 437.544 163.906 434.939C163.825 431.847 163.743 428.999 163.662 426.395C163.662 423.709 163.54 420.739 163.296 417.483C163.133 414.635 162.889 411.258 162.563 407.352C162.238 403.527 161.79 399.295 161.221 394.656C166.755 395.063 171.963 395.348 176.846 395.511C181.81 395.755 186.164 395.918 189.907 395.999C194.302 396.08 198.371 396.08 202.114 395.999C211.473 396.406 219.041 396.243 224.819 395.511C230.597 394.778 234.3 393.924 235.928 392.947C236.497 392.459 237.189 391.767 238.003 390.872C238.654 390.14 239.427 389.122 240.322 387.82C241.217 386.518 242.235 384.891 243.374 382.938ZM249.111 458.255C248.704 460.859 248.338 463.219 248.013 465.335C247.769 467.451 247.565 469.282 247.402 470.828C247.158 472.618 246.955 474.205 246.792 475.589C246.548 477.298 246.833 479.861 247.646 483.279C248.542 486.697 249.355 490.441 250.088 494.51C250.902 498.66 251.349 502.892 251.431 507.205C251.593 511.518 250.82 515.465 249.111 519.046C247.402 522.627 245.693 525.556 243.984 527.835C242.275 530.114 240.444 531.904 238.491 533.206C236.619 534.59 234.626 535.566 232.51 536.136C230.394 536.705 228.075 537.031 225.552 537.112C221.808 537.031 218.187 536.136 214.688 534.427C213.223 533.694 211.676 532.718 210.049 531.497C208.503 530.358 206.997 528.934 205.532 527.225C204.067 525.516 202.684 523.481 201.382 521.121C200.08 518.842 198.94 516.157 197.964 513.064C197.069 516.076 196.011 518.558 194.79 520.511C193.569 522.545 192.43 524.173 191.372 525.394C190.07 526.858 188.809 527.957 187.588 528.689C185.879 529.585 184.414 530.195 183.193 530.521C181.973 530.846 180.793 531.049 179.653 531.131C178.595 531.294 177.497 531.497 176.357 531.741C175.218 531.985 173.916 532.514 172.451 533.328C171.312 533.979 170.132 534.752 168.911 535.647C167.853 536.461 166.714 537.397 165.493 538.455C164.272 539.594 163.092 540.978 161.953 542.605C161.872 540.327 161.831 538.211 161.831 536.258C161.831 534.386 161.831 532.758 161.831 531.375C161.831 529.747 161.872 528.201 161.953 526.736C162.035 525.271 162.075 523.44 162.075 521.243C162.075 519.371 162.075 516.971 162.075 514.041C162.075 511.193 162.035 507.734 161.953 503.665C163.337 505.455 164.72 506.92 166.104 508.06C167.487 509.199 168.748 510.094 169.888 510.745C171.19 511.478 172.451 512.007 173.672 512.332C175.869 512.739 178.148 512.78 180.508 512.454C182.542 512.21 184.78 511.559 187.222 510.501C189.744 509.443 192.267 507.734 194.79 505.374C194.383 503.014 194.058 501.02 193.813 499.393C193.651 497.846 193.488 496.504 193.325 495.364C193.162 494.062 193.04 493.004 192.959 492.19C192.878 491.458 192.796 490.644 192.715 489.749C192.633 489.017 192.511 488.203 192.349 487.308C192.267 486.494 192.145 485.721 191.982 484.988C188.483 484.826 185.431 484.826 182.827 484.988C180.304 485.151 178.188 485.354 176.479 485.599C174.445 485.924 172.695 486.29 171.23 486.697C169.766 487.104 168.341 487.674 166.958 488.406C165.819 488.976 164.598 489.708 163.296 490.604C162.075 491.499 161.058 492.516 160.244 493.655C160.244 491.539 160.244 489.505 160.244 487.552C160.244 485.68 160.285 483.971 160.366 482.425C160.366 480.634 160.407 478.925 160.488 477.298C160.57 475.67 160.61 473.839 160.61 471.805C160.61 470.096 160.61 468.061 160.61 465.701C160.61 463.423 160.57 460.94 160.488 458.255C162.686 460.371 164.557 462.039 166.104 463.26C167.65 464.48 168.952 465.416 170.01 466.067C171.149 466.8 172.126 467.247 172.939 467.41C174.242 467.573 176.561 467.695 179.897 467.776C183.315 467.939 187.222 468.061 191.616 468.143C196.011 468.224 200.609 468.265 205.41 468.265C210.212 468.265 214.688 468.224 218.838 468.143C223.07 468.061 226.691 467.98 229.702 467.898C232.713 467.817 234.626 467.736 235.439 467.654C236.904 467.41 238.369 466.881 239.834 466.067C241.136 465.416 242.601 464.48 244.229 463.26C245.856 462.039 247.484 460.371 249.111 458.255ZM206.143 504.397C206.631 505.211 207.119 505.903 207.607 506.473C208.096 507.042 208.869 507.531 209.927 507.938C211.066 508.344 212.653 508.67 214.688 508.914C216.722 509.24 219.489 509.606 222.988 510.013C226.488 510.338 229.377 510.094 231.655 509.28C233.934 508.548 235.724 507.531 237.026 506.229C238.41 505.008 239.346 503.624 239.834 502.078C240.404 500.613 240.688 499.311 240.688 498.172C240.688 495.893 239.997 493.655 238.613 491.458C237.23 489.261 235.358 487.592 232.998 486.453C231.94 486.046 230.19 485.68 227.749 485.354C225.633 485.11 222.703 484.948 218.96 484.866C215.216 484.785 210.293 484.907 204.189 485.232C203.701 488.325 203.498 491.051 203.579 493.411C203.742 495.771 204.027 497.765 204.434 499.393C204.84 501.346 205.41 503.014 206.143 504.397Z" fill="#FFF7AC"/>
</svg>
