<svg width="356" height="562" viewBox="0 0 356 562" fill="none" xmlns="http://www.w3.org/2000/svg">
<path d="M270 5C416.169 5 535 128.379 535 281C535 433.621 416.169 557 270 557C123.831 557 5 433.621 5 281C5 128.379 123.831 5 270 5Z" fill="#B784F2" stroke="#B784F2" stroke-width="10"/>
<path d="M259.374 101.995C259.211 107.692 259.089 112.412 259.008 116.155C259.008 119.98 259.008 123.073 259.008 125.433V131.902V168.279C257.38 168.442 255.793 168.564 254.247 168.646C252.782 168.808 251.48 168.89 250.341 168.89C248.957 168.89 247.696 168.849 246.557 168.768C245.417 168.686 244.197 168.564 242.895 168.401C241.755 168.239 240.535 168.076 239.232 167.913C237.93 167.75 236.588 167.465 235.204 167.059C239.599 165.919 242.935 164.373 245.214 162.42C247.493 160.548 249.161 158.636 250.219 156.683C251.439 154.404 252.09 152.003 252.172 149.48C252.009 146.144 251.724 143.54 251.317 141.668C250.91 139.796 250.341 138.331 249.608 137.273C248.876 136.215 248.021 135.402 247.045 134.832C246.15 134.344 245.132 133.815 243.993 133.245C243.017 132.757 241.511 132.309 239.477 131.902C237.768 131.495 235.448 131.089 232.519 130.682C229.589 130.356 225.805 129.99 221.166 129.583C221.817 131.78 222.427 133.53 222.997 134.832C223.567 136.215 224.055 137.314 224.462 138.128C224.95 139.023 225.398 139.674 225.805 140.081C226.293 140.407 227.188 140.895 228.49 141.546C229.63 142.034 231.176 142.685 233.129 143.499C235.082 144.394 237.768 145.452 241.186 146.673C237.442 146.836 234.309 146.917 231.786 146.917C229.345 146.917 227.351 146.958 225.805 147.039C224.014 147.039 222.59 147.08 221.532 147.161H216.894C215.185 147.161 212.865 147.161 209.936 147.161C207.087 147.243 203.466 147.365 199.071 147.527C202.082 146.551 204.442 145.656 206.151 144.842C207.942 144.109 209.285 143.458 210.18 142.889C211.238 142.238 211.97 141.668 212.377 141.18C212.54 140.61 212.702 139.837 212.865 138.86C212.947 137.965 212.987 136.826 212.987 135.442C212.987 134.14 212.784 132.472 212.377 130.438C207.901 130.193 204.28 130.153 201.513 130.315C198.827 130.56 196.752 130.885 195.287 131.292C193.578 131.699 192.357 132.187 191.625 132.757C190.893 133.489 190.282 134.954 189.794 137.151C189.387 139.349 189.224 141.831 189.306 144.598C189.468 147.446 189.957 150.335 190.771 153.265C191.584 156.194 192.927 158.799 194.799 161.077C196.345 162.786 198.298 164.617 200.658 166.57C202.693 168.198 205.256 169.988 208.349 171.941C211.441 173.976 215.185 175.97 219.579 177.923C215.917 177.597 212.865 177.353 210.424 177.19C208.064 177.109 206.151 176.987 204.687 176.824C202.978 176.661 201.675 176.539 200.78 176.458C199.804 176.458 198.42 176.336 196.63 176.092C195.084 175.929 192.968 175.644 190.282 175.237C187.678 174.912 184.341 174.464 180.272 173.895C180.191 170.07 180.11 166.448 180.028 163.03C180.028 159.612 179.988 156.601 179.906 153.997C179.825 150.905 179.743 148.056 179.662 145.452C179.662 142.767 179.54 139.796 179.296 136.541C179.133 133.693 178.889 130.315 178.563 126.409C178.238 122.584 177.79 118.353 177.221 113.714C182.755 114.121 187.963 114.406 192.846 114.568C197.81 114.812 202.164 114.975 205.907 115.057C210.302 115.138 214.371 115.138 218.114 115.057C227.473 115.464 235.041 115.301 240.819 114.568C246.597 113.836 250.3 112.981 251.928 112.005C252.497 111.517 253.189 110.825 254.003 109.93C254.654 109.197 255.427 108.18 256.322 106.878C257.217 105.576 258.235 103.948 259.374 101.995ZM262.548 176.092C261.897 179.754 261.449 182.765 261.205 185.125C260.961 187.485 260.757 189.397 260.595 190.862C260.432 192.571 260.391 193.914 260.473 194.891V198.553C260.473 199.855 260.473 201.482 260.473 203.436C260.554 205.47 260.595 207.993 260.595 211.004C256.607 212.713 252.945 214.259 249.608 215.643C246.272 217.107 243.424 218.328 241.063 219.305C238.215 220.444 235.652 221.502 233.373 222.479C230.525 223.618 227.392 224.839 223.974 226.141C220.556 227.443 217.341 228.623 214.33 229.681C211.319 230.82 208.837 231.756 206.884 232.488C204.931 233.221 204.035 233.587 204.198 233.587C204.28 233.587 205.093 233.628 206.64 233.709C208.267 233.79 210.261 233.872 212.621 233.953C215.062 234.035 217.707 234.116 220.556 234.197C223.485 234.36 226.293 234.441 228.979 234.441C231.745 234.523 234.268 234.563 236.547 234.563C238.826 234.563 240.535 234.482 241.674 234.319C243.057 234.075 244.644 233.587 246.435 232.854C247.981 232.203 249.812 231.308 251.928 230.169C254.125 229.03 256.607 227.443 259.374 225.408C259.293 228.745 259.252 231.471 259.252 233.587C259.252 235.703 259.252 237.412 259.252 238.714C259.252 240.179 259.293 241.318 259.374 242.132C259.374 243.19 259.455 244.492 259.618 246.038C259.781 247.422 259.903 249.131 259.984 251.165C260.147 253.281 260.351 255.885 260.595 258.978C258.967 257.187 257.421 255.763 255.956 254.705C254.491 253.647 253.189 252.793 252.05 252.142C250.748 251.409 249.527 250.921 248.388 250.677C246.923 250.351 244.522 250.066 241.186 249.822C237.93 249.66 234.268 249.456 230.199 249.212C226.13 249.049 221.898 248.886 217.504 248.724C213.109 248.561 209.081 248.398 205.419 248.235C202.652 248.235 199.682 248.154 196.508 247.991C193.822 247.828 190.771 247.666 187.353 247.503C184.016 247.34 180.639 247.137 177.221 246.893L176.977 236.028C182.592 232.854 187.393 230.169 191.381 227.972C195.45 225.856 198.786 224.106 201.391 222.723C204.402 221.176 206.924 219.874 208.959 218.816C210.912 217.921 213.15 216.741 215.673 215.276C217.789 214.056 220.393 212.509 223.485 210.638C226.578 208.847 230.118 206.691 234.105 204.168C228.49 203.924 223.689 203.802 219.701 203.802C215.795 203.883 212.54 204.005 209.936 204.168C206.924 204.412 204.402 204.697 202.367 205.022C200.414 205.429 198.217 205.999 195.775 206.731C193.66 207.382 191.177 208.156 188.329 209.051C185.481 210.027 182.266 211.207 178.686 212.591C178.93 207.789 179.052 204.209 179.052 201.849V198.187C179.052 197.047 178.93 195.501 178.686 193.548C178.523 191.92 178.279 189.682 177.953 186.834C177.628 184.067 177.18 180.608 176.61 176.458C178.97 178.411 181.127 179.957 183.08 181.097C185.115 182.317 186.824 183.253 188.207 183.904C189.835 184.718 191.259 185.288 192.479 185.613C193.782 185.857 196.02 186.02 199.193 186.102C202.449 186.183 206.111 186.183 210.18 186.102C214.33 186.102 218.684 186.02 223.241 185.857C227.799 185.776 232.03 185.654 235.937 185.491C239.843 185.328 243.179 185.125 245.946 184.881C248.713 184.718 250.422 184.596 251.073 184.515C252.131 184.271 253.271 183.782 254.491 183.05C255.549 182.399 256.729 181.544 258.031 180.486C259.415 179.428 260.92 177.964 262.548 176.092ZM265.111 254.705C264.46 260.158 263.972 264.878 263.646 268.865C263.402 272.853 263.199 276.149 263.036 278.753C262.873 281.764 262.833 284.287 262.914 286.321C262.995 288.437 263.199 291.326 263.524 294.988C263.769 298.081 264.094 302.15 264.501 307.195C264.989 312.241 265.64 318.548 266.454 326.116C264.582 326.198 262.751 326.238 260.961 326.238C259.252 326.32 257.746 326.401 256.444 326.482C254.898 326.564 253.474 326.604 252.172 326.604C250.788 326.604 249.039 326.523 246.923 326.36C245.132 326.198 242.854 325.913 240.087 325.506C237.401 325.18 234.187 324.651 230.443 323.919C234.838 322.78 238.378 321.681 241.063 320.623C243.83 319.565 246.028 318.589 247.655 317.693C249.527 316.717 250.951 315.74 251.928 314.764C252.66 313.706 253.271 312.444 253.759 310.979C254.166 309.677 254.491 308.009 254.735 305.975C254.979 304.021 254.939 301.702 254.613 299.017C243.871 298.61 235.163 298.325 228.49 298.162C221.817 297.999 216.609 297.877 212.865 297.796C208.389 297.715 205.175 297.674 203.222 297.674C200.455 297.755 197.729 298.203 195.043 299.017C192.764 299.668 190.404 300.726 187.963 302.19C185.521 303.655 183.365 305.771 181.493 308.538V293.646C181.493 292.262 181.412 290.553 181.249 288.519C181.086 286.81 180.924 284.612 180.761 281.927C180.598 279.323 180.313 276.271 179.906 272.771C182.022 273.992 183.935 274.969 185.644 275.701C187.353 276.434 188.817 277.003 190.038 277.41C191.503 277.898 192.805 278.265 193.944 278.509C195.572 278.59 198.868 278.794 203.832 279.119C205.867 279.201 208.389 279.282 211.4 279.363C214.411 279.526 217.992 279.689 222.143 279.852C226.293 280.096 231.054 280.299 236.425 280.462C241.877 280.706 248.021 280.95 254.857 281.194C255.264 279.729 255.224 278.346 254.735 277.044C254.328 275.742 253.799 274.603 253.148 273.626C252.335 272.487 251.358 271.388 250.219 270.33C248.835 269.272 247.045 268.092 244.848 266.79C242.976 265.651 240.494 264.349 237.401 262.884C234.39 261.419 230.647 259.751 226.171 257.879C230.891 257.472 234.757 257.187 237.768 257.024C240.86 256.862 243.261 256.74 244.97 256.658C247.004 256.577 248.51 256.536 249.486 256.536C250.382 256.536 251.562 256.455 253.026 256.292C254.247 256.129 255.834 255.926 257.787 255.682C259.822 255.438 262.263 255.112 265.111 254.705ZM259.374 317.938C259.211 323.634 259.089 328.354 259.008 332.098C259.008 335.923 259.008 339.015 259.008 341.375V347.845V384.222C257.38 384.384 255.793 384.507 254.247 384.588C252.782 384.751 251.48 384.832 250.341 384.832C248.957 384.832 247.696 384.791 246.557 384.71C245.417 384.629 244.197 384.507 242.895 384.344C241.755 384.181 240.535 384.018 239.232 383.855C237.93 383.693 236.588 383.408 235.204 383.001C239.599 381.862 242.935 380.315 245.214 378.362C247.493 376.491 249.161 374.578 250.219 372.625C251.439 370.346 252.09 367.946 252.172 365.423C252.009 362.086 251.724 359.482 251.317 357.61C250.91 355.739 250.341 354.274 249.608 353.216C248.876 352.158 248.021 351.344 247.045 350.774C246.15 350.286 245.132 349.757 243.993 349.188C243.017 348.699 241.511 348.252 239.477 347.845C237.768 347.438 235.448 347.031 232.519 346.624C229.589 346.299 225.805 345.932 221.166 345.525C221.817 347.723 222.427 349.472 222.997 350.774C223.567 352.158 224.055 353.257 224.462 354.07C224.95 354.965 225.398 355.617 225.805 356.023C226.293 356.349 227.188 356.837 228.49 357.488C229.63 357.977 231.176 358.628 233.129 359.441C235.082 360.337 237.768 361.395 241.186 362.615C237.442 362.778 234.309 362.859 231.786 362.859C229.345 362.859 227.351 362.9 225.805 362.981C224.014 362.981 222.59 363.022 221.532 363.104H216.894C215.185 363.104 212.865 363.104 209.936 363.104C207.087 363.185 203.466 363.307 199.071 363.47C202.082 362.493 204.442 361.598 206.151 360.784C207.942 360.052 209.285 359.401 210.18 358.831C211.238 358.18 211.97 357.61 212.377 357.122C212.54 356.552 212.702 355.779 212.865 354.803C212.947 353.908 212.987 352.768 212.987 351.385C212.987 350.083 212.784 348.414 212.377 346.38C207.901 346.136 204.28 346.095 201.513 346.258C198.827 346.502 196.752 346.827 195.287 347.234C193.578 347.641 192.357 348.13 191.625 348.699C190.893 349.432 190.282 350.896 189.794 353.094C189.387 355.291 189.224 357.773 189.306 360.54C189.468 363.388 189.957 366.277 190.771 369.207C191.584 372.137 192.927 374.741 194.799 377.02C196.345 378.729 198.298 380.56 200.658 382.513C202.693 384.14 205.256 385.931 208.349 387.884C211.441 389.918 215.185 391.912 219.579 393.865C215.917 393.54 212.865 393.296 210.424 393.133C208.064 393.051 206.151 392.929 204.687 392.767C202.978 392.604 201.675 392.482 200.78 392.4C199.804 392.4 198.42 392.278 196.63 392.034C195.084 391.871 192.968 391.587 190.282 391.18C187.678 390.854 184.341 390.407 180.272 389.837C180.191 386.012 180.11 382.391 180.028 378.973C180.028 375.555 179.988 372.544 179.906 369.939C179.825 366.847 179.743 363.999 179.662 361.395C179.662 358.709 179.54 355.739 179.296 352.483C179.133 349.635 178.889 346.258 178.563 342.352C178.238 338.527 177.79 334.295 177.221 329.656C182.755 330.063 187.963 330.348 192.846 330.511C197.81 330.755 202.164 330.918 205.907 330.999C210.302 331.08 214.371 331.08 218.114 330.999C227.473 331.406 235.041 331.243 240.819 330.511C246.597 329.778 250.3 328.924 251.928 327.947C252.497 327.459 253.189 326.767 254.003 325.872C254.654 325.14 255.427 324.122 256.322 322.82C257.217 321.518 258.235 319.891 259.374 317.938ZM265.111 393.255C264.704 395.859 264.338 398.219 264.013 400.335C263.769 402.451 263.565 404.282 263.402 405.828C263.158 407.618 262.955 409.205 262.792 410.589C262.548 412.298 262.833 414.861 263.646 418.279C264.542 421.697 265.355 425.441 266.088 429.51C266.902 433.66 267.349 437.892 267.431 442.205C267.593 446.518 266.82 450.465 265.111 454.046C263.402 457.627 261.693 460.556 259.984 462.835C258.275 465.114 256.444 466.904 254.491 468.206C252.619 469.59 250.626 470.566 248.51 471.136C246.394 471.705 244.075 472.031 241.552 472.112C237.808 472.031 234.187 471.136 230.688 469.427C229.223 468.694 227.676 467.718 226.049 466.497C224.503 465.358 222.997 463.934 221.532 462.225C220.067 460.516 218.684 458.481 217.382 456.121C216.08 453.842 214.94 451.157 213.964 448.064C213.069 451.076 212.011 453.558 210.79 455.511C209.569 457.545 208.43 459.173 207.372 460.394C206.07 461.858 204.809 462.957 203.588 463.689C201.879 464.585 200.414 465.195 199.193 465.521C197.973 465.846 196.793 466.049 195.653 466.131C194.595 466.294 193.497 466.497 192.357 466.741C191.218 466.985 189.916 467.514 188.451 468.328C187.312 468.979 186.132 469.752 184.911 470.647C183.853 471.461 182.714 472.397 181.493 473.455C180.272 474.594 179.092 475.978 177.953 477.605C177.872 475.327 177.831 473.211 177.831 471.258C177.831 469.386 177.831 467.758 177.831 466.375C177.831 464.747 177.872 463.201 177.953 461.736C178.035 460.271 178.075 458.44 178.075 456.243C178.075 454.371 178.075 451.971 178.075 449.041C178.075 446.193 178.035 442.734 177.953 438.665C179.337 440.455 180.72 441.92 182.104 443.06C183.487 444.199 184.748 445.094 185.888 445.745C187.19 446.478 188.451 447.007 189.672 447.332C191.869 447.739 194.148 447.78 196.508 447.454C198.542 447.21 200.78 446.559 203.222 445.501C205.744 444.443 208.267 442.734 210.79 440.374C210.383 438.014 210.058 436.02 209.813 434.393C209.651 432.846 209.488 431.504 209.325 430.364C209.162 429.062 209.04 428.004 208.959 427.19C208.878 426.458 208.796 425.644 208.715 424.749C208.633 424.017 208.511 423.203 208.349 422.308C208.267 421.494 208.145 420.721 207.982 419.988C204.483 419.826 201.431 419.826 198.827 419.988C196.304 420.151 194.188 420.354 192.479 420.599C190.445 420.924 188.695 421.29 187.23 421.697C185.766 422.104 184.341 422.674 182.958 423.406C181.819 423.976 180.598 424.708 179.296 425.604C178.075 426.499 177.058 427.516 176.244 428.655C176.244 426.539 176.244 424.505 176.244 422.552C176.244 420.68 176.285 418.971 176.366 417.425C176.366 415.634 176.407 413.925 176.488 412.298C176.57 410.67 176.61 408.839 176.61 406.805C176.61 405.096 176.61 403.061 176.61 400.701C176.61 398.423 176.57 395.94 176.488 393.255C178.686 395.371 180.557 397.039 182.104 398.26C183.65 399.48 184.952 400.416 186.01 401.067C187.149 401.8 188.126 402.247 188.939 402.41C190.242 402.573 192.561 402.695 195.897 402.776C199.315 402.939 203.222 403.061 207.616 403.143C212.011 403.224 216.609 403.265 221.41 403.265C226.212 403.265 230.688 403.224 234.838 403.143C239.07 403.061 242.691 402.98 245.702 402.898C248.713 402.817 250.626 402.736 251.439 402.654C252.904 402.41 254.369 401.881 255.834 401.067C257.136 400.416 258.601 399.48 260.229 398.26C261.856 397.039 263.484 395.371 265.111 393.255ZM222.143 439.397C222.631 440.211 223.119 440.903 223.607 441.473C224.096 442.042 224.869 442.531 225.927 442.938C227.066 443.344 228.653 443.67 230.688 443.914C232.722 444.24 235.489 444.606 238.988 445.013C242.488 445.338 245.377 445.094 247.655 444.28C249.934 443.548 251.724 442.531 253.026 441.229C254.41 440.008 255.346 438.624 255.834 437.078C256.404 435.613 256.688 434.311 256.688 433.172C256.688 430.893 255.997 428.655 254.613 426.458C253.23 424.261 251.358 422.592 248.998 421.453C247.94 421.046 246.19 420.68 243.749 420.354C241.633 420.11 238.703 419.948 234.96 419.866C231.216 419.785 226.293 419.907 220.189 420.232C219.701 423.325 219.498 426.051 219.579 428.411C219.742 430.771 220.027 432.765 220.434 434.393C220.84 436.346 221.41 438.014 222.143 439.397Z" fill="#FFF7AC"/>
</svg>
