<svg width="1701" height="1296" viewBox="0 0 1701 1296" fill="none" xmlns="http://www.w3.org/2000/svg">
<path fill-rule="evenodd" clip-rule="evenodd" d="M1602.26 4.94318C1653.95 4.94318 1695.86 46.2407 1695.86 97.1701C1695.86 334.113 1695.86 962.028 1695.86 1198.93C1695.86 1249.87 1653.95 1291.16 1602.26 1291.16C1306.57 1291.16 394.761 1291.16 99.1121 1291.16C47.419 1291.16 5.5127 1249.87 5.5127 1198.93C5.5127 962.028 5.5127 334.113 5.5127 97.1701C5.5127 46.2407 47.419 4.94318 99.1121 4.94318C394.761 4.94318 1306.57 4.94318 1602.26 4.94318Z" fill="#B784F2" stroke="#273838" stroke-width="9.22" stroke-miterlimit="1.5" stroke-linecap="round" stroke-linejoin="round"/>
<path d="M165.379 456.868C86.8752 464.953 35.7079 464.69 6 462.097V100.833C6.00012 47.2898 50.0355 4 104.21 4H1424.32C1390.14 214.033 1217.47 286.091 1025.88 240.868C828.879 194.368 636.379 -14.1317 466.379 113.368C296.379 240.868 315.879 441.368 165.379 456.868Z" fill="#F7E778"/>
<path fill-rule="evenodd" clip-rule="evenodd" d="M1602.74 5C1654.44 5 1696.34 46.2975 1696.34 97.2269C1696.34 334.17 1696.34 962.085 1696.34 1198.99C1696.34 1249.92 1654.44 1291.21 1602.74 1291.21C1307.06 1291.21 395.248 1291.21 99.5994 1291.21C47.9063 1291.21 6 1249.92 6 1198.99C6 962.085 6 334.17 6 97.2269C6 46.2975 47.9063 5 99.5994 5C395.248 5 1307.06 5 1602.74 5Z" stroke="#273838" stroke-width="9.22" stroke-miterlimit="1.5" stroke-linecap="round" stroke-linejoin="round"/>
<path d="M827.969 911.023C825.625 911.414 823.281 911.805 820.938 912.195C818.594 912.586 816.51 912.911 814.688 913.172C812.474 913.562 810.391 913.888 808.438 914.148C806.484 914.539 804.336 914.865 801.992 915.125C800.039 915.385 797.76 915.646 795.156 915.906C792.552 916.036 789.818 916.167 786.953 916.297C787.214 915.255 787.474 913.953 787.734 912.391C788.125 910.828 788.451 909.331 788.711 907.898C789.102 906.206 789.427 904.448 789.688 902.625C790.078 900.281 790.339 898.328 790.469 896.766C790.729 895.203 790.924 893.836 791.055 892.664C791.315 891.492 791.641 890.451 792.031 889.539C792.422 888.628 793.138 887.716 794.18 886.805C795.742 885.372 797.695 883.81 800.039 882.117C802.513 880.294 805.443 878.732 808.828 877.43C812.344 875.997 816.38 874.891 820.938 874.109C825.625 873.328 831.029 873.133 837.148 873.523C843.268 873.914 848.346 874.565 852.383 875.477C856.419 876.388 859.805 877.56 862.539 878.992C865.273 880.294 867.487 881.857 869.18 883.68C871.003 885.372 872.695 887.391 874.258 889.734C875.82 892.078 877.318 894.943 878.75 898.328C880.312 901.583 881.615 905.034 882.656 908.68C883.698 912.326 884.284 915.971 884.414 919.617C884.674 923.263 884.349 926.518 883.438 929.383C882.266 931.727 879.987 934.07 876.602 936.414C873.607 938.497 869.31 940.841 863.711 943.445C858.242 946.049 850.625 948.654 840.859 951.258C841.12 953.732 841.51 955.945 842.031 957.898C842.552 959.852 843.073 961.544 843.594 962.977C844.115 964.669 844.766 966.167 845.547 967.469C846.328 968.641 847.044 969.943 847.695 971.375C848.346 972.547 848.997 973.849 849.648 975.281C850.43 976.583 851.146 977.82 851.797 978.992L813.516 983.68C814.688 982.247 815.599 980.75 816.25 979.188C817.031 977.495 817.617 975.932 818.008 974.5C818.529 972.807 818.789 971.115 818.789 969.422C818.789 967.599 818.659 965.385 818.398 962.781C818.138 960.568 817.747 957.768 817.227 954.383C816.836 950.867 816.12 946.766 815.078 942.078C821.198 941.818 826.211 941.167 830.117 940.125C834.154 938.953 837.409 937.781 839.883 936.609C842.747 935.177 844.961 933.68 846.523 932.117C847.695 930.685 848.672 928.471 849.453 925.477C850.365 922.352 850.951 918.901 851.211 915.125C851.602 911.349 851.602 907.508 851.211 903.602C850.82 899.565 849.909 895.984 848.477 892.859C847.044 889.734 845.026 887.26 842.422 885.438C839.948 883.484 836.758 882.638 832.852 882.898C826.992 883.419 822.565 884.526 819.57 886.219C816.576 887.781 814.492 889.539 813.32 891.492C812.148 893.445 811.562 895.398 811.562 897.352C811.693 899.305 811.888 900.737 812.148 901.648C812.279 902.56 812.995 903.471 814.297 904.383C815.339 905.294 816.901 906.271 818.984 907.312C821.198 908.354 824.193 909.591 827.969 911.023ZM831.68 990.516C836.367 989.865 840.013 990.646 842.617 992.859C845.352 995.073 846.654 998.133 846.523 1002.04C846.393 1003.99 846.003 1005.55 845.352 1006.73C844.701 1007.9 843.789 1008.81 842.617 1009.46C841.576 1009.98 840.273 1010.44 838.711 1010.83C837.279 1011.09 835.586 1011.35 833.633 1011.61C831.68 1012 829.792 1011.93 827.969 1011.41C826.146 1010.76 824.518 1009.85 823.086 1008.68C821.654 1007.51 820.482 1006.21 819.57 1004.77C818.789 1003.34 818.398 1001.91 818.398 1000.48C818.398 998.914 818.789 997.612 819.57 996.57C820.482 995.398 821.589 994.422 822.891 993.641C824.323 992.729 825.755 992.078 827.188 991.688C828.75 991.167 830.247 990.776 831.68 990.516Z" fill="#FFF7AC"/>
<path d="M786.965 587.109H800.148C800.969 587.109 801.906 587.168 802.961 587.285C803.898 587.402 804.953 587.52 806.125 587.637C807.414 587.637 808.762 587.754 810.168 587.988C809.582 597.715 809.113 606.211 808.762 613.477C808.527 620.742 808.352 626.836 808.234 631.758C808.117 637.5 808.117 642.363 808.234 646.348C808.234 650.566 808.41 656.074 808.762 662.871C808.996 668.73 809.348 676.289 809.816 685.547C810.285 694.805 810.93 706.113 811.75 719.473C810.812 719.473 809.816 719.531 808.762 719.648C807.707 719.648 806.711 719.707 805.773 719.824C804.602 719.941 803.547 720 802.609 720C801.555 720 800.383 720.117 799.094 720.352C798.039 720.586 796.867 720.82 795.578 721.055C794.289 721.289 792.941 721.641 791.535 722.109C791.77 710.039 791.945 700.078 792.062 692.227C792.18 684.375 792.238 677.988 792.238 673.066C792.238 667.441 792.18 662.988 792.062 659.707C791.828 654.434 791.477 648.164 791.008 640.898C790.656 634.688 790.129 627.129 789.426 618.223C788.723 609.199 787.902 598.828 786.965 587.109ZM829.68 587.109H842.863C843.684 587.109 844.621 587.168 845.676 587.285C846.613 587.402 847.668 587.52 848.84 587.637C850.129 587.637 851.477 587.754 852.883 587.988C852.297 597.715 851.828 606.211 851.477 613.477C851.242 620.742 851.066 626.836 850.949 631.758C850.832 637.5 850.832 642.363 850.949 646.348C850.949 650.566 851.125 656.074 851.477 662.871C851.711 668.73 852.062 676.289 852.531 685.547C853 694.805 853.645 706.113 854.465 719.473C853.527 719.473 852.531 719.531 851.477 719.648C850.422 719.648 849.426 719.707 848.488 719.824C847.316 719.941 846.262 720 845.324 720C844.27 720 843.098 720.117 841.809 720.352C840.754 720.586 839.582 720.82 838.293 721.055C837.004 721.289 835.656 721.641 834.25 722.109C834.484 710.039 834.66 700.078 834.777 692.227C834.895 684.375 834.953 677.988 834.953 673.066C834.953 667.441 834.895 662.988 834.777 659.707C834.543 654.434 834.191 648.164 833.723 640.898C833.371 634.688 832.844 627.129 832.141 618.223C831.438 609.199 830.617 598.828 829.68 587.109Z" fill="#FFF7AC"/>
<path d="M49.5 763C83 797 134.5 824.102 217.5 801C269.784 786.447 360.5 725.5 473.5 793C625 883.498 722.5 775.5 715.5 717.5" stroke="#FFF7AC" stroke-width="10" stroke-linecap="round"/>
<path d="M1617.35 756.5C1583.85 790.5 1532.35 817.602 1449.35 794.5C1397.07 779.947 1306.35 719 1193.35 786.5C1041.85 876.998 944.354 769 951.354 711" stroke="#FFF7AC" stroke-width="10" stroke-linecap="round"/>
</svg>
