<svg width="1701" height="1296" viewBox="0 0 1701 1296" fill="none" xmlns="http://www.w3.org/2000/svg">
<path fill-rule="evenodd" clip-rule="evenodd" d="M1602.26 4.94318C1653.95 4.94318 1695.86 46.2407 1695.86 97.1701C1695.86 334.113 1695.86 962.028 1695.86 1198.93C1695.86 1249.87 1653.95 1291.16 1602.26 1291.16C1306.57 1291.16 394.761 1291.16 99.1121 1291.16C47.419 1291.16 5.5127 1249.87 5.5127 1198.93C5.5127 962.028 5.5127 334.113 5.5127 97.1701C5.5127 46.2407 47.419 4.94318 99.1121 4.94318C394.761 4.94318 1306.57 4.94318 1602.26 4.94318Z" fill="#B784F2" stroke="#273838" stroke-width="9.22" stroke-miterlimit="1.5" stroke-linecap="round" stroke-linejoin="round"/>
<path d="M1536.5 837.846C1615 829.761 1666.17 830.024 1695.88 832.618V1193.88C1695.88 1247.42 1651.84 1290.71 1597.67 1290.71H277.562C311.741 1080.68 484.413 1008.62 676 1053.85C873 1100.35 1065.5 1308.85 1235.5 1181.35C1405.5 1053.85 1386 853.346 1536.5 837.846Z" fill="#F7E778"/>
<path fill-rule="evenodd" clip-rule="evenodd" d="M1602.74 5C1654.44 5 1696.34 46.2975 1696.34 97.2269C1696.34 334.17 1696.34 962.085 1696.34 1198.99C1696.34 1249.92 1654.44 1291.21 1602.74 1291.21C1307.06 1291.21 395.248 1291.21 99.5994 1291.21C47.9063 1291.21 6 1249.92 6 1198.99C6 962.085 6 334.17 6 97.2269C6 46.2975 47.9063 5 99.5994 5C395.248 5 1307.06 5 1602.74 5Z" stroke="#273838" stroke-width="9.22" stroke-miterlimit="1.5" stroke-linecap="round" stroke-linejoin="round"/>
</svg>
