<svg width="387" height="353" viewBox="0 0 387 353" fill="none" xmlns="http://www.w3.org/2000/svg">
<path d="M193.928 352.687C300.562 352.687 387.007 273.881 387.007 176.668C387.007 79.4561 300.562 0.649902 193.928 0.649902C87.2931 0.649902 0.848633 79.4561 0.848633 176.668C0.848633 273.881 87.2931 352.687 193.928 352.687Z" fill="#EF7D77"/>
<path d="M192.223 333.374C288.503 333.374 366.553 263.214 366.553 176.667C366.553 90.12 288.503 19.96 192.223 19.96C95.9429 19.96 17.8926 90.12 17.8926 176.667C17.8926 263.214 95.9429 333.374 192.223 333.374Z" fill="#FFDFDD"/>
<path fill-rule="evenodd" clip-rule="evenodd" d="M170.154 186.136L128.161 122.979C124.927 118.116 127.095 112.803 132.997 111.124L154.387 105.04C160.289 103.361 167.708 105.946 170.941 110.809L196.217 148.823L223.756 109.391C227.196 104.465 234.726 101.74 240.561 103.31L261.703 108.996C267.536 110.566 269.479 115.839 266.039 120.765L220.712 185.662L254.89 237.066C258.124 241.929 255.956 247.241 250.054 248.92L228.664 255.005C222.762 256.684 215.343 254.099 212.11 249.236L194.649 222.975L176.721 248.643C173.281 253.57 165.752 256.294 159.917 254.725L138.777 249.039C132.942 247.47 130.999 242.197 134.439 237.271L170.154 186.136Z" fill="#EF7D77"/>
</svg>
