<svg width="2445" height="1152" viewBox="0 0 2445 1152" fill="none" xmlns="http://www.w3.org/2000/svg">
<path fill-rule="evenodd" clip-rule="evenodd" d="M1400.48 1002.06C1336.67 1001.83 1109.98 1004.21 1040.3 1004.48C945.687 1004.83 864.457 1169.66 502.69 1149.53C225.57 1134.09 0 904.83 0 603.463C0 302.077 225.867 78.3189 502.69 57.3961C808.692 34.2841 916.092 232.102 1053.99 229.874C1111.84 228.944 1323.43 226.426 1386.79 227.452C1524.7 229.68 1632.09 31.8624 1938.09 54.9938C2214.92 75.8973 2440.79 299.675 2440.79 601.042C2440.79 902.428 2214.06 1117.27 1938.09 1147.11C1614.22 1182.12 1495.09 1002.41 1400.48 1002.06Z" fill="#81C3C3"/>
<path fill-rule="evenodd" clip-rule="evenodd" d="M1404.69 948.951C1340.88 948.719 1114.19 951.101 1044.51 951.373C949.898 951.721 868.668 1116.55 506.901 1096.42C229.781 1080.98 4.21094 851.718 4.21094 550.351C4.21094 248.965 230.078 25.2067 506.901 4.28388C812.903 -18.8281 920.303 178.99 1058.2 176.762C1116.05 175.832 1327.64 173.314 1391 174.34C1528.91 176.568 1636.3 -21.2497 1942.3 1.88164C2219.13 22.7851 2445 246.563 2445 547.93C2445 849.316 2218.27 1064.16 1942.3 1094C1618.43 1129 1499.31 949.3 1404.69 948.951Z" fill="#F0F7F7"/>
<path fill-rule="evenodd" clip-rule="evenodd" d="M1928.78 65.7396C1749.99 64.6274 1698.03 121.376 1693.6 561.993C1689.54 965.956 1725.23 1033.63 1927.69 1035.98C2175.62 1038.82 2386.73 789.58 2382.33 547.509C2377.8 297.652 2176.71 67.2968 1928.78 65.7396Z" fill="#B0D5D5"/>
<path fill-rule="evenodd" clip-rule="evenodd" d="M514.973 67.9143C694.38 66.8021 746.526 123.551 750.969 564.168C755.042 968.13 719.231 1035.8 516.06 1038.15C267.268 1040.99 55.4175 791.755 59.8292 549.684C64.3826 299.827 266.172 69.4714 514.973 67.9143Z" fill="#B0D5D5"/>
<path fill-rule="evenodd" clip-rule="evenodd" d="M423.164 319.508H373.267C365.311 319.508 358.852 312.433 358.852 303.726V272.16C358.852 263.454 365.311 256.378 373.267 256.378H423.164V195.28C423.164 186.573 429.623 179.523 437.579 179.523H466.409C474.365 179.523 480.825 186.573 480.825 195.28V256.378H533.681C541.637 256.378 548.096 263.454 548.096 272.16V303.726C548.096 312.433 541.637 319.508 533.681 319.508H480.825V370.896C480.825 379.602 474.365 386.678 466.409 386.678H437.579C429.623 386.678 423.164 379.602 423.164 370.896V319.508Z" fill="#273838"/>
<path fill-rule="evenodd" clip-rule="evenodd" d="M416.638 310.936H366.741C358.785 310.936 352.326 303.861 352.326 295.154V263.589C352.326 254.882 358.785 247.806 366.741 247.806H416.638V186.708C416.638 178.002 423.097 170.951 431.053 170.951H459.884C467.84 170.951 474.299 178.002 474.299 186.708V247.806H527.155C535.111 247.806 541.57 254.882 541.57 263.589V295.154C541.57 303.861 535.111 310.936 527.155 310.936H474.299V362.324C474.299 371.031 467.84 378.106 459.884 378.106H431.053C423.097 378.106 416.638 371.031 416.638 362.324V310.936Z" fill="#304444"/>
<path d="M1912.64 307.388C1929.22 307.388 1942.66 292.675 1942.66 274.526C1942.66 256.377 1929.22 241.665 1912.64 241.665C1896.06 241.665 1882.62 256.377 1882.62 274.526C1882.62 292.675 1896.06 307.388 1912.64 307.388Z" fill="#273838"/>
<path d="M1988.34 383.11C2004.92 383.11 2018.36 368.397 2018.36 350.248C2018.36 332.099 2004.92 317.387 1988.34 317.387C1971.76 317.387 1958.32 332.099 1958.32 350.248C1958.32 368.397 1971.76 383.11 1988.34 383.11Z" fill="#273838"/>
<path d="M2053.6 304.53C2070.18 304.53 2083.62 289.818 2083.62 271.669C2083.62 253.52 2070.18 238.807 2053.6 238.807C2037.02 238.807 2023.58 253.52 2023.58 271.669C2023.58 289.818 2037.02 304.53 2053.6 304.53Z" fill="#273838"/>
<path d="M1987.03 227.379C2003.61 227.379 2017.05 212.667 2017.05 194.518C2017.05 176.369 2003.61 161.656 1987.03 161.656C1970.45 161.656 1957.01 176.369 1957.01 194.518C1957.01 212.667 1970.45 227.379 1987.03 227.379Z" fill="#273838"/>
<path d="M2056.21 297.387C2072.79 297.387 2086.23 282.674 2086.23 264.525C2086.23 246.376 2072.79 231.664 2056.21 231.664C2039.63 231.664 2026.19 246.376 2026.19 264.525C2026.19 282.674 2039.63 297.387 2056.21 297.387Z" fill="#304444"/>
<path d="M1985.73 217.378C2002.31 217.378 2015.75 202.666 2015.75 184.517C2015.75 166.368 2002.31 151.655 1985.73 151.655C1969.15 151.655 1955.71 166.368 1955.71 184.517C1955.71 202.666 1969.15 217.378 1985.73 217.378Z" fill="#304444"/>
<path d="M1988.34 374.538C2004.92 374.538 2018.36 359.826 2018.36 341.677C2018.36 323.528 2004.92 308.815 1988.34 308.815C1971.76 308.815 1958.32 323.528 1958.32 341.677C1958.32 359.826 1971.76 374.538 1988.34 374.538Z" fill="#304444"/>
<path d="M1913.95 300.244C1930.52 300.244 1943.96 285.531 1943.96 267.382C1943.96 249.234 1930.52 234.521 1913.95 234.521C1897.37 234.521 1883.93 249.234 1883.93 267.382C1883.93 285.531 1897.37 300.244 1913.95 300.244Z" fill="#304444"/>
<path fill-rule="evenodd" clip-rule="evenodd" d="M2155.59 630.321V758.413C2155.59 793.757 2127.15 822.458 2092.12 822.458H1915.77C1880.75 822.458 1852.31 793.757 1852.31 758.413V630.321C1852.31 594.976 1880.75 566.276 1915.77 566.276H2092.12C2127.15 566.276 2155.59 594.976 2155.59 630.321Z" fill="#273838"/>
<path fill-rule="evenodd" clip-rule="evenodd" d="M620.433 642.356V770.447C620.433 805.792 591.994 834.493 556.965 834.493H380.618C345.59 834.493 317.151 805.792 317.151 770.447V642.356C317.151 607.011 345.59 578.311 380.618 578.311H556.965C591.994 578.311 620.433 607.011 620.433 642.356Z" fill="#273838"/>
<path fill-rule="evenodd" clip-rule="evenodd" d="M615.321 626.881V754.973C615.321 790.318 586.882 819.018 551.854 819.018H375.507C340.478 819.018 312.039 790.318 312.039 754.973V626.881C312.039 591.537 340.478 562.836 375.507 562.836H551.854C586.882 562.836 615.321 591.537 615.321 626.881Z" fill="#304444"/>
<path fill-rule="evenodd" clip-rule="evenodd" d="M2162.4 616.566V744.657C2162.4 780.002 2133.97 808.703 2098.94 808.703H1922.59C1887.56 808.703 1859.12 780.002 1859.12 744.657V616.566C1859.12 581.221 1887.56 552.52 1922.59 552.52H2098.94C2133.97 552.52 2162.4 581.221 2162.4 616.566Z" fill="#304444"/>
<path fill-rule="evenodd" clip-rule="evenodd" d="M446.253 369.631C446.543 370.322 447.214 370.769 447.957 370.769C448.702 370.769 449.371 370.322 449.663 369.631C452.773 362.228 459.29 346.719 461.876 340.566C462.119 339.99 462.058 339.328 461.714 338.805C461.372 338.282 460.791 337.968 460.172 337.968C454.45 337.968 441.466 337.968 435.744 337.968C435.123 337.968 434.544 338.282 434.2 338.805C433.858 339.328 433.797 339.99 434.04 340.566C436.626 346.719 443.143 362.228 446.253 369.631Z" fill="#F0F7F7"/>
<path fill-rule="evenodd" clip-rule="evenodd" d="M1976.99 360.112C1976 360.112 1975.21 359.307 1975.21 358.315C1975.21 351.841 1975.21 329.766 1975.21 323.294C1975.21 322.3 1976 321.495 1976.99 321.495C1981.04 321.495 1990.62 321.495 1990.62 321.495C1993.76 321.495 1996.28 321.885 1998.17 322.668C2000.06 323.449 2001.56 324.652 2002.62 326.276C2003.7 327.901 2004.24 329.6 2004.24 331.373C2004.24 333.024 2003.76 334.578 2002.81 336.036C2001.86 337.494 2000.42 338.67 1998.49 339.565C2000.98 340.251 2002.89 341.418 2004.23 343.069C2005.56 344.72 2006.23 346.669 2006.23 348.917C2006.23 350.726 2005.83 352.407 2005.01 353.961C2004.2 355.516 2003.2 356.715 2002 357.557C2000.8 358.4 1999.31 359.037 1997.5 359.467C1995.7 359.898 1993.49 360.112 1990.87 360.112H1976.99ZM1980.64 335.924C1980.64 336.401 1980.82 336.858 1981.17 337.195C1981.5 337.533 1981.95 337.722 1982.42 337.722C1985.01 337.722 1989.52 337.722 1989.52 337.722C1991.94 337.722 1993.67 337.573 1994.71 337.274C1996.09 336.887 1997.14 336.247 1997.84 335.351C1998.54 334.455 1998.89 333.331 1998.89 331.979C1998.89 330.697 1998.56 329.569 1997.91 328.594C1997.25 327.619 1996.32 326.952 1995.1 326.592C1993.89 326.233 1991.81 326.052 1988.85 326.052H1982.42C1981.95 326.052 1981.5 326.241 1981.17 326.579C1980.82 326.916 1980.64 327.373 1980.64 327.85C1980.64 330.044 1980.64 333.73 1980.64 335.924ZM1980.64 353.757C1980.64 354.234 1980.82 354.692 1981.17 355.028C1981.5 355.366 1981.95 355.556 1982.42 355.556C1985.36 355.556 1990.87 355.556 1990.87 355.556C1992.62 355.556 1993.86 355.494 1994.58 355.371C1995.83 355.16 1996.87 354.809 1997.71 354.317C1998.55 353.825 1999.24 353.11 1999.79 352.17C2000.33 351.231 2000.59 350.147 2000.59 348.917C2000.59 347.478 2000.2 346.226 1999.42 345.163C1998.63 344.1 1997.55 343.355 1996.16 342.924C1994.76 342.494 1992.76 342.279 1990.14 342.279H1982.42C1981.95 342.279 1981.5 342.468 1981.17 342.806C1980.82 343.142 1980.64 343.6 1980.64 344.077C1980.64 346.614 1980.64 351.219 1980.64 353.757Z" fill="#F0F7F7"/>
<path fill-rule="evenodd" clip-rule="evenodd" d="M2043.32 280.983C2042.23 280.983 2041.21 280.444 2040.58 279.542C2039.96 278.639 2039.81 277.484 2040.19 276.451C2043.45 267.454 2050.67 247.577 2053.35 240.216C2053.96 238.527 2055.55 237.403 2057.33 237.403C2057.56 237.403 2057.79 237.403 2058.01 237.403C2059.36 237.403 2060.55 238.233 2061.05 239.493C2063.59 246.08 2071.51 266.541 2075.19 276.042C2075.62 277.157 2075.47 278.415 2074.81 279.403C2074.14 280.392 2073.03 280.983 2071.85 280.983C2071.74 280.983 2071.65 280.983 2071.56 280.983C2071.16 280.983 2070.8 280.731 2070.66 280.351C2070.03 278.623 2068.26 273.744 2067.1 270.598C2066.49 268.908 2064.89 267.784 2063.11 267.784C2059.98 267.784 2055.05 267.784 2051.89 267.784C2050.08 267.784 2048.45 268.945 2047.87 270.676C2046.53 274.56 2044.33 280.983 2044.33 280.983H2043.32ZM2052.46 257.347C2051.99 258.663 2052.2 260.124 2052.99 261.266C2053.78 262.408 2055.09 263.088 2056.47 263.088C2057.09 263.088 2057.72 263.088 2058.34 263.088C2059.72 263.088 2061.03 262.407 2061.82 261.262C2062.63 260.119 2062.82 258.654 2062.35 257.339C2061.24 254.229 2060.09 251.019 2060.09 251.019C2060.01 250.77 2059.92 250.526 2059.84 250.283C2059.46 249.242 2058.48 248.549 2057.39 248.553C2056.29 248.557 2055.32 249.258 2054.96 250.301V250.305C2054.96 250.305 2053.66 253.949 2052.46 257.347Z" fill="#F0F7F7"/>
<path fill-rule="evenodd" clip-rule="evenodd" d="M1970.96 201.837C1970.6 201.837 1970.28 201.632 1970.11 201.307C1969.96 200.982 1969.99 200.592 1970.2 200.3C1973.15 196.299 1980.98 185.692 1982.87 183.13C1983.11 182.794 1983.12 182.335 1982.88 181.996C1981.16 179.574 1974.47 170.111 1971.83 166.382C1971.62 166.089 1971.59 165.703 1971.75 165.382C1971.92 165.061 1972.25 164.86 1972.6 164.86C1973.81 164.86 1975.29 164.86 1976.05 164.86C1976.36 164.86 1976.64 165.01 1976.83 165.266C1978.1 167.078 1983.21 174.344 1983.21 174.344C1984.1 175.604 1984.82 176.678 1985.38 177.565C1985.55 177.845 1985.86 178.017 1986.17 178.022C1986.5 178.026 1986.81 177.864 1986.98 177.59C1987.61 176.646 1988.31 175.673 1989.08 174.671C1989.08 174.671 1994.82 167.045 1996.19 165.24C1996.37 165 1996.65 164.86 1996.95 164.86C1997.59 164.86 1998.82 164.86 1999.86 164.86C2000.22 164.86 2000.55 165.065 2000.72 165.392C2000.87 165.717 2000.84 166.107 2000.62 166.399C1997.88 170.096 1991.03 179.346 1989.26 181.724C1989.02 182.061 1989.02 182.521 1989.25 182.862C1991.11 185.472 1998.82 196.282 2001.68 200.313C2001.89 200.607 2001.92 200.993 2001.75 201.315C2001.59 201.636 2001.26 201.837 2000.9 201.837C1999.63 201.837 1998.03 201.837 1997.24 201.837C1996.94 201.837 1996.64 201.685 1996.46 201.431C1994.9 199.21 1987.5 188.646 1987.5 188.646C1987.23 188.265 1986.97 187.867 1986.7 187.452C1986.52 187.179 1986.22 187.016 1985.9 187.018C1985.58 187.02 1985.27 187.188 1985.1 187.463C1984.68 188.13 1984.37 188.625 1984.14 188.949C1984.14 188.949 1976.76 199.265 1975.2 201.438C1975.01 201.69 1974.72 201.837 1974.42 201.837C1973.67 201.837 1972.19 201.837 1970.96 201.837Z" fill="#F0F7F7"/>
<path fill-rule="evenodd" clip-rule="evenodd" d="M443.917 183.517C444.207 182.825 444.879 182.378 445.621 182.378C446.366 182.378 447.036 182.825 447.327 183.517C450.437 190.919 456.954 206.428 459.54 212.582C459.783 213.157 459.722 213.82 459.378 214.342C459.036 214.865 458.456 215.18 457.836 215.18C452.114 215.18 439.13 215.18 433.408 215.18C432.787 215.18 432.208 214.865 431.864 214.342C431.522 213.82 431.461 213.157 431.704 212.582C434.29 206.428 440.808 190.919 443.917 183.517Z" fill="#F0F7F7"/>
<path fill-rule="evenodd" clip-rule="evenodd" d="M1911.14 285.805C1910.91 285.805 1910.7 285.716 1910.54 285.557C1910.38 285.397 1910.29 285.181 1910.29 284.955C1910.29 281.778 1910.29 270.689 1910.29 268.849C1910.29 268.681 1910.25 268.516 1910.16 268.376C1908.82 266.383 1898.65 251.118 1895.57 246.491C1895.4 246.23 1895.38 245.894 1895.53 245.617C1895.68 245.34 1895.96 245.166 1896.28 245.166C1897.75 245.166 1899.84 245.166 1900.75 245.166C1901.04 245.166 1901.3 245.31 1901.46 245.55C1902.81 247.624 1909.19 257.419 1909.19 257.419C1910.39 259.284 1911.52 261.15 1912.59 263.014C1912.73 263.277 1913.01 263.439 1913.31 263.441C1913.61 263.442 1913.89 263.283 1914.04 263.023C1915.1 261.228 1916.33 259.258 1917.72 257.114C1917.72 257.114 1923.98 247.586 1925.31 245.547C1925.47 245.309 1925.73 245.166 1926.01 245.166C1926.89 245.166 1928.8 245.166 1930.19 245.166C1930.51 245.166 1930.8 245.342 1930.94 245.622C1931.08 245.904 1931.06 246.242 1930.89 246.502C1927.69 251.14 1917.19 266.365 1915.8 268.371C1915.71 268.514 1915.65 268.684 1915.65 268.857C1915.65 270.718 1915.65 281.781 1915.65 284.955C1915.65 285.181 1915.56 285.397 1915.4 285.557C1915.25 285.716 1915.03 285.805 1914.8 285.805C1913.81 285.805 1912.13 285.805 1911.14 285.805Z" fill="#F0F7F7"/>
<path fill-rule="evenodd" clip-rule="evenodd" d="M360.806 280.798C360.178 280.483 359.782 279.834 359.782 279.127C359.782 278.419 360.178 277.772 360.806 277.455C367.286 274.193 381.509 267.029 387.437 264.046C388.012 263.756 388.692 263.787 389.238 264.128C389.783 264.469 390.116 265.069 390.116 265.716C390.116 271.971 390.116 286.282 390.116 292.537C390.116 293.184 389.783 293.786 389.238 294.125C388.692 294.466 388.012 294.497 387.437 294.209C381.509 291.224 367.286 284.063 360.806 280.798Z" fill="#F0F7F7"/>
<path fill-rule="evenodd" clip-rule="evenodd" d="M532.756 277.466C533.384 277.781 533.78 278.43 533.78 279.136C533.78 279.845 533.384 280.492 532.756 280.808C526.276 284.071 512.053 291.234 506.125 294.218C505.55 294.508 504.87 294.477 504.324 294.136C503.779 293.795 503.446 293.195 503.446 292.548C503.446 286.293 503.446 271.982 503.446 265.727C503.446 265.08 503.779 264.477 504.324 264.138C504.87 263.797 505.55 263.766 506.125 264.054C512.053 267.04 526.276 274.201 532.756 277.466Z" fill="#F0F7F7"/>
<path fill-rule="evenodd" clip-rule="evenodd" d="M1600.75 231.334C1626.94 231.334 1648.16 252.758 1648.16 279.177C1648.16 402.092 1648.16 727.825 1648.16 850.721C1648.16 877.142 1626.94 898.562 1600.75 898.562C1450.98 898.562 989.124 898.562 839.37 898.562C813.186 898.562 791.959 877.142 791.959 850.721C791.959 727.825 791.959 402.092 791.959 279.177C791.959 252.758 813.186 231.334 839.37 231.334C989.124 231.334 1450.98 231.334 1600.75 231.334Z" fill="#304444" stroke="#273838" stroke-width="9.22" stroke-miterlimit="1.5" stroke-linecap="round" stroke-linejoin="round"/>
</svg>
