<svg width="1948" height="905" viewBox="0 0 1948 905" fill="none" xmlns="http://www.w3.org/2000/svg">
<path fill-rule="evenodd" clip-rule="evenodd" d="M1948.01 240.484V682.866C1948.01 804.945 1843.04 904.057 1713.75 904.057H235.089C105.799 904.057 0.831543 804.945 0.831543 682.866V240.484C0.831543 118.405 105.799 19.2937 235.089 19.2937H1713.75C1843.04 19.2937 1948.01 118.405 1948.01 240.484Z" fill="#EF7D77"/>
<path fill-rule="evenodd" clip-rule="evenodd" d="M1922.22 213.901V640.454C1922.22 758.165 1820.99 853.731 1696.33 853.731H227.575C102.912 853.731 1.69043 758.165 1.69043 640.454V213.901C1.69043 96.1896 102.912 0.624268 227.575 0.624268H1696.33C1820.99 0.624268 1922.22 96.1896 1922.22 213.901Z" fill="#FFDFDD"/>
</svg>
