<svg width="184" height="170" viewBox="0 0 184 170" fill="none" xmlns="http://www.w3.org/2000/svg">
<path d="M92 169.323C142.81 169.323 184 131.419 184 84.6616C184 37.9043 142.81 0 92 0C41.1898 0 0 37.9043 0 84.6616C0 131.419 41.1898 169.323 92 169.323Z" fill="#81C3C3"/>
<path d="M91.7443 8.29065C45.8662 8.29065 8.70704 42.4272 8.70704 84.5735C8.69043 117.329 31.6502 146.607 65.4879 156.951C69.6398 157.614 71.1925 155.326 71.1925 153.32C71.1925 151.512 71.0846 145.508 71.0846 139.116C50.2257 142.648 44.8282 134.447 43.1675 130.153C42.2292 127.956 38.1853 121.189 34.6562 119.374C31.7499 117.947 27.598 114.415 34.5482 114.324C41.0916 114.225 45.7582 119.854 47.3193 122.143C54.7927 133.677 66.7335 130.435 71.4998 128.436C72.2305 123.478 74.4061 120.144 76.7976 118.237C58.3218 116.33 39.0156 109.747 39.0156 80.5686C39.0156 72.2691 42.2292 65.4112 47.5269 60.0638C46.6966 58.1567 43.7903 50.3378 48.3573 39.8489C48.3573 39.8489 55.3075 37.8503 71.1925 47.6755C77.9518 45.9515 84.9352 45.0819 91.9519 45.0971C99.01 45.0971 106.068 45.9515 112.711 47.6679C128.588 37.7511 135.546 39.8565 135.546 39.8565C140.113 50.3454 137.207 58.1644 136.377 60.0714C141.666 65.4112 144.888 72.1775 144.888 80.5686C144.888 109.846 125.482 116.33 107.007 118.237C110.012 120.617 112.612 125.194 112.612 132.349C112.612 142.548 112.504 150.749 112.504 153.327C112.504 155.326 114.065 157.706 118.217 156.943C151.93 146.485 174.773 117.261 174.781 84.5735C174.781 42.4272 137.622 8.29065 91.7443 8.29065Z" fill="#F0F7F7"/>
</svg>
