<svg width="4013" height="1632" viewBox="0 0 4013 1632" fill="none" xmlns="http://www.w3.org/2000/svg">
<path d="M738.469 460.625C758.26 465.312 775.969 468.958 791.594 471.562C807.74 473.646 821.281 475.208 832.219 476.25C845.24 477.812 856.698 478.333 866.594 477.812C879.094 477.292 894.719 475.469 913.469 472.344C932.219 469.219 952.01 466.094 972.844 462.969C993.677 459.844 1014.25 457.24 1034.56 455.156C1054.88 453.073 1072.58 452.812 1087.69 454.375C1102.79 455.938 1118.68 459.583 1135.34 465.312C1152.01 470.521 1167.64 477.812 1182.22 487.188C1196.8 496.042 1209.3 506.979 1219.72 520C1230.66 533.021 1237.43 548.125 1240.03 565.312C1242.64 581.979 1241.07 599.948 1235.34 619.219C1229.61 637.969 1220.5 656.458 1208 674.688C1195.5 692.396 1179.88 708.802 1161.12 723.906C1142.38 739.01 1121.54 751.25 1098.62 760.625C1080.4 767.396 1060.6 772.604 1039.25 776.25C1021.02 779.375 999.667 781.458 975.188 782.5C951.229 783.021 925.708 780.417 898.625 774.688C894.979 789.792 892.896 803.854 892.375 816.875C892.375 829.375 892.896 840.573 893.938 850.469C895.5 861.927 897.583 872.344 900.188 881.719C903.312 891.094 907.219 902.031 911.906 914.531C916.073 924.948 920.76 937.708 925.969 952.812C931.698 967.396 938.469 983.802 946.281 1002.03C936.906 1002.03 927.792 1002.29 918.938 1002.81C910.083 1002.81 902.01 1003.07 894.719 1003.59C886.385 1004.11 878.573 1004.64 871.281 1005.16C862.948 1005.68 853.573 1006.72 843.156 1008.28C834.302 1009.32 823.104 1010.89 809.562 1012.97C796.542 1015.05 781.698 1017.66 765.031 1020.78C775.969 1005.16 784.562 990.833 790.812 977.812C797.583 964.271 802.531 952.552 805.656 942.656C809.302 931.198 811.646 920.781 812.688 911.406C813.208 903.594 813.208 889.792 812.688 870C812.688 850.208 812.427 827.292 811.906 801.25C811.385 775.208 810.604 747.865 809.562 719.219C808.521 690.573 807.219 663.75 805.656 638.75C804.094 613.229 802.271 591.354 800.188 573.125C798.625 554.896 797.062 542.917 795.5 537.188C793.417 530.417 789.771 523.125 784.562 515.312C780.396 508.542 774.406 500.729 766.594 491.875C759.302 482.5 749.927 472.083 738.469 460.625ZM900.188 614.531C899.667 619.74 899.406 625.208 899.406 630.938C899.406 641.875 900.188 655.938 901.75 673.125C905.396 681.979 909.823 689.271 915.031 695C920.76 700.729 926.75 705.156 933 708.281C939.771 711.406 946.542 713.49 953.312 714.531C960.083 715.573 966.854 716.094 973.625 716.094C989.25 715.573 1005.66 711.927 1022.84 705.156C1045.76 695.26 1061.91 681.198 1071.28 662.969C1080.66 644.74 1085.6 625.99 1086.12 606.719C1086.65 587.448 1083.26 569.74 1075.97 553.594C1069.2 537.448 1060.86 526.51 1050.97 520.781C1042.64 517.135 1031.96 515.573 1018.94 516.094C1007.48 516.615 993.156 519.479 975.969 524.688C958.781 529.896 937.688 539.271 912.688 552.812C910.083 562.188 908 570.521 906.438 577.812C904.875 585.104 903.573 591.615 902.531 597.344C901.49 603.594 900.708 609.323 900.188 614.531ZM1605.97 430.938C1634.09 431.979 1662.48 437.188 1691.12 446.562C1720.29 455.417 1747.11 470 1771.59 490.312C1796.07 510.104 1816.91 535.885 1834.09 567.656C1851.28 598.906 1861.96 637.188 1866.12 682.5C1869.77 719.479 1865.08 756.198 1852.06 792.656C1839.56 828.594 1822.11 861.667 1799.72 891.875C1777.32 922.083 1751.54 947.865 1722.38 969.219C1693.21 990.052 1664.04 1003.85 1634.88 1010.62C1617.17 1014.79 1597.64 1015.31 1576.28 1012.19C1555.45 1008.54 1534.09 1002.03 1512.22 992.656C1490.86 982.76 1469.77 970.26 1448.94 955.156C1428.62 940.052 1410.14 922.865 1393.47 903.594C1376.8 883.802 1362.74 862.448 1351.28 839.531C1340.34 816.615 1333.57 792.656 1330.97 767.656C1328.36 746.823 1328.1 723.906 1330.19 698.906C1332.79 673.385 1337.74 648.125 1345.03 623.125C1352.84 597.604 1363.52 573.125 1377.06 549.688C1391.12 525.729 1408.83 504.896 1430.19 487.188C1451.54 468.958 1476.54 454.896 1505.19 445C1534.35 434.583 1567.95 429.896 1605.97 430.938ZM1466.12 747.344C1458.83 803.073 1464.04 847.865 1481.75 881.719C1499.98 915.573 1527.32 936.146 1563.78 943.438C1581.49 947.083 1598.42 943.438 1614.56 932.5C1631.23 921.042 1646.33 904.635 1659.88 883.281C1673.42 861.927 1685.14 836.927 1695.03 808.281C1704.93 779.635 1712.22 749.688 1716.91 718.438C1721.59 687.188 1721.85 659.062 1717.69 634.062C1714.04 608.542 1707.53 586.927 1698.16 569.219C1688.78 550.99 1677.32 536.927 1663.78 527.031C1650.76 517.135 1637.22 511.667 1623.16 510.625C1598.68 509.062 1577.32 515.573 1559.09 530.156C1540.86 544.219 1525.5 562.708 1513 585.625C1500.5 608.542 1490.34 634.323 1482.53 662.969C1475.24 691.615 1469.77 719.74 1466.12 747.344ZM1951.59 466.094C1975.03 470.26 1994.3 473.125 2009.41 474.688C2024.51 476.25 2036.75 477.552 2046.12 478.594C2057.06 479.635 2065.66 479.896 2071.91 479.375H2095.34C2103.68 479.375 2114.09 479.375 2126.59 479.375C2139.61 478.854 2155.76 478.594 2175.03 478.594C2185.97 504.115 2195.86 527.552 2204.72 548.906C2214.09 570.26 2221.91 588.49 2228.16 603.594C2235.45 621.823 2242.22 638.229 2248.47 652.812C2255.76 671.042 2263.57 691.094 2271.91 712.969C2280.24 734.844 2287.79 755.417 2294.56 774.688C2301.85 793.958 2307.84 809.844 2312.53 822.344C2317.22 834.844 2319.56 840.573 2319.56 839.531C2319.56 839.01 2319.82 833.802 2320.34 823.906C2320.86 813.49 2321.39 800.729 2321.91 785.625C2322.43 770 2322.95 753.073 2323.47 734.844C2324.51 716.094 2325.03 698.125 2325.03 680.938C2325.55 663.229 2325.81 647.083 2325.81 632.5C2325.81 617.917 2325.29 606.979 2324.25 599.688C2322.69 590.833 2319.56 580.677 2314.88 569.219C2310.71 559.323 2304.98 547.604 2297.69 534.062C2290.4 520 2280.24 504.115 2267.22 486.406C2288.57 486.927 2306.02 487.188 2319.56 487.188C2333.1 487.188 2344.04 487.188 2352.38 487.188C2361.75 487.188 2369.04 486.927 2374.25 486.406C2381.02 486.406 2389.35 485.885 2399.25 484.844C2408.1 483.802 2419.04 483.021 2432.06 482.5C2445.6 481.458 2462.27 480.156 2482.06 478.594C2470.6 489.01 2461.49 498.906 2454.72 508.281C2447.95 517.656 2442.48 525.99 2438.31 533.281C2433.62 541.615 2430.5 549.427 2428.94 556.719C2426.85 566.094 2425.03 581.458 2423.47 602.812C2422.43 623.646 2421.12 647.083 2419.56 673.125C2418.52 699.167 2417.48 726.25 2416.44 754.375C2415.4 782.5 2414.35 808.281 2413.31 831.719C2413.31 849.427 2412.79 868.438 2411.75 888.75C2410.71 905.938 2409.67 925.469 2408.62 947.344C2407.58 968.698 2406.28 990.312 2404.72 1012.19L2335.19 1013.75C2314.88 977.812 2297.69 947.083 2283.62 921.562C2270.08 895.521 2258.89 874.167 2250.03 857.5C2240.14 838.229 2231.8 822.083 2225.03 809.062C2219.3 796.562 2211.75 782.24 2202.38 766.094C2194.56 752.552 2184.67 735.885 2172.69 716.094C2161.23 696.302 2147.43 673.646 2131.28 648.125C2129.72 684.062 2128.94 714.792 2128.94 740.312C2129.46 765.312 2130.24 786.146 2131.28 802.812C2132.84 822.083 2134.67 838.229 2136.75 851.25C2139.35 863.75 2143 877.812 2147.69 893.438C2151.85 906.979 2156.8 922.865 2162.53 941.094C2168.78 959.323 2176.33 979.896 2185.19 1002.81C2154.46 1001.25 2131.54 1000.47 2116.44 1000.47H2093C2085.71 1000.47 2075.81 1001.25 2063.31 1002.81C2052.9 1003.85 2038.57 1005.42 2020.34 1007.5C2002.64 1009.58 1980.5 1012.45 1953.94 1016.09C1966.44 1000.99 1976.33 987.188 1983.62 974.688C1991.44 961.667 1997.43 950.729 2001.59 941.875C2006.8 931.458 2010.45 922.344 2012.53 914.531C2014.09 906.198 2015.14 891.875 2015.66 871.562C2016.18 850.729 2016.18 827.292 2015.66 801.25C2015.66 774.688 2015.14 746.823 2014.09 717.656C2013.57 688.49 2012.79 661.406 2011.75 636.406C2010.71 611.406 2009.41 590.052 2007.84 572.344C2006.8 554.635 2006.02 543.698 2005.5 539.531C2003.94 532.76 2000.81 525.469 1996.12 517.656C1991.96 510.885 1986.49 503.333 1979.72 495C1972.95 486.146 1963.57 476.51 1951.59 466.094ZM2855.81 455.938C2889.15 455.417 2916.49 461.406 2937.84 473.906C2959.72 486.406 2977.43 501.25 2990.97 518.438C3004.51 535.625 3014.93 553.073 3022.22 570.781C3029.51 587.969 3035.24 601.51 3039.41 611.406C3040.45 614.01 3042.53 617.396 3045.66 621.562C3048.26 625.208 3051.91 629.635 3056.59 634.844C3061.8 639.531 3068.31 645 3076.12 651.25C3059.98 651.771 3045.66 652.292 3033.16 652.812C3020.66 652.812 3009.98 653.073 3001.12 653.594C2991.23 654.115 2982.38 654.635 2974.56 655.156C2966.75 655.677 2957.11 656.458 2945.66 657.5C2935.24 658.542 2922.48 659.583 2907.38 660.625C2892.27 661.667 2873.78 663.229 2851.91 665.312C2864.93 649.688 2875.08 635.885 2882.38 623.906C2890.19 611.406 2895.92 600.469 2899.56 591.094C2903.73 581.198 2906.07 572.604 2906.59 565.312C2907.64 558.021 2907.38 551.771 2905.81 546.562C2902.69 534.583 2894.61 525.99 2881.59 520.781C2844.09 510.365 2811.28 518.698 2783.16 545.781C2755.55 572.344 2735.76 616.094 2723.78 677.031C2718.05 707.24 2712.58 738.75 2707.38 771.562C2702.69 803.854 2700.86 833.542 2701.91 860.625C2702.95 887.188 2708.16 908.802 2717.53 925.469C2726.91 942.135 2743.05 949.948 2765.97 948.906C2788.36 947.865 2807.38 944.219 2823 937.969C2838.62 931.198 2851.12 923.385 2860.5 914.531C2869.88 905.156 2876.39 895.26 2880.03 884.844C2884.2 873.906 2885.76 863.75 2884.72 854.375C2882.64 847.083 2877.17 839.271 2868.31 830.938C2860.5 823.646 2848.78 815.573 2833.16 806.719C2817.53 797.344 2795.14 787.708 2765.97 777.812C2793.57 776.25 2816.23 775.208 2833.94 774.688C2852.17 773.646 2866.49 772.604 2876.91 771.562C2889.41 770.521 2899.04 769.74 2905.81 769.219C2912.06 768.698 2921.18 768.177 2933.16 767.656C2943.57 767.135 2956.85 766.875 2973 766.875C2989.67 766.875 3010.5 766.615 3035.5 766.094C3026.12 775.469 3018.83 784.062 3013.62 791.875C3011.02 796.042 3008.68 799.688 3006.59 802.812C3004.51 808.021 3003.73 818.698 3004.25 834.844C3004.25 848.385 3005.29 868.438 3007.38 895C3009.46 921.042 3013.36 956.719 3019.09 1002.03L2915.19 1016.09L2919.88 910.625C2907.9 939.271 2892.79 960.625 2874.56 974.688C2856.85 988.75 2839.93 998.646 2823.78 1004.38C2804.51 1011.15 2784.46 1014.27 2763.62 1013.75C2736.54 1011.15 2709.46 1004.9 2682.38 995C2655.29 985.104 2631.33 970 2610.5 949.688C2589.67 928.854 2573.52 902.031 2562.06 869.219C2551.12 836.406 2547.74 795.781 2551.91 747.344C2556.59 698.906 2568.05 656.719 2586.28 620.781C2605.03 584.323 2628.21 554.115 2655.81 530.156C2683.42 506.198 2714.41 488.229 2748.78 476.25C2783.68 463.75 2819.35 456.979 2855.81 455.938Z" fill="#FFF7AC"/>
<g clip-path="url(#clip0_65_22)">
<path d="M2302.12 1631.35C3244.38 1631.35 4008.24 1562.33 4008.24 1477.18C4008.24 1392.03 3244.38 1323 2302.12 1323C1359.86 1323 596 1392.03 596 1477.18C596 1562.33 1359.86 1631.35 2302.12 1631.35Z" fill="#FFF7AC"/>
<path fill-rule="evenodd" clip-rule="evenodd" d="M2022.23 1502.53C2707.96 1473.75 2395.92 1598.46 2350.37 1612.17C2340.45 1615.15 2276.35 1631.34 2265.55 1631.33C1341.14 1629.76 596 1561.29 596 1477.18C596 1417.15 975.485 1365.09 1528.8 1339.63C1759.88 1329 1746.02 1514.12 2022.23 1502.53Z" fill="#85D7FF"/>
<path fill-rule="evenodd" clip-rule="evenodd" d="M2503.49 1387.86C2520.59 1395.57 2530.82 1427.16 2502.55 1433.09C2445.46 1445.07 2445.07 1476.04 2427.96 1468.33C2410.86 1460.63 2422.94 1422.41 2440.57 1405.16C2458.19 1387.9 2486.38 1380.15 2503.49 1387.86Z" fill="#85D7FF"/>
</g>
<path fill-rule="evenodd" clip-rule="evenodd" d="M3765.39 721.673C3992.3 756.727 3999.54 881.842 3893.31 997.271C3796.66 1102.28 3615.74 1154.98 3540.93 1090.32C3523.7 1075.43 3519.87 1037.17 3501.73 1047.19C3468.45 1065.58 3416.09 1090.82 3389.24 1104.18C3386.12 1105.73 3371.62 1105.92 3364.25 1099.86C3336.02 1076.67 3335.38 1069.79 3334.34 1047.13C3333.91 1037.76 3338.6 1028.93 3344.58 1024.8C3370.99 1006.48 3430.41 984.365 3473.22 968.35C3492.65 961.088 3467.31 932.159 3463.64 910.393C3443.3 789.795 3636.32 701.733 3765.39 721.673Z" fill="#8B835D"/>
<path fill-rule="evenodd" clip-rule="evenodd" d="M3763.09 714.538C3989.99 749.589 3997.22 874.704 3890.99 990.134C3794.35 1095.15 3613.44 1147.85 3538.63 1083.19C3521.4 1068.29 3517.57 1030.04 3499.44 1040.06C3466.16 1058.45 3410.58 1087.35 3383.2 1099.58C3377.4 1102.16 3369.34 1098.79 3361.96 1092.73C3333.73 1069.53 3333.1 1062.66 3332.05 1039.99C3331.63 1030.63 3336.31 1021.8 3342.29 1017.66C3368.71 999.35 3428.12 977.234 3470.93 961.218C3490.36 953.956 3465.02 925.027 3461.35 903.261C3441.01 782.663 3634.02 694.599 3763.09 714.538Z" fill="#DCD196"/>
<path fill-rule="evenodd" clip-rule="evenodd" d="M3761.28 717.446C3979.75 750.963 3986.02 872.947 3883 985.818C3820.84 1053.92 3715.12 1106.27 3632.05 1103.97C3620.14 1103.65 3475.18 838.278 3496.7 811.667C3551.15 744.328 3672.2 703.785 3761.28 717.446Z" fill="#DA82A7"/>
<path fill-rule="evenodd" clip-rule="evenodd" d="M3362.77 1015.21C3397.69 1028.85 3407.16 1063.13 3392.8 1091.15C3380.02 1116.11 3348.79 1092.11 3336.63 1073.12C3324.46 1054.12 3327.56 1001.46 3362.77 1015.21Z" fill="#8B835D"/>
<path d="M3662.36 595.839C3708.11 595.839 3745.2 560.817 3745.2 517.616C3745.2 474.415 3708.11 439.394 3662.36 439.394C3616.6 439.394 3579.51 474.415 3579.51 517.616C3579.51 560.817 3616.6 595.839 3662.36 595.839Z" fill="#D4D2CB"/>
<path d="M3653.84 582.445C3699.6 582.445 3736.69 547.423 3736.69 504.222C3736.69 461.021 3699.6 426 3653.84 426C3608.09 426 3571 461.021 3571 504.222C3571 547.423 3608.09 582.445 3653.84 582.445Z" fill="#F1F0EA"/>
<defs>
<clipPath id="clip0_65_22">
<rect width="3414" height="309" fill="white" transform="translate(596 1323)"/>
</clipPath>
</defs>
</svg>
