<svg width="1949" height="904" viewBox="0 0 1949 904" fill="none" xmlns="http://www.w3.org/2000/svg">
<path fill-rule="evenodd" clip-rule="evenodd" d="M1948.02 239.864V682.247C1948.02 804.325 1843.05 903.437 1713.76 903.437H235.102C105.812 903.437 0.845215 804.325 0.845215 682.247V239.864C0.845215 117.785 105.812 18.6738 235.102 18.6738H1713.76C1843.05 18.6738 1948.02 117.785 1948.02 239.864Z" fill="#EE9C47"/>
<path fill-rule="evenodd" clip-rule="evenodd" d="M1922.23 213.281V639.835C1922.23 757.545 1821 853.111 1696.34 853.111H227.589C102.926 853.111 1.70435 757.545 1.70435 639.835V213.281C1.70435 95.5697 102.926 0.00439453 227.589 0.00439453H1696.34C1821 0.00439453 1922.23 95.5697 1922.23 213.281Z" fill="#FFF6DD"/>
</svg>
