<svg width="1382" height="599" viewBox="0 0 1382 599" fill="none" xmlns="http://www.w3.org/2000/svg">
<g clip-path="url(#clip0_1_519)">
<path d="M1377.26 171.903C1360.01 174.13 1350.87 158.864 1333.64 158.62C1321.75 158.451 1315.59 162.556 1310.43 173.226C1277.36 241.664 1243.61 309.774 1210.05 377.976C1207.34 383.499 1204.39 388.903 1199.42 398.447C1189.66 379.093 1181.1 362.588 1172.95 345.89C1153.45 305.927 1134.08 265.898 1114.76 225.843C1105.72 207.095 1097.6 187.863 1087.61 169.646C1084.85 164.617 1077.06 159.818 1071.29 159.446C1052.24 158.214 1036.84 163.392 1016.17 163.456C1012.97 163.466 1008.69 143.862 1008.69 143.862C1008.69 143.862 1057.18 139.709 1078.39 144.488C1101.36 149.662 1151.13 280.738 1185.18 349.857C1187.57 354.713 1190.28 359.407 1193.22 364.879C1230.44 290.278 1258.29 234.26 1296.37 162.265C1308.66 139.022 1363.24 141.09 1381.06 141.09C1382.28 147.919 1382.25 148.901 1384.34 155.632C1385.38 158.004 1377.26 169.27 1377.26 171.903Z" fill="#FFF7AB"/>
<path d="M322.989 227.803C319.222 226.76 316.015 219.671 312.906 216.743C261.448 168.329 199.387 154.941 132.135 165.805C97.6693 171.368 69.188 187.132 35.3678 196.638C23.2914 200.032 13.0936 203.477 13.0463 217.593C12.7287 314.377 11.1811 411.158 10.208 507.942C9.9005 538.362 28.5491 566.617 28.5423 598.628C26.2987 598.536 3.82511 599.166 3.68657 597.325C3.0074 588.384 3.37909 579.362 3.37909 570.366C3.37909 438.833 6.62966 310.553 6.62966 177.433C38.2467 158.285 64.9136 148.789 96.7435 141.638C161.086 127.184 223.854 132.981 278.928 172.685C296.498 185.352 317.306 206.442 322.989 227.803Z" fill="#FFF7AC"/>
<path d="M878.05 240.297C882.365 248.294 870.971 256.277 874.542 266.883C839.469 269.523 808.919 271.459 778.448 274.21C741.087 277.581 704.114 282.41 669.523 298.942C634.703 315.582 618.643 365.167 613.912 404.768C599.92 370.591 609.34 298.041 649.641 276.914C685.06 258.348 722.661 249.675 762.083 247.045C795.505 244.815 843.006 242.541 878.05 240.297Z" fill="#FFF7AC"/>
<path fill-rule="evenodd" clip-rule="evenodd" d="M931.272 218.185C916.844 206.459 901.75 180.739 885.254 172.106C865.913 161.98 843.368 156.363 821.563 152.907C765.577 144.027 710.111 152.427 655.105 163.07C651.199 163.825 646.718 171.009 645.803 175.832C644.046 185.094 644.12 209.992 642.839 220.54C640.633 203.366 642.478 183.802 642.262 163.997C641.998 155.503 648.073 148.132 656.453 146.789C697.65 140.636 796.691 128.474 838.381 138.159C890.244 150.214 924.234 182.292 931.272 218.185Z" fill="#FFF7AC"/>
<path d="M1151.66 450.654C1155.44 457.886 1162.71 467.954 1160.14 473.044C1139.3 514.348 1120.41 567.199 1097.23 608.171C1087.75 596.766 1084.69 573.023 1091.71 560.407C1111.81 524.267 1131.03 487.627 1151.66 450.654Z" fill="#FFF7AC"/>
<path d="M642.782 220.537C643.603 220.202 644.303 220.875 645.181 222.375C644.292 223.021 643.394 222.466 642.782 220.537Z" fill="#FFF7AC"/>
<path d="M74.5301 339.64C123.765 339.677 171.919 336.168 216.724 312.834C236.974 302.289 252.159 287.534 260.698 264.738C273.555 270.179 270.94 280.972 268.392 291.412C260.137 325.203 235.677 348.584 207.104 359.86C166.127 376.03 120.346 367.234 74.4287 364.818C74.4287 356.425 74.4287 348.808 74.5301 339.64Z" fill="#FFF7AC"/>
<path d="M679.289 387.005C702.735 413.405 735.129 416.826 766.598 411.432C794.63 406.63 821.334 393.712 848.406 383.786C860.425 379.38 867.055 371.309 865.342 356.845C863.828 344.087 864.473 323.409 864.443 308.905C866.68 308.607 871.43 317.44 871.451 318.746C871.846 344.08 872.076 369.427 871.447 394.751C871.343 399.049 868.204 404.975 864.632 407.218C819.171 435.771 770.237 448.522 716.93 435.933C693.933 430.498 680.36 411.994 679.289 387.005Z" fill="#FFF7AC"/>
<path d="M324.047 223.589C357.681 278.758 347.352 327.694 297.34 368.842C245.145 411.784 181.468 426.227 117.609 439.835C107.364 442.018 96.9124 443.219 87.8567 444.668C87.8567 496.409 87.8567 547.811 87.8533 600.797C63.0044 602.384 38.152 602.384 11.7116 600.797C10.1336 568.789 9.90043 538.362 10.2079 507.942C11.1811 411.158 12.7286 314.377 13.0463 217.593C13.0936 203.477 19.1081 198.651 30.4953 193.382C68.6473 175.737 93.8781 170.285 128.344 164.718C195.595 153.858 262.533 162.363 313.991 210.777C317.1 213.701 320.306 221.336 324.047 223.589ZM74.4287 341.19V364.818C120.346 367.234 163.417 366.808 204.398 350.638C232.967 339.362 262.249 326.079 265.141 291.412C268.774 247.881 229.801 229.288 208.243 223.952C164.962 213.244 122.883 221.87 82.1665 237.553C78.2976 239.045 74.797 246.906 74.6922 251.888C74.0773 280.61 74.5368 309.355 74.4287 341.19Z" fill="#F7E777"/>
<path d="M1152.73 450.123C1135.41 414.511 1118.21 378.835 1100.73 343.295C1070.93 282.667 1040.95 222.121 1012.48 160.319C1033.05 159.053 1052.24 158.214 1071.29 159.446C1077.06 159.818 1084.85 164.617 1087.61 169.646C1097.6 187.863 1105.73 207.095 1114.76 225.843C1134.08 265.898 1153.45 305.927 1172.95 345.89C1181.1 362.588 1189.66 379.093 1199.42 398.447C1204.39 388.903 1207.34 383.499 1210.05 377.976C1243.61 309.774 1277.36 241.664 1310.43 173.226C1315.59 162.556 1321.75 158.451 1333.64 158.62C1350.87 158.864 1368.13 156.769 1385.38 155.672C1385.38 158.21 1385.38 160.749 1384.35 165.121C1357.01 219.545 1330.84 272.21 1304.34 324.705C1277.11 378.639 1249.29 432.275 1222.25 486.293C1202.98 524.771 1184.55 563.673 1165.75 602.384H1092.99C1091.6 600.963 1091.8 599.545 1093.25 596.753C1116.62 554.725 1139.3 514.348 1160.14 473.044C1162.71 467.954 1155.44 457.886 1152.73 450.123Z" fill="#F7E778"/>
<path d="M519.889 11.5198C520.828 11.5198 529.316 20.3288 529.137 27.3645C526.207 141.134 528.289 348.425 528.289 455.524C528.289 462.154 515.29 449.257 515.29 457.897C494.016 457.897 471.235 467.579 451.765 466.689C448.295 466.53 439.858 454.485 439.838 444.519C439.577 298.529 439.615 158.501 439.425 10.9309C460.736 9.35049 496.834 11.5198 519.889 11.5198Z" fill="#FFF7AC"/>
<path fill-rule="evenodd" clip-rule="evenodd" d="M527.64 26.3327C528.836 26.3327 529.806 27.304 529.806 28.502C529.806 60.4046 529.806 433.829 529.806 465.728C529.806 466.926 528.836 467.897 527.64 467.897C516.131 467.897 462.24 467.897 450.728 467.897C449.532 467.897 448.562 466.926 448.562 465.728C448.562 433.829 448.562 60.4046 448.562 28.502C448.562 27.304 449.532 26.3327 450.728 26.3327C462.24 26.3327 516.131 26.3327 527.64 26.3327Z" fill="#F7E777"/>
<path d="M865.592 240.307C860.777 220.171 840.334 207.312 811.971 202.811C755.214 193.802 701.424 205.87 646.458 222.381C644.303 220.875 643.603 220.202 642.731 219.708C642.66 216.151 642.593 212.598 643.407 206.685C644.661 194.804 644.046 185.094 645.803 175.832C646.719 171.009 651.199 163.825 655.105 163.07C710.112 152.427 765.577 144.027 821.564 152.907C843.368 156.363 865.913 161.98 885.254 172.106C901.75 180.739 916.844 190.184 928.342 210.256C932.012 229.935 938.463 249.556 938.848 269.3C940.162 336.902 939.358 404.548 939.307 472.178C939.304 475.447 938.767 478.716 938.395 482.899H869.825C869.261 473.427 868.741 464.668 868.207 455.7C846.821 465.095 826.666 476.185 805.148 482.919C764.679 495.583 723.438 499.739 682.252 484.253C634.568 466.323 611.337 436.13 609.601 382.876C614.311 341.839 634.703 315.582 669.523 298.942C704.114 282.41 741.087 277.581 778.448 274.21C808.919 271.459 835.678 268.44 870.751 265.8C869.886 255.194 868.281 248.294 865.592 240.307ZM679.197 388.406C680.36 411.994 693.933 430.498 716.93 435.933C770.237 448.522 819.171 435.771 864.632 407.218C868.204 404.975 871.343 399.049 871.447 394.751C872.076 369.427 871.846 344.08 871.451 318.746C871.43 317.44 867.22 316.201 861.878 314.79C838.546 315.913 815.052 315.697 791.937 318.546C769 321.369 745.966 325.666 723.837 332.239C694.268 341.021 680.542 359.302 679.197 388.406Z" fill="#F7E778"/>
</g>
<defs>
<clipPath id="clip0_1_519">
<rect width="1382" height="599" fill="white"/>
</clipPath>
</defs>
</svg>
