<svg width="728" height="572" viewBox="0 0 728 572" fill="none" xmlns="http://www.w3.org/2000/svg">
<path fill-rule="evenodd" clip-rule="evenodd" d="M480.394 74.6731C707.304 109.727 714.538 234.842 608.307 350.271C511.659 455.281 330.736 507.984 255.926 443.322C238.697 428.425 234.865 390.171 216.734 400.19C183.448 418.585 131.092 443.824 104.238 457.184C101.12 458.734 86.6243 458.923 79.2452 452.862C51.0184 429.665 50.3805 422.791 49.3388 400.125C48.9126 390.758 53.598 381.933 59.5764 377.795C85.9938 359.481 145.406 337.365 188.22 321.35C207.654 314.088 182.308 285.159 178.637 263.393C158.3 142.795 351.317 54.7326 480.394 74.6731Z" fill="#8B835D"/>
<path fill-rule="evenodd" clip-rule="evenodd" d="M478.09 67.5379C704.989 102.589 712.221 227.704 605.995 343.134C509.351 448.145 328.437 500.85 253.631 436.189C236.402 421.292 232.572 383.038 214.441 393.057C181.157 411.453 125.58 440.354 98.1981 452.578C92.4047 455.16 84.3375 451.792 76.9588 445.731C48.7336 422.535 48.0957 415.66 47.0542 392.994C46.6281 383.628 51.3133 374.802 57.2915 370.665C83.7077 352.35 143.117 330.234 185.929 314.218C205.362 306.956 180.018 278.027 176.347 256.261C156.011 135.663 349.019 47.5989 478.09 67.5379Z" fill="#DCD196"/>
<path fill-rule="evenodd" clip-rule="evenodd" d="M476.281 70.4461C694.751 103.963 701.021 225.947 598.001 338.818C535.837 406.924 430.122 459.271 347.055 456.974C335.142 456.648 190.184 191.278 211.7 164.667C266.147 97.3278 387.197 56.7849 476.281 70.4461Z" fill="#DA82A7"/>
<path fill-rule="evenodd" clip-rule="evenodd" d="M77.7717 368.214C112.695 381.845 122.159 416.13 107.799 444.15C95.0217 469.106 63.788 445.109 51.6264 426.115C39.4618 407.116 42.5574 354.464 77.7717 368.214Z" fill="#8B835D"/>
</svg>
