<svg width="105" height="107" viewBox="0 0 105 107" fill="none" xmlns="http://www.w3.org/2000/svg">
<path d="M52.5 106.284C81.4949 106.284 105 82.4918 105 53.1422C105 23.7926 81.4949 0 52.5 0C23.5051 0 0 23.7926 0 53.1422C0 82.4918 23.5051 106.284 52.5 106.284Z" fill="#EE9C47"/>
<path d="M52.0363 100.453C78.2157 100.453 99.4384 79.2712 99.4384 53.1417C99.4384 27.0121 78.2157 5.82996 52.0363 5.82996C25.8569 5.82996 4.63428 27.0121 4.63428 53.1417C4.63428 79.2712 25.8569 100.453 52.0363 100.453Z" fill="#FFF6DD"/>
<path fill-rule="evenodd" clip-rule="evenodd" d="M18.2705 54.3141C18.2705 40.5461 44.7063 32.173 55.0275 29.4271C55.8267 29.2204 56.6698 29.4853 57.2294 30.1184C57.7889 30.7516 57.9769 31.6496 57.7205 32.4702C53.2711 46.8067 53.5879 59.7801 57.8986 71.8166C58.1821 72.5983 58.0533 73.4834 57.5578 74.136C57.063 74.7885 56.276 75.1245 55.486 75.0146C45.2492 73.4963 18.2705 68.1791 18.2705 54.3141Z" fill="#EE9C47"/>
<path fill-rule="evenodd" clip-rule="evenodd" d="M60.3231 37.5718C59.5769 37.5718 62.7968 45.2536 62.7968 51.4814C62.7968 57.7092 59.8499 65.7618 60.5965 65.7618C61.3427 65.7618 66.0481 56.5843 66.0481 50.3564C66.0481 44.128 61.0692 37.5718 60.3231 37.5718Z" fill="#EE9C47"/>
<path fill-rule="evenodd" clip-rule="evenodd" d="M66.2648 32.6613C64.9794 32.6613 70.5264 42.9633 70.5264 51.3155C70.5264 59.6678 65.4496 70.4672 66.7359 70.4672C68.0213 70.4672 76.1274 58.159 76.1274 49.8068C76.1274 41.4539 67.5502 32.6613 66.2648 32.6613Z" fill="#EE9C47"/>
<path fill-rule="evenodd" clip-rule="evenodd" d="M77.7317 28.9451C76.54 28.9451 81.6827 40.608 81.6827 50.0636C81.6827 59.5192 76.976 71.7452 78.1685 71.7452C79.3602 71.7452 86.8755 57.8111 86.8755 48.3556C86.8755 38.8992 78.9235 28.9451 77.7317 28.9451Z" fill="#EE9C47"/>
</svg>
