<svg width="95" height="113" viewBox="0 0 95 113" fill="none" xmlns="http://www.w3.org/2000/svg">
<path d="M43.847 112.394C45.5088 112.394 46.8561 101.874 46.8561 88.8979C46.8561 75.9215 45.5088 65.4021 43.847 65.4021C42.1851 65.4021 40.8379 75.9215 40.8379 88.8979C40.8379 101.874 42.1851 112.394 43.847 112.394Z" fill="#FFF5B5"/>
<path d="M41.6982 42.6319C43.1226 42.6319 44.2772 33.0884 44.2772 21.3159C44.2772 9.54345 43.1226 0 41.6982 0C40.2738 0 39.1191 9.54345 39.1191 21.3159C39.1191 33.0884 40.2738 42.6319 41.6982 42.6319Z" fill="#FFF5B5"/>
<path d="M16.5502 57.6519C25.6907 57.6519 33.1005 56.242 33.1005 54.5028C33.1005 52.7636 25.6907 51.3536 16.5502 51.3536C7.40979 51.3536 0 52.7636 0 54.5028C0 56.242 7.40979 57.6519 16.5502 57.6519Z" fill="#FFF5B5"/>
<path d="M74.1511 57.6512C85.6656 57.6512 95 56.35 95 54.7448C95 53.1396 85.6656 51.8383 74.1511 51.8383C62.6366 51.8383 53.3022 53.1396 53.3022 54.7448C53.3022 56.35 62.6366 57.6512 74.1511 57.6512Z" fill="#FFF5B5"/>
</svg>
