<svg width="840" height="1167" viewBox="0 0 840 1167" fill="none" xmlns="http://www.w3.org/2000/svg">
<path fill-rule="evenodd" clip-rule="evenodd" d="M208.487 0H625.459C740.527 0 833.947 93.4281 833.947 208.49V953.092C833.947 1068.16 740.527 1161.58 625.459 1161.58H208.487C93.4193 1161.58 0 1068.16 0 953.092V208.49C0 93.4281 93.4193 0 208.487 0Z" fill="#FFD9A9"/>
<path fill-rule="evenodd" clip-rule="evenodd" d="M198.33 398.649C198.33 378.599 217.489 370.509 237.482 362.319C288.033 341.579 276.634 378.599 276.634 398.649C276.634 418.699 305.481 448.939 237.482 434.979C216.315 430.639 198.33 418.699 198.33 398.649Z" fill="#729743"/>
<path fill-rule="evenodd" clip-rule="evenodd" d="M296.327 514.075C286.108 506.152 210.361 463.852 264.553 382.763C275.038 367.081 445.928 343.728 503.164 331.203C544.528 322.148 658.632 367.711 609.066 470.276C608.698 471.03 608.035 474.381 610.748 476.609C620.992 484.986 632.201 500.264 640.702 515.892C653.274 539.001 674.154 566.325 659.605 565.327C621.265 562.693 567.523 505.53 557.014 511.163C489.504 547.385 370.402 571.504 296.327 514.075Z" fill="#ACC88B"/>
<path fill-rule="evenodd" clip-rule="evenodd" d="M632.642 464.866C632.642 425.31 630.062 395.301 641.782 378.194C646.822 370.822 643.523 475.919 652.333 495.116C661.603 515.318 666.413 504.475 666.513 502.499C668.643 456.292 670.503 446.725 670.583 436.937C670.713 419.873 670.182 397.36 669.782 387.835C669.672 385.21 675.873 379.877 676.823 381.53C687.293 399.577 698.993 432.755 698.993 469.708C698.993 526.308 689.433 567.432 669.233 567.432C649.043 567.432 632.642 521.477 632.642 464.866Z" fill="#95B76A"/>
<path fill-rule="evenodd" clip-rule="evenodd" d="M668.602 523.475C673.449 516.449 666.688 462.682 673.269 439.421C675.949 429.952 682.728 430.4 688.2 430.748C694.127 431.123 703.46 464.429 698.146 501.543C696.599 512.328 692.874 550.054 682.734 560.268C676.421 566.619 668.648 572.956 660.35 561.8C652.737 551.564 637.312 533.778 635.105 500.315C634.384 489.371 655.892 541.896 668.602 523.475Z" fill="#95B76A"/>
<path fill-rule="evenodd" clip-rule="evenodd" d="M364.254 512.566C363.463 512.006 356.782 500.89 371.742 509.762C414.789 535.288 457.306 518.088 483.547 501.561C494.31 494.784 494.59 503.362 492.873 504.723C469.297 523.39 410.681 545.332 364.254 512.566Z" fill="#729743"/>
<path fill-rule="evenodd" clip-rule="evenodd" d="M270.567 398.764C291.592 445.609 476.55 419.102 492.299 357.924L270.567 398.764Z" fill="#729743"/>
<path fill-rule="evenodd" clip-rule="evenodd" d="M273.745 403.57C320.273 429.39 486.46 382.379 492.104 358.529C467.267 357.769 357.533 418.69 273.745 403.57Z" fill="#404835"/>
<path fill-rule="evenodd" clip-rule="evenodd" d="M466.348 257.772C507.471 257.487 523.178 321.425 492.549 358.233C468.299 387.369 318.312 416.72 279.68 405.517C237.164 393.185 215.089 348.449 226.846 326.517C251.181 281.112 301.866 308.202 311.913 316.665C328.807 309.163 344.404 301.663 372.18 296.596C386.45 293.999 398.956 294.06 412.312 293.565C417.827 273.098 439.942 257.958 466.348 257.772Z" fill="#95B76A"/>
<path d="M356.003 376.716C354.685 374.055 352.603 372.227 351.351 372.633C350.1 373.04 350.154 375.527 351.471 378.188C352.789 380.849 354.872 382.677 356.123 382.27C357.374 381.864 357.321 379.377 356.003 376.716Z" fill="#729743"/>
<path d="M408.201 362.255C407.053 359.543 405.088 357.631 403.813 357.985C402.537 358.339 402.434 360.825 403.582 363.537C404.73 366.249 406.695 368.161 407.97 367.807C409.246 367.453 409.349 364.967 408.201 362.255Z" fill="#729743"/>
<path d="M513.648 298.225C513.648 279.859 497.561 264.971 477.716 264.971C457.871 264.971 441.784 279.859 441.784 298.225C441.784 316.591 457.871 331.479 477.716 331.479C497.561 331.479 513.648 316.591 513.648 298.225Z" fill="#404835"/>
<path d="M294.038 346.878C294.038 328.513 277.951 313.624 258.106 313.624C238.262 313.624 222.174 328.513 222.174 346.878C222.174 365.244 238.262 380.132 258.106 380.132C277.951 380.132 294.038 365.244 294.038 346.878Z" fill="#404835"/>
<path fill-rule="evenodd" clip-rule="evenodd" d="M422.822 336.553C398.371 297.861 439.037 240.849 490.322 266.589C478.12 252.562 424.615 248.799 412.089 294.897C405.106 320.574 428.68 345.821 422.822 336.553Z" fill="#729743"/>
<path fill-rule="evenodd" clip-rule="evenodd" d="M226.957 328.91C247.75 288.136 317.533 294.009 321.572 351.249C327.408 333.597 303.337 285.665 257.301 298.42C231.656 305.519 221.977 338.678 226.957 328.91Z" fill="#729743"/>
<path fill-rule="evenodd" clip-rule="evenodd" d="M47.0249 415.223C25.9654 408.556 50.5982 385.823 64.7873 401.364C91.4176 430.525 138.397 388.091 181.453 383.349C222.065 378.864 250.604 403.124 205.494 429.298C194.812 435.498 128.408 460.947 75.9885 472.516C32.5384 482.092 42.0814 443.148 65.5508 453.41C98.0796 467.63 134.57 443.017 139.799 441.348C184.366 427.092 182.389 401.17 138.145 419.098C121.547 425.822 98.2884 431.469 47.0249 415.223Z" fill="#95B76A"/>
<path d="M76.9316 460.912C76.9316 453.827 69.5722 448.083 60.494 448.083C51.4157 448.083 44.0564 453.827 44.0564 460.912C44.0564 467.998 51.4157 473.741 60.494 473.741C69.5722 473.741 76.9316 467.998 76.9316 460.912Z" fill="#729743"/>
<path d="M67.3055 405.787C67.3055 399.034 60.3949 393.559 51.8703 393.559C43.3456 393.559 36.4351 399.034 36.4351 405.787C36.4351 412.54 43.3456 418.015 51.8703 418.015C60.3949 418.015 67.3055 412.54 67.3055 405.787Z" fill="#729743"/>
<path fill-rule="evenodd" clip-rule="evenodd" d="M234.318 555.244C293.858 533.654 255.098 529.814 244.718 529.234C204.224 526.954 173.61 535.454 138.934 541.004C122.928 543.564 127.263 519.994 132.191 518.134C154.829 509.604 167.872 508.284 209.808 500.944C248.198 494.224 267.908 499.354 267.908 499.354C267.908 499.354 344.328 538.624 345.638 552.134C346.508 561.164 359.038 554.834 202.385 587.154C157.018 596.524 167.707 601.744 157.438 597.624C147.169 593.514 143.134 579.634 148.198 578.634C170.591 574.204 206.988 565.154 234.318 555.244Z" fill="#95B76A"/>
<path fill-rule="evenodd" clip-rule="evenodd" d="M32.4351 108.667C40.5365 93.822 59.1754 69.2057 59.0701 72.7738C73.8195 363.473 277.85 948.016 389.357 1100.81C429.685 1156.09 432.063 1156.59 451.06 1104.42C490.455 996.23 553.406 482.54 634.757 413.365C654.568 396.519 595.492 300.427 719.799 306.42C839.991 312.226 782.837 241.82 782.837 241.82C782.837 241.82 824.131 276.793 800.064 325.342C764.686 396.742 700.845 389.208 659.963 410.468C566.845 458.868 523.01 1072.68 468.016 1159.2C467.007 1160.79 467.322 1162.48 466.258 1162.47C450.561 1162.12 368.428 1161.92 367.907 1162.38C360.308 1172.18 80.7605 547.251 32.4351 108.667Z" fill="#608560"/>
<path fill-rule="evenodd" clip-rule="evenodd" d="M553.796 415.152C527.866 383.669 521.221 367.716 522.329 356.323C526.69 311.523 568.771 339.772 585.383 354.195C611.296 376.719 618.997 412.617 702.989 410.723C718.697 410.359 708.56 454.314 598.808 397.087C583.832 389.292 579.113 395.178 594.838 420.586C603.203 434.107 637.277 446.563 663.48 450.234C684.112 453.134 672.442 459.515 659.119 459.384C635.369 459.136 574.121 439.818 553.796 415.152Z" fill="#729743"/>
<path d="M714.776 417.459C714.776 411.64 709.446 406.922 702.871 406.922C696.296 406.922 690.966 411.64 690.966 417.459C690.966 423.278 696.296 427.996 702.871 427.996C709.446 427.996 714.776 423.278 714.776 417.459Z" fill="#ACC88B"/>
<path d="M682.482 452.902C682.482 447.461 677.213 443.049 670.714 443.049C664.214 443.049 658.945 447.461 658.945 452.902C658.945 458.343 664.214 462.754 670.714 462.754C677.213 462.754 682.482 458.343 682.482 452.902Z" fill="#ACC88B"/>
<path fill-rule="evenodd" clip-rule="evenodd" d="M271.086 543.064C246.277 529.414 268.62 492.474 268.62 492.474C302.948 520.984 343.291 540.924 386.934 547.064C386.934 547.064 386.104 558.754 359.508 561.634C332.846 564.514 309.341 564.114 271.086 543.064Z" fill="#729743"/>
<path fill-rule="evenodd" clip-rule="evenodd" d="M5.38478 716.013L5.20443 642.22C467.858 1044.88 452.471 1154.41 447.105 1160.4C445.893 1161.76 444.903 1162.37 444.903 1162.37C418.03 1161.89 382.393 1162.47 352.934 1162.4C351.5 1158.47 351.115 1205.98 5.38478 716.013Z" fill="#486C48"/>
<path d="M141.772 529.774C141.772 521.692 134.144 515.141 124.735 515.141C115.327 515.141 107.699 521.692 107.699 529.774C107.699 537.855 115.327 544.407 124.735 544.407C134.144 544.407 141.772 537.855 141.772 529.774Z" fill="#729743"/>
<path d="M153.997 588.744C153.997 580.663 147.446 574.111 139.364 574.111C131.282 574.111 124.73 580.663 124.73 588.744C124.73 596.826 131.282 603.377 139.364 603.377C147.446 603.377 153.997 596.826 153.997 588.744Z" fill="#729743"/>
<path fill-rule="evenodd" clip-rule="evenodd" d="M211.629 2.57105H628.601C743.669 2.57105 837.089 95.9991 837.089 211.061V955.663C837.089 1070.73 743.669 1164.15 628.601 1164.15H211.629C96.5614 1164.15 3.14209 1070.73 3.14209 955.663V211.061C3.14209 95.9991 96.5614 2.57105 211.629 2.57105Z" stroke="black" stroke-width="3.94895" stroke-miterlimit="1.5" stroke-linecap="round" stroke-linejoin="round"/>
</svg>
