<svg width="602" height="860" viewBox="0 0 602 860" fill="none" xmlns="http://www.w3.org/2000/svg">
<path fill-rule="evenodd" clip-rule="evenodd" d="M153 5H448.999C530.683 5 597 73.3333 597 157.489V702.091C597 786.25 530.683 854.576 448.999 854.576H153C71.3162 854.576 5 786.25 5 702.091V157.489C5 73.3333 71.3162 5 153 5Z" fill="#F0F7F7" stroke="#B0D5D5" stroke-width="10" stroke-miterlimit="1.5" stroke-linecap="round" stroke-linejoin="round"/>
<path fill-rule="evenodd" clip-rule="evenodd" d="M374.97 409.179C442.412 428.769 517.471 550.792 517.471 602.963C517.471 673.136 405.504 661.992 300.3 661.992C195.085 661.992 89.0544 668.031 89.0544 597.858C89.0544 547.873 151.71 432.541 214.67 411.77C188.057 388.446 171.142 353.525 171.142 314.527C171.142 244.349 225.915 187.377 293.385 187.377C360.847 187.377 415.619 244.349 415.619 314.527C415.619 352.1 399.92 385.893 374.97 409.179Z" fill="#B0D5D5"/>
</svg>
