<svg width="838" height="1166" viewBox="0 0 838 1166" fill="none" xmlns="http://www.w3.org/2000/svg">
<path fill-rule="evenodd" clip-rule="evenodd" d="M210.487 2H627.459C742.527 2 835.947 95.4281 835.947 210.49V955.092C835.947 1070.16 742.527 1163.58 627.459 1163.58H210.487C95.4193 1163.58 2 1070.16 2 955.092V210.49C2 95.4281 95.4193 2 210.487 2Z" fill="#C2BDF8" stroke="black" stroke-width="3.94895" stroke-miterlimit="1.5" stroke-linecap="round" stroke-linejoin="round"/>
<path fill-rule="evenodd" clip-rule="evenodd" d="M322.997 1163.58H271.814C271.814 1163.48 271.814 1163.38 271.814 1163.28L271.763 728.331H239.102C235.517 728.331 232.05 726.993 229.518 724.612C226.969 722.23 225.542 718.999 225.542 715.631V660.742C225.542 657.373 226.969 654.143 229.518 651.761C232.05 649.38 235.517 648.042 239.102 648.042H591.095C594.698 648.042 598.148 649.38 600.697 651.761C603.228 654.143 604.673 657.373 604.673 660.742V715.631C604.673 718.999 603.228 722.23 600.697 724.612C598.148 726.993 594.698 728.331 591.095 728.331H552.521L552.572 1161.61C552.572 1162.28 552.521 1162.94 552.419 1163.58H501.542C501.44 1162.94 501.389 1162.29 501.389 1161.62L501.338 728.331H322.946L322.997 1163.27C322.997 1163.37 322.997 1163.48 322.997 1163.58Z" fill="#744C31"/>
<path fill-rule="evenodd" clip-rule="evenodd" d="M267.154 560.094C270.123 509.73 330.346 466.054 423.085 466.054C515.807 466.054 571.647 533.844 571.647 584.295C571.647 634.745 515.807 648.874 423.085 648.874C330.346 648.874 262.415 640.532 267.154 560.094Z" fill="#CCCCCC"/>
<path fill-rule="evenodd" clip-rule="evenodd" d="M554.876 582.65C554.876 581.074 545.836 578.493 546.146 576.827C546.546 574.731 559.776 577.42 561.046 575.619C561.876 574.444 550.095 566.912 551.745 564.215C552.525 562.937 561.166 560.483 561.366 558.905C561.566 557.272 551.865 555.568 552.965 554.414C554.905 552.401 562.925 549.051 564.195 551.233C567.485 556.879 571.455 563.874 571.455 580.956C571.455 596.062 570.495 603.997 561.755 615.195C559.575 617.98 549.115 617.988 544.415 613.551C544.295 613.436 555.915 611.162 555.675 608.651C555.475 606.621 543.415 604.272 543.255 604.056C541.975 602.36 561.635 598.54 560.965 596.504C560.205 594.169 545.915 591.23 545.435 588.914C544.865 586.117 554.876 585.1 554.876 582.65Z" fill="#EBEBEB"/>
<path fill-rule="evenodd" clip-rule="evenodd" d="M464.029 610.896C464.029 593.212 480.948 578.855 501.773 578.855C514.586 578.855 482.637 582.301 473.896 595.816C469.427 602.692 467.407 617.035 474.194 626.917C484.192 641.5 522.598 642.938 501.773 642.938C480.948 642.938 464.029 628.581 464.029 610.896Z" fill="#A19D9D"/>
<path fill-rule="evenodd" clip-rule="evenodd" d="M345.239 615.944C345.239 598.26 362.158 583.903 382.983 583.903C395.796 583.903 363.847 587.349 355.106 600.864C350.637 607.74 348.617 622.083 355.404 631.965C365.402 646.548 403.808 647.986 382.983 647.986C362.158 647.986 345.239 633.629 345.239 615.944Z" fill="#A19D9D"/>
<path fill-rule="evenodd" clip-rule="evenodd" d="M431.59 453.326C431.475 508.868 399.492 536.171 365.309 549.831C343.516 558.539 318.011 554.275 305.707 549.159C277.292 537.342 236.538 499.808 235.405 455.814C232.969 456.001 230.504 456.095 228.024 456.095C173.868 456.095 129.91 410.92 129.91 355.276C129.91 299.631 173.868 254.456 228.024 254.456C281.284 254.456 324.697 298.172 326.095 352.565C328.531 352.379 330.997 352.284 333.476 352.284C337.375 352.284 341.216 352.517 344.992 352.972C345.107 297.43 389.029 252.375 443.106 252.375C497.247 252.375 541.213 297.55 541.213 353.194C541.213 408.838 497.247 454.014 443.106 454.014C439.208 454.014 435.367 453.781 431.59 453.326Z" fill="#EBEBEB"/>
<path d="M349.498 548.344C349.498 539.97 342.706 533.182 334.328 533.182C325.95 533.182 319.158 539.97 319.158 548.344C319.158 556.717 325.95 563.505 334.328 563.505C342.706 563.505 349.498 556.717 349.498 548.344Z" fill="#3E4D59"/>
<path d="M369.256 454.812C369.256 449.573 366.568 445.326 363.253 445.326C359.938 445.326 357.25 449.573 357.25 454.812C357.25 460.052 359.938 464.299 363.253 464.299C366.568 464.299 369.256 460.052 369.256 454.812Z" fill="#3E4D59"/>
<path d="M313.38 454.812C313.38 449.573 310.693 445.326 307.377 445.326C304.062 445.326 301.375 449.573 301.375 454.812C301.375 460.052 304.062 464.299 307.377 464.299C310.693 464.299 313.38 460.052 313.38 454.812Z" fill="#3E4D59"/>
<path fill-rule="evenodd" clip-rule="evenodd" d="M156.356 326.606C164.709 301.307 184.43 287.284 202.693 280.294C222.422 272.75 259.334 279.23 283.336 303.297C296.253 316.246 303.625 328.588 269.338 331.88C222.167 336.399 210.084 382.523 212.564 392.874C220.489 426.021 209.026 428.379 181.345 408.068C156.346 389.727 145.795 358.588 156.356 326.606Z" fill="#E1C6DC"/>
<path fill-rule="evenodd" clip-rule="evenodd" d="M477.051 278.376C501.517 288.923 513.75 309.801 519.105 328.609C524.885 348.925 515.182 385.124 489.096 406.915C475.061 418.643 462.119 424.9 461.856 390.457C461.505 343.07 416.623 326.976 406.094 328.535C372.378 333.514 371.038 321.888 393.705 296.1C414.175 272.813 446.122 265.042 477.051 278.376Z" fill="#E1C6DC"/>
<path fill-rule="evenodd" clip-rule="evenodd" d="M570.751 596.639C570.751 596.639 568.491 588.511 568.561 584.504C568.631 580.537 571.151 572.601 571.151 572.601C571.151 572.601 706.531 588.108 721.711 688.531C725.061 710.675 713.631 740.855 678.991 769.823C625.721 814.376 540.981 863.537 458.351 895.737C383.581 924.876 414.031 1014.35 458.051 1033.72C503.461 1053.69 552.311 1037.88 577.221 1016.78C604.001 994.079 598.211 1001.74 584.861 1020.05C561.481 1052.1 493.531 1056.41 486.271 1056.32C409.661 1055.36 341.291 930.618 442.451 887.918C571.521 833.438 694.731 760.022 700.281 712.448C711.691 614.78 570.751 596.639 570.751 596.639Z" fill="#E1C6DC"/>
<path fill-rule="evenodd" clip-rule="evenodd" d="M454.235 444.866C472.73 440.171 503.023 428.283 522.843 403.162C540.976 380.181 539.661 328.433 541.398 350.414C543.516 377.356 525.523 457.518 434.063 454.017C401.261 452.762 439.425 448.626 454.235 444.866Z" fill="#CCCCCC"/>
<path fill-rule="evenodd" clip-rule="evenodd" d="M218.016 447.274C199.521 442.579 169.228 430.691 149.408 405.57C131.275 382.59 132.59 330.842 130.853 352.822C128.734 379.764 146.727 459.926 238.187 456.426C270.99 455.17 232.826 451.034 218.016 447.274Z" fill="#CCCCCC"/>
<path fill-rule="evenodd" clip-rule="evenodd" d="M370.953 643.734C380.213 644.159 376.654 646.022 380.398 646.194C401.795 647.174 354.409 648.716 352.952 662.512C350.878 681.89 343.853 675.547 342.985 663.798C340.829 676.411 336.022 673.608 334.18 665.669C330.764 674.983 324.895 664.87 326.057 652.633C326.902 643.747 344.792 639.743 363.405 640.596C374.064 641.084 366.649 643.537 370.953 643.734Z" fill="#E1C6DC"/>
<path fill-rule="evenodd" clip-rule="evenodd" d="M491.212 640.413C500.479 640.183 497.061 642.292 500.807 642.2C522.221 641.666 475.062 646.55 474.582 660.415C473.882 679.892 466.427 674.06 464.731 662.402C463.472 675.135 458.478 672.68 456.081 664.89C453.331 674.422 446.762 664.749 447.057 652.46C447.272 643.537 464.835 638.279 483.462 637.815C494.128 637.55 486.906 640.52 491.212 640.413Z" fill="#E1C6DC"/>
<path fill-rule="evenodd" clip-rule="evenodd" d="M210.487 2H627.459C742.527 2 835.947 95.4281 835.947 210.49V955.092C835.947 1070.16 742.527 1163.58 627.459 1163.58H210.487C95.4193 1163.58 2 1070.16 2 955.092V210.49C2 95.4281 95.4193 2 210.487 2Z" stroke="black" stroke-width="3.94895" stroke-miterlimit="1.5" stroke-linecap="round" stroke-linejoin="round"/>
</svg>
