<svg width="838" height="1166" viewBox="0 0 838 1166" fill="none" xmlns="http://www.w3.org/2000/svg">
<path fill-rule="evenodd" clip-rule="evenodd" d="M210.487 2H627.459C742.527 2 835.947 95.4281 835.947 210.49V955.092C835.947 1070.16 742.527 1163.58 627.459 1163.58H210.487C95.4193 1163.58 2 1070.16 2 955.092V210.49C2 95.4281 95.4193 2 210.487 2Z" fill="#D8FCE0" stroke="black" stroke-width="3.94895" stroke-miterlimit="1.5" stroke-linecap="round" stroke-linejoin="round"/>
<path d="M439.807 617.227C439.807 558.474 382.898 510.845 312.696 510.845C242.494 510.845 185.584 558.474 185.584 617.227C185.584 675.981 242.494 723.609 312.696 723.609C382.898 723.609 439.807 675.981 439.807 617.227Z" fill="#EBEBEB"/>
<path fill-rule="evenodd" clip-rule="evenodd" d="M117.975 395.269C117.975 322.6 306.647 442.248 420.307 442.248C462.637 442.248 476.707 496.787 581.407 499.4C599.837 499.86 624.257 506.045 632.987 518.3C670.987 571.607 573.157 585.029 535.897 573.241C424.667 538.048 434.187 628.731 313.117 602.439C202.051 578.32 117.975 467.938 117.975 395.269Z" fill="#3E4D59"/>
<path fill-rule="evenodd" clip-rule="evenodd" d="M237.49 692.775C326.652 656.566 313.512 632.707 358.542 644.268C380.222 649.832 404.432 666.939 411.392 659.268C419.882 649.92 435.192 641.796 436.862 614.921C438.032 596.231 428.242 581.256 426.992 579.363C423.292 573.745 456.272 569.79 449.392 572.359C442.692 574.862 445.942 593.782 446.112 599.65C447.112 634.446 436.642 640.969 434.522 664.914C433.522 676.168 437.372 679.092 439.482 700.1C443.092 735.889 432.262 753.43 406.882 775.271C369.842 807.141 341.452 804.897 312.042 797.994C247.565 782.861 192.216 711.16 237.49 692.775Z" fill="#3E4D59"/>
<path fill-rule="evenodd" clip-rule="evenodd" d="M59.1658 607.6C59.1658 534.999 136.421 568.382 154.487 564.296C160.902 562.846 167.56 510.487 167.56 583.088C167.56 655.689 222.478 724.437 180.087 724.437C137.699 724.437 59.1658 680.201 59.1658 607.6Z" fill="#3E4D59"/>
<path fill-rule="evenodd" clip-rule="evenodd" d="M298.738 1163.58H210.487C207.972 1163.58 205.467 1163.53 202.973 1163.44C211.129 1146.14 234.499 1101 227.032 989.917C220.862 898.141 144.69 704.804 144.69 587.299C144.69 264.023 245.577 179.049 156.651 9.03149C173.828 4.45471 191.875 2 210.487 2H249.501C289.302 108.424 294.883 109.044 229.322 506.81C214.524 596.59 237.405 735.556 310.871 939.836C345.693 1036.67 315.865 1131.03 298.738 1163.58Z" fill="#744C31"/>
<path fill-rule="evenodd" clip-rule="evenodd" d="M126.748 306.509C147.182 283.682 194.924 275.489 208.863 308.348C217.217 328.043 162.027 360.445 160.922 374.16C158.801 400.491 126.723 438.433 120.779 417.882C113.191 391.65 109.129 326.192 126.748 306.509Z" fill="#3E4D59"/>
<path fill-rule="evenodd" clip-rule="evenodd" d="M432.752 263.542C443.979 252.188 460.248 260.196 473.021 274.679C485.802 289.17 490.654 303.765 479.047 316.032C470.384 325.184 461.441 326.879 438.507 304.246C414.567 280.618 423.888 272.5 432.752 263.542Z" fill="#3E4D59"/>
<path fill-rule="evenodd" clip-rule="evenodd" d="M246.34 265.267C242.287 249.823 257.465 239.901 276.434 236.286C295.415 232.668 310.446 235.927 315.091 252.162C318.554 264.28 315.458 272.839 284.299 281.047C251.772 289.614 249.534 277.458 246.34 265.267Z" fill="#3E4D59"/>
<path fill-rule="evenodd" clip-rule="evenodd" d="M204.778 364.974C229.464 292.684 274.63 243.644 364.214 256.555C454.7 269.597 483.986 328.288 485.638 404.659C486.934 464.318 409.365 502.739 331.865 491.788C254.355 480.836 183.684 426.771 204.778 364.974Z" fill="#EBEBEB"/>
<path fill-rule="evenodd" clip-rule="evenodd" d="M271.571 424.681C280.504 395.905 312.037 359.007 347.99 364.087C383.942 369.167 403.73 414.321 405.917 444.37C409.041 487.159 376.882 497.256 332.247 490.508C289.264 484.01 258.864 465.647 271.571 424.681Z" fill="#3E4D59"/>
<path fill-rule="evenodd" clip-rule="evenodd" d="M275.602 425.806C283.973 399.097 313.659 364.891 347.611 369.688C381.562 374.486 400.34 416.471 402.471 444.389C405.514 484.141 375.177 493.45 333.026 487.085C292.434 480.955 263.696 463.831 275.602 425.806Z" fill="#EBEBEB"/>
<path fill-rule="evenodd" clip-rule="evenodd" d="M311.665 411.29C304.015 408.454 326.263 404.503 341.684 406.682C357.106 408.861 375.672 418.419 367.549 419.186C339.966 421.79 352.961 432.053 337.539 429.873C322.117 427.694 340.001 421.796 311.665 411.29Z" fill="#3E4D59"/>
<path fill-rule="evenodd" clip-rule="evenodd" d="M309.262 441.433C309.498 439.76 319.309 447.88 331.593 449.353C332.944 449.515 333.487 426.735 338.734 427.549C344.555 428.452 340.158 450.277 342.218 450.639C353.245 452.58 365.436 447.213 365.215 448.776C364.952 450.634 349.621 459 335.422 456.994C321.213 454.986 308.999 443.289 309.262 441.433Z" fill="#3E4D59"/>
<path fill-rule="evenodd" clip-rule="evenodd" d="M275.097 372.379C291.57 354.202 282.282 341.867 299.969 336.776C335.958 326.414 327.587 367.27 312.62 376.651C301.893 383.374 303.473 382.051 287.667 398.347C278.354 407.943 266.605 381.761 275.097 372.379Z" fill="#3E4D59"/>
<path fill-rule="evenodd" clip-rule="evenodd" d="M367.17 357.301C373.152 346.144 397.882 341.391 406.318 351.766C422.869 372.119 403.534 371.553 413.546 399.11C419.263 414.869 399.605 421.214 394.658 408.795C387.164 389.978 358.305 373.857 367.17 357.301Z" fill="#3E4D59"/>
<path d="M310.899 374.085C311.962 366.56 306.875 359.619 299.536 358.582C292.197 357.545 285.385 362.805 284.322 370.33C283.259 377.855 288.346 384.796 295.685 385.833C303.024 386.87 309.836 381.61 310.899 374.085Z" fill="#303B43"/>
<path d="M405.236 383.983C406.3 376.458 401.212 369.517 393.873 368.48C386.534 367.443 379.723 372.703 378.66 380.228C377.596 387.753 382.684 394.694 390.023 395.731C397.362 396.768 404.173 391.508 405.236 383.983Z" fill="#303B43"/>
<path fill-rule="evenodd" clip-rule="evenodd" d="M238.345 789.209C222.515 758.74 233.875 745.9 278.435 716.875C294.655 706.315 323.605 691.48 339.885 745.029C343.915 758.283 353.235 804.844 301.635 801.162C275.505 799.298 250.565 812.734 238.345 789.209Z" fill="#303B43"/>
<path fill-rule="evenodd" clip-rule="evenodd" d="M115.113 625.603C115.767 621.42 118.567 593.331 144.218 590.4C153.023 589.395 167.732 604.343 174.958 615.88C186.423 634.184 179.91 650.812 175.375 660.18C167.035 677.41 160.938 686.954 144.218 686.954C130.911 686.954 125.526 675.654 119.538 661.022C114.581 648.91 113.12 638.347 115.113 625.603Z" fill="#303B43"/>
<path fill-rule="evenodd" clip-rule="evenodd" d="M210.487 2H627.459C742.527 2 835.947 95.4281 835.947 210.49V955.092C835.947 1070.16 742.527 1163.58 627.459 1163.58H210.487C95.4193 1163.58 2 1070.16 2 955.092V210.49C2 95.4281 95.4193 2 210.487 2Z" stroke="black" stroke-width="3.94895" stroke-miterlimit="1.5" stroke-linecap="round" stroke-linejoin="round"/>
</svg>
