<svg width="843" height="1168" viewBox="0 0 843 1168" fill="none" xmlns="http://www.w3.org/2000/svg">
<path fill-rule="evenodd" clip-rule="evenodd" d="M209.728 4.34705L626.698 2.79021C741.764 2.36058 835.533 95.4392 835.963 210.5L838.743 955.097C839.173 1070.16 746.101 1163.93 631.035 1164.36L214.065 1165.91C98.9985 1166.34 5.23104 1073.28 4.80142 958.211L2.02132 213.614C1.59172 98.5529 94.6616 4.77667 209.728 4.34705Z" fill="#CFECFF" stroke="black" stroke-width="3.94895" stroke-miterlimit="1.5" stroke-linecap="round" stroke-linejoin="round"/>
<path fill-rule="evenodd" clip-rule="evenodd" d="M838.137 793.934L838.739 955.093C839.169 1070.16 746.098 1163.93 631.029 1164.36L214.062 1165.92C98.9925 1166.35 5.22444 1073.28 4.79481 958.207L4.19309 797.048L838.137 793.934Z" fill="#ACC88B"/>
<mask id="mask0_1_330" style="mask-type:luminance" maskUnits="userSpaceOnUse" x="4" y="793" width="835" height="373">
<path d="M838.137 793.934L838.739 955.093C839.169 1070.16 746.098 1163.93 631.029 1164.36L214.062 1165.92C98.9925 1166.35 5.22444 1073.28 4.79481 958.207L4.19309 797.048L838.137 793.934Z" fill="white"/>
</mask>
<g mask="url(#mask0_1_330)">
<path fill-rule="evenodd" clip-rule="evenodd" d="M48.9518 862.979C48.5654 858.59 51.8308 854.698 56.2295 854.322C60.618 853.935 64.5103 857.201 64.8867 861.599C68.251 900.237 68.8405 900.095 69.093 903.444C69.4295 907.853 66.1238 911.695 61.7149 912.021C57.3162 912.358 53.4737 909.042 53.1373 904.643C52.8848 901.304 52.2955 901.456 48.9518 862.979Z" fill="#729743"/>
<path fill-rule="evenodd" clip-rule="evenodd" d="M572.868 840.218C572.482 835.829 575.747 831.937 580.146 831.561C584.535 831.174 588.427 834.44 588.803 838.838C592.167 877.476 592.757 877.334 593.01 880.683C593.346 885.092 590.04 888.934 585.631 889.26C581.233 889.597 577.39 886.281 577.054 881.882C576.801 878.543 576.212 878.695 572.868 840.218Z" fill="#729743"/>
<path fill-rule="evenodd" clip-rule="evenodd" d="M743.89 826.374C743.503 821.985 746.769 818.093 751.167 817.717C755.556 817.331 759.448 820.596 759.825 824.995C763.189 863.632 763.778 863.49 764.031 866.839C764.367 871.248 761.062 875.09 756.653 875.417C752.254 875.753 748.412 872.438 748.075 868.039C747.823 864.7 747.233 864.852 743.89 826.374Z" fill="#729743"/>
<path fill-rule="evenodd" clip-rule="evenodd" d="M190.451 910.366C190.064 905.978 193.33 902.085 197.728 901.709C202.117 901.323 206.009 904.588 206.385 908.987C209.75 947.624 210.339 947.482 210.592 950.831C210.928 955.24 207.623 959.082 203.214 959.409C198.815 959.745 194.972 956.43 194.636 952.031C194.384 948.692 193.794 948.844 190.451 910.366Z" fill="#729743"/>
<path fill-rule="evenodd" clip-rule="evenodd" d="M303.998 810.78C303.612 806.391 306.877 802.499 311.276 802.123C315.665 801.736 319.557 805.002 319.933 809.4C323.298 848.038 323.887 847.896 324.14 851.245C324.476 855.654 321.17 859.496 316.762 859.823C312.363 860.159 308.52 856.843 308.184 852.445C307.931 849.105 307.342 849.258 303.998 810.78Z" fill="#729743"/>
<path fill-rule="evenodd" clip-rule="evenodd" d="M316.296 1052.73C315.909 1048.34 319.175 1044.45 323.573 1044.07C327.962 1043.68 331.854 1046.95 332.231 1051.35C335.595 1089.99 336.184 1089.84 336.437 1093.19C336.773 1097.6 333.468 1101.44 329.059 1101.77C324.66 1102.11 320.818 1098.79 320.481 1094.39C320.229 1091.05 319.639 1091.21 316.296 1052.73Z" fill="#729743"/>
<path fill-rule="evenodd" clip-rule="evenodd" d="M725.48 971.117C725.094 966.728 728.359 962.836 732.758 962.46C737.146 962.074 741.039 965.339 741.415 969.738C744.779 1008.38 745.369 1008.23 745.621 1011.58C745.958 1015.99 742.652 1019.83 738.243 1020.16C733.844 1020.5 730.002 1017.18 729.666 1012.78C729.413 1009.44 728.824 1009.59 725.48 971.117Z" fill="#729743"/>
<path fill-rule="evenodd" clip-rule="evenodd" d="M105.838 984.793C105.452 980.404 108.717 976.512 113.116 976.136C117.505 975.749 121.397 979.015 121.773 983.413C125.137 1022.05 125.727 1021.91 125.979 1025.26C126.316 1029.67 123.01 1033.51 118.601 1033.84C114.203 1034.17 110.36 1030.86 110.024 1026.46C109.771 1023.12 109.182 1023.27 105.838 984.793Z" fill="#729743"/>
<path fill-rule="evenodd" clip-rule="evenodd" d="M417.037 967.461C416.651 963.072 419.916 959.18 424.315 958.804C428.703 958.417 432.596 961.683 432.972 966.081C436.336 1004.72 436.926 1004.58 437.178 1007.93C437.515 1012.33 434.209 1016.18 429.8 1016.5C425.402 1016.84 421.559 1013.52 421.223 1009.13C420.97 1005.79 420.381 1005.94 417.037 967.461Z" fill="#729743"/>
<path fill-rule="evenodd" clip-rule="evenodd" d="M549.193 995.264C548.807 990.876 552.072 986.984 556.471 986.607C560.859 986.221 564.751 989.486 565.128 993.885C568.492 1032.52 569.082 1032.38 569.334 1035.73C569.671 1040.14 566.365 1043.98 561.956 1044.31C557.557 1044.64 553.715 1041.33 553.379 1036.93C553.126 1033.59 552.537 1033.74 549.193 995.264Z" fill="#729743"/>
</g>
<path fill-rule="evenodd" clip-rule="evenodd" d="M832.404 779.512C836.923 779.401 840.545 782.901 840.694 787.285C840.851 791.79 837.205 795.496 832.882 795.592C75.2353 815.911 77.6083 808.52 11.8407 810.766C7.52719 810.984 3.70944 807.5 3.56126 803.117C3.41308 798.733 6.85188 794.922 11.3706 794.81C77.1382 792.564 74.7674 799.953 832.404 779.512Z" fill="#729743"/>
<path fill-rule="evenodd" clip-rule="evenodd" d="M145.151 516.921C164.326 407.546 233.4 440.811 311.835 440.518C390.259 440.225 431.801 361.353 432.468 539.952C433.135 718.542 369.995 863.779 291.571 864.072C234.309 864.286 105.465 778.914 165.794 759.63C180.845 754.817 89.1579 638.634 131.992 619.416C155.571 608.831 140.901 541.118 145.151 516.921Z" fill="#744C31"/>
<path fill-rule="evenodd" clip-rule="evenodd" d="M196.824 361.388C199.289 309.179 252.328 335.751 260.48 298.79C268.435 262.68 272.528 268.825 291.847 236.262C299.807 222.853 308.739 266.13 307.991 274.723C306.283 294.159 324.501 288.211 320.576 270.675C315.949 250.033 338.951 229.107 342.12 220.955C350.688 198.842 334.681 242.543 360.851 250.495C370.031 253.281 376.595 262.366 382.032 248.156C382.914 245.853 380.173 229.583 381.976 225.006C383.471 221.19 388.118 225.493 400.599 252.697C406.013 264.496 421.618 292.598 408.688 311.177C394.494 331.58 408.491 360.198 408.52 368.128C408.681 411.278 390.468 463.976 378.732 481.03C368.109 496.47 362.048 429.272 338.092 470.462C335.836 474.34 301.13 553.17 284.219 539.523C269.746 527.857 300.781 470.371 301.193 465.479C305.484 414.793 266.473 473.499 248.383 519.287C214.612 604.774 234.849 453.957 183.886 509.538C129.159 569.212 141.903 503.304 150.315 482.463C169.825 434.15 194.035 420.649 196.824 361.388Z" fill="#FFFDCB"/>
<path d="M557.574 864.201C557.51 847.026 527.381 833.216 490.28 833.354C453.178 833.493 423.153 847.528 423.217 864.702C423.281 881.877 453.41 895.687 490.512 895.549C527.613 895.41 557.638 881.375 557.574 864.201Z" fill="#744C31"/>
<path fill-rule="evenodd" clip-rule="evenodd" d="M317.605 704.24C317.178 589.79 382.065 496.623 462.428 496.323C534.106 496.056 634.171 581.09 556.054 659.397C521.422 694.101 536.595 699.147 536.029 722.254C535.002 764.382 592.804 814.319 482.683 875.84C447.946 895.238 329.454 913.789 313.776 887.72C293.33 853.703 317.894 781.659 317.605 704.24Z" fill="#FFFDCB"/>
<path d="M467.171 881.795C467.106 864.62 436.978 850.81 399.876 850.948C362.775 851.087 332.75 865.122 332.814 882.296C332.878 899.471 363.007 913.281 400.108 913.143C437.21 913.004 467.235 898.969 467.171 881.795Z" fill="#744C31"/>
<path fill-rule="evenodd" clip-rule="evenodd" d="M248.806 701.508C238.042 609.448 256.692 552.427 291.102 517.708C364.693 443.482 420.638 485.176 448.927 494.722C488.669 508.127 529.952 478.567 541.865 499.196C575.54 557.499 567.224 533.943 582.235 585.26C594.056 625.661 488.203 625.828 487.992 632.2C487.475 647.689 444.236 657.377 428.89 638.124C379.618 576.299 327.436 754.511 412.718 710.442C509.78 660.295 471.26 937.895 317.866 896.548C276.871 885.504 243.697 865.244 247.477 801.999C249.503 768.13 251.585 725.285 248.806 701.508Z" fill="#996542"/>
<path fill-rule="evenodd" clip-rule="evenodd" d="M377.147 435.331C385.292 338.579 412.969 353.887 482.419 353.628C509.013 353.529 536.987 361.005 536.987 361.005C536.795 356.477 569.286 408.069 563.073 452.625C554.74 512.55 536.01 521.602 562.085 556.73C577.901 578.037 468.728 573.215 399.391 576.977C341.886 580.119 402.382 540.364 381.883 464.084C380.741 459.81 376.763 439.835 377.147 435.331Z" fill="#996542"/>
<path fill-rule="evenodd" clip-rule="evenodd" d="M507.888 391.225C507.152 391.034 507.464 391.194 507.213 392.162C507.213 392.162 507.466 391.806 507.888 391.225ZM507.888 391.225C509.417 391.541 515.363 393.227 539.767 391.525C590.752 388.016 570.189 319.986 554.935 302.582C554.253 301.779 558.106 288.073 557.425 287.528C556.346 286.565 550.791 298.764 549.883 298.058C548.522 297 549.211 284.658 548.191 284.018C546.83 283.217 543.873 294.279 542.995 294.089C541.24 293.741 533.932 283.073 533.457 284.653C533.121 285.75 539.392 298.71 539.37 300.417C539.339 307.279 540.793 317.873 535.41 323.048C525.433 332.59 522.055 329.509 516.261 376.245C515.794 380.049 509.942 388.382 507.888 391.225Z" fill="#744C31"/>
<mask id="mask1_1_330" style="mask-type:luminance" maskUnits="userSpaceOnUse" x="507" y="283" width="66" height="110">
<path d="M507.888 391.225C507.152 391.034 507.464 391.194 507.213 392.162C507.213 392.162 507.466 391.806 507.888 391.225ZM507.888 391.225C509.417 391.541 515.363 393.227 539.767 391.525C590.752 388.016 570.189 319.986 554.935 302.582C554.253 301.779 558.106 288.073 557.425 287.528C556.346 286.565 550.791 298.764 549.883 298.058C548.522 297 549.211 284.658 548.191 284.018C546.83 283.217 543.873 294.279 542.995 294.089C541.24 293.741 533.932 283.073 533.457 284.653C533.121 285.75 539.392 298.71 539.37 300.417C539.339 307.279 540.793 317.873 535.41 323.048C525.433 332.59 522.055 329.509 516.261 376.245C515.794 380.049 509.942 388.382 507.888 391.225Z" fill="white"/>
</mask>
<g mask="url(#mask1_1_330)">
<path fill-rule="evenodd" clip-rule="evenodd" d="M542.935 382.388C575.221 380.006 560.135 331.741 550.869 323.23C536.6 310.088 546.856 331.099 540.285 337.868C534.243 344.07 532.197 342.067 528.695 372.451C528.347 375.447 527.471 379.409 525.437 380.757C523.027 382.379 521.063 383.999 542.935 382.388Z" fill="#FFFDCB"/>
</g>
<path fill-rule="evenodd" clip-rule="evenodd" d="M461.688 421.369C430.451 422.547 399.804 419.514 391.816 405.311C390.595 403.158 389.589 401.005 388.796 398.851C388.742 398.692 423.665 420.026 423.665 420.026C423.665 420.026 393.682 417.928 391.175 420.006C382.18 427.536 381.927 450.398 385.564 469.214C394.291 514.338 384.937 554.491 373.585 566.114C363.886 576.016 357.641 565.219 366.695 559.403C371.89 556.06 392.238 527.801 378.887 467.277C367.115 413.837 386.753 386.588 387.223 383.528C389.347 369.746 402.333 356.508 430.658 344.309C567.957 285.096 560.153 439.884 555.71 453.268C552.694 462.296 552.072 472.306 535.548 502.672C532.307 508.625 513.858 524.783 489.276 517.485C478.779 514.359 477.227 504.746 477.853 505.204C500.008 521.44 523.106 508.677 525.667 502.019C542.355 458.445 488.236 420.386 461.688 421.369Z" fill="#744C31"/>
<path fill-rule="evenodd" clip-rule="evenodd" d="M417.478 418.407C418.212 418.211 417.902 418.374 418.16 419.339C418.16 419.339 417.904 418.986 417.478 418.407ZM435.331 419.823C433.833 420.183 410.018 420.465 385.602 418.946C334.592 415.818 354.647 347.636 369.77 330.118C370.446 329.31 366.491 315.633 367.168 315.083C368.239 314.112 373.886 326.269 374.788 325.557C376.142 324.489 375.36 312.152 376.376 311.504C377.73 310.694 380.77 321.733 381.646 321.537C383.399 321.176 390.628 310.453 391.114 312.03C391.458 313.124 385.284 326.13 385.319 327.837C385.401 334.699 384.026 345.304 389.448 350.438C399.496 359.905 402.851 356.799 408.993 403.491C409.488 407.291 433.284 417.028 435.331 419.823Z" fill="#744C31"/>
<mask id="mask2_1_330" style="mask-type:luminance" maskUnits="userSpaceOnUse" x="352" y="311" width="84" height="110">
<path d="M417.478 418.407C418.212 418.211 417.902 418.374 418.16 419.339C418.16 419.339 417.904 418.986 417.478 418.407ZM435.331 419.823C433.833 420.183 410.018 420.465 385.602 418.946C334.592 415.818 354.647 347.636 369.77 330.118C370.446 329.31 366.491 315.633 367.168 315.083C368.239 314.112 373.886 326.269 374.788 325.557C376.142 324.489 375.36 312.152 376.376 311.504C377.73 310.694 380.77 321.733 381.646 321.537C383.399 321.176 390.628 310.453 391.114 312.03C391.458 313.124 385.284 326.13 385.319 327.837C385.401 334.699 384.026 345.304 389.448 350.438C399.496 359.905 402.851 356.799 408.993 403.491C409.488 407.291 433.284 417.028 435.331 419.823Z" fill="white"/>
</mask>
<g mask="url(#mask2_1_330)">
<path fill-rule="evenodd" clip-rule="evenodd" d="M382.367 409.833C350.065 407.691 364.789 359.315 373.991 350.735C388.162 337.487 378.064 358.574 384.685 365.294C390.772 371.45 392.804 369.432 396.532 399.789C396.903 402.783 397.809 406.738 399.852 408.071C402.274 409.674 404.25 411.28 382.367 409.833Z" fill="#FFFDCB"/>
</g>
<path d="M497.198 434.458C497.164 425.469 488.948 418.212 478.846 418.25C468.745 418.287 460.583 425.605 460.616 434.595C460.65 443.584 468.866 450.841 478.968 450.804C489.07 450.766 497.232 443.448 497.198 434.458Z" fill="#3E2413"/>
<path fill-rule="evenodd" clip-rule="evenodd" d="M439.925 340.553C461.01 330.367 497.319 328.656 506.212 333.601C513.77 337.826 532.558 374.133 530.207 395.032C529.937 397.384 503.095 339.066 498.22 339.735C490.381 340.815 516.304 394.833 509.106 394.985C507.194 395.017 468.675 345.85 463.84 346.018C460.532 346.155 489.868 399.135 489.071 398.713C481.449 394.588 431.838 344.461 439.925 340.553Z" fill="#3E2413"/>
<path fill-rule="evenodd" clip-rule="evenodd" d="M522.323 490.374C522.305 485.604 529.094 491.478 535.878 491.453C542.645 491.427 546.855 485.512 546.873 490.282C546.891 495.065 541.414 498.952 534.63 498.977C527.863 499.003 522.341 495.157 522.323 490.374Z" fill="#3E2413"/>
<path d="M581.066 426.426C581.033 417.437 572.817 410.18 562.715 410.218C552.613 410.255 544.451 417.574 544.485 426.563C544.518 435.552 552.735 442.809 562.836 442.772C572.938 442.734 581.1 435.416 581.066 426.426Z" fill="#3E2413"/>
<path fill-rule="evenodd" clip-rule="evenodd" d="M428.8 588.576C424.925 597.82 416.972 606.487 419.063 620.59C421.19 634.965 440.011 646.364 453.443 645.437C461.829 644.861 479.923 642.104 490.43 635.359C491.317 634.787 474.163 648.002 470.695 648.951C464.091 650.752 458.216 651.462 453.015 651.339C431.426 650.851 419.508 638.265 415.293 629.656C406.566 611.834 434.965 573.838 428.8 588.576Z" fill="#744C31"/>
<path fill-rule="evenodd" clip-rule="evenodd" d="M439.735 612.588C439.644 588.182 468.614 566.155 491.798 566.069C514.967 565.982 518.858 588.576 518.949 612.998C519.04 637.404 515.297 654.458 492.128 654.545C468.944 654.631 439.827 637.009 439.735 612.588Z" fill="#744C31"/>
<path fill-rule="evenodd" clip-rule="evenodd" d="M598.107 610.276C598.013 584.878 569.065 562.175 546.031 562.261C523.013 562.347 519.319 585.89 519.414 611.305C519.508 636.704 523.357 654.424 546.375 654.338C569.409 654.252 598.202 635.692 598.107 610.276Z" fill="#744C31"/>
<path fill-rule="evenodd" clip-rule="evenodd" d="M472.181 611.021C472.173 608.933 513.488 596.509 513.519 592.092C513.55 587.659 470.185 587.291 472.342 584.454C480.926 573.151 501.762 572.075 506.407 572.33C515.579 572.84 518.909 598.38 518.951 609.56C518.993 620.74 519.703 649.21 503.954 651.462C501.112 651.881 476.442 638.373 477.349 633.997C478.35 629.213 513.274 628.25 509.972 622.786C506.765 617.457 472.193 614.303 472.181 611.021Z" fill="#3E2413"/>
<path fill-rule="evenodd" clip-rule="evenodd" d="M565.686 608.056C565.678 605.969 524.272 593.854 524.208 589.437C524.144 585.004 567.505 584.313 565.326 581.492C556.659 570.253 535.815 569.333 531.171 569.622C522.003 570.201 518.864 595.765 518.906 606.945C518.948 618.125 518.45 646.599 534.216 648.734C537.061 649.132 561.63 635.439 560.689 631.071C559.652 626.294 524.722 625.592 527.983 620.103C531.151 614.751 565.698 611.339 565.686 608.056Z" fill="#3E2413"/>
<path fill-rule="evenodd" clip-rule="evenodd" d="M209.728 4.34705L626.698 2.79021C741.764 2.36059 835.533 95.4392 835.963 210.5L838.743 955.097C839.173 1070.16 746.101 1163.93 631.035 1164.36L214.065 1165.91C98.9985 1166.34 5.23104 1073.28 4.80142 958.211L2.02132 213.614C1.59172 98.5529 94.6616 4.77668 209.728 4.34705Z" stroke="black" stroke-width="3.94895" stroke-miterlimit="1.5" stroke-linecap="round" stroke-linejoin="round"/>
</svg>
