<svg width="105" height="89" viewBox="0 0 105 89" fill="none" xmlns="http://www.w3.org/2000/svg">
<path fill-rule="evenodd" clip-rule="evenodd" d="M75.6792 44.4345C75.6792 55.4196 65.2023 64.3246 52.2783 64.3246C39.3542 64.3246 28.8772 55.4196 28.8772 44.4345C28.8772 33.4496 39.3542 24.5444 52.2783 24.5444C65.2023 24.5444 75.6792 33.4496 75.6792 44.4345ZM66.3189 44.4345C66.3189 51.0256 60.0327 56.3686 52.2783 56.3686C44.5239 56.3686 38.2376 51.0256 38.2376 44.4345C38.2376 37.8436 44.5239 32.5005 52.2783 32.5005C60.0327 32.5005 66.3189 37.8436 66.3189 44.4345Z" fill="#81C3C3"/>
<path fill-rule="evenodd" clip-rule="evenodd" d="M65.655 9.08791C62.4347 -3.0293 42.1219 -3.0293 38.9017 9.08791C38.2392 11.5808 34.8735 12.7658 32.3311 11.4012C19.9735 4.7685 5.61022 16.9768 13.4137 27.4804C15.0191 29.6413 13.625 32.502 10.6921 33.0651C-3.56403 35.8022 -3.56403 53.0674 10.6921 55.8045C13.625 56.3676 15.0191 59.2283 13.4137 61.3893C5.61022 71.8926 19.9735 84.1012 32.3311 77.4682C34.8735 76.1037 38.2392 77.2892 38.9017 79.7818C42.1219 91.8989 62.4347 91.8989 65.655 79.7818C66.3174 77.2892 69.6832 76.1037 72.2255 77.4682C84.5829 84.1012 98.9465 71.8926 91.1427 61.3893C89.5374 59.2283 90.9321 56.3676 93.8647 55.8045C108.121 53.0674 108.121 35.8022 93.8647 33.0651C90.9321 32.502 89.5374 29.6413 91.1427 27.4804C98.9465 16.9768 84.5829 4.7685 72.2255 11.4012C69.6832 12.7658 66.3174 11.5808 65.655 9.08791ZM48.0321 10.8409C49.0543 6.99444 55.5023 6.99444 56.5246 10.8409C58.6115 18.6941 69.2143 22.4269 77.2237 18.1283C81.1457 16.0228 85.7052 19.8982 83.2284 23.2324C78.171 30.0398 82.5629 39.0517 91.8026 40.8257C96.3274 41.6945 96.3274 47.1751 91.8026 48.044C82.5629 49.8178 78.171 58.8298 83.2284 65.6376C85.7052 68.9711 81.1457 72.8465 77.2237 70.7414C69.2143 66.4427 58.6115 70.1757 56.5246 78.0291C55.5023 81.8751 49.0543 81.8751 48.0321 78.0291C45.945 70.1757 35.3423 66.4427 27.3333 70.7414C23.4106 72.8465 18.8511 68.9711 21.3282 65.6376C26.3857 58.8298 21.994 49.8178 12.7546 48.044C8.22908 47.1751 8.22908 41.6945 12.7546 40.8257C21.994 39.0517 26.3857 30.0398 21.3282 23.2324C18.8511 19.8982 23.4106 16.0228 27.3333 18.1283C35.3423 22.4269 45.945 18.6941 48.0321 10.8409Z" fill="#81C3C3"/>
</svg>
