<svg width="1724" height="1560" viewBox="0 0 1724 1560" fill="none" xmlns="http://www.w3.org/2000/svg">
<path fill-rule="evenodd" clip-rule="evenodd" d="M1681.92 412.976V1154.47C1681.92 1359.1 1506.01 1525.23 1289.35 1525.23H426.747C210.089 1525.23 34.1892 1359.1 34.1892 1154.47V412.976C34.1892 208.353 210.089 42.2256 426.747 42.2256H1289.35C1506.01 42.2256 1681.92 208.353 1681.92 412.976Z" fill="#F0F7F7"/>
<path fill-rule="evenodd" clip-rule="evenodd" d="M1724 390.001V1170C1724 1385.25 1538.97 1560 1311.05 1560H412.94C185.033 1560 0 1385.25 0 1170V390.001C0 174.753 185.033 0 412.94 0H1311.05C1538.97 0 1724 174.753 1724 390.001ZM1681.92 412.976C1681.92 219.632 1524.88 60.6553 1324.79 43.7192C1315.72 42.9472 1306.73 45.8206 1300.01 51.6338C1293.31 57.447 1289.51 65.6607 1289.54 74.2578C1289.66 115.292 1289.94 185.932 1290.12 226.407C1290.15 234.572 1286.72 242.412 1280.61 248.18C1274.49 253.95 1266.18 257.17 1257.55 257.124C1120.75 256.401 595.294 253.629 459.657 252.913C441.88 252.82 427.505 239.216 427.44 222.428C427.289 182.936 427.025 114.205 426.87 74.006C426.838 65.4383 423.002 57.2745 416.296 51.5022C409.591 45.7312 400.63 42.8795 391.593 43.6401C191.38 60.5071 34.1897 219.542 34.1897 412.976V1154.48C34.1897 1359.09 210.089 1525.23 426.747 1525.23H1289.35C1506.02 1525.23 1681.92 1359.09 1681.92 1154.48V412.976Z" fill="#81C3C3"/>
<path fill-rule="evenodd" clip-rule="evenodd" d="M1584.49 513.877V567.614C1584.49 582.441 1571.75 594.48 1556.04 594.48H211.277C195.576 594.48 182.829 582.441 182.829 567.614V513.877C182.829 499.048 195.576 487.009 211.277 487.009H1556.04C1571.75 487.009 1584.49 499.048 1584.49 513.877Z" fill="#81C3C3"/>
<path fill-rule="evenodd" clip-rule="evenodd" d="M1584.49 708.59V762.326C1584.49 777.154 1571.75 789.193 1556.04 789.193H211.277C195.576 789.193 182.829 777.154 182.829 762.326V708.59C182.829 693.761 195.576 681.722 211.277 681.722H1556.04C1571.75 681.722 1584.49 693.761 1584.49 708.59Z" fill="#81C3C3"/>
<path fill-rule="evenodd" clip-rule="evenodd" d="M1584.49 912.154V965.891C1584.49 980.718 1571.75 992.757 1556.04 992.757H211.277C195.576 992.757 182.829 980.718 182.829 965.891V912.154C182.829 897.325 195.576 885.286 211.277 885.286H1556.04C1571.75 885.286 1584.49 897.325 1584.49 912.154Z" fill="#81C3C3"/>
<path fill-rule="evenodd" clip-rule="evenodd" d="M1584.49 1116.98V1170.72C1584.49 1185.55 1571.75 1197.59 1556.04 1197.59H211.277C195.576 1197.59 182.828 1185.55 182.828 1170.72V1116.98C182.828 1102.15 195.576 1090.11 211.277 1090.11H1556.04C1571.75 1090.11 1584.49 1102.15 1584.49 1116.98Z" fill="#81C3C3"/>
<path d="M615.272 91.2969C616.756 91.375 618.358 91.4141 620.077 91.4141C621.561 91.4141 623.241 91.4531 625.116 91.5312C627.069 91.5312 629.1 91.4531 631.209 91.2969C629.334 92.1562 627.694 93.4062 626.288 95.0469C624.881 96.6875 623.749 98.3281 622.889 99.9688C621.795 101.922 620.897 103.953 620.194 106.062C619.803 107.312 619.491 109.539 619.256 112.742C619.022 115.867 618.827 119.539 618.67 123.758C618.592 127.977 618.553 132.43 618.553 137.117C618.553 141.805 618.592 146.297 618.67 150.594C618.749 154.812 618.866 158.562 619.022 161.844C619.178 165.125 619.374 167.43 619.608 168.758C619.92 170.32 620.311 171.805 620.78 173.211C621.17 174.461 621.678 175.75 622.303 177.078C622.928 178.328 623.709 179.344 624.647 180.125L612.694 185.516C612.069 184.656 611.561 183.758 611.17 182.82C610.78 181.961 610.467 181.18 610.233 180.477C609.92 179.617 609.725 178.836 609.647 178.133C609.491 177.195 609.334 176.18 609.178 175.086C609.022 173.914 608.827 172.82 608.592 171.805C608.436 170.711 608.319 169.812 608.241 169.109C608.163 168.406 608.163 167.977 608.241 167.82C608.319 167.664 607.85 168.367 606.834 169.93C605.819 171.414 604.295 173.172 602.264 175.203C600.311 177.156 597.889 179.07 594.999 180.945C592.108 182.742 588.866 183.875 585.272 184.344C581.6 184.812 578.202 184.109 575.077 182.234C572.03 180.359 569.413 177.742 567.225 174.383C565.038 170.945 563.358 167 562.186 162.547C561.092 158.016 560.663 153.406 560.897 148.719C561.053 145.594 561.756 142.82 563.006 140.398C564.256 137.898 565.819 135.75 567.694 133.953C569.647 132.078 571.756 130.516 574.022 129.266C576.366 127.938 578.631 126.844 580.819 125.984C583.084 125.125 585.194 124.5 587.147 124.109C589.1 123.719 590.663 123.445 591.834 123.289C593.241 123.211 594.842 123.445 596.639 123.992C598.202 124.461 599.999 125.242 602.03 126.336C604.139 127.43 606.483 129.07 609.061 131.258C608.592 123.445 608.163 117.195 607.772 112.508C607.381 107.742 606.991 104.109 606.6 101.609C606.209 98.6406 605.858 96.6094 605.545 95.5156C605.155 94.7344 604.647 93.9531 604.022 93.1719C603.475 92.5469 602.772 91.9219 601.913 91.2969C601.131 90.5938 600.194 90.0469 599.1 89.6562C601.131 90.0469 603.084 90.3203 604.959 90.4766C606.834 90.6328 608.553 90.7891 610.116 90.9453C611.913 91.1016 613.631 91.2188 615.272 91.2969ZM585.858 135.008C584.374 135.555 583.163 136.492 582.225 137.82C581.366 139.148 580.663 140.75 580.116 142.625C579.569 144.422 579.178 146.375 578.944 148.484C578.788 150.516 578.67 152.508 578.592 154.461C578.592 156.336 578.592 158.055 578.592 159.617C578.592 161.18 578.592 162.352 578.592 163.133C578.592 163.602 578.67 164.461 578.827 165.711C579.061 166.883 579.53 168.133 580.233 169.461C580.936 170.711 581.913 171.844 583.163 172.859C584.491 173.875 586.249 174.383 588.436 174.383C590.233 174.227 592.147 173.602 594.178 172.508C595.975 171.57 598.006 170.086 600.272 168.055C602.616 165.945 605.116 162.938 607.772 159.031C607.616 156.531 607.499 154.461 607.42 152.82C607.42 151.18 607.381 149.852 607.303 148.836C607.225 147.664 607.186 146.727 607.186 146.023V144.266C607.186 143.797 607.186 143.289 607.186 142.742C607.186 142.195 607.225 141.688 607.303 141.219C605.116 139.656 603.163 138.328 601.444 137.234C599.803 136.062 598.163 135.203 596.522 134.656C594.959 134.031 593.319 133.758 591.6 133.836C589.959 133.836 588.045 134.227 585.858 135.008ZM637.538 133.602C637.928 133.133 638.163 132.273 638.241 131.023C638.397 129.695 638.709 128.211 639.178 126.57C639.725 124.93 640.624 123.211 641.874 121.414C643.124 119.617 645.155 117.938 647.967 116.375C650.702 114.812 653.358 113.875 655.936 113.562C658.514 113.25 660.975 113.367 663.319 113.914C665.663 114.461 667.85 115.32 669.881 116.492C671.991 117.664 673.905 118.953 675.624 120.359C676.795 121.297 677.733 122.664 678.436 124.461C679.139 126.18 679.686 128.133 680.077 130.32C680.467 132.508 680.741 134.812 680.897 137.234C681.131 139.578 681.288 141.883 681.366 144.148C681.444 146.336 681.483 148.367 681.483 150.242C681.561 152.039 681.717 153.523 681.952 154.695C682.264 156.414 682.811 157.898 683.592 159.148C684.374 160.32 685.233 161.336 686.17 162.195C687.108 162.977 688.045 163.602 688.983 164.07C689.92 164.539 690.741 164.891 691.444 165.125C691.913 165.359 692.342 165.516 692.733 165.594C693.514 165.906 694.061 165.906 694.374 165.594C693.905 166.688 693.475 167.625 693.084 168.406C692.694 169.188 692.381 169.852 692.147 170.398C691.834 171.023 691.561 171.531 691.327 171.922C691.092 172.391 690.819 172.82 690.506 173.211C690.272 173.602 689.959 174.031 689.569 174.5C689.178 174.969 688.788 175.477 688.397 176.023C687.381 175.633 686.405 175.164 685.467 174.617C684.608 174.07 683.827 173.562 683.124 173.094C682.264 172.547 681.483 172 680.78 171.453C680.077 170.906 679.413 170.281 678.788 169.578C678.241 168.953 677.655 168.289 677.03 167.586C676.483 166.883 676.014 166.102 675.624 165.242C675.155 166.258 674.022 167.703 672.225 169.578C670.506 171.453 668.241 173.172 665.428 174.734C662.616 176.219 659.334 177.273 655.584 177.898C651.913 178.523 647.85 178.094 643.397 176.609C641.444 175.984 639.608 175.086 637.889 173.914C636.17 172.664 634.686 171.18 633.436 169.461C632.264 167.742 631.405 165.789 630.858 163.602C630.389 161.336 630.428 158.836 630.975 156.102C631.522 153.367 632.499 151.062 633.905 149.188C635.311 147.312 636.991 145.789 638.944 144.617C640.897 143.445 643.084 142.547 645.506 141.922C647.928 141.297 650.428 140.867 653.006 140.633C655.038 140.555 657.069 140.672 659.1 140.984C660.819 141.297 662.616 141.883 664.491 142.742C666.366 143.523 667.967 144.734 669.295 146.375C669.217 142.234 669.061 138.953 668.827 136.531C668.67 134.031 668.514 132.117 668.358 130.789C668.045 129.227 667.772 128.133 667.538 127.508C667.147 126.961 666.717 126.336 666.249 125.633C665.858 124.93 665.35 124.305 664.725 123.758C664.1 123.133 663.319 122.625 662.381 122.234C661.444 121.844 660.35 121.688 659.1 121.766C657.772 121.844 656.717 122.195 655.936 122.82C655.155 123.445 654.53 124.188 654.061 125.047C653.67 125.828 653.436 126.688 653.358 127.625C653.28 128.562 653.319 129.383 653.475 130.086C653.631 130.555 653.866 131.062 654.178 131.609C654.491 132.078 654.92 132.586 655.467 133.133C656.014 133.68 656.756 134.148 657.694 134.539C655.897 134.773 654.295 134.969 652.889 135.125C651.483 135.203 650.272 135.32 649.256 135.477C648.084 135.633 647.069 135.75 646.209 135.828C645.35 135.906 644.334 136.062 643.163 136.297C642.147 136.453 640.897 136.648 639.413 136.883C637.928 137.117 636.209 137.43 634.256 137.82C634.725 137.273 635.155 136.766 635.545 136.297C635.936 135.75 636.288 135.281 636.6 134.891C636.913 134.422 637.225 133.992 637.538 133.602ZM655.116 147.547C653.709 147.625 652.303 147.977 650.897 148.602C649.491 149.148 648.241 149.969 647.147 151.062C646.053 152.078 645.116 153.289 644.334 154.695C643.631 156.023 643.28 157.508 643.28 159.148C643.28 160.789 643.67 162.234 644.452 163.484C645.311 164.656 646.405 165.633 647.733 166.414C649.139 167.195 650.624 167.664 652.186 167.82C653.827 167.977 655.428 167.82 656.991 167.352C658.475 166.805 659.881 165.945 661.209 164.773C662.538 163.523 663.67 162.195 664.608 160.789C665.545 159.305 666.209 157.859 666.6 156.453C666.991 154.969 667.03 153.758 666.717 152.82C666.092 150.789 664.686 149.383 662.499 148.602C660.311 147.742 657.85 147.391 655.116 147.547ZM744.881 114.148C744.178 115.867 743.553 117.43 743.006 118.836C742.538 120.242 742.108 121.492 741.717 122.586C741.327 123.836 740.975 124.93 740.663 125.867C740.35 126.961 739.999 128.211 739.608 129.617C739.217 130.867 738.709 132.43 738.084 134.305C737.538 136.102 736.874 138.25 736.092 140.75C735.467 137 734.334 134.031 732.694 131.844C731.053 129.578 729.374 127.82 727.655 126.57C725.624 125.164 723.436 124.148 721.092 123.523C716.874 122.82 713.827 122.898 711.952 123.758C710.077 124.617 708.827 125.711 708.202 127.039C707.889 127.586 707.538 128.289 707.147 129.148C706.834 129.93 706.561 130.75 706.327 131.609C706.17 132.469 706.131 133.328 706.209 134.188C706.288 135.047 706.639 135.75 707.264 136.297C707.655 136.688 708.67 137.234 710.311 137.938C711.952 138.562 713.905 139.305 716.17 140.164C718.514 140.945 720.975 141.805 723.553 142.742C726.209 143.68 728.709 144.617 731.053 145.555C733.397 146.492 735.428 147.43 737.147 148.367C738.866 149.305 739.999 150.164 740.545 150.945C741.014 151.727 741.522 152.781 742.069 154.109C742.694 155.359 743.124 156.766 743.358 158.328C743.67 159.812 743.749 161.375 743.592 163.016C743.514 164.578 743.084 166.141 742.303 167.703C741.522 169.266 740.272 170.711 738.553 172.039C736.913 173.367 734.686 174.461 731.874 175.32C728.592 176.336 725.428 176.609 722.381 176.141C719.334 175.672 716.522 174.969 713.944 174.031C711.444 173.094 709.256 172.195 707.381 171.336C705.506 170.398 704.178 170.008 703.397 170.164C702.538 170.32 701.561 170.75 700.467 171.453C699.374 172.156 698.319 172.898 697.303 173.68C696.366 174.383 695.545 175.047 694.842 175.672C694.139 176.219 693.788 176.414 693.788 176.258C693.788 176.102 693.905 175.633 694.139 174.852C694.452 174.07 694.764 173.133 695.077 172.039C695.467 170.867 695.819 169.617 696.131 168.289C696.522 166.883 696.795 165.555 696.952 164.305C697.108 163.289 697.303 162.039 697.538 160.555C697.694 159.227 697.889 157.625 698.124 155.75C698.436 153.797 698.788 151.453 699.178 148.719C699.569 150.75 700.116 152.508 700.819 153.992C701.6 155.477 702.342 156.766 703.045 157.859C703.905 159.109 704.725 160.164 705.506 161.023C706.678 162.117 708.045 163.133 709.608 164.07C711.249 165.008 712.889 165.828 714.53 166.531C716.17 167.156 717.733 167.547 719.217 167.703C720.702 167.859 721.952 167.703 722.967 167.234C723.983 166.766 724.842 165.906 725.545 164.656C726.327 163.406 726.874 162.039 727.186 160.555C727.499 159.07 727.616 157.664 727.538 156.336C727.459 154.93 727.108 153.797 726.483 152.938C726.014 152.391 724.92 151.688 723.202 150.828C721.561 149.969 719.569 149.031 717.225 148.016C714.959 147 712.538 145.945 709.959 144.852C707.459 143.758 705.077 142.664 702.811 141.57C700.624 140.398 698.788 139.305 697.303 138.289C695.897 137.195 695.116 136.219 694.959 135.359C694.803 134.109 694.686 132.742 694.608 131.258C694.53 129.695 694.608 128.172 694.842 126.688C695.155 125.125 695.702 123.641 696.483 122.234C697.342 120.828 698.592 119.656 700.233 118.719C701.327 118.094 702.772 117.625 704.569 117.312C706.366 117 708.358 116.844 710.545 116.844C712.733 116.766 714.999 116.844 717.342 117.078C719.686 117.234 721.913 117.469 724.022 117.781C726.209 118.016 728.163 118.328 729.881 118.719C731.678 119.109 733.045 119.461 733.983 119.773C735.077 120.164 736.249 120.203 737.499 119.891C738.592 119.656 739.764 119.148 741.014 118.367C742.264 117.586 743.553 116.18 744.881 114.148ZM748.514 92.2344C750.311 92.5469 751.952 92.7812 753.436 92.9375C754.92 93.0156 756.17 93.0938 757.186 93.1719C758.358 93.25 759.374 93.2891 760.233 93.2891C761.405 93.2109 762.772 93.0938 764.334 92.9375C765.663 92.7812 767.264 92.5859 769.139 92.3516C771.092 92.1172 773.319 91.8047 775.819 91.4141C774.647 92.0391 773.67 92.6641 772.889 93.2891C772.108 93.8359 771.483 94.4219 771.014 95.0469C770.467 95.75 770.038 96.4141 769.725 97.0391C769.334 98.0547 768.905 100.164 768.436 103.367C767.967 106.102 767.381 110.164 766.678 115.555C766.053 120.945 765.233 128.25 764.217 137.469C767.03 134.656 769.686 132.547 772.186 131.141C774.764 129.656 777.03 128.602 778.983 127.977C781.249 127.273 783.358 126.922 785.311 126.922C787.733 127.156 790.194 127.938 792.694 129.266C795.272 130.516 797.655 132 799.842 133.719C802.108 135.438 804.061 137.273 805.702 139.227C807.42 141.18 808.631 142.898 809.334 144.383C809.803 145.398 810.038 146.727 810.038 148.367C810.038 149.93 809.881 151.648 809.569 153.523C809.256 155.398 808.827 157.312 808.28 159.266C807.733 161.219 807.186 163.055 806.639 164.773C806.17 166.492 805.741 168.016 805.35 169.344C804.959 170.594 804.725 171.492 804.647 172.039C804.491 173.211 804.569 174.344 804.881 175.438C805.116 176.375 805.584 177.391 806.288 178.484C806.991 179.5 808.045 180.359 809.452 181.062C808.358 180.906 807.186 180.789 805.936 180.711C804.764 180.555 803.631 180.438 802.538 180.359C801.288 180.281 800.038 180.242 798.788 180.242H794.569C793.241 180.242 791.717 180.281 789.999 180.359C788.28 180.359 786.405 180.398 784.374 180.477C785.467 180.086 786.405 179.578 787.186 178.953C787.967 178.25 788.631 177.586 789.178 176.961C789.803 176.258 790.35 175.516 790.819 174.734C791.131 174.109 791.522 172.938 791.991 171.219C792.459 169.422 792.889 167.391 793.28 165.125C793.67 162.781 793.944 160.32 794.1 157.742C794.334 155.164 794.374 152.703 794.217 150.359C794.139 147.938 793.788 145.789 793.163 143.914C792.616 142.039 791.756 140.672 790.584 139.812C787.069 137.156 783.866 135.867 780.975 135.945C778.163 135.945 775.467 137.078 772.889 139.344C771.952 140.203 771.053 141.062 770.194 141.922C769.413 142.703 768.553 143.641 767.616 144.734C766.678 145.75 765.819 146.805 765.038 147.898C765.038 149.07 765.077 150.359 765.155 151.766C765.233 153.172 765.311 154.539 765.389 155.867C765.467 157.352 765.584 158.836 765.741 160.32C765.897 162.586 766.131 164.812 766.444 167C766.678 168.875 766.991 170.945 767.381 173.211C767.772 175.398 768.28 177.391 768.905 179.188C767.889 179.031 766.834 178.992 765.741 179.07C764.647 179.07 763.592 179.07 762.577 179.07C761.405 179.148 760.272 179.188 759.178 179.188C758.163 179.266 757.108 179.383 756.014 179.539C755.077 179.695 754.061 179.852 752.967 180.008C751.874 180.086 750.819 180.242 749.803 180.477C750.741 178.68 751.522 176.922 752.147 175.203C752.772 173.406 753.28 171.844 753.67 170.516C754.139 168.953 754.53 167.43 754.842 165.945C755.077 164.773 755.233 162.547 755.311 159.266C755.467 155.906 755.584 152.078 755.663 147.781C755.741 143.406 755.78 138.797 755.78 133.953C755.78 129.109 755.741 124.5 755.663 120.125C755.584 115.75 755.428 111.922 755.194 108.641C755.038 105.359 754.842 103.094 754.608 101.844C754.295 100.594 753.866 99.3438 753.319 98.0938C752.85 97 752.225 95.9453 751.444 94.9297C750.663 93.8359 749.686 92.9375 748.514 92.2344ZM815.897 98.7969C817.694 99.2656 819.334 99.6172 820.819 99.8516C822.381 100.008 823.709 100.125 824.803 100.203C826.131 100.281 827.342 100.32 828.436 100.32C829.53 100.32 830.897 100.242 832.538 100.086C835.428 99.8516 839.53 99.2656 844.842 98.3281C843.983 98.9531 843.163 99.5781 842.381 100.203C841.678 100.75 841.053 101.297 840.506 101.844L838.749 103.602C837.733 105.008 836.717 107.391 835.702 110.75C834.842 113.641 833.905 117.703 832.889 122.938C831.952 128.172 831.092 135.125 830.311 143.797C834.139 140.047 837.733 137.234 841.092 135.359C844.53 133.406 847.538 132 850.116 131.141C853.163 130.203 855.936 129.695 858.436 129.617C861.639 129.852 864.413 130.516 866.756 131.609C869.178 132.625 871.209 133.875 872.85 135.359C874.569 136.766 875.936 138.25 876.952 139.812C878.045 141.297 878.866 142.625 879.413 143.797C879.725 144.578 879.959 146.023 880.116 148.133C880.35 150.164 880.389 152.508 880.233 155.164C880.077 157.82 879.647 160.633 878.944 163.602C878.319 166.492 877.264 169.188 875.78 171.688C874.374 174.109 872.499 176.141 870.155 177.781C867.889 179.422 865.038 180.32 861.6 180.477C857.616 180.477 853.749 180.008 849.999 179.07C846.795 178.289 843.397 176.922 839.803 174.969C836.288 172.938 833.28 170.047 830.78 166.297C830.78 167.234 830.78 168.172 830.78 169.109C830.78 169.969 830.819 170.711 830.897 171.336C830.975 172.195 831.053 172.938 831.131 173.562C831.209 174.266 831.405 175.008 831.717 175.789C831.952 176.414 832.303 177.195 832.772 178.133C833.319 178.992 834.022 179.852 834.881 180.711C834.022 180.633 833.163 180.594 832.303 180.594C831.444 180.516 830.584 180.516 829.725 180.594C828.788 180.672 827.85 180.75 826.913 180.828C825.975 180.906 824.999 181.023 823.983 181.18C823.124 181.336 822.108 181.531 820.936 181.766C819.764 182 818.553 182.273 817.303 182.586C817.538 181.883 817.733 180.867 817.889 179.539C818.045 178.133 818.202 176.609 818.358 174.969C818.592 173.25 818.749 171.453 818.827 169.578C818.983 167.703 819.139 165.828 819.295 163.953C819.608 159.656 819.881 154.969 820.116 149.891C820.35 142 820.389 134.656 820.233 127.859C820.155 124.969 819.999 122.039 819.764 119.07C819.608 116.102 819.374 113.328 819.061 110.75C818.749 108.094 818.319 105.75 817.772 103.719C817.303 101.609 816.678 99.9688 815.897 98.7969ZM831.131 155.867C832.381 158.133 833.709 160.086 835.116 161.727C836.522 163.289 837.928 164.617 839.334 165.711C840.741 166.805 842.108 167.664 843.436 168.289C844.842 168.914 846.17 169.383 847.42 169.695C850.311 170.477 853.163 170.555 855.975 169.93C858.788 169.148 860.975 167.586 862.538 165.242C864.1 162.898 865.311 160.242 866.17 157.273C866.561 155.867 866.795 154.07 866.874 151.883C867.03 149.695 866.795 147.586 866.17 145.555C865.624 143.445 864.608 141.609 863.124 140.047C861.639 138.406 859.491 137.43 856.678 137.117C854.725 137.117 852.459 137.664 849.881 138.758C847.616 139.695 844.92 141.258 841.795 143.445C838.67 145.555 835.116 148.719 831.131 152.938V155.867ZM917.147 128.562C919.178 128.562 921.288 128.953 923.475 129.734C925.663 130.438 927.772 131.375 929.803 132.547C931.834 133.641 933.67 134.852 935.311 136.18C937.03 137.43 938.436 138.641 939.53 139.812C941.483 141.922 942.811 144.773 943.514 148.367C944.295 151.883 944.452 155.516 943.983 159.266C943.514 162.938 942.42 166.414 940.702 169.695C938.983 172.977 936.6 175.398 933.553 176.961C931.366 178.055 929.217 178.914 927.108 179.539C924.999 180.164 922.967 180.633 921.014 180.945C919.061 181.258 917.225 181.414 915.506 181.414C913.788 181.414 912.303 181.375 911.053 181.297C908.709 181.141 906.249 180.32 903.67 178.836C901.17 177.352 898.788 175.516 896.522 173.328C894.334 171.141 892.459 168.758 890.897 166.18C889.334 163.523 888.397 161.023 888.084 158.68C887.616 155.477 887.538 152.117 887.85 148.602C888.163 145.086 889.295 141.844 891.249 138.875C893.28 135.906 896.327 133.445 900.389 131.492C904.53 129.539 910.116 128.562 917.147 128.562ZM913.28 174.031C914.139 174.188 915.311 173.992 916.795 173.445C918.28 172.82 919.725 171.844 921.131 170.516C922.616 169.188 923.905 167.508 924.999 165.477C926.17 163.367 926.874 160.828 927.108 157.859C927.342 154.969 927.342 152.312 927.108 149.891C926.952 147.469 926.6 145.359 926.053 143.562C925.506 141.688 924.881 140.164 924.178 138.992C923.475 137.82 922.733 137 921.952 136.531C920.624 135.828 919.022 135.281 917.147 134.891C915.272 134.422 913.67 134.5 912.342 135.125C911.717 135.438 910.936 136.102 909.999 137.117C909.061 138.133 908.124 139.422 907.186 140.984C906.249 142.469 905.389 144.188 904.608 146.141C903.905 148.094 903.397 150.125 903.084 152.234C902.772 154.344 902.694 156.609 902.85 159.031C903.084 161.453 903.592 163.758 904.374 165.945C905.155 168.055 906.249 169.891 907.655 171.453C909.139 172.938 911.014 173.797 913.28 174.031ZM958.397 133.602C958.788 133.133 959.022 132.273 959.1 131.023C959.256 129.695 959.569 128.211 960.038 126.57C960.584 124.93 961.483 123.211 962.733 121.414C963.983 119.617 966.014 117.938 968.827 116.375C971.561 114.812 974.217 113.875 976.795 113.562C979.374 113.25 981.834 113.367 984.178 113.914C986.522 114.461 988.709 115.32 990.741 116.492C992.85 117.664 994.764 118.953 996.483 120.359C997.655 121.297 998.592 122.664 999.295 124.461C999.999 126.18 1000.55 128.133 1000.94 130.32C1001.33 132.508 1001.6 134.812 1001.76 137.234C1001.99 139.578 1002.15 141.883 1002.23 144.148C1002.3 146.336 1002.34 148.367 1002.34 150.242C1002.42 152.039 1002.58 153.523 1002.81 154.695C1003.12 156.414 1003.67 157.898 1004.45 159.148C1005.23 160.32 1006.09 161.336 1007.03 162.195C1007.97 162.977 1008.9 163.602 1009.84 164.07C1010.78 164.539 1011.6 164.891 1012.3 165.125C1012.77 165.359 1013.2 165.516 1013.59 165.594C1014.37 165.906 1014.92 165.906 1015.23 165.594C1014.76 166.688 1014.33 167.625 1013.94 168.406C1013.55 169.188 1013.24 169.852 1013.01 170.398C1012.69 171.023 1012.42 171.531 1012.19 171.922C1011.95 172.391 1011.68 172.82 1011.37 173.211C1011.13 173.602 1010.82 174.031 1010.43 174.5C1010.04 174.969 1009.65 175.477 1009.26 176.023C1008.24 175.633 1007.26 175.164 1006.33 174.617C1005.47 174.07 1004.69 173.562 1003.98 173.094C1003.12 172.547 1002.34 172 1001.64 171.453C1000.94 170.906 1000.27 170.281 999.647 169.578C999.1 168.953 998.514 168.289 997.889 167.586C997.342 166.883 996.874 166.102 996.483 165.242C996.014 166.258 994.881 167.703 993.084 169.578C991.366 171.453 989.1 173.172 986.288 174.734C983.475 176.219 980.194 177.273 976.444 177.898C972.772 178.523 968.709 178.094 964.256 176.609C962.303 175.984 960.467 175.086 958.749 173.914C957.03 172.664 955.545 171.18 954.295 169.461C953.124 167.742 952.264 165.789 951.717 163.602C951.249 161.336 951.288 158.836 951.834 156.102C952.381 153.367 953.358 151.062 954.764 149.188C956.17 147.312 957.85 145.789 959.803 144.617C961.756 143.445 963.944 142.547 966.366 141.922C968.788 141.297 971.288 140.867 973.866 140.633C975.897 140.555 977.928 140.672 979.959 140.984C981.678 141.297 983.475 141.883 985.35 142.742C987.225 143.523 988.827 144.734 990.155 146.375C990.077 142.234 989.92 138.953 989.686 136.531C989.53 134.031 989.374 132.117 989.217 130.789C988.905 129.227 988.631 128.133 988.397 127.508C988.006 126.961 987.577 126.336 987.108 125.633C986.717 124.93 986.209 124.305 985.584 123.758C984.959 123.133 984.178 122.625 983.241 122.234C982.303 121.844 981.209 121.688 979.959 121.766C978.631 121.844 977.577 122.195 976.795 122.82C976.014 123.445 975.389 124.188 974.92 125.047C974.53 125.828 974.295 126.688 974.217 127.625C974.139 128.562 974.178 129.383 974.334 130.086C974.491 130.555 974.725 131.062 975.038 131.609C975.35 132.078 975.78 132.586 976.327 133.133C976.874 133.68 977.616 134.148 978.553 134.539C976.756 134.773 975.155 134.969 973.749 135.125C972.342 135.203 971.131 135.32 970.116 135.477C968.944 135.633 967.928 135.75 967.069 135.828C966.209 135.906 965.194 136.062 964.022 136.297C963.006 136.453 961.756 136.648 960.272 136.883C958.788 137.117 957.069 137.43 955.116 137.82C955.584 137.273 956.014 136.766 956.405 136.297C956.795 135.75 957.147 135.281 957.459 134.891C957.772 134.422 958.084 133.992 958.397 133.602ZM975.975 147.547C974.569 147.625 973.163 147.977 971.756 148.602C970.35 149.148 969.1 149.969 968.006 151.062C966.913 152.078 965.975 153.289 965.194 154.695C964.491 156.023 964.139 157.508 964.139 159.148C964.139 160.789 964.53 162.234 965.311 163.484C966.17 164.656 967.264 165.633 968.592 166.414C969.999 167.195 971.483 167.664 973.045 167.82C974.686 167.977 976.288 167.82 977.85 167.352C979.334 166.805 980.741 165.945 982.069 164.773C983.397 163.523 984.53 162.195 985.467 160.789C986.405 159.305 987.069 157.859 987.459 156.453C987.85 154.969 987.889 153.758 987.577 152.82C986.952 150.789 985.545 149.383 983.358 148.602C981.17 147.742 978.709 147.391 975.975 147.547ZM1012.89 124.93C1014.37 125.008 1015.7 125.047 1016.87 125.047C1018.12 124.969 1019.18 124.891 1020.04 124.812C1021.05 124.734 1021.95 124.656 1022.73 124.578C1023.9 124.422 1025.12 124.227 1026.37 123.992C1027.46 123.836 1028.59 123.641 1029.76 123.406C1031.01 123.094 1032.23 122.742 1033.4 122.352C1032.93 123.523 1032.54 124.539 1032.23 125.398C1031.91 126.258 1031.68 127 1031.52 127.625C1031.29 128.328 1031.17 128.914 1031.17 129.383C1031.09 129.93 1031.05 130.594 1031.05 131.375C1030.98 132.703 1030.98 134.852 1031.05 137.82C1035.12 134.305 1038.51 131.57 1041.25 129.617C1044.06 127.664 1046.29 126.141 1047.93 125.047C1049.88 123.797 1051.4 122.977 1052.5 122.586C1055.39 122.117 1057.93 122.781 1060.12 124.578C1061.05 125.359 1061.95 126.414 1062.81 127.742C1063.67 128.992 1064.41 130.672 1065.04 132.781C1065.66 134.891 1066.13 137.43 1066.44 140.398C1066.76 143.289 1066.8 146.766 1066.56 150.828C1064.92 150.984 1063.44 151.141 1062.11 151.297C1060.86 151.453 1059.8 151.57 1058.94 151.648C1057.93 151.805 1056.99 151.883 1056.13 151.883L1052.97 152.234C1051.87 152.391 1050.51 152.547 1048.87 152.703C1047.3 152.781 1045.39 152.938 1043.12 153.172C1046.4 150.516 1048.51 148.211 1049.45 146.258C1050.47 144.227 1050.9 142.547 1050.74 141.219C1050.58 139.734 1049.88 138.445 1048.63 137.352C1047.15 136.492 1045.55 136.18 1043.83 136.414C1042.34 136.57 1040.62 137.234 1038.67 138.406C1036.72 139.578 1034.65 141.766 1032.46 144.969C1032.62 149.969 1032.77 154.109 1032.93 157.391C1033.16 160.672 1033.36 163.328 1033.51 165.359C1033.75 167.703 1033.94 169.539 1034.1 170.867C1034.33 172.039 1034.8 173.289 1035.51 174.617C1036.05 175.711 1036.83 176.922 1037.85 178.25C1038.87 179.578 1040.19 180.906 1041.83 182.234C1038.4 182.078 1035.58 182.078 1033.4 182.234C1032.07 182.312 1030.9 182.391 1029.88 182.469C1028.79 182.625 1027.62 182.781 1026.37 182.938C1025.27 183.094 1023.98 183.25 1022.5 183.406C1021.09 183.641 1019.53 183.875 1017.81 184.109C1018.44 183.25 1018.94 182.234 1019.33 181.062C1019.73 179.969 1020.04 178.914 1020.27 177.898C1020.58 176.727 1020.82 175.516 1020.98 174.266C1021.05 173.172 1021.09 171.531 1021.09 169.344C1021.17 167.156 1021.13 164.695 1020.98 161.961C1020.9 159.148 1020.78 156.258 1020.62 153.289C1020.47 150.242 1020.27 147.391 1020.04 144.734C1019.8 142.078 1019.53 139.773 1019.22 137.82C1018.98 135.789 1018.71 134.383 1018.4 133.602C1018.01 132.664 1017.54 131.727 1016.99 130.789C1016.52 129.93 1015.94 129.031 1015.23 128.094C1014.53 127.078 1013.75 126.023 1012.89 124.93ZM1129.02 91.2969C1130.51 91.375 1132.11 91.4141 1133.83 91.4141C1135.31 91.4141 1136.99 91.4531 1138.87 91.5312C1140.82 91.5312 1142.85 91.4531 1144.96 91.2969C1143.08 92.1562 1141.44 93.4062 1140.04 95.0469C1138.63 96.6875 1137.5 98.3281 1136.64 99.9688C1135.55 101.922 1134.65 103.953 1133.94 106.062C1133.55 107.312 1133.24 109.539 1133.01 112.742C1132.77 115.867 1132.58 119.539 1132.42 123.758C1132.34 127.977 1132.3 132.43 1132.3 137.117C1132.3 141.805 1132.34 146.297 1132.42 150.594C1132.5 154.812 1132.62 158.562 1132.77 161.844C1132.93 165.125 1133.12 167.43 1133.36 168.758C1133.67 170.32 1134.06 171.805 1134.53 173.211C1134.92 174.461 1135.43 175.75 1136.05 177.078C1136.68 178.328 1137.46 179.344 1138.4 180.125L1126.44 185.516C1125.82 184.656 1125.31 183.758 1124.92 182.82C1124.53 181.961 1124.22 181.18 1123.98 180.477C1123.67 179.617 1123.48 178.836 1123.4 178.133C1123.24 177.195 1123.08 176.18 1122.93 175.086C1122.77 173.914 1122.58 172.82 1122.34 171.805C1122.19 170.711 1122.07 169.812 1121.99 169.109C1121.91 168.406 1121.91 167.977 1121.99 167.82C1122.07 167.664 1121.6 168.367 1120.58 169.93C1119.57 171.414 1118.05 173.172 1116.01 175.203C1114.06 177.156 1111.64 179.07 1108.75 180.945C1105.86 182.742 1102.62 183.875 1099.02 184.344C1095.35 184.812 1091.95 184.109 1088.83 182.234C1085.78 180.359 1083.16 177.742 1080.98 174.383C1078.79 170.945 1077.11 167 1075.94 162.547C1074.84 158.016 1074.41 153.406 1074.65 148.719C1074.8 145.594 1075.51 142.82 1076.76 140.398C1078.01 137.898 1079.57 135.75 1081.44 133.953C1083.4 132.078 1085.51 130.516 1087.77 129.266C1090.12 127.938 1092.38 126.844 1094.57 125.984C1096.83 125.125 1098.94 124.5 1100.9 124.109C1102.85 123.719 1104.41 123.445 1105.58 123.289C1106.99 123.211 1108.59 123.445 1110.39 123.992C1111.95 124.461 1113.75 125.242 1115.78 126.336C1117.89 127.43 1120.23 129.07 1122.81 131.258C1122.34 123.445 1121.91 117.195 1121.52 112.508C1121.13 107.742 1120.74 104.109 1120.35 101.609C1119.96 98.6406 1119.61 96.6094 1119.3 95.5156C1118.9 94.7344 1118.4 93.9531 1117.77 93.1719C1117.23 92.5469 1116.52 91.9219 1115.66 91.2969C1114.88 90.5938 1113.94 90.0469 1112.85 89.6562C1114.88 90.0469 1116.83 90.3203 1118.71 90.4766C1120.58 90.6328 1122.3 90.7891 1123.87 90.9453C1125.66 91.1016 1127.38 91.2188 1129.02 91.2969ZM1099.61 135.008C1098.12 135.555 1096.91 136.492 1095.98 137.82C1095.12 139.148 1094.41 140.75 1093.87 142.625C1093.32 144.422 1092.93 146.375 1092.69 148.484C1092.54 150.516 1092.42 152.508 1092.34 154.461C1092.34 156.336 1092.34 158.055 1092.34 159.617C1092.34 161.18 1092.34 162.352 1092.34 163.133C1092.34 163.602 1092.42 164.461 1092.58 165.711C1092.81 166.883 1093.28 168.133 1093.98 169.461C1094.69 170.711 1095.66 171.844 1096.91 172.859C1098.24 173.875 1100 174.383 1102.19 174.383C1103.98 174.227 1105.9 173.602 1107.93 172.508C1109.73 171.57 1111.76 170.086 1114.02 168.055C1116.37 165.945 1118.87 162.938 1121.52 159.031C1121.37 156.531 1121.25 154.461 1121.17 152.82C1121.17 151.18 1121.13 149.852 1121.05 148.836C1120.98 147.664 1120.94 146.727 1120.94 146.023V144.266C1120.94 143.797 1120.94 143.289 1120.94 142.742C1120.94 142.195 1120.98 141.688 1121.05 141.219C1118.87 139.656 1116.91 138.328 1115.19 137.234C1113.55 136.062 1111.91 135.203 1110.27 134.656C1108.71 134.031 1107.07 133.758 1105.35 133.836C1103.71 133.836 1101.8 134.227 1099.61 135.008Z" fill="#F0F7F7"/>
<path d="M202.076 503.685C204.355 502.968 206.21 502.382 207.643 501.927C209.075 501.406 210.247 500.983 211.158 500.657C212.2 500.267 212.981 499.909 213.502 499.583L215.846 498.411C216.757 497.955 217.929 497.369 219.361 496.653C220.794 495.872 222.649 494.896 224.928 493.724C224.407 496.198 224.016 498.541 223.756 500.755C223.561 502.903 223.398 504.824 223.268 506.517C223.072 508.47 222.975 510.26 222.975 511.888C222.91 513.255 222.812 515.078 222.682 517.356C222.617 519.635 222.519 522.109 222.389 524.778C222.259 527.448 222.128 530.182 221.998 532.981C221.868 535.781 221.77 538.418 221.705 540.892C221.705 543.3 221.738 545.384 221.803 547.142C221.933 548.899 222.161 550.104 222.486 550.755C222.812 551.536 223.235 552.285 223.756 553.001C224.212 553.652 224.733 554.401 225.318 555.247C225.97 556.028 226.751 556.81 227.662 557.591C226.165 557.916 224.765 558.209 223.463 558.47C222.161 558.665 221.022 558.828 220.045 558.958C218.873 559.153 217.832 559.316 216.92 559.446C215.943 559.511 214.609 559.674 212.916 559.935C211.484 560.13 209.661 560.39 207.447 560.716C205.234 560.976 202.499 561.269 199.244 561.595C200.937 560.553 202.272 559.544 203.248 558.567C204.29 557.591 205.071 556.744 205.592 556.028C206.178 555.182 206.536 554.368 206.666 553.587C206.731 553.066 206.829 551.666 206.959 549.388C207.154 547.044 207.317 544.31 207.447 541.185C207.643 537.994 207.805 534.609 207.936 531.028C208.131 527.382 208.261 523.997 208.326 520.872C208.391 517.747 208.424 515.078 208.424 512.864C208.424 510.651 208.326 509.316 208.131 508.86C207.871 508.405 207.48 507.884 206.959 507.298C206.503 506.777 205.885 506.224 205.104 505.638C204.387 505.052 203.378 504.401 202.076 503.685Z" fill="#F0F7F7"/>
<path d="M197.283 695.89C198.52 696.801 199.757 697.485 200.994 697.94C202.296 698.331 203.468 698.591 204.509 698.722C205.681 698.917 206.853 698.95 208.025 698.819C209.132 698.689 210.271 698.299 211.443 697.647C212.615 696.996 213.982 696.313 215.545 695.597C217.107 694.881 218.93 694.262 221.013 693.741C223.162 693.155 225.733 692.862 228.728 692.862C230.03 692.862 231.397 693.123 232.83 693.644C234.327 694.164 235.759 694.848 237.127 695.694C238.494 696.476 239.731 697.354 240.838 698.331C242.009 699.308 242.888 700.284 243.474 701.261C244.125 702.237 244.581 703.832 244.841 706.046C245.102 708.194 245.2 710.538 245.134 713.077C245.069 715.616 244.841 718.123 244.451 720.597C244.125 723.071 243.637 725.089 242.986 726.651C242.205 728.019 240.707 729.776 238.494 731.925C236.606 733.748 233.774 736.091 229.998 738.956C226.222 741.821 221.144 745.239 214.763 749.21C218.539 749.145 221.697 749.047 224.236 748.917C226.84 748.722 228.956 748.526 230.584 748.331C232.472 748.071 233.969 747.81 235.076 747.55C236.052 747.159 237.094 746.606 238.201 745.89C239.112 745.239 240.089 744.392 241.13 743.351C242.237 742.309 243.311 740.942 244.353 739.249C244.548 742.765 244.744 745.532 244.939 747.55C245.069 748.722 245.167 749.731 245.232 750.577C245.297 751.358 245.362 752.27 245.427 753.312C245.492 754.223 245.525 755.265 245.525 756.437C245.59 757.608 245.688 758.845 245.818 760.147C242.563 759.301 239.601 758.65 236.931 758.194C234.262 757.674 231.983 757.315 230.095 757.12C227.882 756.86 225.896 756.729 224.138 756.729C222.315 756.795 220.297 756.957 218.084 757.218C216.13 757.478 213.787 757.869 211.052 758.39C208.383 758.845 205.356 759.529 201.97 760.44C201.71 759.724 201.482 759.008 201.287 758.292C201.091 757.511 200.929 756.762 200.798 756.046C200.603 755.265 200.44 754.483 200.31 753.702C200.18 752.921 200.05 752.172 199.92 751.456C199.789 750.805 199.692 750.121 199.627 749.405C199.561 748.689 199.496 748.006 199.431 747.354C204.64 744.034 208.871 741.039 212.127 738.37C215.382 735.636 217.953 733.325 219.841 731.437C221.99 729.223 223.617 727.205 224.724 725.382C225.831 723.168 226.742 720.727 227.459 718.058C228.175 715.388 228.403 712.914 228.142 710.636C227.947 708.357 227.166 706.502 225.798 705.069C224.431 703.572 222.25 702.921 219.255 703.116C217.302 703.246 215.447 703.93 213.689 705.167C211.996 706.404 210.434 707.901 209.002 709.659C207.569 711.417 206.3 713.305 205.193 715.323C204.086 717.276 203.142 719.132 202.361 720.89C201.645 722.647 201.059 724.112 200.603 725.284C200.213 726.456 200.017 727.075 200.017 727.14C199.952 727.27 199.854 726.782 199.724 725.675C199.659 724.568 199.561 723.201 199.431 721.573C199.366 719.881 199.269 718.123 199.138 716.3C199.008 714.477 198.878 712.947 198.748 711.71C198.683 710.733 198.585 709.464 198.455 707.901C198.259 705.362 197.869 701.358 197.283 695.89Z" fill="#F0F7F7"/>
<path d="M201.079 897.332C202.185 898.113 203.325 898.699 204.497 899.09C205.668 899.48 206.71 899.773 207.622 899.969C208.728 900.229 209.803 900.359 210.844 900.359C212.146 900.359 213.318 900.197 214.36 899.871C215.467 899.546 216.671 899.22 217.973 898.895C219.275 898.569 220.773 898.309 222.465 898.113C224.158 897.853 226.274 897.82 228.813 898.016C231.352 898.211 233.631 898.797 235.649 899.773C237.667 900.685 239.36 901.857 240.727 903.289C242.159 904.656 243.266 906.186 244.047 907.879C244.829 909.572 245.219 911.297 245.219 913.055C245.089 915.724 244.666 918.23 243.95 920.574C243.299 922.592 242.29 924.578 240.922 926.531C239.555 928.419 237.537 929.754 234.868 930.535C238.123 930.991 240.662 931.837 242.485 933.074C244.373 934.311 245.838 935.581 246.879 936.883C248.051 938.445 248.865 940.138 249.321 941.961C249.711 944.37 249.679 946.844 249.223 949.383C248.767 951.857 247.921 954.201 246.684 956.414C245.512 958.562 243.885 960.483 241.801 962.176C239.783 963.803 237.342 965.008 234.477 965.789C232.524 966.31 230.278 966.44 227.739 966.18C225.265 965.854 222.856 965.398 220.512 964.812C218.168 964.227 216.053 963.641 214.165 963.055C212.277 962.469 210.974 962.208 210.258 962.273C209.672 962.339 208.989 962.566 208.208 962.957C207.491 963.283 206.645 963.803 205.668 964.52C204.757 965.171 203.65 966.115 202.348 967.352C202.674 964.422 202.902 962.078 203.032 960.32C203.227 958.562 203.39 957.163 203.52 956.121C203.65 954.949 203.715 954.07 203.715 953.484V951.336C203.715 950.555 203.683 949.546 203.618 948.309C203.553 947.072 203.487 945.509 203.422 943.621C206.743 947.658 209.868 950.685 212.797 952.703C215.727 954.721 218.299 956.186 220.512 957.098C223.116 958.139 225.493 958.628 227.641 958.562C229.464 958.432 230.929 957.846 232.036 956.805C233.142 955.698 233.924 954.396 234.379 952.898C234.835 951.401 234.998 949.806 234.868 948.113C234.737 946.355 234.314 944.728 233.598 943.23C232.947 941.668 232.036 940.333 230.864 939.227C229.692 938.055 228.325 937.339 226.762 937.078C224.874 936.753 223.084 936.72 221.391 936.98C219.894 937.176 218.331 937.632 216.704 938.348C215.076 938.999 213.709 940.138 212.602 941.766C212.472 940.659 212.374 939.715 212.309 938.934C212.309 938.152 212.277 937.501 212.211 936.98C212.146 936.395 212.114 935.971 212.114 935.711C212.114 935.385 212.081 934.897 212.016 934.246C211.951 933.725 211.886 933.042 211.821 932.195C211.821 931.284 211.756 930.145 211.625 928.777C212.797 929.103 213.904 929.363 214.946 929.559C215.987 929.689 216.899 929.786 217.68 929.852C218.592 929.917 219.438 929.917 220.219 929.852C221.196 929.786 222.368 929.428 223.735 928.777C225.167 928.061 226.502 927.117 227.739 925.945C228.976 924.773 229.952 923.374 230.668 921.746C231.45 920.118 231.71 918.328 231.45 916.375C230.864 912.404 229.529 909.572 227.446 907.879C225.428 906.121 223.344 905.307 221.196 905.438C219.764 905.633 218.071 906.316 216.118 907.488C214.425 908.465 212.407 909.962 210.063 911.98C207.784 913.934 205.18 916.701 202.25 920.281C202.381 918.523 202.446 916.961 202.446 915.594C202.446 914.161 202.446 912.99 202.446 912.078C202.446 910.971 202.413 909.995 202.348 909.148L202.055 906.219C201.925 905.242 201.795 904.005 201.665 902.508C201.534 901.01 201.339 899.285 201.079 897.332Z" fill="#F0F7F7"/>
<path d="M216.236 1099.68C218.385 1099.81 220.143 1099.91 221.51 1099.97C222.942 1100.04 224.082 1100.07 224.928 1100.07C225.904 1100.14 226.653 1100.14 227.174 1100.07H229.713C230.69 1100.07 232.057 1100.1 233.815 1100.17C235.637 1100.17 238.014 1100.2 240.943 1100.27C240.618 1100.72 240.358 1101.27 240.162 1101.93C239.967 1102.58 239.804 1103.23 239.674 1103.88C239.479 1104.6 239.348 1105.38 239.283 1106.22C239.218 1107.26 239.088 1108.89 238.893 1111.11C238.762 1112.99 238.567 1115.63 238.307 1119.02C238.111 1122.34 237.851 1126.67 237.526 1132C239.414 1132 241.041 1131.84 242.408 1131.52C243.776 1131.12 244.915 1130.67 245.826 1130.15C246.868 1129.63 247.714 1129.01 248.365 1128.29C248.691 1127.9 249.049 1127.48 249.44 1127.02C249.765 1126.63 250.188 1126.21 250.709 1125.75C251.23 1125.3 251.783 1124.81 252.369 1124.29C252.239 1126.05 252.141 1127.58 252.076 1128.88C252.011 1130.12 251.946 1131.16 251.881 1132C251.816 1132.98 251.751 1133.76 251.686 1134.35C251.686 1135.06 251.621 1136.01 251.49 1137.18C251.36 1138.22 251.23 1139.62 251.1 1141.38C250.97 1143.07 250.839 1145.22 250.709 1147.82C250.058 1146.52 249.44 1145.51 248.854 1144.8C248.333 1144.02 247.877 1143.43 247.486 1143.04C246.966 1142.58 246.51 1142.26 246.119 1142.06C245.664 1141.93 245.045 1141.8 244.264 1141.67C243.548 1141.54 242.636 1141.48 241.529 1141.48C240.488 1141.41 239.121 1141.35 237.428 1141.28C237.428 1145.12 237.493 1148.21 237.623 1150.56C237.818 1152.9 238.014 1154.73 238.209 1156.03C238.47 1157.59 238.762 1158.7 239.088 1159.35C239.479 1159.93 240.032 1160.62 240.748 1161.4C241.399 1162.11 242.278 1162.96 243.385 1163.94C244.492 1164.91 245.924 1166.02 247.682 1167.26C246.184 1167.58 244.752 1167.81 243.385 1167.94C242.083 1168.01 240.878 1168.1 239.772 1168.23C238.535 1168.36 237.363 1168.43 236.256 1168.43C235.084 1168.43 233.652 1168.49 231.959 1168.62C230.462 1168.76 228.606 1168.89 226.393 1169.02C224.179 1169.15 221.51 1169.31 218.385 1169.5C219.492 1168.4 220.371 1167.39 221.022 1166.48C221.738 1165.5 222.291 1164.65 222.682 1163.94C223.137 1163.16 223.463 1162.47 223.658 1161.89C223.789 1161.17 223.984 1159.97 224.244 1158.27C224.44 1156.84 224.667 1154.86 224.928 1152.32C225.188 1149.78 225.481 1146.42 225.807 1142.26L199.244 1142.55L199.733 1136.01C202.923 1131.45 205.462 1127.67 207.35 1124.68C209.303 1121.62 210.8 1119.15 211.842 1117.26C213.014 1115.11 213.86 1113.42 214.381 1112.18C214.707 1111.01 214.999 1109.77 215.26 1108.47C215.52 1107.36 215.748 1106.06 215.943 1104.56C216.139 1103 216.236 1101.37 216.236 1099.68ZM226.979 1132.98C227.109 1131.22 227.207 1129.63 227.272 1128.2C227.402 1126.7 227.499 1125.4 227.565 1124.29C227.63 1123.05 227.662 1121.88 227.662 1120.77V1117.16C227.662 1115.99 227.662 1114.62 227.662 1113.06C227.727 1111.43 227.792 1109.61 227.858 1107.59L213.502 1133.18L226.979 1132.98Z" fill="#F0F7F7"/>
</svg>
