<svg width="361" height="178" viewBox="0 0 361 178" fill="none" xmlns="http://www.w3.org/2000/svg">
<path fill-rule="evenodd" clip-rule="evenodd" d="M335.367 48.7937V126.168C335.367 147.52 312.881 164.855 285.186 164.855H73.3106C45.615 164.855 23.1301 147.52 23.1301 126.168V48.7937C23.1301 27.4419 45.615 10.1064 73.3106 10.1064H285.186C312.881 10.1064 335.367 27.4419 335.367 48.7937Z" fill="#F0F7F7"/>
<path fill-rule="evenodd" clip-rule="evenodd" d="M360.457 44.7637V133.422C360.457 157.888 334.693 177.751 302.958 177.751H58.326C26.5918 177.751 0.827637 157.888 0.827637 133.422V44.7637C0.827637 20.2981 26.5918 0.43457 58.326 0.43457H302.958C334.693 0.43457 360.457 20.2981 360.457 44.7637ZM311.342 19.7349C312.172 19.2199 312.626 18.4273 312.563 17.6079C312.499 16.7884 311.925 16.0431 311.021 15.6082C303.463 12.1214 294.627 10.1065 285.186 10.1065H73.3105C65.1075 10.1065 53.1747 14.1748 46.7533 16.6154C45.7463 16.9878 45.0559 17.7307 44.923 18.5851C44.7894 19.4396 45.2316 20.2874 46.0951 20.8329C64.5112 32.5613 144.23 82.727 165.671 87.7213C172.802 89.3825 180.892 89.1988 188.02 87.527C210.14 82.3373 293.311 30.9727 311.342 19.7349ZM332.493 35.868C332.136 35.1222 331.345 34.5493 330.357 34.3215C329.37 34.0942 328.301 34.2383 327.472 34.7112C308.323 45.6648 213.865 99.3285 190.016 104.456C179.379 106.743 173.918 106.221 163.275 103.95C138.291 98.6217 50.6554 46.3539 31.4844 34.802C30.6183 34.2819 29.4725 34.1297 28.43 34.3961C27.3882 34.6625 26.5872 35.3119 26.295 36.1278C24.9491 39.6994 23.13 45.159 23.13 48.7939V126.168C23.13 147.52 45.6153 164.856 73.3105 164.856H285.186C312.881 164.856 335.367 147.52 335.367 126.168V48.7939C335.367 44.2619 334.354 39.911 332.493 35.868Z" fill="#81C3C3"/>
</svg>
