<svg width="1172" height="1074" viewBox="0 0 1172 1074" fill="none" xmlns="http://www.w3.org/2000/svg">
<path fill-rule="evenodd" clip-rule="evenodd" d="M1142.73 284.172V794.401C1142.73 935.203 1023.21 1049.52 876.01 1049.52H289.94C142.739 1049.52 23.2288 935.203 23.2288 794.401V284.172C23.2288 143.37 142.739 29.0566 289.94 29.0566H876.01C1023.21 29.0566 1142.73 143.37 1142.73 284.172Z" fill="#F0F7F7"/>
<path fill-rule="evenodd" clip-rule="evenodd" d="M1171.32 268.362V805.082C1171.32 953.195 1045.61 1073.44 890.754 1073.44H280.56C125.715 1073.44 0 953.195 0 805.082V268.362C0 120.249 125.715 0 280.56 0H890.754C1045.61 0 1171.32 120.249 1171.32 268.362ZM1124.99 768.872C1129.69 768.872 1134.2 767.078 1137.53 763.894C1140.85 760.719 1142.73 756.4 1142.73 751.897V560.238C1142.73 553.448 1136.97 547.942 1129.88 547.934L36.1141 546.544C32.6986 546.544 29.4212 547.837 27.0044 550.15C24.5877 552.454 23.2292 555.586 23.2292 558.857V794.405C23.2292 935.2 142.739 1049.52 289.941 1049.52H876.01C997.825 1049.52 1100.66 971.243 1132.53 864.459C1134.06 859.349 1132.99 853.835 1129.65 849.586C1126.3 845.338 1121.06 842.84 1115.5 842.84C993.854 842.823 418.58 842.823 418.58 842.823C407.913 842.823 399.252 834.538 399.252 824.335V787.36C399.252 777.148 407.913 768.872 418.58 768.872H1124.99ZM23.2292 489.656C23.2292 496.446 28.9798 501.961 36.0798 501.969L1128.86 503.385C1135.96 503.394 1141.72 497.915 1141.75 491.134L1142.73 284.171C1142.73 151.13 1036.03 41.7372 900.087 30.0835C893.929 29.5522 887.821 31.5294 883.256 35.5295C878.701 39.5296 876.121 45.1815 876.141 51.0972C876.221 79.3328 876.413 127.941 876.534 155.792C876.554 161.411 874.226 166.805 870.074 170.774C865.911 174.744 860.268 176.96 854.402 176.928L312.3 174.031C300.222 173.967 290.456 164.606 290.411 153.054L290.024 50.924C290.002 45.0285 287.396 39.4109 282.84 35.439C278.284 31.4679 272.196 29.5056 266.056 30.029C130.027 41.6353 23.2292 151.068 23.2292 284.171V489.656Z" fill="#81C3C3"/>
<path d="M125.797 778.641C129.443 778.745 132.464 778.823 134.859 778.875C137.307 778.875 139.286 778.875 140.797 778.875H144.938H168.219C168.323 779.917 168.401 780.932 168.453 781.922C168.557 782.859 168.609 783.693 168.609 784.422C168.609 785.307 168.583 786.115 168.531 786.844C168.479 787.573 168.401 788.354 168.297 789.188C168.193 789.917 168.089 790.698 167.984 791.531C167.88 792.365 167.698 793.224 167.438 794.109C166.708 791.297 165.719 789.161 164.469 787.703C163.271 786.245 162.047 785.177 160.797 784.5C159.339 783.719 157.802 783.302 156.188 783.25C154.052 783.354 152.385 783.536 151.188 783.797C149.99 784.057 149.052 784.422 148.375 784.891C147.698 785.359 147.177 785.906 146.812 786.531C146.5 787.104 146.161 787.755 145.797 788.484C145.484 789.109 145.198 790.073 144.938 791.375C144.677 792.469 144.417 793.953 144.156 795.828C143.948 797.703 143.714 800.125 143.453 803.094C144.859 802.677 145.979 802.286 146.812 801.922C147.698 801.557 148.401 801.245 148.922 800.984C149.495 800.672 149.911 800.385 150.172 800.125C150.38 799.812 150.693 799.24 151.109 798.406C151.422 797.677 151.839 796.688 152.359 795.438C152.932 794.188 153.609 792.469 154.391 790.281C154.495 792.677 154.547 794.682 154.547 796.297C154.547 797.859 154.573 799.135 154.625 800.125C154.625 801.271 154.651 802.182 154.703 802.859V805.828C154.703 806.922 154.703 808.406 154.703 810.281C154.755 812.104 154.833 814.422 154.938 817.234C154.312 815.307 153.74 813.797 153.219 812.703C152.75 811.557 152.333 810.698 151.969 810.125C151.552 809.448 151.188 808.979 150.875 808.719C150.51 808.615 150.016 808.51 149.391 808.406C148.818 808.354 148.089 808.328 147.203 808.328C146.37 808.328 145.302 808.458 144 808.719C143.844 811.583 143.818 813.901 143.922 815.672C144.078 817.391 144.286 818.719 144.547 819.656C144.807 820.75 145.12 821.531 145.484 822C145.953 822.469 146.891 822.859 148.297 823.172C149.703 823.432 151.292 823.536 153.062 823.484C154.885 823.38 156.734 823.068 158.609 822.547C160.484 822.026 162.151 821.167 163.609 819.969C164.703 818.979 165.875 817.729 167.125 816.219C168.167 814.917 169.312 813.276 170.562 811.297C171.865 809.318 173.141 806.922 174.391 804.109C174.182 806.453 174.026 808.406 173.922 809.969C173.87 811.479 173.792 812.703 173.688 813.641C173.583 814.734 173.505 815.568 173.453 816.141C173.453 816.766 173.375 817.651 173.219 818.797C173.115 819.786 172.932 821.141 172.672 822.859C172.464 824.526 172.177 826.661 171.812 829.266C169.365 829.318 167.047 829.37 164.859 829.422C162.672 829.422 160.745 829.448 159.078 829.5C157.099 829.552 155.276 829.604 153.609 829.656C151.891 829.656 149.99 829.734 147.906 829.891C146.083 829.995 143.922 830.151 141.422 830.359C138.974 830.568 136.266 830.854 133.297 831.219C133.557 827.677 133.74 824.344 133.844 821.219C134 818.042 134.104 815.255 134.156 812.859C134.208 810.047 134.208 807.443 134.156 805.047C134.417 799.057 134.312 794.214 133.844 790.516C133.375 786.818 132.828 784.448 132.203 783.406C131.891 783.042 131.448 782.599 130.875 782.078C130.406 781.661 129.755 781.167 128.922 780.594C128.089 780.021 127.047 779.37 125.797 778.641ZM177.594 794.969C178.792 794.865 179.807 794.76 180.641 794.656C181.526 794.552 182.255 794.448 182.828 794.344C183.505 794.24 184.078 794.135 184.547 794.031C185.016 793.979 185.536 793.875 186.109 793.719C186.63 793.615 187.203 793.484 187.828 793.328C188.505 793.12 189.234 792.885 190.016 792.625L189.547 802.547C190.693 800.724 192.021 799.344 193.531 798.406C195.042 797.417 196.474 796.688 197.828 796.219C199.443 795.646 201.057 795.307 202.672 795.203C204.339 795.255 205.875 795.516 207.281 795.984C208.479 796.401 209.677 797.052 210.875 797.938C212.125 798.823 213.089 800.125 213.766 801.844C215.536 800.021 217.281 798.615 219 797.625C220.771 796.583 222.333 795.802 223.688 795.281C225.302 794.708 226.812 794.37 228.219 794.266C230.094 794.214 231.812 794.526 233.375 795.203C234.99 795.88 236.396 796.74 237.594 797.781C238.792 798.771 239.755 799.839 240.484 800.984C241.214 802.078 241.63 803.042 241.734 803.875C241.891 805.021 241.812 806.505 241.5 808.328C241.188 810.099 240.823 811.922 240.406 813.797C239.99 815.62 239.599 817.312 239.234 818.875C238.922 820.385 238.792 821.453 238.844 822.078C239 822.599 239.365 823.224 239.938 823.953C240.458 824.578 241.214 825.359 242.203 826.297C243.245 827.182 244.729 828.224 246.656 829.422C244.99 829.37 243.505 829.318 242.203 829.266C240.953 829.214 239.885 829.135 239 829.031C237.958 828.927 237.047 828.849 236.266 828.797C235.641 828.797 234.885 828.745 234 828.641C233.271 828.589 232.307 828.51 231.109 828.406C229.964 828.302 228.635 828.198 227.125 828.094C227.698 827.938 228.167 827.651 228.531 827.234C228.896 826.766 229.208 826.323 229.469 825.906C229.729 825.385 229.938 824.812 230.094 824.188C230.198 823.667 230.302 822.833 230.406 821.688C230.51 820.542 230.589 819.24 230.641 817.781C230.745 816.323 230.797 814.786 230.797 813.172C230.849 811.557 230.849 810.021 230.797 808.562C230.745 807.104 230.641 805.776 230.484 804.578C230.328 803.38 230.12 802.469 229.859 801.844C229.651 801.375 229.286 801.01 228.766 800.75C228.245 800.438 227.646 800.255 226.969 800.203C226.292 800.099 225.615 800.125 224.938 800.281C224.26 800.385 223.661 800.594 223.141 800.906C222.672 801.271 222.047 801.766 221.266 802.391C220.589 802.964 219.703 803.745 218.609 804.734C217.516 805.724 216.135 806.974 214.469 808.484C214.312 811.766 214.182 814.422 214.078 816.453C214.026 818.432 213.974 819.943 213.922 820.984C213.87 822.234 213.844 823.094 213.844 823.562C213.792 823.979 213.818 824.37 213.922 824.734C214.026 825.516 214.339 826.245 214.859 826.922C214.234 826.766 213.557 826.661 212.828 826.609C212.151 826.557 211.526 826.505 210.953 826.453C210.276 826.401 209.599 826.375 208.922 826.375C208.349 826.375 207.724 826.401 207.047 826.453C206.474 826.505 205.771 826.583 204.938 826.688C204.104 826.74 203.193 826.818 202.203 826.922C202.62 826.661 202.958 826.349 203.219 825.984C203.479 825.62 203.688 825.281 203.844 824.969C204.052 824.604 204.208 824.266 204.312 823.953C204.365 823.641 204.469 822.885 204.625 821.688C204.781 820.438 204.885 818.979 204.938 817.312C204.99 815.646 204.99 813.901 204.938 812.078C204.885 810.203 204.703 808.51 204.391 807C204.078 805.438 203.583 804.161 202.906 803.172C202.281 802.182 201.448 801.74 200.406 801.844C199.156 801.948 197.88 802.26 196.578 802.781C195.484 803.198 194.312 803.823 193.062 804.656C191.812 805.49 190.641 806.609 189.547 808.016C189.339 811.922 189.208 815.021 189.156 817.312C189.156 819.604 189.182 821.349 189.234 822.547C189.286 823.953 189.339 824.917 189.391 825.438C189.443 825.802 189.573 826.167 189.781 826.531C189.938 826.844 190.12 827.208 190.328 827.625C190.589 828.042 190.875 828.432 191.188 828.797L178.766 828.172C179.182 827.964 179.547 827.703 179.859 827.391C180.172 827.026 180.432 826.661 180.641 826.297C180.849 825.88 181.057 825.464 181.266 825.047C181.422 824.682 181.552 823.823 181.656 822.469C181.812 821.115 181.943 819.526 182.047 817.703C182.151 815.828 182.229 813.875 182.281 811.844C182.385 809.76 182.438 807.833 182.438 806.062C182.49 804.24 182.516 802.703 182.516 801.453C182.516 800.151 182.49 799.37 182.438 799.109C182.281 798.589 181.995 798.042 181.578 797.469C181.214 797.052 180.719 796.609 180.094 796.141C179.469 795.62 178.635 795.229 177.594 794.969ZM252.906 800.359C253.167 800.047 253.323 799.474 253.375 798.641C253.479 797.755 253.688 796.766 254 795.672C254.365 794.578 254.964 793.432 255.797 792.234C256.63 791.036 257.984 789.917 259.859 788.875C261.682 787.833 263.453 787.208 265.172 787C266.891 786.792 268.531 786.87 270.094 787.234C271.656 787.599 273.115 788.172 274.469 788.953C275.875 789.734 277.151 790.594 278.297 791.531C279.078 792.156 279.703 793.068 280.172 794.266C280.641 795.411 281.005 796.714 281.266 798.172C281.526 799.63 281.708 801.167 281.812 802.781C281.969 804.344 282.073 805.88 282.125 807.391C282.177 808.849 282.203 810.203 282.203 811.453C282.255 812.651 282.359 813.641 282.516 814.422C282.724 815.568 283.089 816.557 283.609 817.391C284.13 818.172 284.703 818.849 285.328 819.422C285.953 819.943 286.578 820.359 287.203 820.672C287.828 820.984 288.375 821.219 288.844 821.375C289.156 821.531 289.443 821.635 289.703 821.688C290.224 821.896 290.589 821.896 290.797 821.688C290.484 822.417 290.198 823.042 289.938 823.562C289.677 824.083 289.469 824.526 289.312 824.891C289.104 825.307 288.922 825.646 288.766 825.906C288.609 826.219 288.427 826.505 288.219 826.766C288.062 827.026 287.854 827.312 287.594 827.625C287.333 827.938 287.073 828.276 286.812 828.641C286.135 828.38 285.484 828.068 284.859 827.703C284.286 827.339 283.766 827 283.297 826.688C282.724 826.323 282.203 825.958 281.734 825.594C281.266 825.229 280.823 824.812 280.406 824.344C280.042 823.927 279.651 823.484 279.234 823.016C278.87 822.547 278.557 822.026 278.297 821.453C277.984 822.13 277.229 823.094 276.031 824.344C274.885 825.594 273.375 826.74 271.5 827.781C269.625 828.771 267.438 829.474 264.938 829.891C262.49 830.307 259.781 830.021 256.812 829.031C255.51 828.615 254.286 828.016 253.141 827.234C251.995 826.401 251.005 825.411 250.172 824.266C249.391 823.12 248.818 821.818 248.453 820.359C248.141 818.849 248.167 817.182 248.531 815.359C248.896 813.536 249.547 812 250.484 810.75C251.422 809.5 252.542 808.484 253.844 807.703C255.146 806.922 256.604 806.323 258.219 805.906C259.833 805.49 261.5 805.203 263.219 805.047C264.573 804.995 265.927 805.073 267.281 805.281C268.427 805.49 269.625 805.88 270.875 806.453C272.125 806.974 273.193 807.781 274.078 808.875C274.026 806.115 273.922 803.927 273.766 802.312C273.661 800.646 273.557 799.37 273.453 798.484C273.245 797.443 273.062 796.714 272.906 796.297C272.646 795.932 272.359 795.516 272.047 795.047C271.786 794.578 271.448 794.161 271.031 793.797C270.615 793.38 270.094 793.042 269.469 792.781C268.844 792.521 268.115 792.417 267.281 792.469C266.396 792.521 265.693 792.755 265.172 793.172C264.651 793.589 264.234 794.083 263.922 794.656C263.661 795.177 263.505 795.75 263.453 796.375C263.401 797 263.427 797.547 263.531 798.016C263.635 798.328 263.792 798.667 264 799.031C264.208 799.344 264.495 799.682 264.859 800.047C265.224 800.411 265.719 800.724 266.344 800.984C265.146 801.141 264.078 801.271 263.141 801.375C262.203 801.427 261.396 801.505 260.719 801.609C259.938 801.714 259.26 801.792 258.688 801.844C258.115 801.896 257.438 802 256.656 802.156C255.979 802.26 255.146 802.391 254.156 802.547C253.167 802.703 252.021 802.911 250.719 803.172C251.031 802.807 251.318 802.469 251.578 802.156C251.839 801.792 252.073 801.479 252.281 801.219C252.49 800.906 252.698 800.62 252.906 800.359ZM264.625 809.656C263.688 809.708 262.75 809.943 261.812 810.359C260.875 810.724 260.042 811.271 259.312 812C258.583 812.677 257.958 813.484 257.438 814.422C256.969 815.307 256.734 816.297 256.734 817.391C256.734 818.484 256.995 819.448 257.516 820.281C258.089 821.062 258.818 821.714 259.703 822.234C260.641 822.755 261.63 823.068 262.672 823.172C263.766 823.276 264.833 823.172 265.875 822.859C266.865 822.495 267.802 821.922 268.688 821.141C269.573 820.307 270.328 819.422 270.953 818.484C271.578 817.495 272.021 816.531 272.281 815.594C272.542 814.604 272.568 813.797 272.359 813.172C271.943 811.818 271.005 810.88 269.547 810.359C268.089 809.786 266.448 809.552 264.625 809.656ZM290.016 797.078L304.391 797.234C303.557 800.411 302.932 803.12 302.516 805.359C302.151 807.599 301.917 809.474 301.812 810.984C301.604 812.703 301.552 814.161 301.656 815.359C301.812 816.453 302.073 817.625 302.438 818.875C302.75 819.917 303.219 821.115 303.844 822.469C304.469 823.823 305.302 825.177 306.344 826.531C305.719 826.323 305.042 826.167 304.312 826.062C303.583 825.958 302.906 825.88 302.281 825.828C301.552 825.776 300.823 825.776 300.094 825.828C299.365 825.88 298.557 825.958 297.672 826.062C296.943 826.167 296.057 826.297 295.016 826.453C293.974 826.609 292.88 826.818 291.734 827.078C292.516 824.734 293.115 822.703 293.531 820.984C294 819.266 294.339 817.833 294.547 816.688C294.755 815.333 294.885 814.24 294.938 813.406C294.938 812.365 294.938 811.193 294.938 809.891C294.938 808.536 294.938 807.234 294.938 805.984C294.938 804.734 294.911 803.641 294.859 802.703C294.807 801.714 294.703 801.089 294.547 800.828L293.766 800.047C293.453 799.786 292.984 799.422 292.359 798.953C291.786 798.432 291.005 797.807 290.016 797.078ZM295.562 785.047C296.656 784.474 297.75 784.318 298.844 784.578C299.99 784.839 300.875 785.333 301.5 786.062C302.125 786.792 302.333 787.651 302.125 788.641C301.969 789.63 301.135 790.594 299.625 791.531C298.115 792.417 296.786 792.729 295.641 792.469C294.495 792.208 293.688 791.661 293.219 790.828C292.75 789.995 292.672 789.031 292.984 787.938C293.297 786.792 294.156 785.828 295.562 785.047ZM310.953 834.188C311.474 833.406 311.891 832.677 312.203 832C312.516 831.323 312.776 830.75 312.984 830.281C313.193 829.708 313.349 829.188 313.453 828.719C313.505 828.406 313.531 827.495 313.531 825.984C313.531 824.474 313.479 822.573 313.375 820.281C313.323 817.99 313.245 815.411 313.141 812.547C313.089 809.682 312.984 806.766 312.828 803.797C312.724 800.828 312.594 797.938 312.438 795.125C312.333 792.312 312.229 789.786 312.125 787.547C312.021 785.255 311.917 783.38 311.812 781.922C311.708 780.464 311.63 779.63 311.578 779.422C311.474 779.109 311.292 778.797 311.031 778.484C310.51 777.859 309.625 777.26 308.375 776.688C311.031 776.01 313.062 775.464 314.469 775.047C315.302 774.839 316.031 774.63 316.656 774.422C317.229 774.214 317.802 774.005 318.375 773.797C318.844 773.589 319.365 773.354 319.938 773.094C320.51 772.781 321.031 772.443 321.5 772.078C321.24 773.589 321.031 775.047 320.875 776.453C320.719 777.859 320.589 779.161 320.484 780.359C320.38 781.714 320.328 783.016 320.328 784.266C320.068 786.818 319.911 789.604 319.859 792.625C319.859 795.594 319.885 798.615 319.938 801.688C319.99 804.76 320.094 807.755 320.25 810.672C320.406 813.589 320.562 816.245 320.719 818.641C320.927 820.984 321.109 822.99 321.266 824.656C321.474 826.271 321.63 827.312 321.734 827.781C321.943 828.562 322.151 829.318 322.359 830.047C322.568 830.672 322.802 831.323 323.062 832C323.323 832.729 323.635 833.302 324 833.719H316.422C315.745 833.719 315.094 833.745 314.469 833.797C313.896 833.849 313.297 833.901 312.672 833.953C312.047 834.005 311.474 834.083 310.953 834.188ZM334.312 823.406C336.188 823.146 337.646 823.458 338.688 824.344C339.781 825.229 340.302 826.453 340.25 828.016C340.198 828.797 340.042 829.422 339.781 829.891C339.521 830.359 339.156 830.724 338.688 830.984C338.271 831.193 337.75 831.375 337.125 831.531C336.552 831.635 335.875 831.74 335.094 831.844C334.312 832 333.557 831.974 332.828 831.766C332.099 831.505 331.448 831.141 330.875 830.672C330.302 830.203 329.833 829.682 329.469 829.109C329.156 828.536 329 827.964 329 827.391C329 826.766 329.156 826.245 329.469 825.828C329.833 825.359 330.276 824.969 330.797 824.656C331.37 824.292 331.943 824.031 332.516 823.875C333.141 823.667 333.74 823.51 334.312 823.406ZM339.312 805.359C339.677 805.984 339.885 806.661 339.938 807.391C340.042 808.068 339.99 808.745 339.781 809.422C339.573 810.099 339.208 810.75 338.688 811.375C338.219 812 337.594 812.495 336.812 812.859C335.146 813.641 333.661 813.849 332.359 813.484C331.057 813.12 330.068 812.443 329.391 811.453C329.026 810.932 328.818 810.359 328.766 809.734C328.766 809.057 328.896 808.406 329.156 807.781C329.469 807.104 329.911 806.479 330.484 805.906C331.057 805.333 331.786 804.865 332.672 804.5C334.391 803.771 335.797 803.536 336.891 803.797C338.036 804.005 338.844 804.526 339.312 805.359Z" fill="#81C3C3"/>
<path d="M415.243 832.205L540.118 832.402" stroke="#F0F7F7" stroke-width="6" stroke-linecap="round"/>
<path d="M580.845 832.205L705.72 832.402" stroke="#F0F7F7" stroke-width="6" stroke-linecap="round"/>
<path d="M912.051 832.205L1036.93 832.402" stroke="#F0F7F7" stroke-width="6" stroke-linecap="round"/>
<path d="M746.448 832.205L871.323 832.402" stroke="#F0F7F7" stroke-width="6" stroke-linecap="round"/>
<path d="M488.398 42.7129C491.133 41.8535 493.359 41.1504 495.078 40.6035C496.797 39.9785 498.203 39.4707 499.297 39.0801C500.547 38.6113 501.484 38.1816 502.109 37.791L504.922 36.3848C506.016 35.8379 507.422 35.1348 509.141 34.2754C510.859 33.3379 513.086 32.166 515.82 30.7598C515.195 33.7285 514.727 36.541 514.414 39.1973C514.18 41.7754 513.984 44.0801 513.828 46.1113C513.594 48.4551 513.477 50.6035 513.477 52.5566C513.398 54.1973 513.281 56.3848 513.125 59.1191C513.047 61.8535 512.93 64.8223 512.773 68.0254C512.617 71.2285 512.461 74.5098 512.305 77.8691C512.148 81.2285 512.031 84.3926 511.953 87.3613C511.953 90.252 511.992 92.752 512.07 94.8613C512.227 96.9707 512.5 98.416 512.891 99.1973C513.281 100.135 513.789 101.033 514.414 101.893C514.961 102.674 515.586 103.572 516.289 104.588C517.07 105.525 518.008 106.463 519.102 107.4C517.305 107.791 515.625 108.143 514.062 108.455C512.5 108.689 511.133 108.885 509.961 109.041C508.555 109.275 507.305 109.471 506.211 109.627C505.039 109.705 503.438 109.9 501.406 110.213C499.688 110.447 497.5 110.76 494.844 111.15C492.188 111.463 488.906 111.814 485 112.205C487.031 110.955 488.633 109.744 489.805 108.572C491.055 107.4 491.992 106.385 492.617 105.525C493.32 104.51 493.75 103.533 493.906 102.596C493.984 101.971 494.102 100.291 494.258 97.5566C494.492 94.7441 494.688 91.4629 494.844 87.7129C495.078 83.8848 495.273 79.8223 495.43 75.5254C495.664 71.1504 495.82 67.0879 495.898 63.3379C495.977 59.5879 496.016 56.3848 496.016 53.7285C496.016 51.0723 495.898 49.4707 495.664 48.9238C495.352 48.377 494.883 47.752 494.258 47.0488C493.711 46.4238 492.969 45.7598 492.031 45.0566C491.172 44.3535 489.961 43.5723 488.398 42.7129ZM575.352 102.479C578.164 102.088 580.352 102.557 581.914 103.885C583.555 105.213 584.336 107.049 584.258 109.393C584.18 110.564 583.945 111.502 583.555 112.205C583.164 112.908 582.617 113.455 581.914 113.846C581.289 114.158 580.508 114.432 579.57 114.666C578.711 114.822 577.695 114.979 576.523 115.135C575.352 115.369 574.219 115.33 573.125 115.018C572.031 114.627 571.055 114.08 570.195 113.377C569.336 112.674 568.633 111.893 568.086 111.033C567.617 110.174 567.383 109.314 567.383 108.455C567.383 107.518 567.617 106.736 568.086 106.111C568.633 105.408 569.297 104.822 570.078 104.354C570.938 103.807 571.797 103.416 572.656 103.182C573.594 102.869 574.492 102.635 575.352 102.479ZM582.852 75.4082C583.398 76.3457 583.711 77.3613 583.789 78.4551C583.945 79.4707 583.867 80.4863 583.555 81.502C583.242 82.5176 582.695 83.4941 581.914 84.4316C581.211 85.3691 580.273 86.1113 579.102 86.6582C576.602 87.8301 574.375 88.1426 572.422 87.5957C570.469 87.0488 568.984 86.0332 567.969 84.5488C567.422 83.7676 567.109 82.9082 567.031 81.9707C567.031 80.9551 567.227 79.9785 567.617 79.041C568.086 78.0254 568.75 77.0879 569.609 76.2285C570.469 75.3691 571.562 74.666 572.891 74.1191C575.469 73.0254 577.578 72.6738 579.219 73.0645C580.938 73.377 582.148 74.1582 582.852 75.4082ZM630.898 42.7129C633.633 41.8535 635.859 41.1504 637.578 40.6035C639.297 39.9785 640.703 39.4707 641.797 39.0801C643.047 38.6113 643.984 38.1816 644.609 37.791L647.422 36.3848C648.516 35.8379 649.922 35.1348 651.641 34.2754C653.359 33.3379 655.586 32.166 658.32 30.7598C657.695 33.7285 657.227 36.541 656.914 39.1973C656.68 41.7754 656.484 44.0801 656.328 46.1113C656.094 48.4551 655.977 50.6035 655.977 52.5566C655.898 54.1973 655.781 56.3848 655.625 59.1191C655.547 61.8535 655.43 64.8223 655.273 68.0254C655.117 71.2285 654.961 74.5098 654.805 77.8691C654.648 81.2285 654.531 84.3926 654.453 87.3613C654.453 90.252 654.492 92.752 654.57 94.8613C654.727 96.9707 655 98.416 655.391 99.1973C655.781 100.135 656.289 101.033 656.914 101.893C657.461 102.674 658.086 103.572 658.789 104.588C659.57 105.525 660.508 106.463 661.602 107.4C659.805 107.791 658.125 108.143 656.562 108.455C655 108.689 653.633 108.885 652.461 109.041C651.055 109.275 649.805 109.471 648.711 109.627C647.539 109.705 645.938 109.9 643.906 110.213C642.188 110.447 640 110.76 637.344 111.15C634.688 111.463 631.406 111.814 627.5 112.205C629.531 110.955 631.133 109.744 632.305 108.572C633.555 107.4 634.492 106.385 635.117 105.525C635.82 104.51 636.25 103.533 636.406 102.596C636.484 101.971 636.602 100.291 636.758 97.5566C636.992 94.7441 637.188 91.4629 637.344 87.7129C637.578 83.8848 637.773 79.8223 637.93 75.5254C638.164 71.1504 638.32 67.0879 638.398 63.3379C638.477 59.5879 638.516 56.3848 638.516 53.7285C638.516 51.0723 638.398 49.4707 638.164 48.9238C637.852 48.377 637.383 47.752 636.758 47.0488C636.211 46.4238 635.469 45.7598 634.531 45.0566C633.672 44.3535 632.461 43.5723 630.898 42.7129Z" fill="#F0F7F7"/>
<path d="M434.172 579.258C436.828 579.57 439.055 579.805 440.852 579.961C442.727 580.039 444.25 580.156 445.422 580.312C446.828 580.469 447.922 580.547 448.703 580.547C449.562 580.625 450.852 580.586 452.57 580.43C454.055 580.273 456.047 580.078 458.547 579.844C461.125 579.609 464.406 579.258 468.391 578.789C466.594 580.352 465.148 581.875 464.055 583.359C463.039 584.766 462.258 586.016 461.711 587.109C461.008 588.438 460.578 589.688 460.422 590.859C460.109 592.734 459.836 595.312 459.602 598.594C459.445 601.797 459.289 605.312 459.133 609.141C458.977 612.969 458.898 616.914 458.898 620.977C458.898 625.039 458.938 628.906 459.016 632.578C459.172 636.172 459.406 639.375 459.719 642.188C460.109 645 460.578 647.031 461.125 648.281C461.906 649.688 462.727 651.094 463.586 652.5C464.367 653.672 465.305 654.883 466.398 656.133C467.492 657.383 468.742 658.398 470.148 659.18C465.539 658.945 461.867 658.828 459.133 658.828H454.914C453.664 658.828 452.062 658.906 450.109 659.062C448.469 659.219 446.398 659.375 443.898 659.531C441.398 659.688 438.391 659.922 434.875 660.234C436.672 658.281 438.078 656.406 439.094 654.609C440.109 652.812 440.93 651.25 441.555 649.922C442.258 648.359 442.727 646.875 442.961 645.469C443.273 643.438 443.508 640.938 443.664 637.969C443.898 634.922 444.055 631.68 444.133 628.242C444.211 624.727 444.211 621.172 444.133 617.578C444.133 613.906 444.055 610.391 443.898 607.031C443.742 603.672 443.508 600.625 443.195 597.891C442.961 595.156 442.648 592.969 442.258 591.328C442.023 590.312 441.555 589.18 440.852 587.93C440.227 586.836 439.367 585.586 438.273 584.18C437.258 582.695 435.891 581.055 434.172 579.258ZM476.125 647.109C476.672 644.531 477.062 642.266 477.297 640.312C477.609 638.281 477.844 636.602 478 635.273C478.156 633.711 478.234 632.383 478.234 631.289C478.156 629.961 478.078 628.398 478 626.602C478 624.727 477.922 622.891 477.766 621.094C477.688 619.219 477.57 617.578 477.414 616.172C477.258 614.688 477.062 613.633 476.828 613.008C476.516 612.383 476.086 611.719 475.539 611.016C474.445 609.688 472.844 608.398 470.734 607.148C472.531 606.758 474.055 606.445 475.305 606.211C476.633 605.898 477.727 605.625 478.586 605.391C479.523 605.078 480.344 604.805 481.047 604.57C481.672 604.336 482.414 604.102 483.273 603.867C483.977 603.711 484.836 603.516 485.852 603.281C486.867 603.047 488.039 602.773 489.367 602.461L489.016 613.125C491.516 610.156 494.055 607.93 496.633 606.445C499.211 604.961 501.633 603.906 503.898 603.281C506.477 602.5 509.016 602.109 511.516 602.109C514.641 602.266 517.531 602.773 520.188 603.633C522.922 604.492 525.266 605.508 527.219 606.68C529.25 607.773 530.891 608.945 532.141 610.195C533.391 611.445 534.133 612.539 534.367 613.477C535.305 616.523 535.539 619.336 535.07 621.914C534.602 624.414 533.977 626.875 533.195 629.297C532.492 631.641 531.867 633.984 531.32 636.328C530.852 638.672 531.047 641.211 531.906 643.945C532.219 644.648 532.531 645.352 532.844 646.055C533.156 646.68 533.547 647.305 534.016 647.93C534.484 648.555 535.031 649.062 535.656 649.453C534.797 649.375 533.938 649.336 533.078 649.336C532.219 649.258 531.438 649.18 530.734 649.102C529.875 649.023 529.094 648.945 528.391 648.867C527.609 648.789 526.555 648.75 525.227 648.75C522.961 648.75 519.445 648.867 514.68 649.102C515.383 647.461 515.93 646.094 516.32 645C516.789 643.828 517.18 642.891 517.492 642.188C517.805 641.328 518.039 640.664 518.195 640.195C519.133 637.93 519.68 635.352 519.836 632.461C520.07 629.57 519.875 626.641 519.25 623.672C519.016 622.656 518.625 621.445 518.078 620.039C517.531 618.633 516.789 617.266 515.852 615.938C514.992 614.609 513.938 613.477 512.688 612.539C511.516 611.602 510.148 611.055 508.586 610.898C507.023 610.742 505.266 611.133 503.312 612.07C501.438 613.008 499.406 614.727 497.219 617.227C495.578 619.336 494.289 621.914 493.352 624.961C492.492 627.539 491.906 630.781 491.594 634.688C491.281 638.516 491.75 643.008 493 648.164C491.906 648.008 490.891 647.93 489.953 647.93C489.016 647.852 488.234 647.773 487.609 647.695C486.828 647.617 486.125 647.539 485.5 647.461C484.797 647.461 484.016 647.422 483.156 647.344C482.375 647.344 481.398 647.344 480.227 647.344C479.055 647.266 477.688 647.188 476.125 647.109ZM535.07 595.43C536.398 595.664 537.766 595.859 539.172 596.016C540.5 596.094 541.711 596.172 542.805 596.25C544.055 596.328 545.266 596.367 546.438 596.367C547.609 596.367 548.938 596.328 550.422 596.25C551.672 596.172 553.156 596.055 554.875 595.898C556.672 595.742 558.625 595.508 560.734 595.195C559.484 595.898 558.508 596.641 557.805 597.422C557.102 598.203 556.555 598.906 556.164 599.531C555.695 600.312 555.383 601.016 555.227 601.641C555.07 602.266 555.109 603.555 555.344 605.508C555.578 607.461 555.891 609.727 556.281 612.305C556.75 614.883 557.258 617.578 557.805 620.391C558.352 623.203 558.898 625.781 559.445 628.125C560.07 630.469 560.617 632.422 561.086 633.984C561.633 635.547 562.062 636.289 562.375 636.211C562.688 636.211 563.156 635.43 563.781 633.867C564.484 632.305 565.266 630.391 566.125 628.125C566.984 625.781 567.883 623.242 568.82 620.508C569.758 617.695 570.578 615.078 571.281 612.656C571.984 610.234 572.531 608.203 572.922 606.562C573.391 604.844 573.586 603.828 573.508 603.516C573.273 603.203 573 602.773 572.688 602.227C572.141 601.367 570.93 599.883 569.055 597.773C571.32 597.93 573.273 598.086 574.914 598.242C576.555 598.32 577.883 598.438 578.898 598.594C580.07 598.75 581.008 598.867 581.711 598.945C582.414 599.023 583.43 599.023 584.758 598.945C585.852 598.945 587.297 598.906 589.094 598.828C590.969 598.672 593.273 598.438 596.008 598.125C593.977 599.297 592.297 600.352 590.969 601.289C589.719 602.148 588.742 602.891 588.039 603.516C587.18 604.297 586.555 604.961 586.164 605.508C585.617 606.523 584.641 608.945 583.234 612.773C582.609 614.414 581.828 616.445 580.891 618.867C580.031 621.289 578.977 624.219 577.727 627.656C576.555 631.016 575.148 634.961 573.508 639.492C571.867 644.023 570.031 649.219 568 655.078L556.633 656.25C555.148 651.328 553.938 647.227 553 643.945C552.141 640.586 551.438 637.891 550.891 635.859C550.266 633.516 549.797 631.68 549.484 630.352C549.094 628.867 548.625 626.719 548.078 623.906C547.531 621.016 546.984 618.086 546.438 615.117C545.891 612.148 545.344 609.492 544.797 607.148C544.25 604.727 543.82 603.242 543.508 602.695C543.195 602.305 542.648 601.758 541.867 601.055C541.242 600.43 540.383 599.688 539.289 598.828C538.195 597.891 536.789 596.758 535.07 595.43ZM590.031 607.617L611.594 607.852C610.344 612.617 609.406 616.68 608.781 620.039C608.234 623.398 607.883 626.211 607.727 628.477C607.414 631.055 607.336 633.242 607.492 635.039C607.727 636.68 608.117 638.438 608.664 640.312C609.133 641.875 609.836 643.672 610.773 645.703C611.711 647.734 612.961 649.766 614.523 651.797C613.586 651.484 612.57 651.25 611.477 651.094C610.383 650.938 609.367 650.82 608.43 650.742C607.336 650.664 606.242 650.664 605.148 650.742C604.055 650.82 602.844 650.938 601.516 651.094C600.422 651.25 599.094 651.445 597.531 651.68C595.969 651.914 594.328 652.227 592.609 652.617C593.781 649.102 594.68 646.055 595.305 643.477C596.008 640.898 596.516 638.75 596.828 637.031C597.141 635 597.336 633.359 597.414 632.109C597.414 630.547 597.414 628.789 597.414 626.836C597.414 624.805 597.414 622.852 597.414 620.977C597.414 619.102 597.375 617.461 597.297 616.055C597.219 614.57 597.062 613.633 596.828 613.242L595.656 612.07C595.188 611.68 594.484 611.133 593.547 610.43C592.688 609.648 591.516 608.711 590.031 607.617ZM598.352 589.57C599.992 588.711 601.633 588.477 603.273 588.867C604.992 589.258 606.32 590 607.258 591.094C608.195 592.188 608.508 593.477 608.195 594.961C607.961 596.445 606.711 597.891 604.445 599.297C602.18 600.625 600.188 601.094 598.469 600.703C596.75 600.312 595.539 599.492 594.836 598.242C594.133 596.992 594.016 595.547 594.484 593.906C594.953 592.188 596.242 590.742 598.352 589.57ZM617.336 586.172C619.68 586.406 621.633 586.602 623.195 586.758C624.836 586.914 626.164 587.031 627.18 587.109C628.352 587.188 629.289 587.227 629.992 587.227C630.695 587.305 631.633 587.305 632.805 587.227C633.82 587.148 635.148 587.07 636.789 586.992C638.43 586.836 640.5 586.602 643 586.289C642.453 587.07 642.023 587.773 641.711 588.398C641.398 588.945 641.125 589.453 640.891 589.922L640.188 591.328C640.031 591.797 639.875 592.266 639.719 592.734C639.562 593.125 639.406 593.594 639.25 594.141C639.172 594.688 639.094 595.273 639.016 595.898H657.062L655.422 605.391L638.898 604.453C638.508 608.438 638.234 611.523 638.078 613.711C637.922 615.898 637.766 617.5 637.609 618.516L637.375 620.625C637.141 623.594 636.906 626.836 636.672 630.352C636.438 633.789 636.359 636.992 636.438 639.961C636.516 642.93 636.789 645.43 637.258 647.461C637.727 649.414 638.547 650.391 639.719 650.391C640.891 650.391 641.984 650.078 643 649.453C644.016 648.828 644.875 648.086 645.578 647.227C646.359 646.367 646.945 645.508 647.336 644.648C647.727 643.711 647.922 643.008 647.922 642.539C647.922 642.07 647.805 641.523 647.57 640.898C647.18 639.727 646.477 638.242 645.461 636.445C647.727 636.992 649.719 637.539 651.438 638.086C652.297 638.398 653.078 638.711 653.781 639.023C654.562 639.336 655.461 639.688 656.477 640.078C657.336 640.469 658.43 640.938 659.758 641.484C661.086 642.031 662.648 642.695 664.445 643.477C662.727 643.789 661.477 644.297 660.695 645C660.227 645.312 659.875 645.664 659.641 646.055C659.094 646.914 658.469 648.086 657.766 649.57C657.062 650.977 656.008 652.383 654.602 653.789C653.195 655.195 651.281 656.445 648.859 657.539C646.516 658.633 643.352 659.258 639.367 659.414C635.227 659.57 632.062 658.867 629.875 657.305C627.766 655.742 626.203 653.945 625.188 651.914C624.25 649.805 623.703 647.734 623.547 645.703C623.391 643.672 623.273 642.305 623.195 641.602C623.117 640.898 623.117 639.141 623.195 636.328C623.273 633.516 623.391 630.43 623.547 627.07C623.703 623.633 623.859 620.352 624.016 617.227C624.172 614.023 624.25 611.68 624.25 610.195C624.25 609.414 624.289 608.594 624.367 607.734C624.367 607.031 624.367 606.289 624.367 605.508C624.445 604.648 624.484 603.828 624.484 603.047L607.492 602.93L606.789 596.25L623.898 596.719C623.742 595.859 623.547 595.078 623.312 594.375C623.156 593.594 623 592.969 622.844 592.5C622.609 591.953 622.375 591.484 622.141 591.094C621.828 590.703 621.477 590.273 621.086 589.805C620.695 589.414 620.188 588.906 619.562 588.281C618.938 587.656 618.195 586.953 617.336 586.172ZM690.109 641.133C692.297 641.133 694.328 640.898 696.203 640.43C697.766 640.039 699.25 639.414 700.656 638.555C702.141 637.617 703.117 636.25 703.586 634.453C705.148 634.766 706.477 635.039 707.57 635.273C708.664 635.43 709.602 635.586 710.383 635.742C711.242 635.977 711.984 636.133 712.609 636.211C713.234 636.367 713.977 636.523 714.836 636.68C715.617 636.836 716.555 637.031 717.648 637.266C718.82 637.422 720.188 637.656 721.75 637.969C720.578 637.812 719.367 637.93 718.117 638.32C716.945 638.711 715.812 639.141 714.719 639.609C713.469 640.156 712.297 640.82 711.203 641.602C710.5 642.07 709.68 642.773 708.742 643.711C707.883 644.648 706.633 645.547 704.992 646.406C703.352 647.266 701.164 648.008 698.43 648.633C695.773 649.18 692.336 649.375 688.117 649.219C683.039 649.062 678.781 648.164 675.344 646.523C671.906 644.805 669.133 642.734 667.023 640.312C664.914 637.812 663.391 635.117 662.453 632.227C661.516 629.336 661.008 626.641 660.93 624.141C660.852 621.641 661.594 619.023 663.156 616.289C664.719 613.555 666.906 611.055 669.719 608.789C672.609 606.523 676.086 604.688 680.148 603.281C684.211 601.797 688.664 601.055 693.508 601.055C696.32 601.055 698.898 601.406 701.242 602.109C703.664 602.734 705.852 603.594 707.805 604.688C709.836 605.781 711.594 607.031 713.078 608.438C714.562 609.766 715.812 611.133 716.828 612.539C717.844 614.023 718.703 615.586 719.406 617.227C720.031 618.633 720.539 620.234 720.93 622.031C721.32 623.828 721.438 625.664 721.281 627.539C715.344 627.695 710.539 627.812 706.867 627.891C703.273 627.969 700.461 628.008 698.43 628.008H693.156H689.172C687.766 628.008 685.93 628.047 683.664 628.125C681.398 628.203 678.625 628.32 675.344 628.477C675.734 631.602 676.711 634.023 678.273 635.742C679.914 637.383 681.633 638.633 683.43 639.492C685.461 640.43 687.688 640.977 690.109 641.133ZM679.562 620.039C682.062 620.195 684.133 620.312 685.773 620.391C687.492 620.469 688.898 620.547 689.992 620.625C691.164 620.703 692.102 620.742 692.805 620.742H695.734C697.688 620.742 701.32 620.625 706.633 620.391C706.398 616.953 705.656 614.336 704.406 612.539C703.234 610.742 701.984 609.414 700.656 608.555C699.094 607.617 697.375 607.07 695.5 606.914C690.422 606.992 686.633 608.047 684.133 610.078C681.711 612.109 680.188 615.43 679.562 620.039Z" fill="#81C3C3"/>
</svg>
