<svg width="1172" height="1305" viewBox="0 0 1172 1305" fill="none" xmlns="http://www.w3.org/2000/svg">
<path d="M547.507 318.603C630.63 318.603 698.014 251.591 698.014 168.928C698.014 86.265 630.63 19.2534 547.507 19.2534C464.384 19.2534 397 86.265 397 168.928C397 251.591 464.384 318.603 547.507 318.603Z" fill="#E7E4D6"/>
<path fill-rule="evenodd" clip-rule="evenodd" d="M540.642 169.81C542.642 169.81 540.312 180.739 540.312 194.189C540.312 207.649 561.382 205.01 559.382 205.01C557.392 205.01 537.032 207.649 537.032 194.189C537.032 180.739 538.652 169.81 540.642 169.81Z" fill="#9D7067"/>
<path fill-rule="evenodd" clip-rule="evenodd" d="M546.786 18.1372C626.966 18.1372 679.146 77.1672 687.926 107.347C697.026 138.607 677.306 111.847 651.906 120.027C638.126 124.467 625.346 87.507 608.876 102.677C584.486 125.157 557.556 107.757 546.236 108.047C512.766 108.917 496.226 142.897 460.136 125.747C454.306 122.977 445.656 131.747 441.246 135.307C396.186 171.687 402.906 150.867 401.756 138.567C401.216 132.887 403.566 123.347 409.236 108.537C420.486 79.1971 466.596 18.1372 546.786 18.1372Z" fill="#9D7067"/>
<mask id="mask0_140_3" style="mask-type:luminance" maskUnits="userSpaceOnUse" x="401" y="18" width="290" height="138">
<path d="M546.786 18.1372C626.966 18.1372 679.146 77.1672 687.926 107.347C697.026 138.607 677.306 111.847 651.906 120.027C638.126 124.467 625.346 87.507 608.876 102.677C584.486 125.157 557.556 107.757 546.236 108.047C512.766 108.917 496.226 142.897 460.136 125.747C454.306 122.977 445.656 131.747 441.246 135.307C396.186 171.687 402.906 150.867 401.756 138.567C401.216 132.887 403.566 123.347 409.236 108.537C420.486 79.1971 466.596 18.1372 546.786 18.1372Z" fill="white"/>
</mask>
<g mask="url(#mask0_140_3)">
</g>
<path fill-rule="evenodd" clip-rule="evenodd" d="M547.522 17.9097C628.702 17.9097 677.142 82.8097 677.142 87.1897C677.142 91.5597 627.882 43.3598 546.702 42.2898C467.612 41.2398 423.382 90.8499 421.142 87.5999C418.662 83.9999 466.332 17.9097 547.522 17.9097Z" fill="#4F51CF"/>
<path fill-rule="evenodd" clip-rule="evenodd" d="M448.302 3.04785C464.912 3.04785 470.482 21.8557 478.392 40.987C482.402 50.7145 465.142 71.1954 450.092 78.201C431.702 86.7794 417.872 79.417 417.872 58.4785C417.872 33.9814 431.702 3.04785 448.302 3.04785Z" fill="#4F51CF"/>
<path fill-rule="evenodd" clip-rule="evenodd" d="M647.862 0C631.252 0 625.682 18.8078 617.772 37.9392C613.762 47.6666 631.022 68.1476 646.072 75.1531C664.462 83.7315 678.292 76.3691 678.292 55.4306C678.292 30.9336 664.462 0 647.862 0Z" fill="#4F51CF"/>
<path fill-rule="evenodd" clip-rule="evenodd" d="M447.112 10.0513C459.746 10.0513 463.982 25.2156 469.999 40.6408C473.049 48.4838 459.92 64.9972 448.473 70.6456C434.485 77.5622 423.966 71.6261 423.966 54.7438C423.966 34.9924 434.485 10.0513 447.112 10.0513Z" fill="#6C6EFF"/>
<path fill-rule="evenodd" clip-rule="evenodd" d="M649.046 7.00391C636.412 7.00391 632.175 22.1683 626.159 37.5935C623.108 45.4365 636.237 61.9498 647.684 67.5983C661.672 74.5149 672.191 68.5787 672.191 51.6964C672.191 31.945 661.672 7.00391 649.046 7.00391Z" fill="#6C6EFF"/>
<path fill-rule="evenodd" clip-rule="evenodd" d="M1171.32 499.362V1036.08C1171.32 1184.2 1045.61 1304.44 890.754 1304.44H280.56C125.715 1304.44 0 1184.2 0 1036.08V499.362C0 351.249 125.715 231 280.56 231H890.754C1045.61 231 1171.32 351.249 1171.32 499.362ZM1124.99 999.872C1129.69 999.872 1134.2 998.078 1137.53 994.894C1140.85 991.719 1142.73 987.4 1142.73 982.897C1142.73 933.168 1142.73 791.238 1142.73 791.238C1142.73 784.448 1136.97 778.942 1129.88 778.934L36.1141 777.544C32.6986 777.544 29.4212 778.837 27.0044 781.15C24.5877 783.454 23.2292 786.586 23.2292 789.857V1025.4C23.2292 1166.2 142.739 1280.52 289.941 1280.52H876.01C997.825 1280.52 1100.66 1202.24 1132.53 1095.46C1134.06 1090.35 1132.99 1084.83 1129.65 1080.59C1126.3 1076.34 1121.06 1073.84 1115.5 1073.84C993.854 1073.82 418.58 1073.82 418.58 1073.82C407.913 1073.82 399.252 1065.54 399.252 1055.34V1018.36C399.252 1008.15 407.913 999.872 418.58 999.872H1124.99ZM23.2292 720.656C23.2292 727.446 28.9798 732.961 36.0798 732.969L1128.86 734.385C1135.96 734.394 1141.72 728.915 1141.75 722.134L1142.73 515.171C1142.73 382.13 1036.03 272.737 900.087 261.083C893.929 260.552 887.821 262.529 883.256 266.53C878.701 270.53 876.121 276.182 876.141 282.097C876.221 310.333 876.413 358.941 876.534 386.792C876.554 392.411 874.226 397.805 870.074 401.774C865.911 405.744 860.268 407.96 854.402 407.928L312.3 405.031C300.222 404.967 290.456 395.606 290.411 384.054L290.024 281.924C290.002 276.028 287.396 270.411 282.84 266.439C278.284 262.468 272.196 260.506 266.056 261.029C130.027 272.635 23.2292 382.068 23.2292 515.171V720.656Z" fill="#81C3C3"/>
<path d="M139.797 1006.64C143.443 1006.74 146.464 1006.82 148.859 1006.88C151.307 1006.88 153.286 1006.88 154.797 1006.88H158.938H182.219C182.323 1007.92 182.401 1008.93 182.453 1009.92C182.557 1010.86 182.609 1011.69 182.609 1012.42C182.609 1013.31 182.583 1014.11 182.531 1014.84C182.479 1015.57 182.401 1016.35 182.297 1017.19C182.193 1017.92 182.089 1018.7 181.984 1019.53C181.88 1020.36 181.698 1021.22 181.438 1022.11C180.708 1019.3 179.719 1017.16 178.469 1015.7C177.271 1014.24 176.047 1013.18 174.797 1012.5C173.339 1011.72 171.802 1011.3 170.188 1011.25C168.052 1011.35 166.385 1011.54 165.188 1011.8C163.99 1012.06 163.052 1012.42 162.375 1012.89C161.698 1013.36 161.177 1013.91 160.812 1014.53C160.5 1015.1 160.161 1015.76 159.797 1016.48C159.484 1017.11 159.198 1018.07 158.938 1019.38C158.677 1020.47 158.417 1021.95 158.156 1023.83C157.948 1025.7 157.714 1028.12 157.453 1031.09C158.859 1030.68 159.979 1030.29 160.812 1029.92C161.698 1029.56 162.401 1029.24 162.922 1028.98C163.495 1028.67 163.911 1028.39 164.172 1028.12C164.38 1027.81 164.693 1027.24 165.109 1026.41C165.422 1025.68 165.839 1024.69 166.359 1023.44C166.932 1022.19 167.609 1020.47 168.391 1018.28C168.495 1020.68 168.547 1022.68 168.547 1024.3C168.547 1025.86 168.573 1027.14 168.625 1028.12C168.625 1029.27 168.651 1030.18 168.703 1030.86V1033.83C168.703 1034.92 168.703 1036.41 168.703 1038.28C168.755 1040.1 168.833 1042.42 168.938 1045.23C168.312 1043.31 167.74 1041.8 167.219 1040.7C166.75 1039.56 166.333 1038.7 165.969 1038.12C165.552 1037.45 165.188 1036.98 164.875 1036.72C164.51 1036.61 164.016 1036.51 163.391 1036.41C162.818 1036.35 162.089 1036.33 161.203 1036.33C160.37 1036.33 159.302 1036.46 158 1036.72C157.844 1039.58 157.818 1041.9 157.922 1043.67C158.078 1045.39 158.286 1046.72 158.547 1047.66C158.807 1048.75 159.12 1049.53 159.484 1050C159.953 1050.47 160.891 1050.86 162.297 1051.17C163.703 1051.43 165.292 1051.54 167.062 1051.48C168.885 1051.38 170.734 1051.07 172.609 1050.55C174.484 1050.03 176.151 1049.17 177.609 1047.97C178.703 1046.98 179.875 1045.73 181.125 1044.22C182.167 1042.92 183.312 1041.28 184.562 1039.3C185.865 1037.32 187.141 1034.92 188.391 1032.11C188.182 1034.45 188.026 1036.41 187.922 1037.97C187.87 1039.48 187.792 1040.7 187.688 1041.64C187.583 1042.73 187.505 1043.57 187.453 1044.14C187.453 1044.77 187.375 1045.65 187.219 1046.8C187.115 1047.79 186.932 1049.14 186.672 1050.86C186.464 1052.53 186.177 1054.66 185.812 1057.27C183.365 1057.32 181.047 1057.37 178.859 1057.42C176.672 1057.42 174.745 1057.45 173.078 1057.5C171.099 1057.55 169.276 1057.6 167.609 1057.66C165.891 1057.66 163.99 1057.73 161.906 1057.89C160.083 1057.99 157.922 1058.15 155.422 1058.36C152.974 1058.57 150.266 1058.85 147.297 1059.22C147.557 1055.68 147.74 1052.34 147.844 1049.22C148 1046.04 148.104 1043.26 148.156 1040.86C148.208 1038.05 148.208 1035.44 148.156 1033.05C148.417 1027.06 148.312 1022.21 147.844 1018.52C147.375 1014.82 146.828 1012.45 146.203 1011.41C145.891 1011.04 145.448 1010.6 144.875 1010.08C144.406 1009.66 143.755 1009.17 142.922 1008.59C142.089 1008.02 141.047 1007.37 139.797 1006.64ZM191.594 1022.97C192.792 1022.86 193.807 1022.76 194.641 1022.66C195.526 1022.55 196.255 1022.45 196.828 1022.34C197.505 1022.24 198.078 1022.14 198.547 1022.03C199.016 1021.98 199.536 1021.88 200.109 1021.72C200.63 1021.61 201.203 1021.48 201.828 1021.33C202.505 1021.12 203.234 1020.89 204.016 1020.62L203.547 1030.55C204.693 1028.72 206.021 1027.34 207.531 1026.41C209.042 1025.42 210.474 1024.69 211.828 1024.22C213.443 1023.65 215.057 1023.31 216.672 1023.2C218.339 1023.26 219.875 1023.52 221.281 1023.98C222.479 1024.4 223.677 1025.05 224.875 1025.94C226.125 1026.82 227.089 1028.12 227.766 1029.84C229.536 1028.02 231.281 1026.61 233 1025.62C234.771 1024.58 236.333 1023.8 237.688 1023.28C239.302 1022.71 240.812 1022.37 242.219 1022.27C244.094 1022.21 245.812 1022.53 247.375 1023.2C248.99 1023.88 250.396 1024.74 251.594 1025.78C252.792 1026.77 253.755 1027.84 254.484 1028.98C255.214 1030.08 255.63 1031.04 255.734 1031.88C255.891 1033.02 255.812 1034.51 255.5 1036.33C255.188 1038.1 254.823 1039.92 254.406 1041.8C253.99 1043.62 253.599 1045.31 253.234 1046.88C252.922 1048.39 252.792 1049.45 252.844 1050.08C253 1050.6 253.365 1051.22 253.938 1051.95C254.458 1052.58 255.214 1053.36 256.203 1054.3C257.245 1055.18 258.729 1056.22 260.656 1057.42C258.99 1057.37 257.505 1057.32 256.203 1057.27C254.953 1057.21 253.885 1057.14 253 1057.03C251.958 1056.93 251.047 1056.85 250.266 1056.8C249.641 1056.8 248.885 1056.74 248 1056.64C247.271 1056.59 246.307 1056.51 245.109 1056.41C243.964 1056.3 242.635 1056.2 241.125 1056.09C241.698 1055.94 242.167 1055.65 242.531 1055.23C242.896 1054.77 243.208 1054.32 243.469 1053.91C243.729 1053.39 243.938 1052.81 244.094 1052.19C244.198 1051.67 244.302 1050.83 244.406 1049.69C244.51 1048.54 244.589 1047.24 244.641 1045.78C244.745 1044.32 244.797 1042.79 244.797 1041.17C244.849 1039.56 244.849 1038.02 244.797 1036.56C244.745 1035.1 244.641 1033.78 244.484 1032.58C244.328 1031.38 244.12 1030.47 243.859 1029.84C243.651 1029.38 243.286 1029.01 242.766 1028.75C242.245 1028.44 241.646 1028.26 240.969 1028.2C240.292 1028.1 239.615 1028.12 238.938 1028.28C238.26 1028.39 237.661 1028.59 237.141 1028.91C236.672 1029.27 236.047 1029.77 235.266 1030.39C234.589 1030.96 233.703 1031.74 232.609 1032.73C231.516 1033.72 230.135 1034.97 228.469 1036.48C228.312 1039.77 228.182 1042.42 228.078 1044.45C228.026 1046.43 227.974 1047.94 227.922 1048.98C227.87 1050.23 227.844 1051.09 227.844 1051.56C227.792 1051.98 227.818 1052.37 227.922 1052.73C228.026 1053.52 228.339 1054.24 228.859 1054.92C228.234 1054.77 227.557 1054.66 226.828 1054.61C226.151 1054.56 225.526 1054.51 224.953 1054.45C224.276 1054.4 223.599 1054.38 222.922 1054.38C222.349 1054.38 221.724 1054.4 221.047 1054.45C220.474 1054.51 219.771 1054.58 218.938 1054.69C218.104 1054.74 217.193 1054.82 216.203 1054.92C216.62 1054.66 216.958 1054.35 217.219 1053.98C217.479 1053.62 217.688 1053.28 217.844 1052.97C218.052 1052.6 218.208 1052.27 218.312 1051.95C218.365 1051.64 218.469 1050.89 218.625 1049.69C218.781 1048.44 218.885 1046.98 218.938 1045.31C218.99 1043.65 218.99 1041.9 218.938 1040.08C218.885 1038.2 218.703 1036.51 218.391 1035C218.078 1033.44 217.583 1032.16 216.906 1031.17C216.281 1030.18 215.448 1029.74 214.406 1029.84C213.156 1029.95 211.88 1030.26 210.578 1030.78C209.484 1031.2 208.312 1031.82 207.062 1032.66C205.812 1033.49 204.641 1034.61 203.547 1036.02C203.339 1039.92 203.208 1043.02 203.156 1045.31C203.156 1047.6 203.182 1049.35 203.234 1050.55C203.286 1051.95 203.339 1052.92 203.391 1053.44C203.443 1053.8 203.573 1054.17 203.781 1054.53C203.938 1054.84 204.12 1055.21 204.328 1055.62C204.589 1056.04 204.875 1056.43 205.188 1056.8L192.766 1056.17C193.182 1055.96 193.547 1055.7 193.859 1055.39C194.172 1055.03 194.432 1054.66 194.641 1054.3C194.849 1053.88 195.057 1053.46 195.266 1053.05C195.422 1052.68 195.552 1051.82 195.656 1050.47C195.812 1049.11 195.943 1047.53 196.047 1045.7C196.151 1043.83 196.229 1041.88 196.281 1039.84C196.385 1037.76 196.438 1035.83 196.438 1034.06C196.49 1032.24 196.516 1030.7 196.516 1029.45C196.516 1028.15 196.49 1027.37 196.438 1027.11C196.281 1026.59 195.995 1026.04 195.578 1025.47C195.214 1025.05 194.719 1024.61 194.094 1024.14C193.469 1023.62 192.635 1023.23 191.594 1022.97ZM266.906 1028.36C267.167 1028.05 267.323 1027.47 267.375 1026.64C267.479 1025.76 267.688 1024.77 268 1023.67C268.365 1022.58 268.964 1021.43 269.797 1020.23C270.63 1019.04 271.984 1017.92 273.859 1016.88C275.682 1015.83 277.453 1015.21 279.172 1015C280.891 1014.79 282.531 1014.87 284.094 1015.23C285.656 1015.6 287.115 1016.17 288.469 1016.95C289.875 1017.73 291.151 1018.59 292.297 1019.53C293.078 1020.16 293.703 1021.07 294.172 1022.27C294.641 1023.41 295.005 1024.71 295.266 1026.17C295.526 1027.63 295.708 1029.17 295.812 1030.78C295.969 1032.34 296.073 1033.88 296.125 1035.39C296.177 1036.85 296.203 1038.2 296.203 1039.45C296.255 1040.65 296.359 1041.64 296.516 1042.42C296.724 1043.57 297.089 1044.56 297.609 1045.39C298.13 1046.17 298.703 1046.85 299.328 1047.42C299.953 1047.94 300.578 1048.36 301.203 1048.67C301.828 1048.98 302.375 1049.22 302.844 1049.38C303.156 1049.53 303.443 1049.64 303.703 1049.69C304.224 1049.9 304.589 1049.9 304.797 1049.69C304.484 1050.42 304.198 1051.04 303.938 1051.56C303.677 1052.08 303.469 1052.53 303.312 1052.89C303.104 1053.31 302.922 1053.65 302.766 1053.91C302.609 1054.22 302.427 1054.51 302.219 1054.77C302.062 1055.03 301.854 1055.31 301.594 1055.62C301.333 1055.94 301.073 1056.28 300.812 1056.64C300.135 1056.38 299.484 1056.07 298.859 1055.7C298.286 1055.34 297.766 1055 297.297 1054.69C296.724 1054.32 296.203 1053.96 295.734 1053.59C295.266 1053.23 294.823 1052.81 294.406 1052.34C294.042 1051.93 293.651 1051.48 293.234 1051.02C292.87 1050.55 292.557 1050.03 292.297 1049.45C291.984 1050.13 291.229 1051.09 290.031 1052.34C288.885 1053.59 287.375 1054.74 285.5 1055.78C283.625 1056.77 281.438 1057.47 278.938 1057.89C276.49 1058.31 273.781 1058.02 270.812 1057.03C269.51 1056.61 268.286 1056.02 267.141 1055.23C265.995 1054.4 265.005 1053.41 264.172 1052.27C263.391 1051.12 262.818 1049.82 262.453 1048.36C262.141 1046.85 262.167 1045.18 262.531 1043.36C262.896 1041.54 263.547 1040 264.484 1038.75C265.422 1037.5 266.542 1036.48 267.844 1035.7C269.146 1034.92 270.604 1034.32 272.219 1033.91C273.833 1033.49 275.5 1033.2 277.219 1033.05C278.573 1032.99 279.927 1033.07 281.281 1033.28C282.427 1033.49 283.625 1033.88 284.875 1034.45C286.125 1034.97 287.193 1035.78 288.078 1036.88C288.026 1034.11 287.922 1031.93 287.766 1030.31C287.661 1028.65 287.557 1027.37 287.453 1026.48C287.245 1025.44 287.062 1024.71 286.906 1024.3C286.646 1023.93 286.359 1023.52 286.047 1023.05C285.786 1022.58 285.448 1022.16 285.031 1021.8C284.615 1021.38 284.094 1021.04 283.469 1020.78C282.844 1020.52 282.115 1020.42 281.281 1020.47C280.396 1020.52 279.693 1020.76 279.172 1021.17C278.651 1021.59 278.234 1022.08 277.922 1022.66C277.661 1023.18 277.505 1023.75 277.453 1024.38C277.401 1025 277.427 1025.55 277.531 1026.02C277.635 1026.33 277.792 1026.67 278 1027.03C278.208 1027.34 278.495 1027.68 278.859 1028.05C279.224 1028.41 279.719 1028.72 280.344 1028.98C279.146 1029.14 278.078 1029.27 277.141 1029.38C276.203 1029.43 275.396 1029.51 274.719 1029.61C273.938 1029.71 273.26 1029.79 272.688 1029.84C272.115 1029.9 271.438 1030 270.656 1030.16C269.979 1030.26 269.146 1030.39 268.156 1030.55C267.167 1030.7 266.021 1030.91 264.719 1031.17C265.031 1030.81 265.318 1030.47 265.578 1030.16C265.839 1029.79 266.073 1029.48 266.281 1029.22C266.49 1028.91 266.698 1028.62 266.906 1028.36ZM278.625 1037.66C277.688 1037.71 276.75 1037.94 275.812 1038.36C274.875 1038.72 274.042 1039.27 273.312 1040C272.583 1040.68 271.958 1041.48 271.438 1042.42C270.969 1043.31 270.734 1044.3 270.734 1045.39C270.734 1046.48 270.995 1047.45 271.516 1048.28C272.089 1049.06 272.818 1049.71 273.703 1050.23C274.641 1050.76 275.63 1051.07 276.672 1051.17C277.766 1051.28 278.833 1051.17 279.875 1050.86C280.865 1050.49 281.802 1049.92 282.688 1049.14C283.573 1048.31 284.328 1047.42 284.953 1046.48C285.578 1045.49 286.021 1044.53 286.281 1043.59C286.542 1042.6 286.568 1041.8 286.359 1041.17C285.943 1039.82 285.005 1038.88 283.547 1038.36C282.089 1037.79 280.448 1037.55 278.625 1037.66ZM304.016 1025.08L318.391 1025.23C317.557 1028.41 316.932 1031.12 316.516 1033.36C316.151 1035.6 315.917 1037.47 315.812 1038.98C315.604 1040.7 315.552 1042.16 315.656 1043.36C315.812 1044.45 316.073 1045.62 316.438 1046.88C316.75 1047.92 317.219 1049.11 317.844 1050.47C318.469 1051.82 319.302 1053.18 320.344 1054.53C319.719 1054.32 319.042 1054.17 318.312 1054.06C317.583 1053.96 316.906 1053.88 316.281 1053.83C315.552 1053.78 314.823 1053.78 314.094 1053.83C313.365 1053.88 312.557 1053.96 311.672 1054.06C310.943 1054.17 310.057 1054.3 309.016 1054.45C307.974 1054.61 306.88 1054.82 305.734 1055.08C306.516 1052.73 307.115 1050.7 307.531 1048.98C308 1047.27 308.339 1045.83 308.547 1044.69C308.755 1043.33 308.885 1042.24 308.938 1041.41C308.938 1040.36 308.938 1039.19 308.938 1037.89C308.938 1036.54 308.938 1035.23 308.938 1033.98C308.938 1032.73 308.911 1031.64 308.859 1030.7C308.807 1029.71 308.703 1029.09 308.547 1028.83L307.766 1028.05C307.453 1027.79 306.984 1027.42 306.359 1026.95C305.786 1026.43 305.005 1025.81 304.016 1025.08ZM309.562 1013.05C310.656 1012.47 311.75 1012.32 312.844 1012.58C313.99 1012.84 314.875 1013.33 315.5 1014.06C316.125 1014.79 316.333 1015.65 316.125 1016.64C315.969 1017.63 315.135 1018.59 313.625 1019.53C312.115 1020.42 310.786 1020.73 309.641 1020.47C308.495 1020.21 307.688 1019.66 307.219 1018.83C306.75 1017.99 306.672 1017.03 306.984 1015.94C307.297 1014.79 308.156 1013.83 309.562 1013.05ZM324.953 1062.19C325.474 1061.41 325.891 1060.68 326.203 1060C326.516 1059.32 326.776 1058.75 326.984 1058.28C327.193 1057.71 327.349 1057.19 327.453 1056.72C327.505 1056.41 327.531 1055.49 327.531 1053.98C327.531 1052.47 327.479 1050.57 327.375 1048.28C327.323 1045.99 327.245 1043.41 327.141 1040.55C327.089 1037.68 326.984 1034.77 326.828 1031.8C326.724 1028.83 326.594 1025.94 326.438 1023.12C326.333 1020.31 326.229 1017.79 326.125 1015.55C326.021 1013.26 325.917 1011.38 325.812 1009.92C325.708 1008.46 325.63 1007.63 325.578 1007.42C325.474 1007.11 325.292 1006.8 325.031 1006.48C324.51 1005.86 323.625 1005.26 322.375 1004.69C325.031 1004.01 327.062 1003.46 328.469 1003.05C329.302 1002.84 330.031 1002.63 330.656 1002.42C331.229 1002.21 331.802 1002.01 332.375 1001.8C332.844 1001.59 333.365 1001.35 333.938 1001.09C334.51 1000.78 335.031 1000.44 335.5 1000.08C335.24 1001.59 335.031 1003.05 334.875 1004.45C334.719 1005.86 334.589 1007.16 334.484 1008.36C334.38 1009.71 334.328 1011.02 334.328 1012.27C334.068 1014.82 333.911 1017.6 333.859 1020.62C333.859 1023.59 333.885 1026.61 333.938 1029.69C333.99 1032.76 334.094 1035.76 334.25 1038.67C334.406 1041.59 334.562 1044.24 334.719 1046.64C334.927 1048.98 335.109 1050.99 335.266 1052.66C335.474 1054.27 335.63 1055.31 335.734 1055.78C335.943 1056.56 336.151 1057.32 336.359 1058.05C336.568 1058.67 336.802 1059.32 337.062 1060C337.323 1060.73 337.635 1061.3 338 1061.72H330.422C329.745 1061.72 329.094 1061.74 328.469 1061.8C327.896 1061.85 327.297 1061.9 326.672 1061.95C326.047 1062.01 325.474 1062.08 324.953 1062.19ZM348.312 1051.41C350.188 1051.15 351.646 1051.46 352.688 1052.34C353.781 1053.23 354.302 1054.45 354.25 1056.02C354.198 1056.8 354.042 1057.42 353.781 1057.89C353.521 1058.36 353.156 1058.72 352.688 1058.98C352.271 1059.19 351.75 1059.38 351.125 1059.53C350.552 1059.64 349.875 1059.74 349.094 1059.84C348.312 1060 347.557 1059.97 346.828 1059.77C346.099 1059.51 345.448 1059.14 344.875 1058.67C344.302 1058.2 343.833 1057.68 343.469 1057.11C343.156 1056.54 343 1055.96 343 1055.39C343 1054.77 343.156 1054.24 343.469 1053.83C343.833 1053.36 344.276 1052.97 344.797 1052.66C345.37 1052.29 345.943 1052.03 346.516 1051.88C347.141 1051.67 347.74 1051.51 348.312 1051.41ZM353.312 1033.36C353.677 1033.98 353.885 1034.66 353.938 1035.39C354.042 1036.07 353.99 1036.74 353.781 1037.42C353.573 1038.1 353.208 1038.75 352.688 1039.38C352.219 1040 351.594 1040.49 350.812 1040.86C349.146 1041.64 347.661 1041.85 346.359 1041.48C345.057 1041.12 344.068 1040.44 343.391 1039.45C343.026 1038.93 342.818 1038.36 342.766 1037.73C342.766 1037.06 342.896 1036.41 343.156 1035.78C343.469 1035.1 343.911 1034.48 344.484 1033.91C345.057 1033.33 345.786 1032.86 346.672 1032.5C348.391 1031.77 349.797 1031.54 350.891 1031.8C352.036 1032.01 352.844 1032.53 353.312 1033.36Z" fill="#81C3C3"/>
<path d="M331.858 815.382C334.202 815.694 336.181 815.851 337.796 815.851C338.681 815.851 339.488 815.825 340.218 815.772C340.947 815.72 341.858 815.642 342.952 815.538C343.889 815.434 345.061 815.33 346.468 815.226C347.874 815.121 349.514 814.939 351.389 814.679C350.712 815.2 350.191 815.799 349.827 816.476C349.462 817.153 349.176 817.804 348.968 818.429C348.759 819.158 348.603 819.913 348.499 820.694C348.447 821.163 348.421 822.127 348.421 823.585C348.473 825.043 348.499 826.814 348.499 828.897C348.551 830.981 348.551 833.299 348.499 835.851C348.499 838.403 348.447 841.007 348.343 843.663C348.238 846.267 348.082 848.871 347.874 851.476C347.665 854.028 347.353 856.397 346.936 858.585C346.572 860.72 346.077 862.595 345.452 864.21C344.879 865.772 344.176 866.866 343.343 867.491C341.624 868.793 339.749 869.861 337.718 870.694C335.686 871.476 333.681 871.996 331.702 872.257C329.723 872.517 327.848 872.517 326.077 872.257C324.358 872.049 322.9 871.528 321.702 870.694C320.921 870.121 320.191 869.314 319.514 868.272C318.837 867.231 318.212 866.085 317.639 864.835C317.119 863.533 316.624 862.205 316.155 860.851C315.738 859.444 315.374 858.168 315.061 857.022C314.697 855.825 314.41 854.783 314.202 853.897C313.941 852.96 313.759 852.335 313.655 852.022C313.447 851.554 313.108 851.085 312.639 850.616C312.171 850.147 311.676 849.731 311.155 849.366C310.634 849.002 310.191 848.741 309.827 848.585C309.41 848.377 309.176 848.325 309.124 848.429C309.124 848.533 309.54 848.559 310.374 848.507C311.155 848.403 312.119 848.299 313.264 848.194C314.41 848.09 315.608 848.012 316.858 847.96C318.108 847.856 319.15 847.83 319.983 847.882C320.66 847.882 321.546 847.908 322.639 847.96C323.577 848.012 324.775 848.064 326.233 848.116C327.691 848.116 329.488 848.168 331.624 848.272C330.27 848.689 329.176 849.158 328.343 849.679C327.561 850.147 326.962 850.59 326.546 851.007C326.025 851.528 325.66 852.049 325.452 852.569C325.296 853.038 325.165 854.002 325.061 855.46C325.009 856.866 325.113 858.325 325.374 859.835C325.634 861.345 326.129 862.726 326.858 863.976C327.587 865.226 328.733 865.929 330.296 866.085C331.962 866.241 333.316 865.955 334.358 865.226C335.452 864.444 336.311 863.403 336.936 862.101C337.561 860.799 338.03 859.34 338.343 857.726C338.655 856.111 338.915 854.522 339.124 852.96C339.28 851.918 339.332 850.46 339.28 848.585C339.228 846.71 339.098 844.679 338.889 842.491C338.681 840.304 338.421 838.038 338.108 835.694C337.848 833.351 337.587 831.189 337.327 829.21C337.066 827.231 336.806 825.538 336.546 824.132C336.337 822.726 336.207 821.84 336.155 821.476C335.947 820.799 335.66 820.095 335.296 819.366C334.983 818.793 334.54 818.142 333.968 817.413C333.447 816.684 332.744 816.007 331.858 815.382ZM374.671 836.866C376.025 836.866 377.431 837.127 378.889 837.647C380.348 838.116 381.754 838.741 383.108 839.522C384.462 840.252 385.686 841.059 386.78 841.944C387.926 842.778 388.863 843.585 389.593 844.366C390.895 845.772 391.78 847.674 392.249 850.069C392.77 852.413 392.874 854.835 392.561 857.335C392.249 859.783 391.52 862.101 390.374 864.288C389.228 866.476 387.639 868.09 385.608 869.132C384.15 869.861 382.718 870.434 381.311 870.851C379.905 871.267 378.551 871.58 377.249 871.788C375.947 871.996 374.723 872.101 373.577 872.101C372.431 872.101 371.441 872.075 370.608 872.022C369.046 871.918 367.405 871.371 365.686 870.382C364.02 869.392 362.431 868.168 360.921 866.71C359.462 865.252 358.212 863.663 357.171 861.944C356.129 860.174 355.504 858.507 355.296 856.944C354.983 854.809 354.931 852.569 355.139 850.226C355.348 847.882 356.103 845.72 357.405 843.741C358.759 841.762 360.79 840.121 363.499 838.819C366.259 837.517 369.983 836.866 374.671 836.866ZM372.093 867.179C372.665 867.283 373.447 867.153 374.436 866.788C375.426 866.371 376.389 865.72 377.327 864.835C378.316 863.95 379.176 862.83 379.905 861.476C380.686 860.069 381.155 858.377 381.311 856.397C381.468 854.47 381.468 852.7 381.311 851.085C381.207 849.47 380.973 848.064 380.608 846.866C380.244 845.616 379.827 844.601 379.358 843.819C378.889 843.038 378.395 842.491 377.874 842.179C376.988 841.71 375.921 841.345 374.671 841.085C373.421 840.772 372.353 840.825 371.468 841.241C371.051 841.45 370.53 841.892 369.905 842.569C369.28 843.246 368.655 844.106 368.03 845.147C367.405 846.137 366.832 847.283 366.311 848.585C365.843 849.887 365.504 851.241 365.296 852.647C365.087 854.054 365.035 855.564 365.139 857.179C365.296 858.793 365.634 860.33 366.155 861.788C366.676 863.194 367.405 864.418 368.343 865.46C369.332 866.45 370.582 867.022 372.093 867.179ZM396.311 836.944L410.686 837.101C409.853 840.278 409.228 842.986 408.811 845.226C408.447 847.465 408.212 849.34 408.108 850.851C407.9 852.569 407.848 854.028 407.952 855.226C408.108 856.319 408.369 857.491 408.733 858.741C409.046 859.783 409.514 860.981 410.139 862.335C410.764 863.689 411.598 865.043 412.639 866.397C412.014 866.189 411.337 866.033 410.608 865.929C409.879 865.825 409.202 865.746 408.577 865.694C407.848 865.642 407.119 865.642 406.389 865.694C405.66 865.746 404.853 865.825 403.968 865.929C403.238 866.033 402.353 866.163 401.311 866.319C400.27 866.476 399.176 866.684 398.03 866.944C398.811 864.601 399.41 862.569 399.827 860.851C400.296 859.132 400.634 857.7 400.843 856.554C401.051 855.2 401.181 854.106 401.233 853.272C401.233 852.231 401.233 851.059 401.233 849.757C401.233 848.403 401.233 847.101 401.233 845.851C401.233 844.601 401.207 843.507 401.155 842.569C401.103 841.58 400.999 840.955 400.843 840.694L400.061 839.913C399.749 839.653 399.28 839.288 398.655 838.819C398.082 838.299 397.301 837.674 396.311 836.944ZM401.858 824.913C402.952 824.34 404.046 824.184 405.139 824.444C406.285 824.705 407.171 825.2 407.796 825.929C408.421 826.658 408.629 827.517 408.421 828.507C408.264 829.496 407.431 830.46 405.921 831.397C404.41 832.283 403.082 832.595 401.936 832.335C400.79 832.075 399.983 831.528 399.514 830.694C399.046 829.861 398.968 828.897 399.28 827.804C399.593 826.658 400.452 825.694 401.858 824.913ZM417.874 863.272C418.238 861.554 418.499 860.043 418.655 858.741C418.863 857.387 419.02 856.267 419.124 855.382C419.228 854.34 419.28 853.455 419.28 852.726C419.228 851.84 419.176 850.799 419.124 849.601C419.124 848.351 419.072 847.127 418.968 845.929C418.915 844.679 418.837 843.585 418.733 842.647C418.629 841.658 418.499 840.955 418.343 840.538C418.134 840.121 417.848 839.679 417.483 839.21C416.754 838.325 415.686 837.465 414.28 836.632C415.478 836.371 416.494 836.163 417.327 836.007C418.212 835.799 418.941 835.616 419.514 835.46C420.139 835.252 420.686 835.069 421.155 834.913C421.572 834.757 422.066 834.601 422.639 834.444C423.108 834.34 423.681 834.21 424.358 834.054C425.035 833.897 425.816 833.715 426.702 833.507L426.468 840.616C428.134 838.637 429.827 837.153 431.546 836.163C433.264 835.174 434.879 834.47 436.389 834.054C438.108 833.533 439.801 833.272 441.468 833.272C443.551 833.377 445.478 833.715 447.249 834.288C449.072 834.861 450.634 835.538 451.936 836.319C453.29 837.049 454.384 837.83 455.218 838.663C456.051 839.496 456.546 840.226 456.702 840.851C457.327 842.882 457.483 844.757 457.171 846.476C456.858 848.142 456.441 849.783 455.921 851.397C455.452 852.96 455.035 854.522 454.671 856.085C454.358 857.647 454.488 859.34 455.061 861.163C455.27 861.632 455.478 862.101 455.686 862.569C455.895 862.986 456.155 863.403 456.468 863.819C456.78 864.236 457.145 864.575 457.561 864.835C456.988 864.783 456.415 864.757 455.843 864.757C455.27 864.705 454.749 864.653 454.28 864.601C453.707 864.549 453.186 864.496 452.718 864.444C452.197 864.392 451.494 864.366 450.608 864.366C449.098 864.366 446.754 864.444 443.577 864.601C444.046 863.507 444.41 862.595 444.671 861.866C444.983 861.085 445.244 860.46 445.452 859.991C445.66 859.418 445.816 858.976 445.921 858.663C446.546 857.153 446.91 855.434 447.014 853.507C447.171 851.58 447.04 849.627 446.624 847.647C446.468 846.97 446.207 846.163 445.843 845.226C445.478 844.288 444.983 843.377 444.358 842.491C443.785 841.606 443.082 840.851 442.249 840.226C441.468 839.601 440.556 839.236 439.514 839.132C438.473 839.028 437.301 839.288 435.999 839.913C434.749 840.538 433.395 841.684 431.936 843.351C430.843 844.757 429.983 846.476 429.358 848.507C428.785 850.226 428.395 852.387 428.186 854.991C427.978 857.543 428.29 860.538 429.124 863.976C428.395 863.871 427.718 863.819 427.093 863.819C426.468 863.767 425.947 863.715 425.53 863.663C425.009 863.611 424.54 863.559 424.124 863.507C423.655 863.507 423.134 863.481 422.561 863.429C422.04 863.429 421.389 863.429 420.608 863.429C419.827 863.377 418.915 863.325 417.874 863.272ZM508.264 859.288C509.723 859.288 511.077 859.132 512.327 858.819C513.369 858.559 514.358 858.142 515.296 857.569C516.285 856.944 516.936 856.033 517.249 854.835C518.29 855.043 519.176 855.226 519.905 855.382C520.634 855.486 521.259 855.59 521.78 855.694C522.353 855.851 522.848 855.955 523.264 856.007C523.681 856.111 524.176 856.215 524.749 856.319C525.27 856.424 525.895 856.554 526.624 856.71C527.405 856.814 528.316 856.97 529.358 857.179C528.577 857.075 527.77 857.153 526.936 857.413C526.155 857.674 525.4 857.96 524.671 858.272C523.837 858.637 523.056 859.08 522.327 859.601C521.858 859.913 521.311 860.382 520.686 861.007C520.113 861.632 519.28 862.231 518.186 862.804C517.093 863.377 515.634 863.871 513.811 864.288C512.04 864.653 509.749 864.783 506.936 864.679C503.551 864.575 500.712 863.976 498.421 862.882C496.129 861.736 494.28 860.356 492.874 858.741C491.468 857.075 490.452 855.278 489.827 853.351C489.202 851.424 488.863 849.627 488.811 847.96C488.759 846.293 489.254 844.549 490.296 842.726C491.337 840.903 492.796 839.236 494.671 837.726C496.598 836.215 498.915 834.991 501.624 834.054C504.332 833.064 507.301 832.569 510.53 832.569C512.405 832.569 514.124 832.804 515.686 833.272C517.301 833.689 518.759 834.262 520.061 834.991C521.415 835.72 522.587 836.554 523.577 837.491C524.566 838.377 525.4 839.288 526.077 840.226C526.754 841.215 527.327 842.257 527.796 843.351C528.212 844.288 528.551 845.356 528.811 846.554C529.072 847.752 529.15 848.976 529.046 850.226C525.087 850.33 521.884 850.408 519.436 850.46C517.04 850.512 515.165 850.538 513.811 850.538H510.296H507.639C506.702 850.538 505.478 850.564 503.968 850.616C502.457 850.668 500.608 850.746 498.421 850.851C498.681 852.934 499.332 854.549 500.374 855.694C501.468 856.788 502.613 857.621 503.811 858.194C505.165 858.819 506.65 859.184 508.264 859.288ZM501.233 845.226C502.9 845.33 504.28 845.408 505.374 845.46C506.52 845.512 507.457 845.564 508.186 845.616C508.968 845.668 509.593 845.694 510.061 845.694H512.014C513.316 845.694 515.738 845.616 519.28 845.46C519.124 843.168 518.629 841.424 517.796 840.226C517.014 839.028 516.181 838.142 515.296 837.569C514.254 836.944 513.108 836.58 511.858 836.476C508.473 836.528 505.947 837.231 504.28 838.585C502.665 839.939 501.65 842.153 501.233 845.226ZM529.202 828.507C530.712 828.507 531.962 828.533 532.952 828.585C533.941 828.585 534.723 828.585 535.296 828.585H536.858H538.655C539.384 828.585 540.348 828.585 541.546 828.585C542.796 828.533 544.41 828.455 546.389 828.351C545.452 828.559 544.723 828.793 544.202 829.054C543.681 829.262 543.29 829.496 543.03 829.757C542.718 830.017 542.535 830.304 542.483 830.616C542.535 831.033 542.718 831.684 543.03 832.569C543.29 833.351 543.733 834.418 544.358 835.772C545.035 837.127 546.025 838.95 547.327 841.241C549.514 838.741 551.181 836.762 552.327 835.304C553.473 833.845 554.332 832.726 554.905 831.944C555.478 831.059 555.816 830.46 555.921 830.147C555.869 829.887 555.79 829.627 555.686 829.366C555.53 828.95 555.139 828.299 554.514 827.413C555.921 827.517 557.145 827.595 558.186 827.647C559.228 827.647 560.113 827.674 560.843 827.726C561.676 827.778 562.353 827.804 562.874 827.804C563.447 827.804 564.28 827.778 565.374 827.726C566.259 827.674 567.457 827.621 568.968 827.569C570.53 827.465 572.483 827.309 574.827 827.101C572.9 828.038 571.259 828.95 569.905 829.835C568.551 830.668 567.431 831.424 566.546 832.101C565.504 832.882 564.645 833.611 563.968 834.288C563.29 835.069 562.457 836.033 561.468 837.179C560.582 838.22 559.488 839.522 558.186 841.085C556.936 842.595 555.4 844.496 553.577 846.788C554.931 849.132 556.207 851.137 557.405 852.804C558.655 854.47 559.723 855.851 560.608 856.944C561.65 858.246 562.613 859.288 563.499 860.069C564.384 860.851 565.348 861.632 566.389 862.413C567.275 863.09 568.29 863.819 569.436 864.601C570.634 865.33 571.91 865.981 573.264 866.554C571.91 866.658 570.582 866.736 569.28 866.788C568.03 866.788 566.91 866.84 565.921 866.944C564.775 867.049 563.681 867.127 562.639 867.179C561.598 867.283 560.53 867.361 559.436 867.413C558.499 867.465 557.457 867.517 556.311 867.569C555.165 867.621 553.994 867.647 552.796 867.647C553.264 867.179 553.629 866.736 553.889 866.319C554.15 865.903 554.358 865.538 554.514 865.226C554.723 864.861 554.853 864.522 554.905 864.21C554.853 863.793 554.593 863.116 554.124 862.179C553.707 861.345 553.056 860.2 552.171 858.741C551.285 857.231 549.983 855.2 548.264 852.647C547.066 853.897 546.103 854.991 545.374 855.929C544.697 856.866 544.176 857.647 543.811 858.272C543.395 859.002 543.108 859.601 542.952 860.069C542.848 860.538 542.848 861.059 542.952 861.632C543.056 862.101 543.212 862.674 543.421 863.351C543.629 863.976 543.994 864.627 544.514 865.304C541.91 865.46 539.723 865.538 537.952 865.538H535.296C534.462 865.538 533.473 865.512 532.327 865.46C531.337 865.408 530.113 865.382 528.655 865.382C527.145 865.33 525.4 865.252 523.421 865.147C523.994 864.939 524.593 864.679 525.218 864.366C525.843 864.054 526.389 863.767 526.858 863.507C527.431 863.194 527.978 862.856 528.499 862.491C529.072 862.022 529.983 861.137 531.233 859.835C532.275 858.741 533.707 857.205 535.53 855.226C537.353 853.194 539.723 850.486 542.639 847.101C540.921 843.976 539.514 841.502 538.421 839.679C537.379 837.804 536.572 836.345 535.999 835.304C535.322 834.106 534.827 833.299 534.514 832.882C534.202 832.465 533.785 831.996 533.264 831.476C532.431 830.642 531.077 829.653 529.202 828.507ZM568.421 836.944L582.796 837.101C581.962 840.278 581.337 842.986 580.921 845.226C580.556 847.465 580.322 849.34 580.218 850.851C580.009 852.569 579.957 854.028 580.061 855.226C580.218 856.319 580.478 857.491 580.843 858.741C581.155 859.783 581.624 860.981 582.249 862.335C582.874 863.689 583.707 865.043 584.749 866.397C584.124 866.189 583.447 866.033 582.718 865.929C581.988 865.825 581.311 865.746 580.686 865.694C579.957 865.642 579.228 865.642 578.499 865.694C577.77 865.746 576.962 865.825 576.077 865.929C575.348 866.033 574.462 866.163 573.421 866.319C572.379 866.476 571.285 866.684 570.139 866.944C570.921 864.601 571.52 862.569 571.936 860.851C572.405 859.132 572.744 857.7 572.952 856.554C573.16 855.2 573.29 854.106 573.343 853.272C573.343 852.231 573.343 851.059 573.343 849.757C573.343 848.403 573.343 847.101 573.343 845.851C573.343 844.601 573.316 843.507 573.264 842.569C573.212 841.58 573.108 840.955 572.952 840.694L572.171 839.913C571.858 839.653 571.389 839.288 570.764 838.819C570.191 838.299 569.41 837.674 568.421 836.944ZM573.968 824.913C575.061 824.34 576.155 824.184 577.249 824.444C578.395 824.705 579.28 825.2 579.905 825.929C580.53 826.658 580.738 827.517 580.53 828.507C580.374 829.496 579.54 830.46 578.03 831.397C576.52 832.283 575.191 832.595 574.046 832.335C572.9 832.075 572.093 831.528 571.624 830.694C571.155 829.861 571.077 828.897 571.389 827.804C571.702 826.658 572.561 825.694 573.968 824.913ZM622.014 827.257C621.546 828.403 621.129 829.444 620.764 830.382C620.452 831.319 620.165 832.153 619.905 832.882C619.645 833.715 619.41 834.444 619.202 835.069C618.994 835.799 618.759 836.632 618.499 837.569C618.238 838.403 617.9 839.444 617.483 840.694C617.119 841.892 616.676 843.325 616.155 844.991C615.738 842.491 614.983 840.512 613.889 839.054C612.796 837.543 611.676 836.371 610.53 835.538C609.176 834.601 607.718 833.924 606.155 833.507C603.343 833.038 601.311 833.09 600.061 833.663C598.811 834.236 597.978 834.965 597.561 835.851C597.353 836.215 597.119 836.684 596.858 837.257C596.65 837.778 596.468 838.325 596.311 838.897C596.207 839.47 596.181 840.043 596.233 840.616C596.285 841.189 596.52 841.658 596.936 842.022C597.197 842.283 597.874 842.647 598.968 843.116C600.061 843.533 601.363 844.028 602.874 844.601C604.436 845.121 606.077 845.694 607.796 846.319C609.566 846.944 611.233 847.569 612.796 848.194C614.358 848.819 615.712 849.444 616.858 850.069C618.004 850.694 618.759 851.267 619.124 851.788C619.436 852.309 619.775 853.012 620.139 853.897C620.556 854.731 620.843 855.668 620.999 856.71C621.207 857.7 621.259 858.741 621.155 859.835C621.103 860.877 620.816 861.918 620.296 862.96C619.775 864.002 618.941 864.965 617.796 865.851C616.702 866.736 615.218 867.465 613.343 868.038C611.155 868.715 609.046 868.897 607.014 868.585C604.983 868.272 603.108 867.804 601.389 867.179C599.723 866.554 598.264 865.955 597.014 865.382C595.764 864.757 594.879 864.496 594.358 864.601C593.785 864.705 593.134 864.991 592.405 865.46C591.676 865.929 590.973 866.424 590.296 866.944C589.671 867.413 589.124 867.856 588.655 868.272C588.186 868.637 587.952 868.767 587.952 868.663C587.952 868.559 588.03 868.246 588.186 867.726C588.395 867.205 588.603 866.58 588.811 865.851C589.072 865.069 589.306 864.236 589.514 863.351C589.775 862.413 589.957 861.528 590.061 860.694C590.165 860.017 590.296 859.184 590.452 858.194C590.556 857.309 590.686 856.241 590.843 854.991C591.051 853.689 591.285 852.127 591.546 850.304C591.806 851.658 592.171 852.83 592.639 853.819C593.16 854.809 593.655 855.668 594.124 856.397C594.697 857.231 595.244 857.934 595.764 858.507C596.546 859.236 597.457 859.913 598.499 860.538C599.593 861.163 600.686 861.71 601.78 862.179C602.874 862.595 603.915 862.856 604.905 862.96C605.895 863.064 606.728 862.96 607.405 862.647C608.082 862.335 608.655 861.762 609.124 860.929C609.645 860.095 610.009 859.184 610.218 858.194C610.426 857.205 610.504 856.267 610.452 855.382C610.4 854.444 610.165 853.689 609.749 853.116C609.436 852.752 608.707 852.283 607.561 851.71C606.468 851.137 605.139 850.512 603.577 849.835C602.066 849.158 600.452 848.455 598.733 847.726C597.066 846.996 595.478 846.267 593.968 845.538C592.509 844.757 591.285 844.028 590.296 843.351C589.358 842.621 588.837 841.97 588.733 841.397C588.629 840.564 588.551 839.653 588.499 838.663C588.447 837.621 588.499 836.606 588.655 835.616C588.863 834.575 589.228 833.585 589.749 832.647C590.322 831.71 591.155 830.929 592.249 830.304C592.978 829.887 593.941 829.575 595.139 829.366C596.337 829.158 597.665 829.054 599.124 829.054C600.582 829.002 602.093 829.054 603.655 829.21C605.218 829.314 606.702 829.47 608.108 829.679C609.566 829.835 610.869 830.043 612.014 830.304C613.212 830.564 614.124 830.799 614.749 831.007C615.478 831.267 616.259 831.293 617.093 831.085C617.822 830.929 618.603 830.59 619.436 830.069C620.27 829.549 621.129 828.611 622.014 827.257ZM623.889 822.647C625.452 822.804 626.754 822.934 627.796 823.038C628.889 823.142 629.775 823.22 630.452 823.272C631.233 823.325 631.858 823.351 632.327 823.351C632.796 823.403 633.421 823.403 634.202 823.351C634.879 823.299 635.764 823.246 636.858 823.194C637.952 823.09 639.332 822.934 640.999 822.726C640.634 823.246 640.348 823.715 640.139 824.132C639.931 824.496 639.749 824.835 639.593 825.147L639.124 826.085C639.02 826.397 638.915 826.71 638.811 827.022C638.707 827.283 638.603 827.595 638.499 827.96C638.447 828.325 638.395 828.715 638.343 829.132H650.374L649.28 835.46L638.264 834.835C638.004 837.491 637.822 839.549 637.718 841.007C637.613 842.465 637.509 843.533 637.405 844.21L637.249 845.616C637.093 847.595 636.936 849.757 636.78 852.101C636.624 854.392 636.572 856.528 636.624 858.507C636.676 860.486 636.858 862.153 637.171 863.507C637.483 864.809 638.03 865.46 638.811 865.46C639.593 865.46 640.322 865.252 640.999 864.835C641.676 864.418 642.249 863.924 642.718 863.351C643.238 862.778 643.629 862.205 643.889 861.632C644.15 861.007 644.28 860.538 644.28 860.226C644.28 859.913 644.202 859.549 644.046 859.132C643.785 858.351 643.316 857.361 642.639 856.163C644.15 856.528 645.478 856.892 646.624 857.257C647.197 857.465 647.718 857.674 648.186 857.882C648.707 858.09 649.306 858.325 649.983 858.585C650.556 858.845 651.285 859.158 652.171 859.522C653.056 859.887 654.098 860.33 655.296 860.851C654.15 861.059 653.316 861.397 652.796 861.866C652.483 862.075 652.249 862.309 652.093 862.569C651.728 863.142 651.311 863.924 650.843 864.913C650.374 865.851 649.671 866.788 648.733 867.726C647.796 868.663 646.52 869.496 644.905 870.226C643.343 870.955 641.233 871.371 638.577 871.476C635.816 871.58 633.707 871.111 632.249 870.069C630.843 869.028 629.801 867.83 629.124 866.476C628.499 865.069 628.134 863.689 628.03 862.335C627.926 860.981 627.848 860.069 627.796 859.601C627.744 859.132 627.744 857.96 627.796 856.085C627.848 854.21 627.926 852.153 628.03 849.913C628.134 847.621 628.238 845.434 628.343 843.351C628.447 841.215 628.499 839.653 628.499 838.663C628.499 838.142 628.525 837.595 628.577 837.022C628.577 836.554 628.577 836.059 628.577 835.538C628.629 834.965 628.655 834.418 628.655 833.897L617.327 833.819L616.858 829.366L628.264 829.679C628.16 829.106 628.03 828.585 627.874 828.116C627.77 827.595 627.665 827.179 627.561 826.866C627.405 826.502 627.249 826.189 627.093 825.929C626.884 825.668 626.65 825.382 626.389 825.069C626.129 824.809 625.79 824.47 625.374 824.054C624.957 823.637 624.462 823.168 623.889 822.647ZM652.093 836.944L666.468 837.101C665.634 840.278 665.009 842.986 664.593 845.226C664.228 847.465 663.994 849.34 663.889 850.851C663.681 852.569 663.629 854.028 663.733 855.226C663.889 856.319 664.15 857.491 664.514 858.741C664.827 859.783 665.296 860.981 665.921 862.335C666.546 863.689 667.379 865.043 668.421 866.397C667.796 866.189 667.119 866.033 666.389 865.929C665.66 865.825 664.983 865.746 664.358 865.694C663.629 865.642 662.9 865.642 662.171 865.694C661.441 865.746 660.634 865.825 659.749 865.929C659.02 866.033 658.134 866.163 657.093 866.319C656.051 866.476 654.957 866.684 653.811 866.944C654.593 864.601 655.191 862.569 655.608 860.851C656.077 859.132 656.415 857.7 656.624 856.554C656.832 855.2 656.962 854.106 657.014 853.272C657.014 852.231 657.014 851.059 657.014 849.757C657.014 848.403 657.014 847.101 657.014 845.851C657.014 844.601 656.988 843.507 656.936 842.569C656.884 841.58 656.78 840.955 656.624 840.694L655.843 839.913C655.53 839.653 655.061 839.288 654.436 838.819C653.863 838.299 653.082 837.674 652.093 836.944ZM657.639 824.913C658.733 824.34 659.827 824.184 660.921 824.444C662.066 824.705 662.952 825.2 663.577 825.929C664.202 826.658 664.41 827.517 664.202 828.507C664.046 829.496 663.212 830.46 661.702 831.397C660.191 832.283 658.863 832.595 657.718 832.335C656.572 832.075 655.764 831.528 655.296 830.694C654.827 829.861 654.749 828.897 655.061 827.804C655.374 826.658 656.233 825.694 657.639 824.913ZM673.655 863.272C674.02 861.554 674.28 860.043 674.436 858.741C674.645 857.387 674.801 856.267 674.905 855.382C675.009 854.34 675.061 853.455 675.061 852.726C675.009 851.84 674.957 850.799 674.905 849.601C674.905 848.351 674.853 847.127 674.749 845.929C674.697 844.679 674.619 843.585 674.514 842.647C674.41 841.658 674.28 840.955 674.124 840.538C673.915 840.121 673.629 839.679 673.264 839.21C672.535 838.325 671.468 837.465 670.061 836.632C671.259 836.371 672.275 836.163 673.108 836.007C673.994 835.799 674.723 835.616 675.296 835.46C675.921 835.252 676.468 835.069 676.936 834.913C677.353 834.757 677.848 834.601 678.421 834.444C678.889 834.34 679.462 834.21 680.139 834.054C680.816 833.897 681.598 833.715 682.483 833.507L682.249 840.616C683.915 838.637 685.608 837.153 687.327 836.163C689.046 835.174 690.66 834.47 692.171 834.054C693.889 833.533 695.582 833.272 697.249 833.272C699.332 833.377 701.259 833.715 703.03 834.288C704.853 834.861 706.415 835.538 707.718 836.319C709.072 837.049 710.165 837.83 710.999 838.663C711.832 839.496 712.327 840.226 712.483 840.851C713.108 842.882 713.264 844.757 712.952 846.476C712.639 848.142 712.223 849.783 711.702 851.397C711.233 852.96 710.816 854.522 710.452 856.085C710.139 857.647 710.27 859.34 710.843 861.163C711.051 861.632 711.259 862.101 711.468 862.569C711.676 862.986 711.936 863.403 712.249 863.819C712.561 864.236 712.926 864.575 713.343 864.835C712.77 864.783 712.197 864.757 711.624 864.757C711.051 864.705 710.53 864.653 710.061 864.601C709.488 864.549 708.968 864.496 708.499 864.444C707.978 864.392 707.275 864.366 706.389 864.366C704.879 864.366 702.535 864.444 699.358 864.601C699.827 863.507 700.191 862.595 700.452 861.866C700.764 861.085 701.025 860.46 701.233 859.991C701.441 859.418 701.598 858.976 701.702 858.663C702.327 857.153 702.691 855.434 702.796 853.507C702.952 851.58 702.822 849.627 702.405 847.647C702.249 846.97 701.988 846.163 701.624 845.226C701.259 844.288 700.764 843.377 700.139 842.491C699.566 841.606 698.863 840.851 698.03 840.226C697.249 839.601 696.337 839.236 695.296 839.132C694.254 839.028 693.082 839.288 691.78 839.913C690.53 840.538 689.176 841.684 687.718 843.351C686.624 844.757 685.764 846.476 685.139 848.507C684.566 850.226 684.176 852.387 683.968 854.991C683.759 857.543 684.072 860.538 684.905 863.976C684.176 863.871 683.499 863.819 682.874 863.819C682.249 863.767 681.728 863.715 681.311 863.663C680.79 863.611 680.322 863.559 679.905 863.507C679.436 863.507 678.915 863.481 678.343 863.429C677.822 863.429 677.171 863.429 676.389 863.429C675.608 863.377 674.697 863.325 673.655 863.272ZM754.983 838.741C754.827 837.7 754.697 836.84 754.593 836.163C754.488 835.434 754.384 834.861 754.28 834.444C754.176 833.924 754.098 833.533 754.046 833.272C753.941 833.012 753.811 832.726 753.655 832.413C753.551 832.153 753.369 831.84 753.108 831.476C752.9 831.111 752.639 830.694 752.327 830.226C753.004 830.434 753.681 830.564 754.358 830.616C755.087 830.668 755.764 830.72 756.389 830.772C757.066 830.825 757.77 830.825 758.499 830.772C759.228 830.772 760.061 830.746 760.999 830.694C761.832 830.642 762.822 830.616 763.968 830.616C765.165 830.564 766.52 830.486 768.03 830.382C767.145 830.59 766.389 830.955 765.764 831.476C765.191 831.944 764.697 832.465 764.28 833.038C763.811 833.663 763.421 834.34 763.108 835.069C762.848 835.746 762.691 837.049 762.639 838.976C762.587 840.851 762.587 843.09 762.639 845.694C762.691 848.246 762.744 851.007 762.796 853.976C762.9 856.944 762.952 859.783 762.952 862.491C763.004 865.2 763.004 867.674 762.952 869.913C762.9 872.101 762.77 873.715 762.561 874.757C761.832 878.038 760.478 880.694 758.499 882.726C756.52 884.809 753.915 885.929 750.686 886.085C746.78 886.241 743.681 885.877 741.389 884.991C739.15 884.106 737.405 883.012 736.155 881.71C734.905 880.46 733.968 879.184 733.343 877.882C732.718 876.58 732.066 875.59 731.389 874.913C730.764 874.34 730.139 873.793 729.514 873.272C728.941 872.856 728.343 872.439 727.718 872.022C727.145 871.606 726.572 871.345 725.999 871.241C727.509 871.293 728.863 871.319 730.061 871.319C731.259 871.319 732.275 871.319 733.108 871.319C734.046 871.319 734.879 871.293 735.608 871.241H738.108H745.218C744.176 871.554 743.395 871.892 742.874 872.257C742.353 872.674 741.988 873.09 741.78 873.507C741.572 873.976 741.468 874.444 741.468 874.913C741.676 876.163 742.353 877.075 743.499 877.647C744.645 878.22 746.207 878.559 748.186 878.663C750.113 878.767 751.441 878.715 752.171 878.507C752.9 878.351 753.473 878.038 753.889 877.569C754.723 876.319 755.426 874.705 755.999 872.726C756.415 871.059 756.702 868.897 756.858 866.241C757.066 863.533 756.832 860.226 756.155 856.319C754.488 858.611 752.561 860.33 750.374 861.476C748.186 862.621 746.103 863.455 744.124 863.976C741.78 864.549 739.41 864.835 737.014 864.835C730.712 864.575 725.999 863.116 722.874 860.46C719.749 857.804 718.316 854.236 718.577 849.757C718.733 847.517 719.41 845.278 720.608 843.038C721.858 840.799 723.473 838.793 725.452 837.022C727.483 835.252 729.801 833.845 732.405 832.804C735.009 831.762 737.718 831.319 740.53 831.476C742.665 831.684 744.671 832.075 746.546 832.647C748.16 833.168 749.749 833.897 751.311 834.835C752.926 835.772 754.15 837.075 754.983 838.741ZM730.139 846.554C729.827 848.585 729.957 850.486 730.53 852.257C731.155 854.028 732.014 855.564 733.108 856.866C734.202 858.116 735.426 859.106 736.78 859.835C738.134 860.512 739.41 860.825 740.608 860.772C743.108 860.72 745.27 859.601 747.093 857.413C748.915 855.174 750.009 851.84 750.374 847.413C750.53 845.226 750.244 843.351 749.514 841.788C748.837 840.174 747.978 838.871 746.936 837.882C745.895 836.892 744.801 836.189 743.655 835.772C742.509 835.356 741.598 835.174 740.921 835.226C739.983 835.33 738.941 835.616 737.796 836.085C736.702 836.502 735.634 837.153 734.593 838.038C733.551 838.871 732.613 839.991 731.78 841.397C730.999 842.804 730.452 844.522 730.139 846.554Z" fill="#81C3C3"/>
<path d="M356.966 300.969C360.455 301.385 363.476 301.698 366.028 301.906C368.58 302.062 370.69 302.193 372.356 302.297C374.284 302.401 375.898 302.427 377.2 302.375C378.554 302.323 380.403 302.193 382.747 301.984C384.726 301.828 387.33 301.62 390.56 301.359C393.789 301.047 397.825 300.63 402.669 300.109C402.721 301.307 402.747 302.479 402.747 303.625C402.799 304.719 402.851 305.682 402.903 306.516C402.955 307.505 402.981 308.417 402.981 309.25C402.981 310.135 402.929 311.255 402.825 312.609C402.721 313.755 402.539 315.214 402.278 316.984C402.07 318.703 401.731 320.76 401.263 323.156C400.534 320.344 399.83 318.078 399.153 316.359C398.476 314.589 397.851 313.182 397.278 312.141C396.653 310.943 396.028 310.031 395.403 309.406C394.726 308.938 393.919 308.547 392.981 308.234C392.148 307.974 391.08 307.766 389.778 307.609C388.528 307.453 387.044 307.479 385.325 307.688C385.065 314.562 384.882 320.135 384.778 324.406C384.674 328.677 384.596 332.01 384.544 334.406C384.492 337.271 384.466 339.328 384.466 340.578C384.518 342.349 384.804 344.094 385.325 345.812C385.742 347.271 386.419 348.781 387.356 350.344C388.294 351.906 389.648 353.286 391.419 354.484H381.888C381.002 354.484 379.909 354.536 378.606 354.641C377.513 354.745 376.106 354.849 374.388 354.953C372.721 355.057 370.768 355.24 368.528 355.5C369.31 354.146 369.935 352.922 370.403 351.828C370.872 350.734 371.237 349.797 371.497 349.016C371.81 348.078 372.044 347.245 372.2 346.516C372.252 345.474 372.382 343.365 372.591 340.188C372.643 338.885 372.695 337.271 372.747 335.344C372.851 333.417 372.955 331.125 373.06 328.469C373.216 325.812 373.346 322.766 373.45 319.328C373.606 315.839 373.763 311.906 373.919 307.531C372.981 307.271 372.096 307.297 371.263 307.609C370.429 307.87 369.7 308.208 369.075 308.625C368.346 309.146 367.643 309.771 366.966 310.5C366.289 311.385 365.534 312.531 364.7 313.938C363.971 315.135 363.138 316.724 362.2 318.703C361.263 320.63 360.195 323.026 358.997 325.891C358.737 322.87 358.554 320.396 358.45 318.469C358.346 316.49 358.268 314.953 358.216 313.859C358.164 312.557 358.138 311.594 358.138 310.969C358.138 310.396 358.086 309.641 357.981 308.703C357.877 307.922 357.747 306.906 357.591 305.656C357.435 304.354 357.226 302.792 356.966 300.969ZM417.122 323C418.476 323 419.882 323.26 421.341 323.781C422.799 324.25 424.205 324.875 425.56 325.656C426.914 326.385 428.138 327.193 429.231 328.078C430.377 328.911 431.315 329.719 432.044 330.5C433.346 331.906 434.231 333.807 434.7 336.203C435.221 338.547 435.325 340.969 435.013 343.469C434.7 345.917 433.971 348.234 432.825 350.422C431.679 352.609 430.091 354.224 428.06 355.266C426.601 355.995 425.169 356.568 423.763 356.984C422.356 357.401 421.002 357.714 419.7 357.922C418.398 358.13 417.174 358.234 416.028 358.234C414.882 358.234 413.893 358.208 413.06 358.156C411.497 358.052 409.856 357.505 408.138 356.516C406.471 355.526 404.882 354.302 403.372 352.844C401.914 351.385 400.664 349.797 399.622 348.078C398.58 346.307 397.955 344.641 397.747 343.078C397.435 340.943 397.382 338.703 397.591 336.359C397.799 334.016 398.554 331.854 399.856 329.875C401.211 327.896 403.242 326.255 405.95 324.953C408.711 323.651 412.435 323 417.122 323ZM414.544 353.312C415.117 353.417 415.898 353.286 416.888 352.922C417.877 352.505 418.841 351.854 419.778 350.969C420.768 350.083 421.627 348.964 422.356 347.609C423.138 346.203 423.606 344.51 423.763 342.531C423.919 340.604 423.919 338.833 423.763 337.219C423.659 335.604 423.424 334.198 423.06 333C422.695 331.75 422.278 330.734 421.81 329.953C421.341 329.172 420.846 328.625 420.325 328.312C419.44 327.844 418.372 327.479 417.122 327.219C415.872 326.906 414.804 326.958 413.919 327.375C413.502 327.583 412.981 328.026 412.356 328.703C411.731 329.38 411.106 330.24 410.481 331.281C409.856 332.271 409.284 333.417 408.763 334.719C408.294 336.021 407.955 337.375 407.747 338.781C407.539 340.188 407.487 341.698 407.591 343.312C407.747 344.927 408.086 346.464 408.606 347.922C409.127 349.328 409.856 350.552 410.794 351.594C411.784 352.583 413.034 353.156 414.544 353.312ZM439.153 322.062C440.507 322.323 441.679 322.531 442.669 322.688C443.711 322.792 444.596 322.896 445.325 323C446.159 323.104 446.888 323.182 447.513 323.234C448.138 323.286 448.867 323.339 449.7 323.391C451.106 323.443 453.086 323.443 455.638 323.391C454.127 323.286 452.929 323.677 452.044 324.562C451.211 325.396 450.586 326.359 450.169 327.453C449.648 328.755 449.362 330.266 449.31 331.984C449.205 334.276 449.257 336.359 449.466 338.234C449.726 340.057 450.169 341.62 450.794 342.922C451.471 344.172 452.356 345.109 453.45 345.734C454.544 346.307 455.95 346.464 457.669 346.203C459.388 345.943 460.69 345.344 461.575 344.406C462.513 343.417 463.19 342.219 463.606 340.812C464.023 339.354 464.257 337.714 464.31 335.891C464.414 334.068 464.492 332.167 464.544 330.188C464.544 328.208 464.518 326.802 464.466 325.969C464.466 325.083 464.44 324.51 464.388 324.25C464.336 323.99 464.257 323.885 464.153 323.938C464.049 323.938 463.919 323.807 463.763 323.547C463.659 323.339 463.502 323.13 463.294 322.922C463.138 322.714 462.929 322.479 462.669 322.219C462.409 321.906 462.122 321.594 461.81 321.281C463.164 321.333 464.362 321.385 465.403 321.438C466.497 321.438 467.409 321.464 468.138 321.516C468.971 321.568 469.7 321.62 470.325 321.672C470.898 321.724 471.653 321.802 472.591 321.906C473.372 322.01 474.388 322.115 475.638 322.219C476.888 322.323 478.372 322.479 480.091 322.688C478.893 322.948 477.929 323.339 477.2 323.859C476.471 324.38 475.898 324.901 475.481 325.422C475.013 325.995 474.674 326.62 474.466 327.297C474.31 328.182 474.31 329.536 474.466 331.359C474.57 332.974 474.83 335.188 475.247 338C475.664 340.812 476.315 344.51 477.2 349.094L471.028 352.766L469.778 342.375C468.268 344.927 466.653 346.906 464.935 348.312C463.268 349.667 461.705 350.656 460.247 351.281C458.528 352.01 456.862 352.427 455.247 352.531C453.112 352.531 451.263 352.401 449.7 352.141C448.19 351.828 446.888 351.438 445.794 350.969C444.7 350.5 443.815 349.979 443.138 349.406C442.513 348.781 442.044 348.156 441.731 347.531C441.002 346.229 440.612 344.562 440.56 342.531C440.507 340.448 440.586 338.391 440.794 336.359C441.002 334.276 441.237 332.375 441.497 330.656C441.757 328.938 441.836 327.766 441.731 327.141C441.627 326.672 441.471 326.151 441.263 325.578C441.054 325.109 440.794 324.589 440.481 324.016C440.169 323.391 439.726 322.74 439.153 322.062ZM480.481 320.578C481.471 320.63 482.356 320.656 483.138 320.656C483.971 320.604 484.674 320.552 485.247 320.5C485.924 320.448 486.523 320.396 487.044 320.344C487.825 320.24 488.632 320.109 489.466 319.953C490.195 319.849 490.95 319.719 491.731 319.562C492.565 319.354 493.372 319.12 494.153 318.859C493.841 319.641 493.58 320.318 493.372 320.891C493.164 321.464 493.007 321.958 492.903 322.375C492.747 322.844 492.669 323.234 492.669 323.547C492.617 323.911 492.591 324.354 492.591 324.875C492.539 325.76 492.539 327.193 492.591 329.172C495.299 326.828 497.565 325.005 499.388 323.703C501.263 322.401 502.747 321.385 503.841 320.656C505.143 319.823 506.159 319.276 506.888 319.016C508.815 318.703 510.507 319.146 511.966 320.344C512.591 320.865 513.19 321.568 513.763 322.453C514.336 323.286 514.83 324.406 515.247 325.812C515.664 327.219 515.976 328.911 516.185 330.891C516.393 332.818 516.419 335.135 516.263 337.844C515.169 337.948 514.179 338.052 513.294 338.156C512.461 338.26 511.757 338.339 511.185 338.391C510.507 338.495 509.882 338.547 509.31 338.547L507.2 338.781C506.471 338.885 505.56 338.99 504.466 339.094C503.424 339.146 502.148 339.25 500.638 339.406C502.825 337.635 504.231 336.099 504.856 334.797C505.534 333.443 505.82 332.323 505.716 331.438C505.612 330.448 505.143 329.589 504.31 328.859C503.32 328.286 502.252 328.078 501.106 328.234C500.117 328.339 498.971 328.781 497.669 329.562C496.367 330.344 494.987 331.802 493.528 333.938C493.632 337.271 493.737 340.031 493.841 342.219C493.997 344.406 494.127 346.177 494.231 347.531C494.388 349.094 494.518 350.318 494.622 351.203C494.778 351.984 495.091 352.818 495.56 353.703C495.924 354.432 496.445 355.24 497.122 356.125C497.799 357.01 498.685 357.896 499.778 358.781C497.487 358.677 495.612 358.677 494.153 358.781C493.268 358.833 492.487 358.885 491.81 358.938C491.08 359.042 490.299 359.146 489.466 359.25C488.737 359.354 487.877 359.458 486.888 359.562C485.95 359.719 484.909 359.875 483.763 360.031C484.179 359.458 484.518 358.781 484.778 358C485.039 357.271 485.247 356.568 485.403 355.891C485.612 355.109 485.768 354.302 485.872 353.469C485.924 352.74 485.95 351.646 485.95 350.188C486.002 348.729 485.976 347.089 485.872 345.266C485.82 343.391 485.742 341.464 485.638 339.484C485.534 337.453 485.403 335.552 485.247 333.781C485.091 332.01 484.909 330.474 484.7 329.172C484.544 327.818 484.362 326.88 484.153 326.359C483.893 325.734 483.58 325.109 483.216 324.484C482.903 323.911 482.513 323.312 482.044 322.688C481.575 322.01 481.054 321.307 480.481 320.578ZM521.966 349.406C522.33 347.688 522.591 346.177 522.747 344.875C522.955 343.521 523.112 342.401 523.216 341.516C523.32 340.474 523.372 339.589 523.372 338.859C523.32 337.974 523.268 336.932 523.216 335.734C523.216 334.484 523.164 333.26 523.06 332.062C523.007 330.812 522.929 329.719 522.825 328.781C522.721 327.792 522.591 327.089 522.435 326.672C522.226 326.255 521.94 325.812 521.575 325.344C520.846 324.458 519.778 323.599 518.372 322.766C519.57 322.505 520.586 322.297 521.419 322.141C522.304 321.932 523.034 321.75 523.606 321.594C524.231 321.385 524.778 321.203 525.247 321.047C525.664 320.891 526.159 320.734 526.731 320.578C527.2 320.474 527.773 320.344 528.45 320.188C529.127 320.031 529.909 319.849 530.794 319.641L530.56 326.75C532.226 324.771 533.919 323.286 535.638 322.297C537.356 321.307 538.971 320.604 540.481 320.188C542.2 319.667 543.893 319.406 545.56 319.406C547.643 319.51 549.57 319.849 551.341 320.422C553.164 320.995 554.726 321.672 556.028 322.453C557.382 323.182 558.476 323.964 559.31 324.797C560.143 325.63 560.638 326.359 560.794 326.984C561.419 329.016 561.575 330.891 561.263 332.609C560.95 334.276 560.534 335.917 560.013 337.531C559.544 339.094 559.127 340.656 558.763 342.219C558.45 343.781 558.58 345.474 559.153 347.297C559.362 347.766 559.57 348.234 559.778 348.703C559.987 349.12 560.247 349.536 560.56 349.953C560.872 350.37 561.237 350.708 561.653 350.969C561.08 350.917 560.507 350.891 559.935 350.891C559.362 350.839 558.841 350.786 558.372 350.734C557.799 350.682 557.278 350.63 556.81 350.578C556.289 350.526 555.586 350.5 554.7 350.5C553.19 350.5 550.846 350.578 547.669 350.734C548.138 349.641 548.502 348.729 548.763 348C549.075 347.219 549.336 346.594 549.544 346.125C549.752 345.552 549.909 345.109 550.013 344.797C550.638 343.286 551.002 341.568 551.106 339.641C551.263 337.714 551.132 335.76 550.716 333.781C550.56 333.104 550.299 332.297 549.935 331.359C549.57 330.422 549.075 329.51 548.45 328.625C547.877 327.74 547.174 326.984 546.341 326.359C545.56 325.734 544.648 325.37 543.606 325.266C542.565 325.161 541.393 325.422 540.091 326.047C538.841 326.672 537.487 327.818 536.028 329.484C534.935 330.891 534.075 332.609 533.45 334.641C532.877 336.359 532.487 338.521 532.278 341.125C532.07 343.677 532.382 346.672 533.216 350.109C532.487 350.005 531.81 349.953 531.185 349.953C530.56 349.901 530.039 349.849 529.622 349.797C529.101 349.745 528.632 349.693 528.216 349.641C527.747 349.641 527.226 349.615 526.653 349.562C526.132 349.562 525.481 349.562 524.7 349.562C523.919 349.51 523.007 349.458 521.966 349.406ZM572.278 326.359C572.539 326.047 572.695 325.474 572.747 324.641C572.851 323.755 573.06 322.766 573.372 321.672C573.737 320.578 574.336 319.432 575.169 318.234C576.002 317.036 577.356 315.917 579.231 314.875C581.054 313.833 582.825 313.208 584.544 313C586.263 312.792 587.903 312.87 589.466 313.234C591.028 313.599 592.487 314.172 593.841 314.953C595.247 315.734 596.523 316.594 597.669 317.531C598.45 318.156 599.075 319.068 599.544 320.266C600.013 321.411 600.377 322.714 600.638 324.172C600.898 325.63 601.08 327.167 601.185 328.781C601.341 330.344 601.445 331.88 601.497 333.391C601.549 334.849 601.575 336.203 601.575 337.453C601.627 338.651 601.731 339.641 601.888 340.422C602.096 341.568 602.461 342.557 602.981 343.391C603.502 344.172 604.075 344.849 604.7 345.422C605.325 345.943 605.95 346.359 606.575 346.672C607.2 346.984 607.747 347.219 608.216 347.375C608.528 347.531 608.815 347.635 609.075 347.688C609.596 347.896 609.961 347.896 610.169 347.688C609.856 348.417 609.57 349.042 609.31 349.562C609.049 350.083 608.841 350.526 608.685 350.891C608.476 351.307 608.294 351.646 608.138 351.906C607.981 352.219 607.799 352.505 607.591 352.766C607.435 353.026 607.226 353.312 606.966 353.625C606.705 353.938 606.445 354.276 606.185 354.641C605.507 354.38 604.856 354.068 604.231 353.703C603.659 353.339 603.138 353 602.669 352.688C602.096 352.323 601.575 351.958 601.106 351.594C600.638 351.229 600.195 350.812 599.778 350.344C599.414 349.927 599.023 349.484 598.606 349.016C598.242 348.547 597.929 348.026 597.669 347.453C597.356 348.13 596.601 349.094 595.403 350.344C594.257 351.594 592.747 352.74 590.872 353.781C588.997 354.771 586.81 355.474 584.31 355.891C581.862 356.307 579.153 356.021 576.185 355.031C574.882 354.615 573.659 354.016 572.513 353.234C571.367 352.401 570.377 351.411 569.544 350.266C568.763 349.12 568.19 347.818 567.825 346.359C567.513 344.849 567.539 343.182 567.903 341.359C568.268 339.536 568.919 338 569.856 336.75C570.794 335.5 571.914 334.484 573.216 333.703C574.518 332.922 575.976 332.323 577.591 331.906C579.205 331.49 580.872 331.203 582.591 331.047C583.945 330.995 585.299 331.073 586.653 331.281C587.799 331.49 588.997 331.88 590.247 332.453C591.497 332.974 592.565 333.781 593.45 334.875C593.398 332.115 593.294 329.927 593.138 328.312C593.034 326.646 592.929 325.37 592.825 324.484C592.617 323.443 592.435 322.714 592.278 322.297C592.018 321.932 591.731 321.516 591.419 321.047C591.159 320.578 590.82 320.161 590.403 319.797C589.987 319.38 589.466 319.042 588.841 318.781C588.216 318.521 587.487 318.417 586.653 318.469C585.768 318.521 585.065 318.755 584.544 319.172C584.023 319.589 583.606 320.083 583.294 320.656C583.034 321.177 582.877 321.75 582.825 322.375C582.773 323 582.799 323.547 582.903 324.016C583.007 324.328 583.164 324.667 583.372 325.031C583.58 325.344 583.867 325.682 584.231 326.047C584.596 326.411 585.091 326.724 585.716 326.984C584.518 327.141 583.45 327.271 582.513 327.375C581.575 327.427 580.768 327.505 580.091 327.609C579.31 327.714 578.632 327.792 578.06 327.844C577.487 327.896 576.81 328 576.028 328.156C575.351 328.26 574.518 328.391 573.528 328.547C572.539 328.703 571.393 328.911 570.091 329.172C570.403 328.807 570.69 328.469 570.95 328.156C571.211 327.792 571.445 327.479 571.653 327.219C571.862 326.906 572.07 326.62 572.278 326.359ZM583.997 335.656C583.06 335.708 582.122 335.943 581.185 336.359C580.247 336.724 579.414 337.271 578.685 338C577.955 338.677 577.33 339.484 576.81 340.422C576.341 341.307 576.106 342.297 576.106 343.391C576.106 344.484 576.367 345.448 576.888 346.281C577.461 347.062 578.19 347.714 579.075 348.234C580.013 348.755 581.002 349.068 582.044 349.172C583.138 349.276 584.205 349.172 585.247 348.859C586.237 348.495 587.174 347.922 588.06 347.141C588.945 346.307 589.7 345.422 590.325 344.484C590.95 343.495 591.393 342.531 591.653 341.594C591.914 340.604 591.94 339.797 591.731 339.172C591.315 337.818 590.377 336.88 588.919 336.359C587.461 335.786 585.82 335.552 583.997 335.656ZM608.997 320.969C610.195 320.865 611.211 320.76 612.044 320.656C612.929 320.552 613.659 320.448 614.231 320.344C614.909 320.24 615.481 320.135 615.95 320.031C616.419 319.979 616.94 319.875 617.513 319.719C618.034 319.615 618.606 319.484 619.231 319.328C619.909 319.12 620.638 318.885 621.419 318.625L620.95 328.547C622.096 326.724 623.424 325.344 624.935 324.406C626.445 323.417 627.877 322.688 629.231 322.219C630.846 321.646 632.461 321.307 634.075 321.203C635.742 321.255 637.278 321.516 638.685 321.984C639.882 322.401 641.08 323.052 642.278 323.938C643.528 324.823 644.492 326.125 645.169 327.844C646.94 326.021 648.685 324.615 650.403 323.625C652.174 322.583 653.737 321.802 655.091 321.281C656.705 320.708 658.216 320.37 659.622 320.266C661.497 320.214 663.216 320.526 664.778 321.203C666.393 321.88 667.799 322.74 668.997 323.781C670.195 324.771 671.159 325.839 671.888 326.984C672.617 328.078 673.034 329.042 673.138 329.875C673.294 331.021 673.216 332.505 672.903 334.328C672.591 336.099 672.226 337.922 671.81 339.797C671.393 341.62 671.002 343.312 670.638 344.875C670.325 346.385 670.195 347.453 670.247 348.078C670.403 348.599 670.768 349.224 671.341 349.953C671.862 350.578 672.617 351.359 673.606 352.297C674.648 353.182 676.132 354.224 678.06 355.422C676.393 355.37 674.909 355.318 673.606 355.266C672.356 355.214 671.289 355.135 670.403 355.031C669.362 354.927 668.45 354.849 667.669 354.797C667.044 354.797 666.289 354.745 665.403 354.641C664.674 354.589 663.711 354.51 662.513 354.406C661.367 354.302 660.039 354.198 658.528 354.094C659.101 353.938 659.57 353.651 659.935 353.234C660.299 352.766 660.612 352.323 660.872 351.906C661.132 351.385 661.341 350.812 661.497 350.188C661.601 349.667 661.705 348.833 661.81 347.688C661.914 346.542 661.992 345.24 662.044 343.781C662.148 342.323 662.2 340.786 662.2 339.172C662.252 337.557 662.252 336.021 662.2 334.562C662.148 333.104 662.044 331.776 661.888 330.578C661.731 329.38 661.523 328.469 661.263 327.844C661.054 327.375 660.69 327.01 660.169 326.75C659.648 326.438 659.049 326.255 658.372 326.203C657.695 326.099 657.018 326.125 656.341 326.281C655.664 326.385 655.065 326.594 654.544 326.906C654.075 327.271 653.45 327.766 652.669 328.391C651.992 328.964 651.106 329.745 650.013 330.734C648.919 331.724 647.539 332.974 645.872 334.484C645.716 337.766 645.586 340.422 645.481 342.453C645.429 344.432 645.377 345.943 645.325 346.984C645.273 348.234 645.247 349.094 645.247 349.562C645.195 349.979 645.221 350.37 645.325 350.734C645.429 351.516 645.742 352.245 646.263 352.922C645.638 352.766 644.961 352.661 644.231 352.609C643.554 352.557 642.929 352.505 642.356 352.453C641.679 352.401 641.002 352.375 640.325 352.375C639.752 352.375 639.127 352.401 638.45 352.453C637.877 352.505 637.174 352.583 636.341 352.688C635.507 352.74 634.596 352.818 633.606 352.922C634.023 352.661 634.362 352.349 634.622 351.984C634.882 351.62 635.091 351.281 635.247 350.969C635.455 350.604 635.612 350.266 635.716 349.953C635.768 349.641 635.872 348.885 636.028 347.688C636.185 346.438 636.289 344.979 636.341 343.312C636.393 341.646 636.393 339.901 636.341 338.078C636.289 336.203 636.106 334.51 635.794 333C635.481 331.438 634.987 330.161 634.31 329.172C633.685 328.182 632.851 327.74 631.81 327.844C630.56 327.948 629.284 328.26 627.981 328.781C626.888 329.198 625.716 329.823 624.466 330.656C623.216 331.49 622.044 332.609 620.95 334.016C620.742 337.922 620.612 341.021 620.56 343.312C620.56 345.604 620.586 347.349 620.638 348.547C620.69 349.953 620.742 350.917 620.794 351.438C620.846 351.802 620.976 352.167 621.185 352.531C621.341 352.844 621.523 353.208 621.731 353.625C621.992 354.042 622.278 354.432 622.591 354.797L610.169 354.172C610.586 353.964 610.95 353.703 611.263 353.391C611.575 353.026 611.836 352.661 612.044 352.297C612.252 351.88 612.461 351.464 612.669 351.047C612.825 350.682 612.955 349.823 613.06 348.469C613.216 347.115 613.346 345.526 613.45 343.703C613.554 341.828 613.632 339.875 613.685 337.844C613.789 335.76 613.841 333.833 613.841 332.062C613.893 330.24 613.919 328.703 613.919 327.453C613.919 326.151 613.893 325.37 613.841 325.109C613.685 324.589 613.398 324.042 612.981 323.469C612.617 323.052 612.122 322.609 611.497 322.141C610.872 321.62 610.039 321.229 608.997 320.969ZM698.763 345.422C700.221 345.422 701.575 345.266 702.825 344.953C703.867 344.693 704.856 344.276 705.794 343.703C706.784 343.078 707.435 342.167 707.747 340.969C708.789 341.177 709.674 341.359 710.403 341.516C711.132 341.62 711.757 341.724 712.278 341.828C712.851 341.984 713.346 342.089 713.763 342.141C714.179 342.245 714.674 342.349 715.247 342.453C715.768 342.557 716.393 342.688 717.122 342.844C717.903 342.948 718.815 343.104 719.856 343.312C719.075 343.208 718.268 343.286 717.435 343.547C716.653 343.807 715.898 344.094 715.169 344.406C714.336 344.771 713.554 345.214 712.825 345.734C712.356 346.047 711.81 346.516 711.185 347.141C710.612 347.766 709.778 348.365 708.685 348.938C707.591 349.51 706.132 350.005 704.31 350.422C702.539 350.786 700.247 350.917 697.435 350.812C694.049 350.708 691.211 350.109 688.919 349.016C686.627 347.87 684.778 346.49 683.372 344.875C681.966 343.208 680.95 341.411 680.325 339.484C679.7 337.557 679.362 335.76 679.31 334.094C679.257 332.427 679.752 330.682 680.794 328.859C681.836 327.036 683.294 325.37 685.169 323.859C687.096 322.349 689.414 321.125 692.122 320.188C694.83 319.198 697.799 318.703 701.028 318.703C702.903 318.703 704.622 318.938 706.185 319.406C707.799 319.823 709.257 320.396 710.56 321.125C711.914 321.854 713.086 322.688 714.075 323.625C715.065 324.51 715.898 325.422 716.575 326.359C717.252 327.349 717.825 328.391 718.294 329.484C718.711 330.422 719.049 331.49 719.31 332.688C719.57 333.885 719.648 335.109 719.544 336.359C715.586 336.464 712.382 336.542 709.935 336.594C707.539 336.646 705.664 336.672 704.31 336.672H700.794H698.138C697.2 336.672 695.976 336.698 694.466 336.75C692.955 336.802 691.106 336.88 688.919 336.984C689.179 339.068 689.83 340.682 690.872 341.828C691.966 342.922 693.112 343.755 694.31 344.328C695.664 344.953 697.148 345.318 698.763 345.422ZM691.731 331.359C693.398 331.464 694.778 331.542 695.872 331.594C697.018 331.646 697.955 331.698 698.685 331.75C699.466 331.802 700.091 331.828 700.56 331.828H702.513C703.815 331.828 706.237 331.75 709.778 331.594C709.622 329.302 709.127 327.557 708.294 326.359C707.513 325.161 706.679 324.276 705.794 323.703C704.752 323.078 703.606 322.714 702.356 322.609C698.971 322.661 696.445 323.365 694.778 324.719C693.164 326.073 692.148 328.286 691.731 331.359ZM725.091 349.406C725.455 347.688 725.716 346.177 725.872 344.875C726.08 343.521 726.237 342.401 726.341 341.516C726.445 340.474 726.497 339.589 726.497 338.859C726.445 337.974 726.393 336.932 726.341 335.734C726.341 334.484 726.289 333.26 726.185 332.062C726.132 330.812 726.054 329.719 725.95 328.781C725.846 327.792 725.716 327.089 725.56 326.672C725.351 326.255 725.065 325.812 724.7 325.344C723.971 324.458 722.903 323.599 721.497 322.766C722.695 322.505 723.711 322.297 724.544 322.141C725.429 321.932 726.159 321.75 726.731 321.594C727.356 321.385 727.903 321.203 728.372 321.047C728.789 320.891 729.284 320.734 729.856 320.578C730.325 320.474 730.898 320.344 731.575 320.188C732.252 320.031 733.034 319.849 733.919 319.641L733.685 326.75C735.351 324.771 737.044 323.286 738.763 322.297C740.481 321.307 742.096 320.604 743.606 320.188C745.325 319.667 747.018 319.406 748.685 319.406C750.768 319.51 752.695 319.849 754.466 320.422C756.289 320.995 757.851 321.672 759.153 322.453C760.507 323.182 761.601 323.964 762.435 324.797C763.268 325.63 763.763 326.359 763.919 326.984C764.544 329.016 764.7 330.891 764.388 332.609C764.075 334.276 763.659 335.917 763.138 337.531C762.669 339.094 762.252 340.656 761.888 342.219C761.575 343.781 761.705 345.474 762.278 347.297C762.487 347.766 762.695 348.234 762.903 348.703C763.112 349.12 763.372 349.536 763.685 349.953C763.997 350.37 764.362 350.708 764.778 350.969C764.205 350.917 763.632 350.891 763.06 350.891C762.487 350.839 761.966 350.786 761.497 350.734C760.924 350.682 760.403 350.63 759.935 350.578C759.414 350.526 758.711 350.5 757.825 350.5C756.315 350.5 753.971 350.578 750.794 350.734C751.263 349.641 751.627 348.729 751.888 348C752.2 347.219 752.461 346.594 752.669 346.125C752.877 345.552 753.034 345.109 753.138 344.797C753.763 343.286 754.127 341.568 754.231 339.641C754.388 337.714 754.257 335.76 753.841 333.781C753.685 333.104 753.424 332.297 753.06 331.359C752.695 330.422 752.2 329.51 751.575 328.625C751.002 327.74 750.299 326.984 749.466 326.359C748.685 325.734 747.773 325.37 746.731 325.266C745.69 325.161 744.518 325.422 743.216 326.047C741.966 326.672 740.612 327.818 739.153 329.484C738.06 330.891 737.2 332.609 736.575 334.641C736.002 336.359 735.612 338.521 735.403 341.125C735.195 343.677 735.507 346.672 736.341 350.109C735.612 350.005 734.935 349.953 734.31 349.953C733.685 349.901 733.164 349.849 732.747 349.797C732.226 349.745 731.757 349.693 731.341 349.641C730.872 349.641 730.351 349.615 729.778 349.562C729.257 349.562 728.606 349.562 727.825 349.562C727.044 349.51 726.132 349.458 725.091 349.406ZM768.606 308.781C770.169 308.938 771.471 309.068 772.513 309.172C773.606 309.276 774.492 309.354 775.169 309.406C775.95 309.458 776.575 309.484 777.044 309.484C777.513 309.536 778.138 309.536 778.919 309.484C779.596 309.432 780.481 309.38 781.575 309.328C782.669 309.224 784.049 309.068 785.716 308.859C785.351 309.38 785.065 309.849 784.856 310.266C784.648 310.63 784.466 310.969 784.31 311.281L783.841 312.219C783.737 312.531 783.632 312.844 783.528 313.156C783.424 313.417 783.32 313.729 783.216 314.094C783.164 314.458 783.112 314.849 783.06 315.266H795.091L793.997 321.594L782.981 320.969C782.721 323.625 782.539 325.682 782.435 327.141C782.33 328.599 782.226 329.667 782.122 330.344L781.966 331.75C781.81 333.729 781.653 335.891 781.497 338.234C781.341 340.526 781.289 342.661 781.341 344.641C781.393 346.62 781.575 348.286 781.888 349.641C782.2 350.943 782.747 351.594 783.528 351.594C784.31 351.594 785.039 351.385 785.716 350.969C786.393 350.552 786.966 350.057 787.435 349.484C787.955 348.911 788.346 348.339 788.606 347.766C788.867 347.141 788.997 346.672 788.997 346.359C788.997 346.047 788.919 345.682 788.763 345.266C788.502 344.484 788.034 343.495 787.356 342.297C788.867 342.661 790.195 343.026 791.341 343.391C791.914 343.599 792.435 343.807 792.903 344.016C793.424 344.224 794.023 344.458 794.7 344.719C795.273 344.979 796.002 345.292 796.888 345.656C797.773 346.021 798.815 346.464 800.013 346.984C798.867 347.193 798.034 347.531 797.513 348C797.2 348.208 796.966 348.443 796.81 348.703C796.445 349.276 796.028 350.057 795.56 351.047C795.091 351.984 794.388 352.922 793.45 353.859C792.513 354.797 791.237 355.63 789.622 356.359C788.06 357.089 785.95 357.505 783.294 357.609C780.534 357.714 778.424 357.245 776.966 356.203C775.56 355.161 774.518 353.964 773.841 352.609C773.216 351.203 772.851 349.823 772.747 348.469C772.643 347.115 772.565 346.203 772.513 345.734C772.461 345.266 772.461 344.094 772.513 342.219C772.565 340.344 772.643 338.286 772.747 336.047C772.851 333.755 772.955 331.568 773.06 329.484C773.164 327.349 773.216 325.786 773.216 324.797C773.216 324.276 773.242 323.729 773.294 323.156C773.294 322.688 773.294 322.193 773.294 321.672C773.346 321.099 773.372 320.552 773.372 320.031L762.044 319.953L761.575 315.5L772.981 315.812C772.877 315.24 772.747 314.719 772.591 314.25C772.487 313.729 772.382 313.312 772.278 313C772.122 312.635 771.966 312.323 771.81 312.062C771.601 311.802 771.367 311.516 771.106 311.203C770.846 310.943 770.507 310.604 770.091 310.188C769.674 309.771 769.179 309.302 768.606 308.781Z" fill="#F0F7F7"/>
<path d="M412.771 1060.15L537.646 1060.35" stroke="#F0F7F7" stroke-width="6" stroke-linecap="round"/>
<path d="M578.374 1060.15L703.248 1060.35" stroke="#F0F7F7" stroke-width="6" stroke-linecap="round"/>
<path d="M743.976 1060.15L868.851 1060.35" stroke="#F0F7F7" stroke-width="6" stroke-linecap="round"/>
<path d="M909.579 1060.15L1034.45 1060.35" stroke="#F0F7F7" stroke-width="6" stroke-linecap="round"/>
</svg>
