<svg width="100%" height="100%" viewBox="0 0 3846 3475" fill="none" xmlns="http://www.w3.org/2000/svg preserveAspectRatio="none"">
<ellipse cx="3458.5" cy="96" rx="387.5" ry="360" fill="#F7E778"/>
<path d="M3846 3475H0V0H82V3052C82 3162.46 171.543 3252 282 3252H3564C3674.46 3252 3764 3162.46 3764 3052V0H3846V3475Z" fill="#B0D5D5"/>
<path d="M2944.69 78.0245C2925.37 78.7483 2910.3 94.9941 2911.02 114.311C2911.75 133.627 2927.99 148.699 2947.31 147.975L2944.69 78.0245ZM2946 113L2947.31 147.975L3374.31 131.975L3373 97L3371.69 62.0245L2944.69 78.0245L2946 113Z" fill="#F7E778"/>
<path d="M3045.41 361.724C3028.39 370.887 3022.02 392.112 3031.18 409.133C3040.34 426.153 3061.57 432.523 3078.59 423.361L3045.41 361.724ZM3062 392.542L3078.59 423.361L3454.84 220.818L3438.25 190L3421.66 159.182L3045.41 361.724L3062 392.542Z" fill="#F7E778"/>
<path d="M3309.33 565.519C3306.69 584.668 3320.07 602.331 3339.22 604.97C3358.37 607.609 3376.03 594.226 3378.67 575.077L3309.33 565.519ZM3344 570.298L3378.67 575.077L3437.01 151.779L3402.34 147L3367.67 142.221L3309.33 565.519L3344 570.298Z" fill="#F7E778"/>
<path d="M3607.66 551.074C3611.37 570.044 3629.75 582.416 3648.72 578.706C3667.7 574.996 3680.07 556.61 3676.36 537.639L3607.66 551.074ZM3642.01 544.356L3676.36 537.639L3594.35 118.283L3560 125L3525.65 131.717L3607.66 551.074L3642.01 544.356Z" fill="#F7E778"/>
</svg>
